<?xml version="1.0" encoding="utf-8" ?>
<svg baseProfile="full" height="200mm" version="1.1" viewBox="0,0,200,200" width="200mm" xmlns="http://www.w3.org/2000/svg" xmlns:ev="http://www.w3.org/2001/xml-events" xmlns:xlink="http://www.w3.org/1999/xlink"><defs /><rect fill="#1a1a1a" height="200" width="200" x="0" y="0" /><text alignment-baseline="middle" fill="#e1ed5e" style="dominant-baseline: central; font-size:9.0px; font-family:Arial;" text-anchor="middle" x="100.0" y="100.0">2024</text><line stroke="#e1ed5e" stroke-width="0.3" x1="100.0" x2="100.0" y1="15.0" y2="10.0" /><path d="M 100.0 14.0 a86.0,86.0 0 0,1 42.35913384403234,11.155469271406648" fill="none" id="id25" stroke="none" /><text fill="#e1ed5e" style="font-size:6.75px; font-family:Arial;" text-anchor="middle"><textPath startOffset="22.145653131862478" xlink:href="#id25">January</textPath></text><path d="M 100.0 79.0 l 0.0 -30.228984700195547 a51.22898470019555,51.22898470019555 0 0,0 0.8794136443624154,0.00754870846471518 l -0.5189207195135607 30.224530389925267" fill="#ffe515" stroke="none" /><path d="M 100.72087961077811 79.0123766808444 l 1.0288108605741138 -29.952705674501214 a50.97036918374768,50.97036918374768 0 0,0 0.8742006644119473,0.03754193798379778 l -1.5428372855868975 29.930631168091583" fill="#ffe015" stroke="none" /><path d="M 101.80034050326958 79.07731436759882 l 2.5892280650325015 -30.090754908241674 a51.20194750211685,51.20194750211685 0 0,0 0.8750667292403517,0.08286972906250935 l -3.105394357657866 30.04187342367398" fill="#ffe415" stroke="none" /><path d="M 102.51750503828377 79.15144685158666 l 3.642344506687842 -30.163837560492382 a51.382951961275424,51.382951961275424 0 0,0 0.874787852517905,0.1132588013713866 l -4.1596101810965385 30.0968671629206" fill="#ffe715" stroke="none" /><path d="M 103.23170211078529 79.25015418208739 l 4.618237399358033 -29.652397003853476 a51.009877786338414,51.009877786338414 0 0,0 0.8640648140530482,0.14218153633720504 l -5.126579716464151 29.568749469020602" fill="#ffe115" stroke="none" /><path d="M 104.29559338865022 79.4440306129975 l 6.104550482396989 -29.212483930420248 a50.843504384994645,50.843504384994645 0 0,0 0.8528091959611891,0.18586579500037692 l -6.605122094977312 29.103386677286153" fill="#ffde14" stroke="none" /><path d="M 105.3480935250658 79.69241777938227 l 7.7246009027075715 -29.331567822808747 a51.33167206156199,51.33167206156199 0 0,0 0.850195726863441,0.23172462600909646 l -8.226978030505705 29.19464270265551" fill="#ffe615" stroke="none" /><path d="M 106.04205211174951 79.88797359093562 l 8.639583977098052 -28.758365187355626 a51.02808651157508,51.02808651157508 0 0,0 0.8367618846141762,0.25923097079773605 l -9.131986494583858 28.605817628751243" fill="#ffe115" stroke="none" /><path d="M 106.72888874123014 80.10723608172694 l 9.572210040779028 -28.29853811530388 a50.873641634860945,50.873641634860945 0 0,0 0.8248657777009709,0.2869311360084165 l -10.056581590525017 28.130048546726872" fill="#ffdf14" stroke="none" /><path d="M 107.40779381753099 80.34994680014964 l 10.477692970673514 -27.793325429521033 a50.70271011909455,50.70271011909455 0 0,0 0.8117932147042748,0.31401905475209796 l -10.953258447871313 27.609366486630897" fill="#ffdc14" stroke="none" /><path d="M 108.4095320186766 80.7573450057729 l 11.925741558155096 -27.288430538612594 a50.78055998420097,50.78055998420097 0 0,0 0.7957715088707704,0.35593847411293417 l -12.392426469881498 27.07968831358981" fill="#ffdd14" stroke="none" /><path d="M 110.02825361518725 81.54914285379988 l 14.26766114930974 -26.25088951456358 a50.877673185463195,50.877673185463195 0 0,0 0.7637848649910385,0.4236585894993881 l -14.716190202456879 26.002098009631045" fill="#ffdf14" stroke="none" /><line stroke="#e1ed5e" stroke-width="0.3" x1="143.13028292997686" x2="145.6673583964461" y1="26.7553504044142" y2="22.446841604673864" /><path d="M 143.63769802327073 25.89364864446614 a86.0,86.0 0 0,1 29.32050498858742,28.57503671076993" fill="none" id="id26" stroke="none" /><text fill="#e1ed5e" style="font-size:6.75px; font-family:Arial;" text-anchor="middle"><textPath startOffset="20.669276256404974" xlink:href="#id26">February</textPath></text><path d="M 110.65571695917076 81.90426304109057 l 15.184651886306856 -25.786858584933775 a50.92550297969434,50.92550297969434 0 0,0 0.7494954679457285,0.4500504937475002 l -15.62508011081002 25.52239409065035" fill="#ffdf14" stroke="none" /><path d="M 111.8722381534696 82.67804972795209 l 16.905460788735592 -24.665572516581815 a50.90292748294442,50.90292748294442 0 0,0 0.7165312017897358,0.5001944274667274 l -17.32638708169909 24.37173327330996" fill="#ffdf14" stroke="none" /><path d="M 115.16444852881244 85.47280134310134 l 21.57629475683829 -20.66960230151787 a50.87923952741904,50.87923952741904 0 0,0 0.5987860587208145,0.6358900440714643 l -21.927936649295365 20.296170797501908" fill="#ffdf14" stroke="none" /><path d="M 116.35404254752997 86.82634096563983 l 23.738092199086136 -19.12172674420472 a51.481756099876335,51.481756099876335 0 0,0 0.548485573765048,0.6929936048420904 l -24.062844203492745 18.711413195447953" fill="#ffe915" stroke="none" /><path d="M 117.01052211995028 87.68569379921539 l 24.46830292006306 -17.713164372410773 a51.206854186955795,51.206854186955795 0 0,0 0.5093494614968064,0.7164638051758762 l -24.768767480089828 17.290523340525393" fill="#ffe415" stroke="none" /><path d="M 117.42321728460499 88.27688183743584 l 25.610811193921013 -17.23209674545844 a51.86841117154411,51.86841117154411 0 0,0 0.49071360437129025,0.7430029409039822 l -25.902849237213026 16.789913926215398" fill="#fff016" stroke="none" /><line stroke="#e1ed5e" stroke-width="0.3" x1="172.87174338648825" x2="177.1583165268699" y1="56.24261187166439" y2="53.66864786411523" /><path d="M 173.72905801456457 55.72781907015455 a86.0,86.0 0 0,1 12.242430191666344,42.057860355516425" fill="none" id="id27" stroke="none" /><text fill="#e1ed5e" style="font-size:6.75px; font-family:Arial;" text-anchor="middle"><textPath startOffset="22.145653131862474" xlink:href="#id27">March</textPath></text><path d="M 118.18653347947321 89.5 l 28.43652558603847 -16.417835701916996 a53.835671403833985,53.835671403833985 0 0,0 0.4552104291901779,0.8043132109581629 l -28.714169380250024 15.927265720859715" fill="#eeff19" stroke="none" /><path d="M 118.53625476483649 90.13048839642627 l 29.056347367931753 -15.470868368149604 a53.918370105923024,53.918370105923024 0 0,0 0.4279884395561872,0.8207242652400195 l -29.317643876462885 14.969797859805086" fill="#ecff1a" stroke="none" /><path d="M 118.8641267826498 90.77261029715802 l 32.046583495529966 -15.675589862441614 a56.67502811871991,56.67502811871991 0 0,0 0.41999094909419266,0.877619551872211 l -32.31095370258407 15.123157808504299" fill="#c0ff1e" stroke="none" /><path d="M 119.16976305983485 91.42560881287824 l 32.696966848826285 -14.62493738285171 a56.818716260714574,56.818716260714574 0 0,0 0.39060464263517175,0.8937798632170354 l -32.94320537347843 14.061495449858826" fill="#beff1f" stroke="none" /><path d="M 119.4528033332814 92.08871423366111 l 33.07119792032482 -13.449768287906089 a56.70154616937005,56.70154616937005 0 0,0 0.358951365677406,0.9047919258939984 l -33.29720796096835 12.880075344798525" fill="#c0ff1e" stroke="none" /><path d="M 119.71291397450082 92.76114493625339 l 34.25302853301922 -12.578186531206732 a57.48946067150978,57.48946067150978 0 0,0 0.33223386530284954,0.9293172511662684 l -34.46390256836601 11.988334323659547" fill="#b3ff20" stroke="none" /><path d="M 120.35273937422433 94.82641323984039 l 17.378795411121306 -4.417621834256227 a38.93147826064846,38.93147826064846 0 0,0 0.1590860212344515,0.6491252548744112 l -17.45206895887205 4.118640754773721" fill="#ff0000" stroke="none" /><path d="M 120.82617615685814 97.30363454192243 l 38.638833619598046 -5.002570588455444 a59.96132923778987,59.96132923778987 0 0,0 0.12340016927403381,1.0219304225848584 l -38.719015875131745 4.3385464889471725" fill="#8eff24" stroke="none" /><path d="M 120.9064616781168 98.02013634271609 l 38.57210776715577 -3.6528187088188955 a59.74468456602242,59.74468456602242 0 0,0 0.0879281791905691,1.021858725109304 l -38.62912956904408 2.9901389363339295" fill="#91ff24" stroke="none" /><path d="M 120.98066250479742 99.09900007780936 l 47.64442394044766 -2.0460565653417997 a68.68833693981874,68.68833693981874 0 0,0 0.04047807949029598,1.178475118901221 l -47.6725267069348 1.227875181876459" fill="#33ff51" stroke="none" /><line stroke="#e1ed5e" stroke-width="0.3" x1="184.99686870605535" x2="189.99668451229388" y1="99.2704041080226" y2="99.22748670261217" /><path d="M 185.99683186730306 99.26182062694052 a86.0,86.0 0 0,1 -10.086455211305974,41.156179273409016" fill="none" id="id28" stroke="none" /><text fill="#e1ed5e" style="font-size:6.75px; font-family:Arial;" text-anchor="middle"><textPath startOffset="21.40746469413373" xlink:href="#id28">April</textPath></text><path d="M 120.99303781780057 100.54070618675476 l 44.90527026056311 1.1566004719523064 a65.92016275377833,65.92016275377833 0 0,0 -0.03884679272842257,1.130981984719075 l -44.87879878083784 -1.927288721235492" fill="#39ff2e" stroke="none" /><path d="M 120.96210409425399 101.26102812881392 l 44.57674461567482 2.681626262257172 a65.65733176021068,65.65733176021068 0 0,0 -0.07733820515327197,1.1244805295256974 l -44.52414244935648 -3.446450215937213" fill="#3dff2e" stroke="none" /><path d="M 120.9064616781168 101.97986365728391 l 44.68317117565071 4.231542767252032 a65.88308969426666,65.88308969426666 0 0,0 -0.11629183385153656,1.1250180010662871 l -44.60394694931751 -4.99796529060125" fill="#39ff2e" stroke="none" /><path d="M 120.82617615685814 102.69636545807757 l 44.845580232210644 5.806158200854351 a66.21987991378339,66.21987991378339 0 0,0 -0.15563400889527162,1.126090159371352 l -44.73930170676016 -6.575136668425787" fill="#35ff2f" stroke="none" /><path d="M 120.65975698304385 103.76489593502545 l 44.35478404271334 8.082919188178174 a66.08525756916951,66.08525756916951 0 0,0 -0.2129635431044858,1.1143152473502695 l -44.20949420732669 -8.843137000561757" fill="#37ff2e" stroke="none" /><path d="M 120.51834098615036 104.47187691870673 l 44.92945187286763 9.7921649189883 a66.98415095874876,66.98415095874876 0 0,0 -0.25450512829952066,1.1213965546353306 l -44.75473588301045 -10.561995807562647" fill="#30ff35" stroke="none" /><path d="M 120.35273937422433 105.17358676015961 l 61.05821812267298 15.520760280478825 a84.0,84.0 0 0,0 -0.3672420767810789,1.394477982508787 l -60.78278656508717 -16.566618767360417" fill="#4dd2ff" stroke="none" /><path d="M 120.16314734710363 105.8691983318838 l 43.00330332448983 12.517634860901033 a65.78811538041005,65.78811538041005 0 0,0 -0.32494216320390196,1.081626779594779 l -42.7820848412823 -13.253999244086534" fill="#3bff2e" stroke="none" /><line stroke="#e1ed5e" stroke-width="0.3" x1="174.33088141563837" x2="178.70328620479359" y1="141.23008692659167" y2="143.65538615756765" /><path d="M 175.20536237346943 141.71514677278685 a86.0,86.0 0 0,1 -30.301960400862466,31.631185727798858" fill="none" id="id29" stroke="none" /><text fill="#e1ed5e" style="font-size:6.75px; font-family:Arial;" text-anchor="middle"><textPath startOffset="22.145653131862474" xlink:href="#id29">May</textPath></text><line stroke="#e1ed5e" stroke-width="0.3" x1="143.1302829299769" x2="145.66735839644613" y1="173.24464959558577" y2="177.55315839532614" /><path d="M 143.63769802327073 174.10635135553383 a86.0,86.0 0 0,1 -40.68552437913181,11.842963189579606" fill="none" id="id30" stroke="none" /><text fill="#e1ed5e" style="font-size:6.75px; font-family:Arial;" text-anchor="middle"><textPath startOffset="21.407464694133747" xlink:href="#id30">June</textPath></text><line stroke="#e1ed5e" stroke-width="0.3" x1="101.45913802915013" x2="101.54496967792366" y1="184.9874750549273" y2="189.98673829345242" /><path d="M 101.47630435890484 185.9873277026323 a86.0,86.0 0 0,1 -42.54439059252881,-10.42667462771756" fill="none" id="id31" stroke="none" /><text fill="#e1ed5e" style="font-size:6.75px; font-family:Arial;" text-anchor="middle"><textPath startOffset="22.145653131862474" xlink:href="#id31">July</textPath></text><line stroke="#e1ed5e" stroke-width="0.3" x1="58.13341422392154" x2="55.67067388415222" y1="173.97424548756322" y2="178.32567169271397" /><path d="M 57.64086615596768 174.84453072859336 a86.0,86.0 0 0,1 -31.369924170532247,-30.572349798747897" fill="none" id="id32" stroke="none" /><text fill="#e1ed5e" style="font-size:6.75px; font-family:Arial;" text-anchor="middle"><textPath startOffset="22.145653131862474" xlink:href="#id32">August</textPath></text><line stroke="#e1ed5e" stroke-width="0.3" x1="26.387840678322732" x2="22.057713659400548" y1="142.50000000000003" y2="145.00000000000006" /><path d="M 25.521815274538298 143.00000000000003 a86.0,86.0 0 0,1 -11.493303480769221,-40.785679425670985" fill="none" id="id33" stroke="none" /><text fill="#e1ed5e" style="font-size:6.75px; font-family:Arial;" text-anchor="middle"><textPath startOffset="21.40746469413373" xlink:href="#id33">September</textPath></text><line stroke="#e1ed5e" stroke-width="0.3" x1="15.003131293944662" x2="10.003315487706104" y1="100.72959589197737" y2="100.7725132973878" /><path d="M 14.003168132696942 100.73817937305945 a86.0,86.0 0 0,1 10.791469493833604,-42.45332614584628" fill="none" id="id34" stroke="none" /><text fill="#e1ed5e" style="font-size:6.75px; font-family:Arial;" text-anchor="middle"><textPath startOffset="22.145653131862435" xlink:href="#id34">October</textPath></text><line stroke="#e1ed5e" stroke-width="0.3" x1="26.387840678322718" x2="22.05771365940052" y1="57.49999999999999" y2="54.99999999999999" /><path d="M 25.521815274538284 56.99999999999999 a86.0,86.0 0 0,1 29.574782752854787,-30.34633250058573" fill="none" id="id35" stroke="none" /><text fill="#e1ed5e" style="font-size:6.75px; font-family:Arial;" text-anchor="middle"><textPath startOffset="21.40746469413373" xlink:href="#id35">November</textPath></text><line stroke="#e1ed5e" stroke-width="0.3" x1="56.869717070023135" x2="54.33264160355391" y1="26.7553504044142" y2="22.446841604673864" /><path d="M 56.362301976729285 25.89364864446614 a86.0,86.0 0 0,1 42.16139366436587,-11.88097634709845" fill="none" id="id36" stroke="none" /><text fill="#e1ed5e" style="font-size:6.75px; font-family:Arial;" text-anchor="middle"><textPath startOffset="22.145653131862474" xlink:href="#id36">December</textPath></text></svg>