<?xml version="1.0" encoding="utf-8" ?>
<svg baseProfile="full" height="200mm" version="1.1" viewBox="0,0,200,200" width="200mm" xmlns="http://www.w3.org/2000/svg" xmlns:ev="http://www.w3.org/2001/xml-events" xmlns:xlink="http://www.w3.org/1999/xlink"><defs /><rect fill="#1a1a1a" height="200" width="200" x="0" y="0" /><text alignment-baseline="middle" fill="#e1ed5e" style="dominant-baseline: central; font-size:9.0px; font-family:Arial;" text-anchor="middle" x="100.0" y="100.0">2024</text><line stroke="#e1ed5e" stroke-width="0.3" x1="100.0" x2="100.0" y1="15.0" y2="10.0" /><path d="M 100.0 14.0 a86.0,86.0 0 0,1 42.35913384403234,11.155469271406648" fill="none" id="id25" stroke="none" /><text fill="#e1ed5e" style="font-size:6.75px; font-family:Arial;" text-anchor="middle"><textPath startOffset="22.145653131862478" xlink:href="#id25">January</textPath></text><path d="M 100.0 79.0 l 0.0 -29.67117602128232 a50.67117602128232,50.67117602128232 0 0,0 0.8698381166401533,0.007466514075721408 l -0.5093451917912986 29.666803905401036" fill="#ffdf14" stroke="none" /><path d="M 100.72087961077811 79.0123766808444 l 1.0098264443695988 -29.399995110521793 a50.41733267899137,50.41733267899137 0 0,0 0.8647154500090628,0.037134602064972266 l -1.514367654979498 29.378327940030992" fill="#ffdb14" stroke="none" /><path d="M 101.80034050326958 79.07731436759882 l 2.5414496199181515 -29.535496952695482 a50.64463773455945,50.64463773455945 0 0,0 0.8655420283400589,0.08196772998445744 l -3.0480912116432237 29.48751746720584" fill="#ffdf14" stroke="none" /><path d="M 102.51750503828377 79.15144685158666 l 3.5751331399293265 -29.60723102714551 a50.822302159004906,50.822302159004906 0 0,0 0.8652428649719883,0.11202301163625968 l -4.082853826792106 29.541496419308853" fill="#ffe215" stroke="none" /><path d="M 103.23170211078529 79.25015418208739 l 4.5330180997952905 -29.105227968460017 a50.45611223819428,50.45611223819428 0 0,0 0.8546844872192855,0.14063800712634236 l -5.031980090067647 29.023123962838007" fill="#ffdc14" stroke="none" /><path d="M 104.29559338865022 79.4440306129975 l 5.99190458066669 -28.673432512365313 a50.292808887933276,50.292808887933276 0 0,0 0.8435722601962548,0.18385264784219937 l -6.483239257482079 28.566348406389395" fill="#ffd914" stroke="none" /><path d="M 105.3480935250658 79.69241777938227 l 7.58206057370197 -28.790318976379957 a50.77196851578662,50.77196851578662 0 0,0 0.8409254743308946,0.22919797745836898 l -8.075167448967557 28.655920504777445" fill="#ffe115" stroke="none" /><path d="M 106.04205211174951 79.88797359093562 l 8.480159670512135 -28.22769352067675 a50.473984961905586,50.473984961905586 0 0,0 0.8276756913299363,0.2564160448920043 l -8.9634759947137 28.077960887978097" fill="#ffdc14" stroke="none" /><path d="M 106.72888874123014 80.10723608172694 l 9.395576194486058 -27.776351534516362 a50.32239002188298,50.32239002188298 0 0,0 0.8159277780643105,0.2838220357660259 l -9.871009744595385 27.610971066181744" fill="#ffd914" stroke="none" /><path d="M 107.40779381753099 80.34994680014964 l 10.284350450837179 -27.280461425181972 a50.154612667063105,50.154612667063105 0 0,0 0.8030177115504845,0.3106245016129329 l -10.751140424881191 27.099897035431" fill="#ffd614" stroke="none" /><path d="M 108.4095320186766 80.7573450057729 l 11.705678522310826 -26.78488324652441 a50.2310259860586,50.2310259860586 0 0,0 0.787159876801065,0.35208660062369274 l -12.163751801967523 26.579992894990863" fill="#ffd814" stroke="none" /><path d="M 110.02825361518725 81.54914285379988 l 14.004383196185946 -25.766487734429663 a50.32634717918564,50.32634717918564 0 0,0 0.755508258910101,0.4190676956249289 l -14.444635643252148 25.522287123371587" fill="#ffd914" stroke="none" /><line stroke="#e1ed5e" stroke-width="0.3" x1="143.13028292997686" x2="145.6673583964461" y1="26.7553504044142" y2="22.446841604673864" /><path d="M 143.63769802327073 25.89364864446614 a86.0,86.0 0 0,1 29.32050498858742,28.57503671076993" fill="none" id="id26" stroke="none" /><text fill="#e1ed5e" style="font-size:6.75px; font-family:Arial;" text-anchor="middle"><textPath startOffset="20.669276256404974" xlink:href="#id26">February</textPath></text><path d="M 110.65571695917076 81.90426304109057 l 14.904452908654685 -25.311019463532823 a50.373294380944785,50.373294380944785 0 0,0 0.7413683446399758,0.4451703897136147 l -15.336754009852095 25.051435073283287" fill="#ffda14" stroke="none" /><path d="M 111.8722381534696 82.67804972795209 l 16.593508110122375 -24.210424235666384 a50.351135464776135,50.351135464776135 0 0,0 0.7087639432553701,0.4947722777740427 l -17.006667144551507 23.922007142087217" fill="#ffda14" stroke="none" /><path d="M 115.16444852881244 85.47280134310134 l 21.178152225968695 -20.28819076329321 a50.32788461778446,50.32788461778446 0 0,0 0.5922972896990499,0.6289991962316965 l -21.523305349404005 19.921650107117017" fill="#ffd914" stroke="none" /><path d="M 116.35404254752997 86.82634096563983 l 23.300058504576814 -18.76887780668631 a50.91928308698295,50.91928308698295 0 0,0 0.5424929978201702,0.6854221808977484 l -23.618817933038542 18.36613568187388" fill="#ffe415" stroke="none" /><path d="M 117.01052211995028 87.68569379921539 l 24.016794810794654 -17.386307320612957 a50.64945387744288,50.64945387744288 0 0,0 0.5038050563190932,0.7086649049485396 l -24.31171496564371 16.971465188954912" fill="#ffdf14" stroke="none" /><path d="M 117.42321728460499 88.27688183743584 l 25.13822063556579 -16.914116726750542 a51.29880329928112,51.29880329928112 0 0,0 0.4853246918180987,0.734843440454783 l -25.424869766304614 16.4800934079567" fill="#ffea16" stroke="none" /><line stroke="#e1ed5e" stroke-width="0.3" x1="172.87174338648825" x2="177.1583165268699" y1="56.24261187166439" y2="53.66864786411523" /><path d="M 173.72905801456457 55.72781907015455 a86.0,86.0 0 0,1 12.242430191666344,42.057860355516425" fill="none" id="id27" stroke="none" /><text fill="#e1ed5e" style="font-size:6.75px; font-family:Arial;" text-anchor="middle"><textPath startOffset="22.145653131862474" xlink:href="#id27">March</textPath></text><path d="M 118.18653347947321 89.5 l 27.91179275338308 -16.11488105973077 a53.22976211946153,53.22976211946153 0 0,0 0.45008713048882926,0.7952608330578799 l -28.184313248893282 15.633363456573772" fill="#f4ff19" stroke="none" /><path d="M 118.53625476483649 90.13048839642627 l 28.52017710286676 -15.185387901912774 a53.31093480093766,53.31093480093766 0 0,0 0.42316679365329174,0.8114781234633749 l -28.776651965494995 14.693563535344902" fill="#f3ff19" stroke="none" /><path d="M 118.8641267826498 90.77261029715802 l 31.45523507345716 -15.38633171635848 a56.016724821323145,56.016724821323145 0 0,0 0.41511258492141545,0.8674256470073183 l -31.71472691633849 14.844093567286059" fill="#c7ff1e" stroke="none" /><path d="M 119.16976305983485 91.42560881287824 l 32.093617048517075 -14.355066691473038 a56.15776151824095,56.15776151824095 0 0,0 0.3860608583335818,0.8833827955217701 l -32.33531178886763 13.802021826175418" fill="#c5ff1e" stroke="none" /><path d="M 119.4528033332814 92.08871423366111 l 32.4609425179363 -13.201582728424915 a56.04275354032859,56.04275354032859 0 0,0 0.3547808530570573,0.8942795097102367 l -32.682782045959485 12.642402201501113" fill="#c7ff1e" stroke="none" /><path d="M 119.71291397450082 92.76114493625339 l 33.620965075239354 -12.346084074518828 a56.81612883276963,56.81612883276963 0 0,0 0.3283426539955398,0.9184328405944567 l -33.82794789927884 11.767116277543455" fill="#bbff1f" stroke="none" /><path d="M 120.35273937422433 94.82641323984039 l 17.0581083948181 -4.336104448748774 a38.60059271160556,38.60059271160556 0 0,0 0.15773392088190927,0.6436082240306623 l -17.1300298422163 4.042640400110017" fill="#ff0000" stroke="none" /><path d="M 120.82617615685814 97.30363454192243 l 37.925839883623965 -4.910259274701714 a59.24238456245997,59.24238456245997 0 0,0 0.1219205840853442,1.009677334716153 l -38.004542553968975 4.258488263062148" fill="#96ff23" stroke="none" /><path d="M 120.9064616781168 98.02013634271609 l 37.86034530838036 -3.5854140639562257 a59.029737586260225,59.029737586260225 0 0,0 0.0868759686616338,1.0096304438058317 l -37.91631489973973 2.9349625727747317" fill="#99ff23" stroke="none" /><path d="M 120.98066250479742 99.09900007780936 l 46.76525206486593 -2.0083011421605628 a67.80835474750262,67.80835474750262 0 0,0 0.03995950543948113,1.163377401225667 l -46.79283625730226 1.205217476370776" fill="#32ff45" stroke="none" /><line stroke="#e1ed5e" stroke-width="0.3" x1="184.99686870605535" x2="189.99668451229388" y1="99.2704041080226" y2="99.22748670261217" /><path d="M 185.99683186730306 99.26182062694052 a86.0,86.0 0 0,1 -10.086455211305974,41.156179273409016" fill="none" id="id28" stroke="none" /><text fill="#e1ed5e" style="font-size:6.75px; font-family:Arial;" text-anchor="middle"><textPath startOffset="21.40746469413373" xlink:href="#id28">April</textPath></text><path d="M 120.99303781780057 100.54070618675476 l 44.0766433738611 1.1352579826927864 a65.09126105923714,65.09126105923714 0 0,0 -0.03835832044657533,1.1167606472031042 l -44.05066036641768 -1.8917248944600016" fill="#42ff2d" stroke="none" /><path d="M 120.96210409425399 101.26102812881392 l 43.75417993905964 2.632142813920285 a64.8332800270808,64.8332800270808 0 0,0 -0.0763675491688579,1.1103674045420227 l -43.70254842872571 -3.382853642616651" fill="#46ff2c" stroke="none" /><path d="M 120.9064616781168 101.97986365728391 l 43.858642633579585 4.153459057058803 a65.0548721005828,65.0548721005828 0 0,0 -0.11482992696094359,1.110875378034823 l -43.78088031413698 -4.905738957376557" fill="#43ff2d" stroke="none" /><path d="M 120.82617615685814 102.69636545807757 l 44.018054792222436 5.699018465011394 a65.38544760566955,65.38544760566955 0 0,0 -0.1536728750872283,1.1119003720740643 l -43.91373740058 -6.453807145285544" fill="#3eff2d" stroke="none" /><path d="M 120.65975698304385 103.76489593502545 l 43.53631515479905 7.933766892167027 a65.25330941700554,65.25330941700554 0 0,0 -0.2102825423384885,1.100287118459482 l -43.3937063201784 -8.679956575659824" fill="#40ff2d" stroke="none" /><path d="M 120.51834098615036 104.47187691870673 l 44.10037876829403 9.611472294630135 a66.13561572835184,66.13561572835184 0 0,0 -0.2512811333008854,1.1071910378043448 l -43.92888677343548 -10.367097666373496" fill="#34ff2f" stroke="none" /><path d="M 120.35273937422433 105.17358676015961 l 59.931524509718685 15.234359169966945 a82.83747512130947,82.83747512130947 0 0,0 -0.3621595999863172,1.375178990277208 l -59.66117542892764 -16.260918664616955" fill="#4be0ff" stroke="none" /><path d="M 120.16314734710363 105.8691983318838 l 42.20977300733753 12.286649750612755 a64.96165032645149,64.96165032645149 0 0,0 -0.3208600681189029,1.0680388126862905 l -41.992636619215 -13.009426166889769" fill="#44ff2d" stroke="none" /><path d="M 119.94978838288452 106.5578916946017 l 41.84306232327448 13.754645694483655 a65.04579597158178,65.04579597158178 0 0,0 -0.3577970333403443,1.057763352704313 l -41.60077986836177 -14.470910721662127" fill="#43ff2d" stroke="none" /><path d="M 119.71291397450082 107.23885506374661 l 43.916073860265 16.12659062249569 a67.78342087113572,67.78342087113572 0 0,0 -0.4104748229000144,1.0888332350849217 l -43.632768353550546 -16.87809213777477" fill="#31ff44" stroke="none" /><path d="M 119.4528033332814 107.91128576633889 l 43.307308862615194 17.61270549613145 a67.7517956426853,67.7517956426853 0 0,0 -0.4474010972326668,1.0735997627077978 l -42.99858192084604 -18.35353776828053" fill="#31ff44" stroke="none" /><path d="M 119.16976305983485 108.57439118712176 l 43.16415706290862 19.306778428326172 a68.28526354195274,68.28526354195274 0 0,0 -0.4878023977504557,1.0659362734012252 l -42.82637020030311 -20.044903683942085" fill="#32ff4c" stroke="none" /><path d="M 118.5362547648365 109.86951160357373 l 41.34138537692771 22.011959150422264 a67.83627323478578,67.83627323478578 0 0,0 -0.5561109477206135,1.0231815077245014 l -40.957429079591755 -22.71839549162137" fill="#32ff45" stroke="none" /><line stroke="#e1ed5e" stroke-width="0.3" x1="174.33088141563837" x2="178.70328620479359" y1="141.23008692659167" y2="143.65538615756765" /><path d="M 175.20536237346943 141.71514677278685 a86.0,86.0 0 0,1 -30.301960400862466,31.631185727798858" fill="none" id="id29" stroke="none" /><text fill="#e1ed5e" style="font-size:6.75px; font-family:Arial;" text-anchor="middle"><textPath startOffset="22.145653131862474" xlink:href="#id29">May</textPath></text><path d="M 118.18653347947321 110.5 l 43.140896078061985 24.907407963750746 a70.81481592750151,70.81481592750151 0 0,0 -0.6168519783553071,1.047549515970747 l -42.70697038957692 -25.64430864801504" fill="#37ff74" stroke="none" /><path d="M 117.81537515405839 111.11811171558189 l 39.924051821513906 24.915561106730628 a68.06075965292268,68.06075965292268 0 0,0 -0.6270739470163321,0.9858643989238409 l -39.49046018287168 -25.59723918033314" fill="#32ff49" stroke="none" /><path d="M 117.423217284605 111.72311816256416 l 38.85026044149297 26.140189057071694 a67.82576449254496,67.82576449254496 0 0,0 -0.6582660434251281,0.9604298298763063 l -38.39580466125253 -26.803253622018044" fill="#32ff45" stroke="none" /><path d="M 116.79662413953412 112.60449989151573 l 37.397789360047895 28.063998337747325 a67.75663216827743,67.75663216827743 0 0,0 -0.7061145224361546,0.924326576449615 l -36.91052286025744 -28.70184582743782" fill="#31ff44" stroke="none" /><path d="M 116.35404254752997 113.17365903436017 l 48.198308461075136 38.82514551700367 a82.89078172818192,82.89078172818192 0 0,0 -0.9021405628463157,1.1004648006688276 l -47.52472107899019 -39.64681259937099" fill="#4be0ff" stroke="none" /><path d="M 115.89218393027572 113.72728997021213 l 35.49413382005414 30.658987419669437 a67.90210064842896,67.90210064842896 0 0,0 -0.7695213661093642,0.8755740555436377 l -34.96260138998619 -31.26377375302437" fill="#32ff46" stroke="none" /><path d="M 115.41159269507618 114.26474011684316 l 34.329975338708785 31.775312656736073 a67.77838925390319,67.77838925390319 0 0,0 -0.7976682620407209,0.8470960519472863 l -33.779451242931806 -32.359950168627854" fill="#31ff44" stroke="none" /><path d="M 114.65682725009322 115.03919595460226 l 33.46375313132101 34.336758708483174 a68.94617578325295,68.94617578325295 0 0,0 -0.854694597654641,0.8187780905791644 l -32.86938604780106 -34.906148929367916" fill="#33ff57" stroke="none" /><path d="M 114.13192950727249 115.5334660781643 l 35.39723395160426 38.90776079551868 a73.60017130719163,73.60017130719163 0 0,0 -0.941854288668235,0.8422119126888873 l -34.724114636112645 -39.50966823809095" fill="#3bff9f" stroke="none" /><path d="M 113.59037401385872 116.0094264158162 l 30.29125034760515 35.683016743213265 a67.80638344839011,67.80638344839011 0 0,0 -0.8938355831511644,0.7456694338288344 l -29.67424043029209 -36.197748360953966" fill="#32ff45" stroke="none" /><path d="M 112.7482090630111 116.68781488649013 l 37.59559055731302 49.21383487419274 a82.93084830984824,82.93084830984824 0 0,0 -1.138707725582827,0.8545075060526376 l -36.74522984281943 -49.85196140750939" fill="#4bdfff" stroke="none" /><path d="M 112.16784306229584 117.11559508785304 l 25.9321493904835 36.47681568975509 a65.75527292816699,65.75527292816699 0 0,0 -0.9255991170845445,0.6461400693750653 l -25.302155182225196 -36.91660057493527" fill="#39ff2e" stroke="none" /><path d="M 111.27062007382361 117.71928675628689 l 24.182687524535993 38.019201426205505 a66.05842932233364,66.05842932233364 0 0,0 -0.9620493944085216,0.6003899749764834 l -23.526474001337757 -38.42872719802354" fill="#35ff2f" stroke="none" /><line stroke="#e1ed5e" stroke-width="0.3" x1="143.1302829299769" x2="145.66735839644613" y1="173.24464959558577" y2="177.55315839532614" /><path d="M 143.63769802327073 174.10635135553383 a86.0,86.0 0 0,1 -40.68552437913181,11.842963189579606" fill="none" id="id30" stroke="none" /><text fill="#e1ed5e" style="font-size:6.75px; font-family:Arial;" text-anchor="middle"><textPath startOffset="21.407464694133747" xlink:href="#id30">June</textPath></text><path d="M 109.71004243097381 118.62028667847754 l 22.301227710905135 42.765544662755474 a69.23107471035428,69.23107471035428 0 0,0 -1.058486357190857,0.5404706759955421 l -21.563814132000697 -43.14207329042385" fill="#34ff5b" stroke="none" /><path d="M 109.06512990194946 118.94263497670748 l 20.69036291292594 43.23490081602444 a68.93065580648832,68.93065580648832 0 0,0 -1.0717446229074776,0.5016305990791441 l -19.945129576146957 -43.58370764667412" fill="#33ff57" stroke="none" /><path d="M 108.4095320186766 119.2426549942271 l 25.228596056029783 57.7279649826813 a84.0,84.0 0 0,0 -1.3262596993182754,0.5661014013623844 l -24.233901281541076 -58.15254103370309" fill="#4dd2ff" stroke="none" /><line stroke="#e1ed5e" stroke-width="0.3" x1="101.45913802915013" x2="101.54496967792366" y1="184.9874750549273" y2="189.98673829345242" /><path d="M 101.47630435890484 185.9873277026323 a86.0,86.0 0 0,1 -42.54439059252881,-10.42667462771756" fill="none" id="id31" stroke="none" /><text fill="#e1ed5e" style="font-size:6.75px; font-family:Arial;" text-anchor="middle"><textPath startOffset="22.145653131862474" xlink:href="#id31">July</textPath></text><line stroke="#e1ed5e" stroke-width="0.3" x1="58.13341422392154" x2="55.67067388415222" y1="173.97424548756322" y2="178.32567169271397" /><path d="M 57.64086615596768 174.84453072859336 a86.0,86.0 0 0,1 -31.369924170532247,-30.572349798747897" fill="none" id="id32" stroke="none" /><text fill="#e1ed5e" style="font-size:6.75px; font-family:Arial;" text-anchor="middle"><textPath startOffset="22.145653131862474" xlink:href="#id32">August</textPath></text><line stroke="#e1ed5e" stroke-width="0.3" x1="26.387840678322732" x2="22.057713659400548" y1="142.50000000000003" y2="145.00000000000006" /><path d="M 25.521815274538298 143.00000000000003 a86.0,86.0 0 0,1 -11.493303480769221,-40.785679425670985" fill="none" id="id33" stroke="none" /><text fill="#e1ed5e" style="font-size:6.75px; font-family:Arial;" text-anchor="middle"><textPath startOffset="21.40746469413373" xlink:href="#id33">September</textPath></text><line stroke="#e1ed5e" stroke-width="0.3" x1="15.003131293944662" x2="10.003315487706104" y1="100.72959589197737" y2="100.7725132973878" /><path d="M 14.003168132696942 100.73817937305945 a86.0,86.0 0 0,1 10.791469493833604,-42.45332614584628" fill="none" id="id34" stroke="none" /><text fill="#e1ed5e" style="font-size:6.75px; font-family:Arial;" text-anchor="middle"><textPath startOffset="22.145653131862435" xlink:href="#id34">October</textPath></text><line stroke="#e1ed5e" stroke-width="0.3" x1="26.387840678322718" x2="22.05771365940052" y1="57.49999999999999" y2="54.99999999999999" /><path d="M 25.521815274538284 56.99999999999999 a86.0,86.0 0 0,1 29.574782752854787,-30.34633250058573" fill="none" id="id35" stroke="none" /><text fill="#e1ed5e" style="font-size:6.75px; font-family:Arial;" text-anchor="middle"><textPath startOffset="21.40746469413373" xlink:href="#id35">November</textPath></text><line stroke="#e1ed5e" stroke-width="0.3" x1="56.869717070023135" x2="54.33264160355391" y1="26.7553504044142" y2="22.446841604673864" /><path d="M 56.362301976729285 25.89364864446614 a86.0,86.0 0 0,1 42.16139366436587,-11.88097634709845" fill="none" id="id36" stroke="none" /><text fill="#e1ed5e" style="font-size:6.75px; font-family:Arial;" text-anchor="middle"><textPath startOffset="22.145653131862474" xlink:href="#id36">December</textPath></text></svg>