<?xml version="1.0" encoding="utf-8" ?>
<svg baseProfile="full" height="200mm" version="1.1" viewBox="0,0,200,200" width="200mm" xmlns="http://www.w3.org/2000/svg" xmlns:ev="http://www.w3.org/2001/xml-events" xmlns:xlink="http://www.w3.org/1999/xlink"><defs /><rect fill="#1a1a1a" height="200" width="200" x="0" y="0" /><text alignment-baseline="middle" fill="#e1ed5e" style="dominant-baseline: central; font-size:9.0px; font-family:Arial;" text-anchor="middle" x="100.0" y="100.0">2023</text><line stroke="#e1ed5e" stroke-width="0.3" x1="100.0" x2="100.0" y1="15.0" y2="10.0" /><path d="M 100.0 14.0 a86.0,86.0 0 0,1 42.46469731375804,11.215312516191453" fill="none" id="id13" stroke="none" /><text fill="#e1ed5e" style="font-size:6.75px; font-family:Arial;" text-anchor="middle"><textPath startOffset="22.20632615414155" xlink:href="#id13">January</textPath></text><path d="M 100.72285384407766 79.0124445844662 l 0.7414713011422276 -21.528100250482403 a42.540865351355734,42.540865351355734 0 0,0 0.7316201676063412,0.03150510342103294 l -1.1119323011379003 21.512147420537175" fill="#ff3805" stroke="none" /><path d="M 101.44485096284872 79.0497635885617 l 1.9173221164156296 -27.801034604004677 a48.8670710544033,48.8670710544033 0 0,0 0.8386748488159291,0.06509730954117175 l -2.3955871545939 27.76391203227504" fill="#ffb010" stroke="none" /><path d="M 103.2404852339499 79.25152402106235 l 3.219870650274618 -20.61648303241182 a41.86640696502933,41.86640696502933 0 0,0 0.7110726003966636,0.11733307177059536 l -3.574272456810157 20.5580036977016" fill="#ff2a04" stroke="none" /><path d="M 104.66035177308747 79.52364482259891 l 4.4945587084449405 -19.747904227158486 a41.25292026717832,41.25292026717832 0 0,0 0.6910381044579502,0.16354639277949543 l -4.833820499865415 19.667611922238123" fill="#ff1e03" stroke="none" /><path d="M 105.36241919743992 79.69619591428918 l 5.691203713140712 -21.54868557434772 a43.287567154953635,43.287567154953635 0 0,0 0.7187840970144143,0.19647084594060696 l -6.061285699378836 21.447528187580815" fill="#ff4606" stroke="none" /><path d="M 109.08828744355905 81.06846463323043 l 11.289866776032929 -23.517578364894202 a47.08711528646876,47.08711528646876 0 0,0 0.7276724697167349,0.357065720643163 l -11.693010512760095 23.319757484116206" fill="#ff8f0d" stroke="none" /><path d="M 109.73455568895987 81.39251694778311 l 12.407920724644962 -23.717587322339448 a47.76715235324578,47.76715235324578 0 0,0 0.7252758638604407,0.38741724858045495 l -12.814341635033713 23.50049134725724" fill="#ff9c0e" stroke="none" /><path d="M 110.05341064243156 81.56283822128135 l 12.480147711113956 -22.887606062857568 a47.06907359650084,47.06907359650084 0 0,0 0.7079993570871488,0.3940008756843587 l -12.87227115727314 22.669389789613028" fill="#ff8f0d" stroke="none" /><line stroke="#e1ed5e" stroke-width="0.3" x1="143.23703022742887" x2="145.7803849466894" y1="26.81831364943548" y2="22.513508569990506" /><path d="M 143.74570117128098 25.957352633546492 a86.0,86.0 0 0,1 28.547481713284135,27.462654790039103" fill="none" id="id14" stroke="none" /><text fill="#e1ed5e" style="font-size:6.75px; font-family:Arial;" text-anchor="middle"><textPath startOffset="19.985693538727396" xlink:href="#id14">February</textPath></text><path d="M 110.68208982089419 81.91981866633111 l 12.646239067613767 -21.404640792680087 a45.86133564430731,45.86133564430731 0 0,0 0.6762099623525109,0.4074089361524772 l -13.012811096183915 21.183785247068997" fill="#ff780b" stroke="none" /><path d="M 111.2981086023043 82.29822771554956 l 13.73651306588739 -21.522241893224784 a46.53230673714725,46.53230673714725 0 0,0 0.6714677765559957,0.4367413199633603 l -14.104947868227667 21.282601649101895" fill="#ff850c" stroke="none" /><path d="M 111.60114157652 82.49532879139004 l 10.374246611880658 -15.653440205018223 a39.779115607935275,39.779115607935275 0 0,0 0.5675064903236604,0.3831829155609215 l -10.64215779661086 15.47254537715863" fill="#ff0000" stroke="none" /><path d="M 112.19680574252982 82.90503203632743 l 14.663759796414261 -20.552635602991675 a46.24750842353154,46.24750842353154 0 0,0 0.6440619259728291,0.46793837988829795 l -15.01536703874088 20.297177988286702" fill="#ff7f0b" stroke="none" /><path d="M 112.77801427241765 83.33499621200491 l 12.181354006536724 -15.886843318060793 a41.01941997274599,41.01941997274599 0 0,0 0.5566285380226503,0.4344574030222439 l -12.453015099718804 15.674807525815323" fill="#ff1902" stroke="none" /><path d="M 114.42810811169701 84.74124197986012 l 22.25940824825054 -23.540918982732208 a53.39839690654224,53.39839690654224 0 0,0 0.6624370075423364,0.6372638764075743 l -22.661328499405293 23.15427201956233" fill="#ffff18" stroke="none" /><path d="M 114.68862486808459 84.99185889309783 l 18.151868024931325 -18.546718914713466 a46.95132164834605,46.95132164834605 0 0,0 0.5727260829112016,0.5702666150994311 l -18.46842990800985 18.23151644896392" fill="#ff8c0c" stroke="none" /><path d="M 115.19652480421416 85.50635884689758 l 23.306983818831927 -22.228967753050885 a53.207801882423915,53.207801882423915 0 0,0 0.6264146357836528,0.6682154579565938 l -23.686165776586044 21.824482878216234" fill="#fffc17" stroke="none" /><path d="M 115.9244219780498 86.31012108654704 l 16.532498869880857 -14.212629380045115 a42.801888743343625,42.801888743343625 0 0,0 0.47548696983463323,0.5628265959735728 l -16.77469645320261 13.925943834442437" fill="#ff3d05" stroke="none" /><path d="M 116.38621287248628 86.86637796730983 l 15.244242651774695 -12.218327854094646 a40.53649071804688,40.53649071804688 0 0,0 0.43170574933961126,0.5482224612560654 l -15.45230248170827 11.954112998885542" fill="#ff0f01" stroke="none" /><path d="M 116.82858285166822 87.43820079747576 l 15.317984916153643 -11.43420408005078 a40.1149597131608,40.1149597131608 0 0,0 0.4082888899148627,0.556905586999585 l -15.512536418582132 11.1688360493797" fill="#ff0701" stroke="none" /><path d="M 117.45458315368197 88.32363383020206 l 21.251682496772435 -14.216462482763795 a46.56837528016699,46.56837528016699 0 0,0 0.43996773054761745,0.6701010380750043 l -21.493246862677978 13.848543380711117" fill="#ff850c" stroke="none" /><line stroke="#e1ed5e" stroke-width="0.3" x1="172.23445277983987" x2="176.4835382374775" y1="55.19839476539836" y2="52.563006222186495" /><path d="M 173.08426987136738 54.67131705675599 a86.0,86.0 0 0,1 12.851231095245387,41.99856678651699" fill="none" id="id15" stroke="none" /><text fill="#e1ed5e" style="font-size:6.75px; font-family:Arial;" text-anchor="middle"><textPath startOffset="22.20632615414155" xlink:href="#id15">March</textPath></text><path d="M 117.84615892207809 88.93136811851018 l 37.41467109846164 -23.205510113638788 a65.02673407192785,65.02673407192785 0 0,0 0.5817855248170556,0.9563024325954488 l -37.80857242156492 22.55803990783626" fill="#4aff2c" stroke="none" /><path d="M 118.21658344932153 89.55222093294921 l 43.81387790893672 -25.128626217797017 a71.50845229278926,71.50845229278926 0 0,0 0.603198852698677,1.0730234522142417 l -44.23993440292782 24.37071925564798" fill="#37ff7a" stroke="none" /><path d="M 118.73160827565052 90.50648371742162 l 45.32467035297016 -22.971358874601332 a71.81347332303842,71.81347332303842 0 0,0 0.5493388297325554,1.107433559631069 l -45.71336919565613 22.187765726471312" fill="#38ff7f" stroke="none" /><path d="M 119.04729006885535 91.15688171328212 l 45.88711199993251 -21.304088811813862 a71.59141476373242,71.59141476373242 0 0,0 0.5093138805246503,1.122205623622863 l -46.247028197420505 20.51106117934894" fill="#37ff7b" stroke="none" /><path d="M 119.34039704204932 91.81776055985345 l 46.36295243467858 -19.614528964833955 a71.34136574401393,71.34136574401393 0 0,0 0.46874101431399356,1.135093546365079 l -46.693715135878776 18.813560848015573" fill="#37ff77" stroke="none" /><path d="M 119.7369772167798 92.82701384747503 l 35.543287820579486 -12.917454813469291 a58.817799353671745,58.817799353671745 0 0,0 0.33763354788723354,0.9545355060997365 l -35.76037444927653 12.30372168094294" fill="#a6ff21" stroke="none" /><path d="M 119.85752413597 93.16781622104841 l 47.72284665455543 -16.419532292449134 a71.46851626030819,71.46851626030819 0 0,0 0.3902273087868187,1.1667299842032193 l -47.99841125711402 15.5956292053236" fill="#37ff79" stroke="none" /><path d="M 120.08093135843002 93.85539295169968 l 48.4504061304374 -14.825443187281238 a71.66789535695784,71.66789535695784 0 0,0 0.35081128614813706,1.1827612592593524 l -48.69842331369724 13.989252541275356" fill="#38ff7c" stroke="none" /><path d="M 120.53481517161879 95.60439243477599 l 49.634555804936234 -10.624591805152946 a71.75895074742436,71.75895074742436 0 0,0 0.24815169179423888,1.2100757784682736 l -49.81008679264547 9.768640370521261" fill="#38ff7e" stroke="none" /><path d="M 120.73433829027371 96.67025291283417 l 50.10957645650426 -8.047144495728968 a71.75161265600717,71.75161265600717 0 0,0 0.1853381963245015,1.2211471452645921 l -50.24067054626806 7.183398238072293" fill="#38ff7e" stroke="none" /><path d="M 120.78858239683441 97.02765380044208 l 18.868302524566637 -2.6977850740579927 a40.060191092021554,40.060191092021554 0 0,0 0.09172639362914413,0.6834681753169456 l -18.911944917253617 2.3725985566763828" fill="#ff0600" stroke="none" /><path d="M 120.87857604477298 97.74499172005257 l 50.57800272599369 -5.462719999952924 a71.87215023515824,71.87215023515824 0 0,0 0.12226094237135889,1.2311510047844485 l -50.66454079404728 4.59129346446404" fill="#38ff80" stroke="none" /><line stroke="#e1ed5e" stroke-width="0.3" x1="184.98032266829074" x2="189.97916517819016" y1="98.17113171792111" y2="98.06355123074" /><path d="M 185.9800911702706 98.14961562048488 a86.0,86.0 0 0,1 -9.607161424134198,41.387399972396054" fill="none" id="id16" stroke="none" /><text fill="#e1ed5e" style="font-size:6.75px; font-family:Arial;" text-anchor="middle"><textPath startOffset="21.466115282336823" xlink:href="#id16">April</textPath></text><path d="M 120.99513854157772 99.54816195383933 l 51.053598069865615 -1.098728544023536 a72.06541961340216,72.06541961340216 0 0,0 0.016015657161647143,1.2404302970430128 l -51.064946734144975 0.2197619889200604" fill="#38ff83" stroke="none" /><path d="M 120.9904718944345 100.63252640178507 l 50.41779938368164 1.5192888178248765 a71.44068529674371,71.44068529674371 0 0,0 -0.04761986770489618,1.228857191337894 l -50.38417738312555 -2.3869232561767766" fill="#37ff79" stroke="none" /><path d="M 120.95626037817324 101.35467743843564 l 50.303514305424315 3.2517746331572854 a71.40850711676427,71.40850711676427 0 0,0 -0.08985040469843077,1.2259373856311953 l -50.24008734206155 -4.1171851552852505" fill="#37ff78" stroke="none" /><path d="M 120.89721153311464 102.0752229133903 l 50.91332678117988 5.056009609980955 a72.16375745685053,72.16375745685053 0 0,0 -0.13339195140529728,1.2350438026955197 l -50.818752528273535 -5.931649734561265" fill="#38ff84" stroke="none" /><path d="M 120.81339534386255 102.79330883721812 l 49.606676342868376 6.657576292779809 a71.05143014820136,71.05143014820136 0 0,0 -0.1731149452457326,1.210765523847691 l -49.484727346606036 -7.5104872886079095" fill="#36ff73" stroke="none" /><path d="M 120.64145759157962 103.86396538481128 l 49.27731610393948 9.224437898208256 a71.13326377711184,71.13326377711184 0 0,0 -0.23565456803016352,1.2015975654183528 l -49.11123160293365 -10.071299190694555" fill="#37ff74" stroke="none" /><path d="M 120.49622156327973 104.57218783832717 l 61.488664689839204 13.716563514981502 a84.0,84.0 0 0,0 -0.3269577362777887,1.4085253706057426 l -61.24344638763086 -14.772957542935808" fill="#4dd2ff" stroke="none" /><path d="M 120.32669344350535 105.2749913415812 l 52.57442125375837 13.643616836796884 a75.31590973699113,75.31590973699113 0 0,0 -0.33645382735696233,1.2520698554912197 l -52.331779350059634 -14.546577625463652" fill="#3effb4" stroke="none" /><path d="M 120.13307415673323 105.97154293290107 l 51.38887296063818 15.24212640200411 a74.60166677836875,74.60166677836875 0 0,0 -0.3757551938842896,1.2279897146638739 l -51.11889099424776 -16.12444308922004" fill="#3dffaa" stroke="none" /><path d="M 119.41010516605496 108.01547362559984 l 50.663926369131005 20.921852926963773 a75.81384282308832,75.81384282308832 0 0,0 -0.5084907320796346,1.201921884902267 l -50.29628465585906 -21.790849337532205" fill="#3fffbc" stroke="none" /><line stroke="#e1ed5e" stroke-width="0.3" x1="174.80103733775053" x2="179.2010983576182" y1="140.37084112569926" y2="142.7455964860345" /><path d="M 175.68104954172406 140.8457921977663 a86.0,86.0 0 0,1 -30.038265399797805,32.042727171017184" fill="none" id="id17" stroke="none" /><text fill="#e1ed5e" style="font-size:6.75px; font-family:Arial;" text-anchor="middle"><textPath startOffset="22.206326154141568" xlink:href="#id17">May</textPath></text><path d="M 117.35343817320211 111.8261652097733 l 24.11732225839852 16.435673127046666 a50.185211735647364,50.185211735647364 0 0,0 -0.4926254295743975,0.7096636730426253 l -23.830835921661983 -16.848378062276307" fill="#ffc712" stroke="none" /><path d="M 117.14729908036423 112.12312394758627 l 43.68380890789046 30.88441085742 a74.49880367551233,74.49880367551233 0 0,0 -0.7493167990529009,1.0407354967851856 l -43.14571231646195 -31.63177995965632" fill="#3cffa8" stroke="none" /><path d="M 116.71984013943494 112.70617746262582 l 26.886223570386672 20.43208099696053 a54.768905101338,54.768905101338 0 0,0 -0.5768813541355485,0.7456969146093141 l -26.530535399033056 -20.89185590568309" fill="#e8ff1a" stroke="none" /><path d="M 116.498646956653 112.99209946851258 l 28.373164502521096 22.34286098864471 a57.11426174027409,57.11426174027409 0 0,0 -0.6148815021755589,0.7671592163170395 l -27.98436508829068 -22.827948038540004" fill="#c1ff1e" stroke="none" /><path d="M 116.0416608686014 113.55231037782055 l 39.37008477958644 33.26062138480943 a72.53903870325354,72.53903870325354 0 0,0 -0.8140175151884148,0.9468862720652326 l -38.79172475482724 -33.93338475603619" fill="#39ff8a" stroke="none" /><path d="M 115.56566222782051 114.09645910891815 l 37.437233787291916 33.90362886651577 a71.50745018274822,71.50745018274822 0 0,0 -0.8340955608252846,0.9052459954018893 l -36.848091818470905 -34.54302611671899" fill="#37ff7a" stroke="none" /><path d="M 115.07121518719521 114.62390073753431 l 24.806154407873603 24.06990645644176 a55.564514944218786,55.564514944218786 0 0,0 -0.671958546872674,0.6806904603216049 l -24.388155235945394 -24.49333741074403" fill="#daff1b" stroke="none" /><path d="M 114.55890576462653 115.13401014063108 l 24.236747212393016 25.194144671193097 a55.95947426879369,55.95947426879369 0 0,0 -0.6999308865115126,0.6618283406798193 l -23.799480491490698 -25.607607648618835" fill="#d4ff1c" stroke="none" /><path d="M 113.75828350139079 115.86535959552629 l 20.515810052744687 23.657798870578915 a52.31437225174832,52.31437225174832 0 0,0 -0.6854042798883675,0.5841163968491636 l -20.105540296279273 -24.007439657651027" fill="#ffed16" stroke="none" /><path d="M 113.20401910651253 116.32954008644616 l 11.825670726542267 14.624923110186929 a39.8078404956943,39.8078404956943 0 0,0 -0.5365386182575752,0.42625872781785823 l -11.572174615567342 -14.826315752009913" fill="#ff0100" stroke="none" /><path d="M 111.45004920935366 117.60387380957326 l 18.846264200201038 28.975181739061252 a55.56505216422229,55.56505216422229 0 0,0 -0.8062705983166725,0.5146000432187442 l -18.344711799837434 -29.295296211103807" fill="#daff1b" stroke="none" /><line stroke="#e1ed5e" stroke-width="0.3" x1="143.8653032363475" x2="146.44561519142675" y1="172.8068346515853" y2="177.08958963109032" /><path d="M 144.38136562736335 173.6633856474863 a86.0,86.0 0 0,1 -40.68145358897372,12.25698825130547" fill="none" id="id18" stroke="none" /><text fill="#e1ed5e" style="font-size:6.75px; font-family:Arial;" text-anchor="middle"><textPath startOffset="21.466115282336833" xlink:href="#id18">June</textPath></text><path d="M 110.8373102113329 117.98757091392108 l 16.103971326573383 26.729079502547794 a52.20547361506661,52.20547361506661 0 0,0 -0.7737152712947051,0.4571246201152113 l -15.641488184250296 -27.002322694956757" fill="#ffeb16" stroke="none" /><path d="M 109.57404056367764 118.69057910512821 l 14.416420589632173 28.143942743001713 a52.62142779411659,52.62142779411659 0 0,0 -0.8097337506582168,0.40601731237695105 l -13.929832931291196 -28.387927896287966" fill="#fff216" stroke="none" /><path d="M 108.59647513512805 119.15986991738528 l 13.02557532297538 29.03147218648874 a52.81967928514325,52.81967928514325 0 0,0 -0.8327382753580527,0.3650479879948947 l -12.523916372959574 -29.251384727778095" fill="#fff617" stroke="none" /><path d="M 107.93186726928326 119.44442032107085 l 11.835602104051185 29.014154454568587 a52.3353256864993,52.3353256864993 0 0,0 -0.8370634703133268,0.3330848298588929 l -11.334417557695993 -29.213586128833548" fill="#ffed16" stroke="none" /><path d="M 107.2578585660854 119.70592522655815 l 10.814450320902589 29.362483086381832 a52.29069747930412,52.29069747930412 0 0,0 -0.8473095958683441,0.3038150752469264 l -10.30742116440451 -29.54428570266872" fill="#ffec16" stroke="none" /><path d="M 106.57524785965236 119.94407469862006 l 6.779665812668329 20.564116256248116 a42.65286923093454,42.65286923093454 0 0,0 -0.699260592706579,0.22388115986293833 l -6.4246838748708095 -20.67777026277076" fill="#ff3a05" stroke="none" /><path d="M 104.48393922423573 120.51570834832081 l 6.683377489014541 30.5789656124801 a52.300809455825686,52.300809455825686 0 0,0 -0.8811653790298215,0.18465677258620175 l -6.156020648555342 -30.68947836579284" fill="#ffed16" stroke="none" /><path d="M 103.06178313531737 120.77559828337769 l 4.573042216126828 31.030182026699933 a52.36534571339219,52.36534571339219 0 0,0 -0.8928825291706181,0.1237453825789128 l -4.038231095769379 -31.10430197477145" fill="#ffee16" stroke="none" /><path d="M 101.62511606390274 120.93702456842531 l 2.519795281421996 32.463537150594654 a53.5611826042654,53.5611826042654 0 0,0 -0.9198170011341843,0.06343596576350616 l -1.9606155195088817 -32.50210146087444" fill="#fcff18" stroke="none" /><path d="M 100.90346689309514 120.98055641714683 l 1.3498391395626121 31.34633536448131 a52.3753853599478,52.3753853599478 0 0,0 -0.9010552763688813,0.031034165597373667 l -0.8100635115190786 -31.364926328504776" fill="#ffee16" stroke="none" /><line stroke="#e1ed5e" stroke-width="0.3" x1="102.19456741930631" x2="102.32365962044197" y1="184.97166512339345" y2="189.96999836594603" /><path d="M 102.22038585953345 185.97133177190398 a86.0,86.0 0 0,1 -42.740103519485714,-10.115201625700543" fill="none" id="id19" stroke="none" /><text fill="#e1ed5e" style="font-size:6.75px; font-family:Arial;" text-anchor="middle"><textPath startOffset="22.20632615414155" xlink:href="#id19">July</textPath></text><path d="M 99.09653310690486 120.98055641714683 l -1.3856518231149182 32.17798734139512 a53.20780806447229,53.20780806447229 0 0,0 -0.9146977888018801,-0.04727942763060597 l 1.9393376803302873 -32.14936810700231" fill="#fffc17" stroke="none" /><path d="M 98.73552117531835 120.96189622390904 l -1.9315795741078343 32.02075811025518 a53.078964285129025,53.078964285129025 0 0,0 -0.9115357685953669,-0.06286484348248254 l 2.4824781034821313 -31.982764922256415" fill="#fffa17" stroke="none" /><path d="M 97.65516085044442 120.86867818915974 l -3.5349134300172222 31.460141226126186 a52.658112687358994,52.658112687358994 0 0,0 -0.8998834570172793,-0.10896335453096181 l 4.075924310085891 -31.394632342869876" fill="#fff316" stroke="none" /><path d="M 97.2962882734958 120.8252237178851 l -4.013790551231252 30.916049727757272 a52.17551355404292,52.17551355404292 0 0,0 -0.8896456973260367,-0.12329678717932677 l 4.545364839744119 -30.842378375085342" fill="#ffea16" stroke="none" /><path d="M 96.58105272829116 120.7198165907248 l -5.224743639123139 31.663468703358948 a53.09163748429097,53.09163748429097 0 0,0 -0.9004114902982536,-0.156548079127368 l 5.769004100893443 -31.568842045710575" fill="#fffa17" stroke="none" /><path d="M 94.81253420990036 120.34920634021253 l -7.830718361775948 30.7180635369181 a52.70046651895824,52.70046651895824 0 0,0 -0.8771103198413838,-0.2316528074017527 l 8.35831912442882 -30.578719380212764" fill="#fff316" stroke="none" /><path d="M 94.11515582081647 120.15858648285463 l -8.755754719368102 29.992916270814938 a52.244811843470146,52.244811843470146 0 0,0 -0.8611065159374119,-0.259444329487481 l 9.27073620974576 -29.837756572221732" fill="#ffec16" stroke="none" /><path d="M 92.06813273071674 119.44442032107085 l -11.906731145506003 29.188522347036795 a52.5236432439975,52.5236432439975 0 0,0 -0.834196860621263,-0.34869435539505655 l 12.407399465624726 -28.979242948621767" fill="#fff016" stroke="none" /><path d="M 91.40352486487194 119.15986991738527 l -9.334825748167033 20.805509726362374 a43.80368844556515,43.80368844556515 0 0,0 -0.6852815979905262,-0.3145791706975779 l 9.691575341924977 -20.64174348533072" fill="#ff5007" stroke="none" /><path d="M 90.42595943632237 118.69057910512821 l -14.216674842702131 27.75399623514248 a52.18329922576222,52.18329922576222 0 0,0 -0.7959421656282722,-0.41639932250679457 l 14.692307910856899 -27.50516749369097" fill="#ffeb16" stroke="none" /><line stroke="#e1ed5e" stroke-width="0.3" x1="58.666819895761336" x2="56.23545636021788" y1="174.27360380694188" y2="178.64263932499728" /><path d="M 58.180547188652646 175.14741091055294 a86.0,86.0 0 0,1 -31.652253787137756,-30.449443065178592" fill="none" id="id20" stroke="none" /><text fill="#e1ed5e" style="font-size:6.75px; font-family:Arial;" text-anchor="middle"><textPath startOffset="22.20632615414155" xlink:href="#id20">August</textPath></text><path d="M 89.7882731507175 118.34994917583269 l -15.27326893336449 27.445280588929478 a52.40885496983209,52.40885496983209 0 0,0 -0.7845137230483016,-0.445467366497297 l 15.743431423333998 -27.17831005663755" fill="#ffee16" stroke="none" /><path d="M 88.8546689885994 117.79835938074946 l -16.71425781893406 26.691568616453846 a52.492955555880464,52.492955555880464 0 0,0 -0.7616932772485158,-0.48614868781009873 l 17.171232898229498 -26.39990549981994" fill="#fff016" stroke="none" /><path d="M 87.95078237400918 117.19931262002967 l -18.068922589944414 25.791969070358217 a52.49145331812615,52.49145331812615 0 0,0 -0.7355619158581139,-0.5248038965846192 l 18.510211833651415 -25.477120911929383" fill="#fff016" stroke="none" /><path d="M 87.36589467227662 116.77436683061367 l -18.759230690625422 24.9067273781673 a52.18098466685187,52.18098466685187 0 0,0 -0.7128202580876984,-0.5465601776865152 l 19.18517967720661 -24.58012785865342" fill="#ffeb16" stroke="none" /><path d="M 86.51685102203217 116.09983520530335 l -13.678009830848714 16.332512870177727 a42.30349571284758,42.30349571284758 0 0,0 -0.5542453396228023,-0.472339902522414 l 13.957120647048573 -16.094648577432363" fill="#ff3304" stroke="none" /><path d="M 85.97065885151581 115.62618273729859 l -21.12295466743886 23.527202460304878 a52.61816676360053,52.61816676360053 0 0,0 -0.6687529721634836,-0.6108899840914048 l 21.5248071890692 -23.160119709626894" fill="#fff216" stroke="none" /><path d="M 85.44109423537348 115.13401014063109 l -22.073849459883153 22.945808357404776 a52.8396757388063,52.8396757388063 0 0,0 -0.6500539401699141,-0.6362145986743794 l 22.46555335242886 -22.562443655807826" fill="#fff617" stroke="none" /><path d="M 84.9287848128048 114.62390073753433 l -22.49939885770219 21.83161553082858 a52.35031715380063,52.35031715380063 0 0,0 -0.6219552934812875,-0.6521176386706339 l 22.871860702562433 -21.441090775575443" fill="#ffed16" stroke="none" /><path d="M 84.19399662182784 113.82643327865904 l -23.87452006549637 20.884435543108506 a52.71990473365332,52.71990473365332 0 0,0 -0.5916114497714459,-0.6881777722627115 l 24.230474024838593 -20.470380671684264" fill="#fff417" stroke="none" /><path d="M 83.72743513129215 113.27417163493433 l -24.67686470729983 20.1298897979297 a52.84588066075696,52.84588066075696 0 0,0 -0.5689289066230334,-0.7098262878306949 l 25.019711525977723 -19.702135676520747" fill="#fff617" stroke="none" /><path d="M 82.6465618267979 111.8261652097733 l -25.76328855460305 17.55737991243131 a52.17705288408747,52.17705288408747 0 0,0 -0.49940121897722267,-0.7465370627237617 l 26.061692878991003 -17.111305935501726" fill="#ffea16" stroke="none" /><path d="M 82.05923443525364 110.91462005526583 l -26.595771714401796 16.18006446222605 a52.13084578173817,52.13084578173817 0 0,0 -0.45979188594305076,-0.7706376480204216 l 26.87034447604308 -15.719864720319517" fill="#ffea16" stroke="none" /><line stroke="#e1ed5e" stroke-width="0.3" x1="26.63291911575756" x2="22.317208475507996" y1="142.92168965132927" y2="145.44649492493687" /><path d="M 25.769776987707644 143.4266507060508 a86.0,86.0 0 0,1 -11.730757126820373,-40.83630448921669" fill="none" id="id21" stroke="none" /><text fill="#e1ed5e" style="font-size:6.75px; font-family:Arial;" text-anchor="middle"><textPath startOffset="21.46611528233685" xlink:href="#id21">September</textPath></text><path d="M 81.69416730710424 110.29060199501025 l -28.23527508160466 15.872426180164187 a53.39081153319019,53.39081153319019 0 0,0 -0.44345795475792443,-0.8050049989558871 l 28.5043094458141 -15.384050662810479" fill="#ffff18" stroke="none" /><path d="M 81.35079622478065 109.6543875284942 l -27.92503842346152 14.456335291184145 a52.445085482519175,52.445085482519175 0 0,0 -0.40812598251077314,-0.8052712824157603 l 28.169743075758557 -13.973509797065699" fill="#ffef16" stroke="none" /><path d="M 81.02952815118164 109.00673069616217 l -28.805205331017778 13.676029206426508 a52.88688804222083,52.88688804222083 0 0,0 -0.3833679426845835,-0.8257404425293158 l 29.03634789054219 -13.178168696618366" fill="#fff717" stroke="none" /><path d="M 80.20201598880116 107.00284435728193 l -29.41429690332621 10.404278686979314 a52.20015828987664,52.20015828987664 0 0,0 -0.2923436781478255,-0.8496875717399726 l 29.589031412417267 -9.896418412150046" fill="#ffeb16" stroke="none" /><path d="M 79.97269907076064 106.31721596034903 l -29.95980000295981 9.450226339348806 a52.414907195187965,52.414907195187965 0 0,0 -0.2640044715631753,-0.862781888264956 l 30.118031247029116 -8.933117478531802" fill="#ffef16" stroke="none" /><path d="M 79.76711848015287 105.62410040840567 l -36.56922872119175 10.165087656159466 a58.95573074412138,58.95573074412138 0 0,0 -0.26336907198964415,-0.9800942925730669 l 36.73878586952316 -9.53410243041086" fill="#a4ff21" stroke="none" /><path d="M 79.58551787078972 104.9243191809786 l -36.54677596949682 8.815701949745366 a58.594992148307924,58.594992148307924 0 0,0 -0.22807245226220255,-0.9825301551349247 l 36.69310898768958 -8.185303137261867" fill="#aaff21" stroke="none" /><path d="M 79.35854240842038 103.8639653848113 l -48.83311730705994 9.141286368453072 a70.68134924088861,70.68134924088861 0 0,0 -0.21357062236193644,-1.1978174698909265 l 48.983234371761064 -8.299350147828932" fill="#36ff6d" stroke="none" /><path d="M 79.23777060512086 103.15116336523772 l -32.27281781255237 4.898169616071639 a53.642408537820934,53.642408537820934 0 0,0 -0.13069832088537617,-0.9141037518636415 l 32.352350184454345 -4.341920392227597" fill="#faff18" stroke="none" /><path d="M 79.10278846688536 102.07522291339032 l -31.213970923862497 3.0997412059715077 a52.36750510288842,52.36750510288842 0 0,0 -0.0813576664735263,-0.8977750701103705 l 31.2627031866131 -2.5619847473125716" fill="#ffee16" stroke="none" /><path d="M 79.0235259727143 100.99374915477108 l -37.17526692775417 1.7611582404073487 a58.216960508584364,58.216960508584364 0 0,0 -0.03880539423838332,-1.0013947973994413 l 37.20007445484376 -1.1209861959939107" fill="#b0ff20" stroke="none" /><line stroke="#e1ed5e" stroke-width="0.3" x1="15.007084014347285" x2="10.007500721073583" y1="101.09737516637583" y2="101.16192664675087" /><path d="M 14.007167355692545 101.11028546245083 a86.0,86.0 0 0,1 10.666146001902534,-42.60595125391555" fill="none" id="id22" stroke="none" /><text fill="#e1ed5e" style="font-size:6.75px; font-family:Arial;" text-anchor="middle"><textPath startOffset="22.20632615414155" xlink:href="#id22">October</textPath></text><path d="M 79.00175016825051 100.2711162175752 l -33.60371362438309 0.4338700514243787 a54.6065144365058,54.6065144365058 0 0,0 -0.004045309643793567,-0.9399874951014768 l 33.606203231316385 0.14462692188077353" fill="#eaff1a" stroke="none" /><path d="M 79.00019446554 99.90962569577889 l -32.25987993128313 -0.13883291434591677 a53.26017866904816,53.26017866904816 0 0,0 0.011836422607506942,-0.9167439751467609 l 32.25271050155791 0.6941131475531496" fill="#fffd17" stroke="none" /><path d="M 79.05617556472873 98.46500227214037 l -31.356293726074384 -2.2981399491950065 a52.44039763523893,52.44039763523893 0 0,0 0.07372999089958353,-0.8996926401936539 l 31.312089251355303 2.8375465065964383" fill="#ffef16" stroke="none" /><path d="M 79.21141760316559 97.0276538004421 l -37.34386987773282 -5.3394169736540755 a58.72365293901939,58.72365293901939 0 0,0 0.1516862898884572,-0.999423127808776 l 37.246427694405064 5.981439213854943" fill="#a8ff21" stroke="none" /><path d="M 79.26566170972629 96.67025291283419 l -30.807995036470064 -4.947485195716403 a52.202726930975075,52.202726930975075 0 0,0 0.1501155001395098,-0.8859901793746452 l 30.71826767481033 5.477061163406876" fill="#ffeb16" stroke="none" /><path d="M 79.46518482838121 95.60439243477599 l -30.71483168619152 -6.574704734182538 a52.41062921771477,52.41062921771477 0 0,0 0.19642908096138859,-0.8805530540777388 l 30.597108218228094 7.102435957810236" fill="#ffee16" stroke="none" /><path d="M 79.62865764111835 94.90015583598534 l -36.38530112038123 -9.108843310651565 a58.5081479691922,58.5081479691922 0 0,0 0.2529883071941657,-0.9748671480445874 l 36.22311648131675 9.733806884245016" fill="#abff21" stroke="none" /><path d="M 79.91906864156998 93.8553929516997 l -30.315517362413114 -9.276309864968212 a52.70300486801965,52.70300486801965 0 0,0 0.27291251277784734,-0.8652072455751257 l 30.151349365867063 9.796767276969751" fill="#fff417" stroke="none" /><path d="M 80.02781315780177 93.51064311812611 l -29.78920472000007 -9.679099348642275 a52.32222345318036,52.32222345318036 0 0,0 0.2856860827152238,-0.8541650245075583 l 29.618181343513072 10.190437476072155" fill="#ffed16" stroke="none" /><path d="M 80.52162464483688 92.15188598940014 l -35.67621808271865 -14.37445484415018 a59.463196548807716,59.463196548807716 0 0,0 0.3906967405789923,-0.9461031470995027 l 35.42349965525346 14.986432561702994" fill="#9cff22" stroke="none" /><path d="M 80.803312248108 91.48605970444005 l -34.960068702212055 -15.505171595551497 a59.244172757047366,59.244172757047366 0 0,0 0.42147343539646664,-0.9286608464751471 l 34.68799294985224 16.104654450868715" fill="#a0ff22" stroke="none" /><path d="M 81.10775173730289 90.83032412892265 l -33.63920516051655 -16.327363667545427 a58.392230852994125,58.392230852994125 0 0,0 0.44667272418315745,-0.9004649556141516 l 33.35317242337998 16.90398821165854" fill="#adff20" stroke="none" /><path d="M 81.6062741919709 89.86733742301443 l -33.889312308057846 -18.668809689102808 a59.691212748129516,59.691212748129516 0 0,0 0.5035162962056664,-0.8956993070917402 l 33.56293837055975 19.249392506129333" fill="#99ff23" stroke="none" /><line stroke="#e1ed5e" stroke-width="0.3" x1="26.266209847984243" x2="21.928928074336255" y1="57.71137044288968" y2="55.22380399835378" /><path d="M 25.398753493254645 57.2138571539825 a86.0,86.0 0 0,1 29.58750427330803,-30.4925239686951" fill="none" id="id23" stroke="none" /><text fill="#e1ed5e" style="font-size:6.75px; font-family:Arial;" text-anchor="middle"><textPath startOffset="21.46611528233685" xlink:href="#id23">November</textPath></text><path d="M 81.96595687620814 89.24020034530311 l -38.0866430506054 -22.72394747708143 a65.35053740153984,65.35053740153984 0 0,0 0.5846825500597636,-0.9610643803729483 l 37.68984470225942 23.376179630661454" fill="#46ff2d" stroke="none" /><path d="M 82.34701348167596 88.62581576622439 l -28.948335756854238 -18.65201130799447 a55.43695208529813,55.43695208529813 0 0,0 0.5237560866297576,-0.797716452776789 l 28.62298303486656 19.14754582474893" fill="#dcff1b" stroke="none" /><path d="M 82.7489923806493 88.02491185347247 l -36.70951954273545 -25.482553949360398 a65.68723957507936,65.68723957507936 0 0,0 0.6527665685351582,-0.9232920185200271 l 36.26544035439641 26.11067246821221" fill="#41ff2d" stroke="none" /><path d="M 83.17141714833178 87.43820079747577 l -35.265441215838784 -26.324105555796965 a65.00692987996915,65.00692987996915 0 0,0 0.6770752198530255,-0.8909516234614148 l 34.80709005576165 26.927241955139404" fill="#4aff2c" stroke="none" /><path d="M 83.84228863543731 86.58626213691792 l -34.65402968921692 -28.768930182161377 a66.03946178105599,66.03946178105599 0 0,0 0.7336335964068124,-0.8683907781975552 l 34.15368547932298 29.361179909988046" fill="#3cff2e" stroke="none" /><path d="M 84.31358615837235 86.03803664274999 l -14.591626114022139 -12.987528646351864 a40.53436594802153,40.53436594802153 0 0,0 0.46837722242304103,-0.517193827408009 l 14.365905250983053 13.236775261029429" fill="#ff0f01" stroke="none" /><path d="M 85.05521093208273 85.24692304244772 l -33.007422987761075 -32.58400297895828 a67.3811084648237,67.3811084648237 0 0,0 0.8219346539871925,-0.8184050053729912 l 32.44165253360657 33.147343834981385" fill="#30ff36" stroke="none" /><path d="M 85.83668400450813 84.49514656593479 l -30.69761845656002 -33.605271187574665 a66.51547023260301,66.51547023260301 0 0,0 0.8519966974979737,-0.7649310473024434 l 30.114610771466072 34.12870124364638" fill="#36ff2f" stroke="none" /><path d="M 86.37877921826538 84.01681056812373 l -28.74520304157366 -33.72972458440023 a65.31682545535938,65.31682545535938 0 0,0 0.8620031373671512,-0.7219028376618635 l 28.1603423672474 34.21952857945591" fill="#46ff2c" stroke="none" /><path d="M 87.51073957382395 83.11751280151077 l -25.91778684937908 -35.03463694141142 a64.57932377614821,64.57932377614821 0 0,0 0.8993583669066728,-0.6534221014751489 l 25.310883166118625 35.475578277703235" fill="#50ff2b" stroke="none" /><path d="M 88.09926311788651 82.69761687909137 l -24.664509248997557 -35.859526409389986 a64.52290949373243,64.52290949373243 0 0,0 0.9205124184549576,-0.6215340940196865 l 24.043592136136063 36.27877241570834" fill="#51ff2b" stroke="none" /><path d="M 88.70189139769569 82.29822771554957 l -23.49814430023098 -36.81667561816571 a64.67642830094644,64.67642830094644 0 0,0 0.9436009011609462,-0.590882797740874 l 22.860924246697788 37.215702757229515" fill="#4fff2b" stroke="none" /><line stroke="#e1ed5e" stroke-width="0.3" x1="56.76296977257108" x2="54.21961505331056" y1="26.818313649435495" y2="22.513508569990535" /><path d="M 56.25429882871898 25.957352633546506 a86.0,86.0 0 0,1 42.26535254187918,-11.944610805530505" fill="none" id="id24" stroke="none" /><text fill="#e1ed5e" style="font-size:6.75px; font-family:Arial;" text-anchor="middle"><textPath startOffset="22.20632615414155" xlink:href="#id24">December</textPath></text><path d="M 89.3179101791058 81.91981866633112 l -26.325162145685322 -44.55717122891437 a72.75283248209143,72.75283248209143 0 0,0 1.0836820820381534,-0.6277386087549192 l 25.554283331181846 45.00371399505934" fill="#39ff8d" stroke="none" /><path d="M 89.94658935756843 81.56283822128135 l -23.92498362739912 -43.876531993013614 a70.97554303161961,70.97554303161961 0 0,0 1.0776620700464483,-0.575649756017873 l 23.166176510824364 44.281860475533236" fill="#36ff71" stroke="none" /><path d="M 90.58718382345135 81.22770947309562 l -25.02249873216388 -49.90319656720535 a76.82521357259888,76.82521357259888 0 0,0 1.187237582017573,-0.5825723253798105 l 24.15978988313588 50.32652405271999" fill="#41ffcb" stroke="none" /><path d="M 91.23893434514133 80.91482961587045 l -20.94456531076295 -45.62579637281447 a71.20346711842066,71.20346711842066 0 0,0 1.1182941277532472,-0.5017459776314804 l 20.15608906454293 45.979562680962474" fill="#37ff75" stroke="none" /><path d="M 91.90106846888425 80.62456947434976 l -21.64432618403942 -51.780674604072566 a77.12232281734194,77.12232281734194 0 0,0 1.2292421648464973,-0.5014387434735224 l 20.749800149604543 52.14557423372966" fill="#41ffcf" stroke="none" /><path d="M 92.57280143429618 80.3572730644239 l -18.727738296590253 -49.52928701536529 a73.95166148437654,73.95166148437654 0 0,0 1.1945576482849787,-0.4399656631500503 l 17.872398322532707 49.844315946321665" fill="#3cffa0" stroke="none" /><path d="M 93.59665428221793 80.00007090966166 l -17.002857749946262 -53.10597995477588 a76.76147665388683,76.76147665388683 0 0,0 1.2618659311069353,-0.3920678872435281 l 16.0862064461286 53.39078797690194" fill="#40ffca" stroke="none" /><path d="M 94.28887869178378 79.79150937346287 l -15.258009191387135 -53.989631647321694 a77.10425268995154,77.10425268995154 0 0,0 1.2803055077530316,-0.34995585908965027 l 14.326405794410382 54.24427404723764" fill="#41ffcf" stroke="none" /><path d="M 94.98787191387505 79.60689891045804 l -13.285102672530117 -54.05377459044783 a76.662415510779,76.662415510779 0 0,0 1.2841915179489582,-0.3039266417346405 l 12.352687467618626 54.27444714432335" fill="#40ffc8" stroke="none" /></svg>