<?xml version="1.0" encoding="utf-8" ?>
<svg baseProfile="full" height="200mm" version="1.1" viewBox="0,0,200,200" width="200mm" xmlns="http://www.w3.org/2000/svg" xmlns:ev="http://www.w3.org/2001/xml-events" xmlns:xlink="http://www.w3.org/1999/xlink"><defs /><rect fill="#1a1a1a" height="200" width="200" x="0" y="0" /><text alignment-baseline="middle" fill="#e1ed5e" style="dominant-baseline: central; font-size:9.0px; font-family:Arial;" text-anchor="middle" x="100.0" y="100.0">2024</text><line stroke="#e1ed5e" stroke-width="0.3" x1="100.0" x2="100.0" y1="15.0" y2="10.0" /><path d="M 100.0 14.0 a86.0,86.0 0 0,1 42.35913384403234,11.155469271406648" fill="none" id="id25" stroke="none" /><text fill="#e1ed5e" style="font-size:6.75px; font-family:Arial;" text-anchor="middle"><textPath startOffset="22.145653131862478" xlink:href="#id25">January</textPath></text><path d="M 100.0 79.0 l 0.0 -29.097531854198145 a50.097531854198145,50.097531854198145 0 0,0 0.8599907517061219,0.007381986291203627 l -0.4994978268572671 29.093244266101376" fill="#ffda14" stroke="none" /><path d="M 100.72087961077811 79.0123766808444 l 0.9903030844203852 -28.83159378745468 a49.84859616209787,49.84859616209787 0 0,0 0.8549609622761749,0.03671570239074457 l -1.4850898072973964 28.810345516638105" fill="#ffd614" stroke="none" /><path d="M 101.80034050326958 79.07731436759882 l 2.492314804723814 -28.96447592081276 a50.07150664229819,50.07150664229819 0 0,0 0.8557469331376688,0.08104012428486901 l -2.989161301246496 28.91742404102271" fill="#ffd914" stroke="none" /><path d="M 102.51750503828377 79.15144685158666 l 3.5060137268397082 -29.034823133031253 a50.24573621263782,50.24573621263782 0 0,0 0.8554269072115713,0.11075213938185301 l -4.003918455942071 28.970359397449005" fill="#ffdc14" stroke="none" /><path d="M 103.23170211078529 79.25015418208739 l 4.445379531294687 -28.54252549101905 a49.88662598128632,49.88662598128632 0 0,0 0.8450378646819399,0.13905065905879252 l -4.934694899029698 28.462008833464587" fill="#ffd614" stroke="none" /><path d="M 104.29559338865022 79.4440306129975 l 5.876060803191911 -28.119078101228986 a49.72647983700446,49.72647983700446 0 0,0 0.8340730994201813,0.18178234996332698 l -6.357896319231226 28.014064293131938" fill="#ffd313" stroke="none" /><path d="M 105.3480935250658 79.69241777938227 l 7.435473703688347 -28.2337047546367 a50.19637568894872,50.19637568894872 0 0,0 0.8313920509659994,0.22659960052701617 l -7.919047155589039 28.10190465996554" fill="#ffdb14" stroke="none" /><path d="M 106.04205211174951 79.88797359093562 l 8.316209507989338 -27.681956751538866 a49.90415316481077,49.90415316481077 0 0,0 0.8183315524243558,0.25352120677341644 l -8.790181693285325 27.535118956958804" fill="#ffd714" stroke="none" /><path d="M 106.72888874123014 80.10723608172694 l 9.213927935027248 -27.23934073220687 a49.75548906760481,49.75548906760481 0 0,0 0.8067360398379348,0.28062467207064173 l -9.680169746910202 27.07715762756764" fill="#ffd413" stroke="none" /><path d="M 107.40779381753099 80.34994680014964 l 10.085519179567692 -26.75303785556357 a49.59095541640127,49.59095541640127 0 0,0 0.7939930828781442,0.30713358137136704 l -10.543284524939361 26.575964386054164" fill="#ffd113" stroke="none" /><path d="M 108.4095320186766 80.7573450057729 l 11.479368173126494 -26.267040878922305 a49.66589140754505,49.66589140754505 0 0,0 0.7783037713071773,0.34812537728139104 l -11.928585347289301 26.06611175073106" fill="#ffd213" stroke="none" /><path d="M 110.02825361518725 81.54914285379988 l 13.733631112468686 -25.26833439583264 a49.759369719675476,49.759369719675476 0 0,0 0.7469966903722406,0.4143464720363735 l -14.165371990997027 25.02885500836312" fill="#ffd413" stroke="none" /><line stroke="#e1ed5e" stroke-width="0.3" x1="143.13028292997686" x2="145.6673583964461" y1="26.7553504044142" y2="22.446841604673864" /><path d="M 143.63769802327073 25.89364864446614 a86.0,86.0 0 0,1 29.32050498858742,28.57503671076993" fill="none" id="id26" stroke="none" /><text fill="#e1ed5e" style="font-size:6.75px; font-family:Arial;" text-anchor="middle"><textPath startOffset="20.669276256404974" xlink:href="#id26">February</textPath></text><path d="M 110.65571695917076 81.90426304109057 l 14.616299433763833 -24.821671866801392 a49.805409273270264,49.805409273270264 0 0,0 0.7330105025056401,0.4401517456522556 l -15.040242692826908 24.567106120613214" fill="#ffd513" stroke="none" /><path d="M 111.8722381534696 82.67804972795209 l 16.272699486560974 -23.742354866408427 a49.78367876388266,49.78367876388266 0 0,0 0.7007761820015389,0.48919620005806713 l -16.677870759736273 23.459513850545235" fill="#ffd413" stroke="none" /><path d="M 115.16444852881244 85.47280134310134 l 20.76870692844042 -19.89595143028846 a49.76087743438726,49.76087743438726 0 0,0 0.5856243126701807,0.6219127258719149 l -21.10718707484686 19.53649724447205" fill="#ffd413" stroke="none" /><path d="M 116.35404254752997 86.82634096563983 l 22.849589583348898 -18.40601193076691 a50.3408421713321,50.3408421713321 0 0,0 0.5363303001667641,0.6776358137321186 l -23.16218631415722 18.01105617312011" fill="#ffde14" stroke="none" /><path d="M 117.01052211995028 87.68569379921539 l 23.55246895308723 -17.050171207421865 a50.07622967285366,50.07622967285366 0 0,0 0.498103252438338,0.7006446037337947 l -23.84168730405553 16.643349376978566" fill="#ffd914" stroke="none" /><path d="M 117.42321728460499 88.27688183743584 l 24.652213824507 -16.58710965447535 a50.713024974559616,50.713024974559616 0 0,0 0.47978279480228336,0.7264523020305418 l -24.933321058230007 16.161477474105748" fill="#ffe415" stroke="none" /><line stroke="#e1ed5e" stroke-width="0.3" x1="172.87174338648825" x2="177.1583165268699" y1="56.24261187166439" y2="53.66864786411523" /><path d="M 173.72905801456457 55.72781907015455 a86.0,86.0 0 0,1 12.242430191666344,42.057860355516425" fill="none" id="id27" stroke="none" /><text fill="#e1ed5e" style="font-size:6.75px; font-family:Arial;" text-anchor="middle"><textPath startOffset="22.145653131862474" xlink:href="#id27">March</textPath></text><path d="M 118.18653347947321 89.5 l 27.372163414311512 -15.803325915555181 a52.606651831110355,52.606651831110355 0 0,0 0.4448183877686826,0.7859514695125576 l -27.639415167101568 15.331117675943505" fill="#faff18" stroke="none" /><path d="M 118.53625476483649 90.13048839642627 l 27.96878563703701 -14.891803003606256 a52.68625517016399,52.68625517016399 0 0,0 0.41820826727587834,0.801969495328475 l -28.22030197328783 14.409487265173283" fill="#f9ff18" stroke="none" /><path d="M 118.8641267826498 90.77261029715802 l 30.84709901200789 -15.088861894616983 a55.33973311968867,55.33973311968867 0 0,0 0.4100957301136374,0.8569423499798324 l -31.101574000081442 14.557107042572047" fill="#ceff1d" stroke="none" /><path d="M 119.16976305983485 91.42560881287824 l 31.473138904768742 -14.07753470993778 a55.478043100332286,55.478043100332286 0 0,0 0.3813880816995322,0.87269056812619 l -31.710160868485247 13.53518207203574" fill="#ccff1d" stroke="none" /><path d="M 119.4528033332814 92.08871423366111 l 31.833362730734322 -12.946351492460145 a55.36525861553831,55.36525861553831 0 0,0 0.35049194481870755,0.8834686592273703 l -32.05091335051915 12.39798181601921" fill="#ceff1d" stroke="none" /><path d="M 119.71291397450082 92.76114493625339 l 32.97095812932934 -12.107392520446325 a56.123681948368514,56.123681948368514 0 0,0 0.32434097608389595,0.9072394352698319 l -33.17393927545718 11.539618128795576" fill="#c2ff1e" stroke="none" /><path d="M 120.35273937422433 94.82641323984039 l 16.72831747668401 -4.252272886996441 a38.26031373718962,38.26031373718962 0 0,0 0.15634343609766493,0.6379345716068494 l -16.798848439297963 3.964482490781497" fill="#ff0000" stroke="none" /><path d="M 120.82617615685814 97.30363454192243 l 37.19260515051449 -4.815327358629926 a58.503029950296636,58.503029950296636 0 0,0 0.12039899533048731,0.9970763970642912 l -37.269786232104636 4.176157284642222" fill="#9eff22" stroke="none" /><path d="M 120.9064616781168 98.02013634271609 l 37.12837680688357 -3.516095885839698 a58.294494159223404,58.294494159223404 0 0,0 0.08579388719663351,0.99705501694645 l -37.183264316777944 2.878219821517586" fill="#a1ff22" stroke="none" /><path d="M 120.98066250479742 99.09900007780936 l 45.86112160337057 -1.969473889910009 a66.90339096539797,66.90339096539797 0 0,0 0.03942620972233536,1.1478510782976354 l -45.88817250008976 1.1819165470482536" fill="#30ff38" stroke="none" /><line stroke="#e1ed5e" stroke-width="0.3" x1="184.99686870605535" x2="189.99668451229388" y1="99.2704041080226" y2="99.22748670261217" /><path d="M 185.99683186730306 99.26182062694052 a86.0,86.0 0 0,1 -10.086455211305974,41.156179273409016" fill="none" id="id28" stroke="none" /><text fill="#e1ed5e" style="font-size:6.75px; font-family:Arial;" text-anchor="middle"><textPath startOffset="21.40746469413373" xlink:href="#id28">April</textPath></text><path d="M 120.99303781780057 100.54070618675476 l 43.22449281003009 1.1133096069546509 a64.23882788611736,64.23882788611736 0 0,0 -0.03785598104983108,1.102135583767257 l -43.19901214198342 -1.8551514552860184" fill="#4cff2c" stroke="none" /><path d="M 120.96210409425399 101.26102812881392 l 42.90826368384987 2.5812545926022326 a63.98583449968861,63.98583449968861 0 0,0 -0.07536933747952151,1.0958536256564229 l -42.857630385205276 -3.317451642412999" fill="#4fff2b" stroke="none" /><path d="M 120.9064616781168 101.97986365728391 l 43.0107067612388 4.073158648352528 a64.20314244908491,64.20314244908491 0 0,0 -0.11332651836887449,1.096331263688886 l -42.93444785038826 -4.810894434324346" fill="#4cff2c" stroke="none" /><path d="M 120.82617615685814 102.69636545807757 l 43.167036943794756 5.588837166561547 a64.52732681180044,64.52732681180044 0 0,0 -0.15165606715220747,1.0973077545280032 l -43.06473636008734 -6.329033229289635" fill="#48ff2c" stroke="none" /><path d="M 120.65975698304385 103.76489593502545 l 42.69461096258989 7.780380349704645 a64.39774330115532,64.39774330115532 0 0,0 -0.2075254313262344,1.08586074859915 l -42.5547592389815 -8.51214366333711" fill="#4aff2c" stroke="none" /><path d="M 120.51834098615036 104.47187691870673 l 43.24776931902618 9.425650033491882 a65.26299164793957,65.26299164793957 0 0,0 -0.24796561313135543,1.092582244182869 l -43.079592844337164 -10.166666611613769" fill="#3eff2d" stroke="none" /><path d="M 120.35273937422433 105.17358676015961 l 58.77284547944354 14.939827491450105 a81.64194762064321,81.64194762064321 0 0,0 -0.35693283805544135,1.355332123882412 l -58.50772316058337 -15.94654011970532" fill="#49f0ff" stroke="none" /><path d="M 120.16314734710363 105.8691983318838 l 41.393715360608645 12.049107263001554 a64.11172296708176,64.11172296708176 0 0,0 -0.31666208747873975,1.0540651004543953 l -41.180776953126276 -12.757909967046674" fill="#4eff2c" stroke="none" /><path d="M 119.94978838288452 106.5578916946017 l 41.03409443411938 13.488721881174381 a64.19424179234889,64.19424179234889 0 0,0 -0.3531128941964215,1.0439155276422865 l -40.796496118350596 -14.191139083290828" fill="#4dff2c" stroke="none" /><path d="M 119.71291397450082 107.23885506374661 l 43.06702764810578 15.81480909287537 a66.87893914517642,66.87893914517642 0 0,0 -0.40499756944322496,1.0743041695539308 l -42.78919939484811 -16.55178154262346" fill="#30ff37" stroke="none" /><path d="M 119.4528033332814 107.91128576633889 l 42.47003213643039 17.272192340630625 a66.84792533933427,66.84792533933427 0 0,0 -0.4414323614723928,1.059276969725099 l -42.16727393042151 -17.998701819797" fill="#30ff37" stroke="none" /><path d="M 119.16976305983485 108.57439118712176 l 42.32964794508726 18.93351311445213 a67.37107950016002,67.37107950016002 0 0,0 -0.4812718354528127,1.051665816202027 l -41.99839164477939 -19.657367912868846" fill="#31ff3f" stroke="none" /><path d="M 118.5362547648365 109.86951160357373 l 40.542116599591644 21.586393545483727 a66.93076969391419,66.93076969391419 0 0,0 -0.5486877741253363,1.0095237043986582 l -40.16558347585097 -22.27917208335699" fill="#30ff38" stroke="none" /><line stroke="#e1ed5e" stroke-width="0.3" x1="174.33088141563837" x2="178.70328620479359" y1="141.23008692659167" y2="143.65538615756765" /><path d="M 175.20536237346943 141.71514677278685 a86.0,86.0 0 0,1 -30.301960400862466,31.631185727798858" fill="none" id="id29" stroke="none" /><text fill="#e1ed5e" style="font-size:6.75px; font-family:Arial;" text-anchor="middle"><textPath startOffset="22.145653131862474" xlink:href="#id29">May</textPath></text><path d="M 118.18653347947321 110.5 l 42.30683667373591 24.425863542142945 a69.85172708428591,69.85172708428591 0 0,0 -0.6084627274550763,1.033302733876726 l -41.88130023615106 -25.14851744431322" fill="#35ff67" stroke="none" /><path d="M 117.81537515405839 111.11811171558189 l 39.152184894589574 24.433859057298754 a67.15091603047624,67.15091603047624 0 0,0 -0.6186911544291702,0.9726852566319824 l -38.72697604853452 -25.10235798860941" fill="#31ff3c" stroke="none" /><path d="M 117.423217284605 111.72311816256416 l 38.09915353302468 25.634810808217946 a66.92046412119672,66.92046412119672 0 0,0 -0.649479876427715,0.9476105496492988 l -37.65348391978165 -26.28505609293729" fill="#30ff38" stroke="none" /><path d="M 116.79662413953412 112.60449989151573 l 36.674763629188874 27.521426350039064 a66.85266835853176,66.85266835853176 0 0,0 -0.6966940132787207,0.9119948275601275 l -36.196917638555846 -28.146942090840067" fill="#30ff37" stroke="none" /><path d="M 116.35404254752997 113.17365903436017 l 47.26647217348787 38.074524164953154 a81.6942236305458,81.6942236305458 0 0,0 -0.8891178409805771,1.0845791974575827 l -46.60590751326867 -38.880305644109235" fill="#49efff" stroke="none" /><path d="M 115.89218393027572 113.72728997021213 l 34.807912188091365 30.066245517919892 a66.99532444105289,66.99532444105289 0 0,0 -0.7592450468321689,0.8638814906041005 l -34.286656077300606 -30.659339286335285" fill="#30ff39" stroke="none" /><path d="M 115.41159269507618 114.26474011684316 l 33.6662608268516 31.16098841324338 a66.87400480611967,66.87400480611967 0 0,0 -0.7870247696440852,0.8357930318608976 l -33.12638022347125 -31.734322905048778" fill="#30ff37" stroke="none" /><path d="M 114.65682725009322 115.03919595460226 l 32.816785623907144 33.67291305114995 a68.0192140729275,68.0192140729275 0 0,0 -0.8432034720476379,0.8077698521874329 l -32.2339096659942 -34.23129503364296" fill="#32ff4a" stroke="none" /><path d="M 114.13192950727249 115.5334660781643 l 34.712885721770455 38.15554221076671 a72.58323212566556,72.58323212566556 0 0,0 -0.9288406161125367,0.8305750064432946 l -34.05278007883454 -38.745812747093396" fill="#3aff91" stroke="none" /><path d="M 113.59037401385872 116.0094264158162 l 29.705618046980234 34.99314336562858 a66.90145777816336,66.90145777816336 0 0,0 -0.8819066949990447,0.7357179310667272 l -29.100537017819292 -35.497923480607184" fill="#30ff38" stroke="none" /><path d="M 112.7482090630111 116.68781488649013 l 36.86874066043604 48.262365026985634 a81.73351558970134,81.73351558970134 0 0,0 -1.1222673774336032,0.8421703623062562 l -36.03482029409167 -48.888154416555906" fill="#49eeff" stroke="none" /><path d="M 112.16784306229584 117.11559508785304 l 25.430793251881628 35.77159549426219 a64.89000216023084,64.89000216023084 0 0,0 -0.9134191986814122,0.6376375403895459 l -24.812978962026456 -36.20287785045686" fill="#43ff2d" stroke="none" /><path d="M 111.27062007382361 117.71928675628689 l 23.715154399697287 37.28416169877111 a65.18729751615946,65.18729751615946 0 0,0 -0.9493625679856516,0.5924724569749873 l -23.07162770292192 -37.68576995258764" fill="#3fff2d" stroke="none" /><line stroke="#e1ed5e" stroke-width="0.3" x1="143.1302829299769" x2="145.66735839644613" y1="173.24464959558577" y2="177.55315839532614" /><path d="M 143.63769802327073 174.10635135553383 a86.0,86.0 0 0,1 -40.68552437913181,11.842963189579606" fill="none" id="id30" stroke="none" /><text fill="#e1ed5e" style="font-size:6.75px; font-family:Arial;" text-anchor="middle"><textPath startOffset="21.407464694133747" xlink:href="#id30">June</textPath></text><path d="M 109.71004243097381 118.62028667847754 l 21.87006956651609 41.93874207055719 a68.29860494036771,68.29860494036771 0 0,0 -1.0442296591090625,0.5331911043719822 l -21.146912685693444 -42.30799112660201" fill="#33ff4e" stroke="none" /><path d="M 109.06512990194946 118.94263497670748 l 20.29034823230318 42.399023982231725 a68.00399414979529,68.00399414979529 0 0,0 -1.0573367424630584,0.49488698353462407 l -19.559522775968617 -42.74108719733688" fill="#32ff4a" stroke="none" /><path d="M 108.4095320186766 119.2426549942271 l 24.740841982484334 56.61188820951254 a82.78199696229157,82.78199696229157 0 0,0 -1.3070288857163714,0.5578929105705941 l -23.76537802159753 -57.02825576974254" fill="#4be1ff" stroke="none" /><path d="M 107.74402155503746 119.51999308798841 l 17.043231661853707 42.960077250812866 a67.21731258820034,67.21731258820034 0 0,0 -1.0762059491807527,0.4162995806800776 l -16.303253450179426 -43.24631671963098" fill="#31ff3d" stroke="none" /><path d="M 107.06938296918513 119.77432235084164 l 14.618502651589582 40.89055367055415 a64.42508490790779,64.42508490790779 0 0,0 -1.0445890260310466,0.36336228754258315 l -13.914407853513513 -41.135474390665316" fill="#49ff2c" stroke="none" /><path d="M 106.0420521117495 120.11202640906438 l 12.363565134306352 41.15428730047108 a63.97130561246599,63.97130561246599 0 0,0 -1.0544298539348298,0.30692916305507867 l -11.655275267989916 -41.36046015782868" fill="#50ff2b" stroke="none" /><path d="M 104.9986988182912 120.39639698878246 l 10.958716075022792 44.715301257123194 a67.03858842892825,67.03858842892825 0 0,0 -1.1200802446846054,0.2643358879251813 l -10.189503676598308 -44.8968332886946" fill="#30ff3a" stroke="none" /><path d="M 104.29559338865022 120.5559693870025 l 9.034565503935411 43.23366648585921 a65.16755926758242,65.16755926758242 0 0,0 -1.0969981538314253,0.2194303539914041 l -8.291070864573028 -43.382386236513476" fill="#3fff2d" stroke="none" /><path d="M 103.58742460773223 120.69131181640829 l 7.824754337233932 45.131103669617545 a66.80440261455036,66.80440261455036 0 0,0 -1.1316109002426533,0.18620614300647195 l -7.048865933938206 -45.25877581111969" fill="#30ff36" stroke="none" /><path d="M 102.875027216393 120.80226474461374 l 7.188658518828748 52.01355201600903 a73.50796515408311,73.50796515408311 0 0,0 -1.2514632290602277,0.16202697016854833 l -6.294717467877745 -52.12929058237797" fill="#3bff9e" stroke="none" /><path d="M 101.80034050326958 120.92268563240118 l 2.9476478023432606 34.2561355540594 a55.382720233639915,55.382720233639915 0 0,0 -0.9479174669361468,0.07337480698990888 l -2.359161340631878 -34.30168812804436" fill="#ceff1d" stroke="none" /><path d="M 101.08105385017728 120.97215588758144 l 3.2431615505318443 62.916467662744324 a84.0,84.0 0 0,0 -1.4406969575966817,0.06186972629667631 l -2.162638832334333 -62.96286995746683" fill="#4dd2ff" stroke="none" /><line stroke="#e1ed5e" stroke-width="0.3" x1="101.45913802915013" x2="101.54496967792366" y1="184.9874750549273" y2="189.98673829345242" /><path d="M 101.47630435890484 185.9873277026323 a86.0,86.0 0 0,1 -42.54439059252881,-10.42667462771756" fill="none" id="id31" stroke="none" /><text fill="#e1ed5e" style="font-size:6.75px; font-family:Arial;" text-anchor="middle"><textPath startOffset="22.145653131862474" xlink:href="#id31">July</textPath></text><path d="M 100.36049292484886 120.99690560180557 l 0.7557895667423312 44.02095323887927 a65.02744078332049,65.02744078332049 0 0,0 -1.1162824915911782,0.009581942635649047 l -5.391806442994307e-15 -44.027440783320486" fill="#41ff2d" stroke="none" /><path d="M 100.0 121.0 l 3.0169211676583097e-15 24.635030849374758 a45.63503084937476,45.63503084937476 0 0,0 -0.783385987926605,-0.006724426526823177 l 0.4228930630777498 -24.63140082104237" fill="#ff8c0c" stroke="none" /><path d="M 98.91894614982273 120.97215588758144 l -2.57839556672099 50.02018517047469 a71.08659549407469,71.08659549407469 0 0,0 -1.2181387083913793,-0.07328019979156651 l 3.4366786272448158 -49.968552992858434" fill="#37ff7a" stroke="none" /><path d="M 97.48249496171623 120.84855314841334 l -5.139695000107625 42.56404763719076 a63.87323892540865,63.87323892540865 0 0,0 -1.0874333096905628,-0.14079001311275402 l 5.869606131688982 -42.469546027877605" fill="#51ff2b" stroke="none" /><path d="M 96.76829788921471 120.74984581791261 l -6.842668392953751 43.93483968186431 a65.46450549153839,65.46450549153839 0 0,0 -1.108914159754594,-0.18247140299628736 l 7.595860055761409 -43.81090228037236" fill="#3bff2e" stroke="none" /><path d="M 95.70440661134978 120.55596938700252 l -12.862148606009981 61.55003722996644 a83.87958293256516,83.87958293256516 0 0,0 -1.4069305517695943,-0.3066339654326113 l 13.916841574398712 -61.32017180640011" fill="#4dd3ff" stroke="none" /><path d="M 94.6519064749342 120.30758222061772 l -11.272396727461233 42.80312644000075 a65.26256387761525,65.26256387761525 0 0,0 -1.080930168539148,-0.2946123241182923 l 12.005508296935076 -42.603313621738316" fill="#3eff2d" stroke="none" /><path d="M 93.61358852112213 120.00534299687104 l -13.041522270309548 40.85238276327229 a63.88354556894622,63.88354556894622 0 0,0 -1.0418410378956344,-0.34247384274875875 l 13.740886045852927 -40.62248799912151" fill="#51ff2b" stroke="none" /><path d="M 92.93061703081489 119.77432235084164 l -15.822339509848424 44.25789961811419 a68.00115005158898,68.00115005158898 0 0,0 -1.0958250894025612,-0.4024021515876966 l 16.579753750905105 -43.979766617517775" fill="#32ff4a" stroke="none" /><line stroke="#e1ed5e" stroke-width="0.3" x1="58.13341422392154" x2="55.67067388415222" y1="173.97424548756322" y2="178.32567169271397" /><path d="M 57.64086615596768 174.84453072859336 a86.0,86.0 0 0,1 -31.369924170532247,-30.572349798747897" fill="none" id="id32" stroke="none" /><text fill="#e1ed5e" style="font-size:6.75px; font-family:Arial;" text-anchor="middle"><textPath startOffset="22.145653131862474" xlink:href="#id32">August</textPath></text><line stroke="#e1ed5e" stroke-width="0.3" x1="26.387840678322732" x2="22.057713659400548" y1="142.50000000000003" y2="145.00000000000006" /><path d="M 25.521815274538298 143.00000000000003 a86.0,86.0 0 0,1 -11.493303480769221,-40.785679425670985" fill="none" id="id33" stroke="none" /><text fill="#e1ed5e" style="font-size:6.75px; font-family:Arial;" text-anchor="middle"><textPath startOffset="21.40746469413373" xlink:href="#id33">September</textPath></text><line stroke="#e1ed5e" stroke-width="0.3" x1="15.003131293944662" x2="10.003315487706104" y1="100.72959589197737" y2="100.7725132973878" /><path d="M 14.003168132696942 100.73817937305945 a86.0,86.0 0 0,1 10.791469493833604,-42.45332614584628" fill="none" id="id34" stroke="none" /><text fill="#e1ed5e" style="font-size:6.75px; font-family:Arial;" text-anchor="middle"><textPath startOffset="22.145653131862435" xlink:href="#id34">October</textPath></text><line stroke="#e1ed5e" stroke-width="0.3" x1="26.387840678322718" x2="22.05771365940052" y1="57.49999999999999" y2="54.99999999999999" /><path d="M 25.521815274538284 56.99999999999999 a86.0,86.0 0 0,1 29.574782752854787,-30.34633250058573" fill="none" id="id35" stroke="none" /><text fill="#e1ed5e" style="font-size:6.75px; font-family:Arial;" text-anchor="middle"><textPath startOffset="21.40746469413373" xlink:href="#id35">November</textPath></text><line stroke="#e1ed5e" stroke-width="0.3" x1="56.869717070023135" x2="54.33264160355391" y1="26.7553504044142" y2="22.446841604673864" /><path d="M 56.362301976729285 25.89364864446614 a86.0,86.0 0 0,1 42.16139366436587,-11.88097634709845" fill="none" id="id36" stroke="none" /><text fill="#e1ed5e" style="font-size:6.75px; font-family:Arial;" text-anchor="middle"><textPath startOffset="22.145653131862474" xlink:href="#id36">December</textPath></text></svg>