<?xml version="1.0" encoding="utf-8" ?>
<svg baseProfile="full" height="200mm" version="1.1" viewBox="0,0,200,200" width="200mm" xmlns="http://www.w3.org/2000/svg" xmlns:ev="http://www.w3.org/2001/xml-events" xmlns:xlink="http://www.w3.org/1999/xlink"><defs /><rect fill="#1a1a1a" height="200" width="200" x="0" y="0" /><text alignment-baseline="middle" fill="#e1ed5e" style="dominant-baseline: central; font-size:9.0px; font-family:Arial;" text-anchor="middle" x="100.0" y="100.0">2024</text><line stroke="#e1ed5e" stroke-width="0.3" x1="100.0" x2="100.0" y1="15.0" y2="10.0" /><path d="M 100.0 14.0 a86.0,86.0 0 0,1 42.35913384403234,11.155469271406648" fill="none" id="id25" stroke="none" /><text fill="#e1ed5e" style="font-size:6.75px; font-family:Arial;" text-anchor="middle"><textPath startOffset="22.145653131862478" xlink:href="#id25">January</textPath></text><path d="M 100.0 79.0 l 0.0 -48.87990408358948 a69.87990408358948,69.87990408358948 0 0,0 1.1995814767262192,0.010296964239216383 l -0.8390885518773644 48.8727015175447" fill="#42ff2d" stroke="none" /><path d="M 100.72087961077811 79.0123766808444 l 1.6635747671899983 -48.433164227448714 a69.46172590910325,69.46172590910325 0 0,0 1.1913487760316404,0.051161642501082946 l -2.494749303822475 48.3974700165218" fill="#49ff2c" stroke="none" /><path d="M 101.80034050326958 79.07731436759882 l 4.18675058803771 -48.65638817529118 a69.83618526002056,69.83618526002056 0 0,0 1.1935351133974526,0.11302901615251737 l -5.021385264820176 48.577347403633475" fill="#42ff2d" stroke="none" /><path d="M 102.51750503828377 79.15144685158666 l 5.889627187020246 -48.7745619435344 a70.12886728987105,70.12886728987105 0 0,0 1.1939345419907768,0.1545787298629676 l -6.726039550901814 48.66627161747103" fill="#3dff2e" stroke="none" /><path d="M 103.23170211078529 79.25015418208739 l 7.46763423762645 -47.94756872490985 a69.52561084352183,69.52561084352183 0 0,0 1.1777058995722907,0.19379105760496584 l -8.28961764025181 47.812311668809215" fill="#48ff2c" stroke="none" /><path d="M 104.29559338865022 79.4440306129975 l 9.870984586891023 -47.23623458491824 a69.25658705789363,69.25658705789363 0 0,0 1.161655850403762,0.2531774858604599 l -10.680402853913918 47.05982564092406" fill="#4dff2c" stroke="none" /><path d="M 105.3480935250658 79.69241777938227 l 12.490586599354508 -47.428791804275086 a70.04594830981705,70.04594830981705 0 0,0 1.1601563624438804,0.31620577557026786 l -13.30292436273308 47.20738553456068" fill="#3fff2d" stroke="none" /><path d="M 106.04205211174951 79.88797359093562 l 13.970103207599212 -46.50193004827213 a69.55505413286416,69.55505413286416 0 0,0 1.1405683057986955,0.35335097667558807 l -14.766312146269538 46.2552624837899" fill="#47ff2c" stroke="none" /><path d="M 106.72888874123014 80.10723608172694 l 15.47814831697686 -45.758395212423615 a69.30531862785594,69.30531862785594 0 0,0 1.1237171885412294,0.3908871699817392 l -16.261371277563107 45.48594960987328" fill="#4cff2c" stroke="none" /><path d="M 107.40779381753099 80.34994680014964 l 16.942303306022314 -44.94147238594447 a69.02892442611915,69.02892442611915 0 0,0 1.1052113848714014,0.4275195063129505 l -17.71128695338724 44.64401299149348" fill="#51ff2b" stroke="none" /><path d="M 108.4095320186766 80.7573450057729 l 19.28378042695318 -44.12506342994871 a69.15480672011819,69.15480672011819 0 0,0 1.0837104771285806,0.48472991217883404 l -20.03840430693739 43.787529766860025" fill="#4fff2b" stroke="none" /><path d="M 110.02825361518725 81.54914285379988 l 23.070636192121427 -42.44737209359441 a69.31183759661063,69.31183759661063 0 0,0 1.0405218872339055,0.5771599507852647 l -23.795902267511433 42.045079227376" fill="#4cff2c" stroke="none" /><line stroke="#e1ed5e" stroke-width="0.3" x1="143.13028292997686" x2="145.6673583964461" y1="26.7553504044142" y2="22.446841604673864" /><path d="M 143.63769802327073 25.89364864446614 a86.0,86.0 0 0,1 29.32050498858742,28.57503671076993" fill="none" id="id26" stroke="none" /><text fill="#e1ed5e" style="font-size:6.75px; font-family:Arial;" text-anchor="middle"><textPath startOffset="20.669276256404974" xlink:href="#id26">February</textPath></text><path d="M 110.65571695917076 81.90426304109057 l 24.553399166614224 -41.69703967068717 a69.38917779766413,69.38917779766413 0 0,0 1.0212343765081018,0.6132219006461987 l -25.265566299679758 41.26940376950505" fill="#4aff2c" stroke="none" /><path d="M 111.8722381534696 82.67804972795209 l 27.335926430798498 -39.883933606593835 a69.35267349139252,69.35267349139252 0 0,0 0.9762376535370965,0.6814897006058672 l -28.016559175509354 39.40879909018284" fill="#4bff2c" stroke="none" /><path d="M 115.16444852881244 85.47280134310134 l 34.88860868644021 -33.42249790935249 a69.31437035268308,69.31437035268308 0 0,0 0.8157448700433315,0.8662927832205616 l -35.4572093902198 32.818663666187426" fill="#4cff2c" stroke="none" /><path d="M 116.35404254752997 86.82634096563983 l 38.38420910680564 -30.919601780846072 a70.28863239166898,70.28863239166898 0 0,0 0.7488536481100673,0.9461521212684548 l -38.90932918555727 30.25612971566294" fill="#3aff2e" stroke="none" /><path d="M 117.01052211995028 87.68569379921539 l 39.56495104558236 -28.641973394981154 a69.844119310293,69.844119310293 0 0,0 0.6947324752567726,0.9772282301801225 l -40.0507986193691 27.958567938091527" fill="#42ff2d" stroke="none" /><path d="M 117.42321728460499 88.27688183743584 l 41.41237316030933 -27.864092837749013 a70.91384898441919,70.91384898441919 0 0,0 0.670897558822405,1.0158244132827905 l -41.884595158052456 27.149088546127164" fill="#2fff30" stroke="none" /><line stroke="#e1ed5e" stroke-width="0.3" x1="172.87174338648825" x2="177.1583165268699" y1="56.24261187166439" y2="53.66864786411523" /><path d="M 173.72905801456457 55.72781907015455 a86.0,86.0 0 0,1 12.242430191666344,42.057860355516425" fill="none" id="id27" stroke="none" /><text fill="#e1ed5e" style="font-size:6.75px; font-family:Arial;" text-anchor="middle"><textPath startOffset="22.145653131862474" xlink:href="#id27">March</textPath></text><path d="M 118.18653347947321 89.5 l 45.981519290229656 -26.54744253996207 a74.09488507992413,74.09488507992413 0 0,0 0.6265133053699992,1.1069889792433363 l -46.43046596062103 25.754196790619613" fill="#37ff74" stroke="none" /><path d="M 118.53625476483649 90.13048839642627 l 46.98376364439307 -25.016207769627783 a74.22860788490883,74.22860788490883 0 0,0 0.5892052374112908,1.1298787323587702 l -47.40627695077931 24.205982794164516" fill="#37ff77" stroke="none" /><path d="M 118.8641267826498 90.77261029715802 l 51.818939438548654 -25.34723995956362 a78.68609068140839,78.68609068140839 0 0,0 0.5831041819083062,1.2184634738555031 l -52.24642287841687 24.453963983643014" fill="#41ffce" stroke="none" /><path d="M 119.16976305983485 91.42560881287824 l 52.870601485487384 -23.648347557556885 a78.91843267596445,78.91843267596445 0 0,0 0.5425308458444794,1.2414167479386702 l -53.26876621334883 22.737268739842367" fill="#41ffd3" stroke="none" /><path d="M 119.4528033332814 92.08871423366111 l 53.47572861963916 -21.748113288604777 a78.72897004983965,78.72897004983965 0 0,0 0.4983968379513327,1.256285608548807 l -53.84118413255662 20.826926662842403" fill="#41ffcf" stroke="none" /><path d="M 119.71291397450082 92.76114493625339 l 55.38673448253798 -20.33877608819939 a80.00301830758383,80.00301830758383 0 0,0 0.46234060465617477,1.293248957116298 l -55.727715257238096 19.384992174702173" fill="#44ffe7" stroke="none" /><path d="M 120.35273937422433 94.82641323984039 l 28.101302812807976 -7.143241285725952 a49.99498432217595,49.99498432217595 0 0,0 0.20429491745072195,0.8335929790104534 l -28.21978525677499 6.659792482107404" fill="#ff0000" stroke="none" /><path d="M 120.82617615685814 97.30363454192243 l 62.478528470574396 -8.089096374232712 a84.0,84.0 0 0,0 0.17287165496134538,1.4316252923063482 l -62.6081822117954 7.015377405002951" fill="#4dd2ff" stroke="none" /><path d="M 120.9064616781168 98.02013634271609 l 62.37063357103935 -5.906563845680659 a83.64968817572807,83.64968817572807 0 0,0 0.12310994399882771,1.43072416125288 l -62.46283713773592 4.835018637052117" fill="#4cd8ff" stroke="none" /><line stroke="#e1ed5e" stroke-width="0.3" x1="184.99686870605535" x2="189.99668451229388" y1="99.2704041080226" y2="99.22748670261217" /><path d="M 185.99683186730306 99.26182062694052 a86.0,86.0 0 0,1 -10.086455211305974,41.156179273409016" fill="none" id="id28" stroke="none" /><text fill="#e1ed5e" style="font-size:6.75px; font-family:Arial;" text-anchor="middle"><textPath startOffset="21.40746469413373" xlink:href="#id28">April</textPath></text><line stroke="#e1ed5e" stroke-width="0.3" x1="174.33088141563837" x2="178.70328620479359" y1="141.23008692659167" y2="143.65538615756765" /><path d="M 175.20536237346943 141.71514677278685 a86.0,86.0 0 0,1 -30.301960400862466,31.631185727798858" fill="none" id="id29" stroke="none" /><text fill="#e1ed5e" style="font-size:6.75px; font-family:Arial;" text-anchor="middle"><textPath startOffset="22.145653131862474" xlink:href="#id29">May</textPath></text><line stroke="#e1ed5e" stroke-width="0.3" x1="143.1302829299769" x2="145.66735839644613" y1="173.24464959558577" y2="177.55315839532614" /><path d="M 143.63769802327073 174.10635135553383 a86.0,86.0 0 0,1 -40.68552437913181,11.842963189579606" fill="none" id="id30" stroke="none" /><text fill="#e1ed5e" style="font-size:6.75px; font-family:Arial;" text-anchor="middle"><textPath startOffset="21.407464694133747" xlink:href="#id30">June</textPath></text><line stroke="#e1ed5e" stroke-width="0.3" x1="101.45913802915013" x2="101.54496967792366" y1="184.9874750549273" y2="189.98673829345242" /><path d="M 101.47630435890484 185.9873277026323 a86.0,86.0 0 0,1 -42.54439059252881,-10.42667462771756" fill="none" id="id31" stroke="none" /><text fill="#e1ed5e" style="font-size:6.75px; font-family:Arial;" text-anchor="middle"><textPath startOffset="22.145653131862474" xlink:href="#id31">July</textPath></text><line stroke="#e1ed5e" stroke-width="0.3" x1="58.13341422392154" x2="55.67067388415222" y1="173.97424548756322" y2="178.32567169271397" /><path d="M 57.64086615596768 174.84453072859336 a86.0,86.0 0 0,1 -31.369924170532247,-30.572349798747897" fill="none" id="id32" stroke="none" /><text fill="#e1ed5e" style="font-size:6.75px; font-family:Arial;" text-anchor="middle"><textPath startOffset="22.145653131862474" xlink:href="#id32">August</textPath></text><line stroke="#e1ed5e" stroke-width="0.3" x1="26.387840678322732" x2="22.057713659400548" y1="142.50000000000003" y2="145.00000000000006" /><path d="M 25.521815274538298 143.00000000000003 a86.0,86.0 0 0,1 -11.493303480769221,-40.785679425670985" fill="none" id="id33" stroke="none" /><text fill="#e1ed5e" style="font-size:6.75px; font-family:Arial;" text-anchor="middle"><textPath startOffset="21.40746469413373" xlink:href="#id33">September</textPath></text><line stroke="#e1ed5e" stroke-width="0.3" x1="15.003131293944662" x2="10.003315487706104" y1="100.72959589197737" y2="100.7725132973878" /><path d="M 14.003168132696942 100.73817937305945 a86.0,86.0 0 0,1 10.791469493833604,-42.45332614584628" fill="none" id="id34" stroke="none" /><text fill="#e1ed5e" style="font-size:6.75px; font-family:Arial;" text-anchor="middle"><textPath startOffset="22.145653131862435" xlink:href="#id34">October</textPath></text><line stroke="#e1ed5e" stroke-width="0.3" x1="26.387840678322718" x2="22.05771365940052" y1="57.49999999999999" y2="54.99999999999999" /><path d="M 25.521815274538284 56.99999999999999 a86.0,86.0 0 0,1 29.574782752854787,-30.34633250058573" fill="none" id="id35" stroke="none" /><text fill="#e1ed5e" style="font-size:6.75px; font-family:Arial;" text-anchor="middle"><textPath startOffset="21.40746469413373" xlink:href="#id35">November</textPath></text><line stroke="#e1ed5e" stroke-width="0.3" x1="56.869717070023135" x2="54.33264160355391" y1="26.7553504044142" y2="22.446841604673864" /><path d="M 56.362301976729285 25.89364864446614 a86.0,86.0 0 0,1 42.16139366436587,-11.88097634709845" fill="none" id="id36" stroke="none" /><text fill="#e1ed5e" style="font-size:6.75px; font-family:Arial;" text-anchor="middle"><textPath startOffset="22.145653131862474" xlink:href="#id36">December</textPath></text></svg>