<?xml version="1.0" encoding="utf-8" ?>
<svg baseProfile="full" height="200mm" version="1.1" viewBox="0,0,200,200" width="200mm" xmlns="http://www.w3.org/2000/svg" xmlns:ev="http://www.w3.org/2001/xml-events" xmlns:xlink="http://www.w3.org/1999/xlink"><defs /><rect fill="#1a1a1a" height="200" width="200" x="0" y="0" /><text alignment-baseline="middle" fill="#e1ed5e" style="dominant-baseline: central; font-size:9.0px; font-family:Arial;" text-anchor="middle" x="100.0" y="100.0">2024</text><line stroke="#e1ed5e" stroke-width="0.3" x1="100.0" x2="100.0" y1="15.0" y2="10.0" /><path d="M 100.0 14.0 a86.0,86.0 0 0,1 42.35913384403234,11.155469271406648" fill="none" id="id25" stroke="none" /><text fill="#e1ed5e" style="font-size:6.75px; font-family:Arial;" text-anchor="middle"><textPath startOffset="22.145653131862478" xlink:href="#id25">January</textPath></text><path d="M 100.0 79.0 l 0.0 -30.202948438274603 a51.2029484382746,51.2029484382746 0 0,0 0.8789666973047006,0.007544871961768608 l -0.5184737724558458 30.19849796450727" fill="#ffe415" stroke="none" /><path d="M 100.72087961077811 79.0123766808444 l 1.027924744507078 -29.9269073720469 a50.944555667691,50.944555667691 0 0,0 0.873757932816141,0.03752292518411705 l -1.5415084379240553 29.90485187843695" fill="#ffe015" stroke="none" /><path d="M 101.80034050326958 79.07731436759882 l 2.5869979596967494 -30.06483770381155 a51.17593452736806,51.17593452736806 0 0,0 0.8746221545739232,0.08282762737937603 l -3.102719677655686 30.01599832092699" fill="#ffe415" stroke="none" /><path d="M 102.51750503828377 79.15144685158666 l 3.639207350857999 -30.13785740988346 a51.35678308716202,51.35678308716202 0 0,0 0.8743423309525865,0.11320111968510363 l -4.156027503701377 30.07094469399796" fill="#ffe715" stroke="none" /><path d="M 103.23170211078529 79.25015418208739 l 4.614259705772379 -29.626857357628733 a50.98403024147345,50.98403024147345 0 0,0 0.8636269781864142,0.14210949061196648 l -5.1221641870118635 29.543281868521095" fill="#ffe115" stroke="none" /><path d="M 104.29559338865022 79.4440306129975 l 6.099292625514078 -29.187323181869903 a50.81780013774609,50.81780013774609 0 0,0 0.852378053011977,0.18577182940127968 l -6.599433095145189 29.078319894334903" fill="#ffde14" stroke="none" /><path d="M 105.3480935250658 79.69241777938227 l 7.717947694393357 -29.306304507154568 a51.30554735488966,51.30554735488966 0 0,0 0.849763028821738,0.2316066922337076 l -8.219892124149787 29.169497320776717" fill="#ffe615" stroke="none" /><path d="M 106.04205211174951 79.88797359093562 l 8.632142692729863 -28.7335955718405 a51.002223283512535,51.002223283512535 0 0,0 0.8363377777166755,0.2590995813967814 l -9.124121103318169 28.581179402637073" fill="#ffe115" stroke="none" /><path d="M 106.72888874123014 80.10723608172694 l 9.563965484428365 -28.274164549414806 a50.84791143036179,50.84791143036179 0 0,0 0.8244485878859203,0.2867860157345493 l -10.047919844359303 28.105820101111664" fill="#ffde14" stroke="none" /><path d="M 107.40779381753099 80.34994680014964 l 10.46866852075509 -27.769387003943265 a50.6771271381214,50.6771271381214 0 0,0 0.8113836095704047,0.31386061068699656 l -10.94382439281902 27.58558650511823" fill="#ffdb14" stroke="none" /><path d="M 108.4095320186766 80.7573450057729 l 11.91546990219678 -27.264926979629013 a50.75490995104269,50.75490995104269 0 0,0 0.7953695525789276,0.3557586841762705 l -12.381752857631337 27.05636454454289" fill="#ffdd14" stroke="none" /><path d="M 110.02825361518725 81.54914285379988 l 14.25537239511019 -26.228279590947636 a50.85193950858453,50.85193950858453 0 0,0 0.7633985463626521,0.42344430506839015 l -14.703515129628942 25.979702370446102" fill="#ffde14" stroke="none" /><line stroke="#e1ed5e" stroke-width="0.3" x1="143.13028292997686" x2="145.6673583964461" y1="26.7553504044142" y2="22.446841604673864" /><path d="M 143.63769802327073 25.89364864446614 a86.0,86.0 0 0,1 29.32050498858742,28.57503671076993" fill="none" id="id26" stroke="none" /><text fill="#e1ed5e" style="font-size:6.75px; font-family:Arial;" text-anchor="middle"><textPath startOffset="20.669276256404974" xlink:href="#id26">February</textPath></text><path d="M 110.65571695917076 81.90426304109057 l 15.171573326851046 -25.764648331731607 a50.899728106954726,50.899728106954726 0 0,0 0.7491161265710754,0.449822710151384 l -15.611622209979556 25.500411621044304" fill="#ffdf14" stroke="none" /><path d="M 111.8722381534696 82.67804972795209 l 16.89090009444317 -24.644328028457554 a50.87717205450809,50.87717205450809 0 0,0 0.7161686574528452,0.4999413433629656 l -17.311463843069777 24.35074186928946" fill="#ffdf14" stroke="none" /><path d="M 115.16444852881244 85.47280134310134 l 21.557711067470485 -20.65179954748357 a50.8535045014481,50.8535045014481 0 0,0 0.5984831891237972,0.6355684070550538 l -21.909050090330542 20.27868968048402" fill="#ffde14" stroke="none" /><path d="M 116.35404254752997 86.82634096563983 l 23.717646550906792 -19.105257177302942 a51.45550212563612,51.45550212563612 0 0,0 0.5482058644618762,0.6926402012749149 l -24.04211884601023 18.69529703211335" fill="#ffe915" stroke="none" /><path d="M 117.01052211995028 87.68569379921539 l 24.447228340486344 -17.697908002022462 a51.18083698607329,51.18083698607329 0 0,0 0.5090906709995269,0.7160997839322307 l -24.74743411001583 17.27563099138073" fill="#ffe415" stroke="none" /><path d="M 117.42321728460499 88.27688183743584 l 25.588752570554536 -17.21725471921239 a51.841824170812316,51.841824170812316 0 0,0 0.4904620716432996,0.742622088294709 l -25.88053908111856 16.775452752578623" fill="#ffef16" stroke="none" /><line stroke="#e1ed5e" stroke-width="0.3" x1="172.87174338648825" x2="177.1583165268699" y1="56.24261187166439" y2="53.66864786411523" /><path d="M 173.72905801456457 55.72781907015455 a86.0,86.0 0 0,1 12.242430191666344,42.057860355516425" fill="none" id="id27" stroke="none" /><text fill="#e1ed5e" style="font-size:6.75px; font-family:Arial;" text-anchor="middle"><textPath startOffset="22.145653131862474" xlink:href="#id27">March</textPath></text><path d="M 118.18653347947321 89.5 l 28.41203317137014 -16.403694999715132 a53.80738999943026,53.80738999943026 0 0,0 0.4549712942467284,0.8038906824265554 l -28.689437830638244 15.913547547189458" fill="#eeff19" stroke="none" /><path d="M 118.53625476483649 90.13048839642627 l 29.03132109999585 -15.457543290083883 a53.890017473024876,53.890017473024876 0 0,0 0.42776338455011875,0.8202926925912685 l -29.292392553520916 14.956904354388117" fill="#edff1a" stroke="none" /><path d="M 118.8641267826498 90.77261029715802 l 32.018981733517904 -15.662088457499582 a56.64430117286486,56.64430117286486 0 0,0 0.4197632467077837,0.8771437414606974 l -32.2831242381856 15.110132213973781" fill="#c0ff1e" stroke="none" /><path d="M 119.16976305983485 91.42560881287824 l 32.66880491082739 -14.612340906190193 a56.78786555608505,56.78786555608505 0 0,0 0.3903925570892477,0.8932945699830701 l -32.91483134993361 14.049384266431273" fill="#beff1f" stroke="none" /><path d="M 119.4528033332814 92.08871423366111 l 33.04271365664105 -13.438183985839943 a56.67079638348516,56.67079638348516 0 0,0 0.3587567029497848,0.9043012486572876 l -33.26852903455696 12.86898171996909" fill="#c0ff1e" stroke="none" /><path d="M 119.71291397450082 92.76114493625339 l 34.223526357166605 -12.567352923585936 a57.45803225388942,57.45803225388942 0 0,0 0.33205223923531646,0.9288092107301553 l -34.434218766445866 11.978008756474864" fill="#b4ff20" stroke="none" /><path d="M 120.35273937422433 94.82641323984039 l 17.363827033133028 -4.413816931104993 a38.916033856238116,38.916033856238116 0 0,0 0.1590229106371213,0.6488677421007597 l -17.437037470286437 4.115093364396138" fill="#ff0000" stroke="none" /><path d="M 120.82617615685814 97.30363454192243 l 38.60555394439833 -4.998261868218532 a59.92777179671522,59.92777179671522 0 0,0 0.12333110819814283,1.0213584978064352 l -38.68566713885614 4.334809693488684" fill="#8eff24" stroke="none" /><path d="M 120.9064616781168 98.02013634271609 l 38.53888556301532 -3.649672531545799 a59.711313721271594,59.711313721271594 0 0,0 0.08787906624205652,1.0212879582014092 l -38.595858251955114 2.987563525968728" fill="#91ff24" stroke="none" /><path d="M 120.98066250479742 99.09900007780936 l 47.60338773916307 -2.0442942942907325 a68.64726291621346,68.64726291621346 0 0,0 0.04045387454275245,1.1777704182634054 l -47.63146630070267 1.2268176114632074" fill="#33ff50" stroke="none" /><line stroke="#e1ed5e" stroke-width="0.3" x1="184.99686870605535" x2="189.99668451229388" y1="99.2704041080226" y2="99.22748670261217" /><path d="M 185.99683186730306 99.26182062694052 a86.0,86.0 0 0,1 -10.086455211305974,41.156179273409016" fill="none" id="id28" stroke="none" /><text fill="#e1ed5e" style="font-size:6.75px; font-family:Arial;" text-anchor="middle"><textPath startOffset="21.40746469413373" xlink:href="#id28">April</textPath></text><path d="M 120.99303781780057 100.54070618675476 l 44.86659329573183 1.1556042905348922 a65.88147296202422,65.88147296202422 0 0,0 -0.03882399281018524,1.130318189976488 l -44.8401446159248 -1.925628745075491" fill="#39ff2e" stroke="none" /><path d="M 120.96210409425399 101.26102812881392 l 44.53835061038793 2.6793165742398384 a65.6188683451165,65.6188683451165 0 0,0 -0.0772928988423437,1.1238217857081687 l -44.485793750380516 -3.4434817841023504" fill="#3dff2e" stroke="none" /><path d="M 120.9064616781168 101.97986365728391 l 44.644685505036044 4.227898134231421 a65.84443183358457,65.84443183358457 0 0,0 -0.11622359792738121,1.1243578803987246 l -44.565529514626995 -4.993660536913077" fill="#3aff2e" stroke="none" /><path d="M 120.82617615685814 102.69636545807757 l 44.80695467847462 5.801157349612696 a66.18093197526855,66.18093197526855 0 0,0 -0.15554247106981553,1.1254278372658686 l -44.700767690849595 -6.5694734950786495" fill="#35ff2f" stroke="none" /><path d="M 120.65975698304385 103.76489593502545 l 44.31658121234254 8.075957359881377 a66.04642558104665,66.04642558104665 0 0,0 -0.2128384047895177,1.113660470807938 l -44.17141651527086 -8.835520395722629" fill="#37ff2e" stroke="none" /><path d="M 120.51834098615036 104.47187691870673 l 44.890754080383765 9.783730915228917 a66.94454475263737,66.94454475263737 0 0,0 -0.25435464520130174,1.120733498338583 l -44.716188573624805 -10.552898747506516" fill="#30ff34" stroke="none" /><path d="M 120.35273937422433 105.17358676015961 l 61.00562860386398 15.50739223044729 a83.94573802205772,83.94573802205772 0 0,0 -0.3670048472397721,1.3935771833001218 l -60.730434275819476 -16.552349918120218" fill="#4dd3ff" stroke="none" /><path d="M 120.16314734710363 105.8691983318838 l 42.96626452613367 12.506853406508784 a65.74953932122199,65.74953932122199 0 0,0 -0.32475162745062847,1.0809925480405267 l -42.74523657867941 -13.242583558140035" fill="#3bff2e" stroke="none" /><path d="M 119.94978838288452 106.5578916946017 l 42.59298158397539 14.001159050765244 a65.83519304048653,65.83519304048653 0 0,0 -0.3621392652273225,1.0706003897141216 l -42.3463568971757 -14.730261114953525" fill="#3aff2e" stroke="none" /><path d="M 119.71291397450082 107.23885506374661 l 44.70314602500608 16.415614423474064 a68.62188217020812,68.62188217020812 0 0,0 -0.4155522776643522,1.1023017870852423 l -44.41476306352728 -17.180584490753468" fill="#33ff50" stroke="none" /><path d="M 119.4528033332814 107.91128576633889 l 44.08347062616597 17.92836372837452 a68.58969014844426,68.58969014844426 0 0,0 -0.4529341597542689,1.0868770985189573 l -43.76921062187521 -18.682473336334755" fill="#33ff4f" stroke="none" /><path d="M 119.16976305983485 108.57439118712176 l 43.93775323288562 19.652798155410842 a69.13271896009273,69.13271896009273 0 0,0 -0.49385627765825346,1.0791650935511368 l -43.593912490372304 -20.404152231176667" fill="#34ff58" stroke="none" /><path d="M 118.5362547648365 109.86951160357373 l 42.082313488706276 22.40646163700249 a68.67568176389526,68.67568176389526 0 0,0 -0.5629922849519824,1.0358423931690548 l -41.69147585413896 -23.125558863646148" fill="#33ff51" stroke="none" /><line stroke="#e1ed5e" stroke-width="0.3" x1="174.33088141563837" x2="178.70328620479359" y1="141.23008692659167" y2="143.65538615756765" /><path d="M 175.20536237346943 141.71514677278685 a86.0,86.0 0 0,1 -30.301960400862466,31.631185727798858" fill="none" id="id29" stroke="none" /><text fill="#e1ed5e" style="font-size:6.75px; font-family:Arial;" text-anchor="middle"><textPath startOffset="22.145653131862474" xlink:href="#id29">May</textPath></text><path d="M 118.18653347947321 110.5 l 43.914075360278126 25.353803230470074 a71.70760646094017,71.70760646094017 0 0,0 -0.624628876446412,1.0607563891217613 l -43.47237277370195 -26.103910787885383" fill="#38ff81" stroke="none" /><path d="M 117.81537515405839 111.11811171558189 l 40.6395782137952 25.362102495617318 a68.90419146998909,68.90419146998909 0 0,0 -0.6348448582031025,0.9980815620234846 l -40.1982156639662 -26.055997732319472" fill="#33ff55" stroke="none" /><path d="M 117.423217284605 111.72311816256416 l 39.546542141986876 26.608678459228983 a68.66498468199251,68.66498468199251 0 0,0 -0.6664108856956614,0.9723133981605747 l -39.08394151947589 -27.2836265924596" fill="#33ff51" stroke="none" /><path d="M 116.79662413953412 112.60449989151573 l 38.06803959967088 28.56696661294567 a68.59461335516093,68.59461335516093 0 0,0 -0.7148474046153805,0.935758199551506 l -37.5720402177012 -29.216245725738055" fill="#33ff50" stroke="none" /><path d="M 116.35404254752997 113.17365903436017 l 49.06212764258992 39.52097710308051 a84.0,84.0 0 0,0 -0.9142127230454897,1.1151908732060285 l -48.37646810030581 -40.35737025798503" fill="#4dd2ff" stroke="none" /><path d="M 115.89218393027572 113.72728997021213 l 36.13026638578052 31.20846357898983 a68.74268894887045,68.74268894887045 0 0,0 -0.7790475906460752,0.8864131503614961 l -35.58920773117587 -31.82408900716262" fill="#33ff52" stroke="none" /><path d="M 115.41159269507618 114.26474011684316 l 34.94524363640134 32.34479580765796 a68.61676037538186,68.61676037538186 0 0,0 -0.8075348587948848,0.8575740357838572 l -34.38485294387019 -32.93991130338632" fill="#33ff50" stroke="none" /><line stroke="#e1ed5e" stroke-width="0.3" x1="143.1302829299769" x2="145.66735839644613" y1="173.24464959558577" y2="177.55315839532614" /><path d="M 143.63769802327073 174.10635135553383 a86.0,86.0 0 0,1 -40.68552437913181,11.842963189579606" fill="none" id="id30" stroke="none" /><text fill="#e1ed5e" style="font-size:6.75px; font-family:Arial;" text-anchor="middle"><textPath startOffset="21.407464694133747" xlink:href="#id30">June</textPath></text><line stroke="#e1ed5e" stroke-width="0.3" x1="101.45913802915013" x2="101.54496967792366" y1="184.9874750549273" y2="189.98673829345242" /><path d="M 101.47630435890484 185.9873277026323 a86.0,86.0 0 0,1 -42.54439059252881,-10.42667462771756" fill="none" id="id31" stroke="none" /><text fill="#e1ed5e" style="font-size:6.75px; font-family:Arial;" text-anchor="middle"><textPath startOffset="22.145653131862474" xlink:href="#id31">July</textPath></text><line stroke="#e1ed5e" stroke-width="0.3" x1="58.13341422392154" x2="55.67067388415222" y1="173.97424548756322" y2="178.32567169271397" /><path d="M 57.64086615596768 174.84453072859336 a86.0,86.0 0 0,1 -31.369924170532247,-30.572349798747897" fill="none" id="id32" stroke="none" /><text fill="#e1ed5e" style="font-size:6.75px; font-family:Arial;" text-anchor="middle"><textPath startOffset="22.145653131862474" xlink:href="#id32">August</textPath></text><line stroke="#e1ed5e" stroke-width="0.3" x1="26.387840678322732" x2="22.057713659400548" y1="142.50000000000003" y2="145.00000000000006" /><path d="M 25.521815274538298 143.00000000000003 a86.0,86.0 0 0,1 -11.493303480769221,-40.785679425670985" fill="none" id="id33" stroke="none" /><text fill="#e1ed5e" style="font-size:6.75px; font-family:Arial;" text-anchor="middle"><textPath startOffset="21.40746469413373" xlink:href="#id33">September</textPath></text><line stroke="#e1ed5e" stroke-width="0.3" x1="15.003131293944662" x2="10.003315487706104" y1="100.72959589197737" y2="100.7725132973878" /><path d="M 14.003168132696942 100.73817937305945 a86.0,86.0 0 0,1 10.791469493833604,-42.45332614584628" fill="none" id="id34" stroke="none" /><text fill="#e1ed5e" style="font-size:6.75px; font-family:Arial;" text-anchor="middle"><textPath startOffset="22.145653131862435" xlink:href="#id34">October</textPath></text><line stroke="#e1ed5e" stroke-width="0.3" x1="26.387840678322718" x2="22.05771365940052" y1="57.49999999999999" y2="54.99999999999999" /><path d="M 25.521815274538284 56.99999999999999 a86.0,86.0 0 0,1 29.574782752854787,-30.34633250058573" fill="none" id="id35" stroke="none" /><text fill="#e1ed5e" style="font-size:6.75px; font-family:Arial;" text-anchor="middle"><textPath startOffset="21.40746469413373" xlink:href="#id35">November</textPath></text><line stroke="#e1ed5e" stroke-width="0.3" x1="56.869717070023135" x2="54.33264160355391" y1="26.7553504044142" y2="22.446841604673864" /><path d="M 56.362301976729285 25.89364864446614 a86.0,86.0 0 0,1 42.16139366436587,-11.88097634709845" fill="none" id="id36" stroke="none" /><text fill="#e1ed5e" style="font-size:6.75px; font-family:Arial;" text-anchor="middle"><textPath startOffset="22.145653131862474" xlink:href="#id36">December</textPath></text></svg>