<?xml version="1.0" encoding="utf-8" ?>
<svg baseProfile="full" height="200mm" version="1.1" viewBox="0,0,200,200" width="200mm" xmlns="http://www.w3.org/2000/svg" xmlns:ev="http://www.w3.org/2001/xml-events" xmlns:xlink="http://www.w3.org/1999/xlink"><defs /><rect fill="#1a1a1a" height="200" width="200" x="0" y="0" /><rect fill="#1a1a1a" height="200" width="180" x="10" y="0" /><text alignment-baseline="middle" fill="#e1ed5e" style="dominant-baseline: central; font-size:9.0px; font-family:Arial;" text-anchor="middle" x="100.0" y="100.0">2026</text><line stroke="#e1ed5e" stroke-width="0.3" x1="100.0" x2="100.0" y1="15.0" y2="10.0" /><path d="M 100.0 14.0 a86.0,86.0 0 0,1 42.46469731375804,11.215312516191453" fill="none" id="id49" stroke="none" /><text fill="#e1ed5e" style="font-size:6.75px; font-family:Arial;" text-anchor="middle"><textPath startOffset="22.20632615414155" xlink:href="#id49">January</textPath></text><path d="M 100.36148047927253 79.00311137660856 l 1.0083425776378407 -58.57040147643237 a79.57908059934321,79.57908059934321 0 0,0 1.3694171487754034,0.03536800477874216 l -2.016386361608112 58.54436667951127" fill="red" stroke="none" /><path d="M 102.16513564639614 79.11191278185805 l 5.967949279255346 -57.57562823651626 a78.88410304590798,78.88410304590798 0 0,0 1.3494188751361926,0.1516229336083309 l -6.958134857901264 57.46436934943733" fill="red" stroke="none" /><path d="M 105.36241919743992 79.69619591428918 l 14.87781339298351 -56.33207648128593 a79.26364365579866,79.26364365579866 0 0,0 1.3161618976474578,0.35975676493077025 l -15.84527317985468 56.06763317552887" fill="red" stroke="none" /><path d="M 108.43124777332544 80.76684994638697 l 3.2823229785766346 -7.4875525033333385 a29.175395196922626,29.175395196922626 0 0,0 0.4582174779401665,0.20558882563286626 l -3.4107225749835814 7.429943347183941" fill="red" stroke="none" /><path d="M 109.08828744355905 81.06846463323043 l 10.252836165614204 -21.357371417271906 a44.690883548196965,44.690883548196965 0 0,0 0.6906417054324142,0.3388948854316904 l -10.618949138057049 21.177721371705385" fill="red" stroke="none" /><line stroke="#e1ed5e" stroke-width="0.3" x1="143.23703022742887" x2="145.7803849466894" y1="26.81831364943548" y2="22.513508569990506" /><path d="M 143.74570117128098 25.957352633546492 a86.0,86.0 0 0,1 28.547481713284135,27.462654790039103" fill="none" id="id50" stroke="none" /><text fill="#e1ed5e" style="font-size:6.75px; font-family:Arial;" text-anchor="middle"><textPath startOffset="19.985693538727396" xlink:href="#id50">February</textPath></text><path d="M 112.19680574252982 82.90503203632743 l 11.546996264559604 -16.184198993264463 a40.8811825550528,40.8811825550528 0 0,0 0.5693282529152848,0.4136411881379439 l -11.823869833828677 15.983038570309843" fill="red" stroke="none" /><path d="M 113.06298171725822 83.55741782278167 l 14.519189221511573 -18.2755336483311 a44.3409936759629,44.3409936759629 0 0,0 0.593528696504122,0.4799255954188645 l -14.831621316580186 18.022901955648106" fill="red" stroke="none" /><path d="M 114.94478906791727 85.2469230424477 l 4.695223059225149 -4.634992625913067 a27.597596245463045,27.597596245463045 0 0,0 0.3308238671845692,0.34094307537261187 l -4.774311190112827 4.5534853549903405" fill="red" stroke="none" /><path d="M 117.2510076193507 88.02491185347247 l 51.75302285805209 -35.92526443958259 a84.0,84.0 0 0,0 0.8143021373250665,1.1948879069183742 l -52.36374946104589 35.02909850939381" fill="red" stroke="none" /><line stroke="#e1ed5e" stroke-width="0.3" x1="172.23445277983987" x2="176.4835382374775" y1="55.19839476539836" y2="52.563006222186495" /><path d="M 173.08426987136738 54.67131705675599 a86.0,86.0 0 0,1 12.851231095245387,41.99856678651699" fill="none" id="id51" stroke="none" /><text fill="#e1ed5e" style="font-size:6.75px; font-family:Arial;" text-anchor="middle"><textPath startOffset="22.20632615414155" xlink:href="#id51">March</textPath></text><path d="M 118.56541770881063 90.18545643968196 l 50.290300211153344 -26.585792456993772 a77.88513563220428,77.88513563220428 0 0,0 0.6163702304341547,1.190631098494779 l -50.740479874747614 25.71618863623865" fill="red" stroke="none" /><path d="M 119.47837535516314 92.15188598940014 l 53.65402556583162 -21.617968752032972 a78.84540632049175,78.84540632049175 0 0,0 0.49637482275081685,1.2632197817107458 l -54.01819393846414 20.691199965426442" fill="red" stroke="none" /><path d="M 120.53481517161879 95.60439243477599 l 56.25159916001195 -12.041011947623272 a78.52589309851228,78.52589309851228 0 0,0 0.27155264979607846,1.3241871603663207 l -56.45053110572302 11.07094913109354" fill="red" stroke="none" /><path d="M 120.91429891909075 98.10471618934814 l 36.436075625645785 -3.3018895122483825 a57.585380705260874,57.585380705260874 0 0,0 0.08096371856065404,0.9879624400189416 l -36.48751382802593 2.674213155021672" fill="red" stroke="none" /><line stroke="#e1ed5e" stroke-width="0.3" x1="184.98032266829074" x2="189.97916517819016" y1="98.17113171792111" y2="98.06355123074" /><path d="M 185.9800911702706 98.14961562048488 a86.0,86.0 0 0,1 -9.607161424134198,41.387399972396054" fill="none" id="id52" stroke="none" /><text fill="#e1ed5e" style="font-size:6.75px; font-family:Arial;" text-anchor="middle"><textPath startOffset="21.466115282336823" xlink:href="#id52">April</textPath></text><path d="M 120.9764740272857 100.99374915477107 l 36.69978904599657 1.73863273194988 a57.740949358954474,57.740949358954474 0 0,0 -0.05557882332204027,0.9923972261566989 l -36.664423871787 -2.3701016744420023" fill="red" stroke="none" /><path d="M 120.70491114924044 103.5080841355445 l 28.481105666262373 4.8256239416051265 a49.88702176408283,49.88702176408283 0 0,0 -0.1507385243825418,0.8454216965524249 l -28.39382069954064 -5.3151643888907705" fill="red" stroke="none" /><path d="M 120.64145759157962 103.86396538481128 l 28.923086966468023 5.414240073138473 a50.425481393504015,50.425481393504015 0 0,0 -0.16705257715621316,0.8517974919207764 l -28.825604456336148 -5.911301292127194" fill="red" stroke="none" /><line stroke="#e1ed5e" stroke-width="0.3" x1="174.80103733775053" x2="179.2010983576182" y1="140.37084112569926" y2="142.7455964860345" /><path d="M 175.68104954172406 140.8457921977663 a86.0,86.0 0 0,1 -30.038265399797805,32.042727171017184" fill="none" id="id53" stroke="none" /><text fill="#e1ed5e" style="font-size:6.75px; font-family:Arial;" text-anchor="middle"><textPath startOffset="22.206326154141568" xlink:href="#id53">May</textPath></text><line stroke="#e1ed5e" stroke-width="0.3" x1="143.8653032363475" x2="146.44561519142675" y1="172.8068346515853" y2="177.08958963109032" /><path d="M 144.38136562736335 173.6633856474863 a86.0,86.0 0 0,1 -40.68145358897372,12.25698825130547" fill="none" id="id54" stroke="none" /><text fill="#e1ed5e" style="font-size:6.75px; font-family:Arial;" text-anchor="middle"><textPath startOffset="21.466115282336833" xlink:href="#id54">June</textPath></text><line stroke="#e1ed5e" stroke-width="0.3" x1="102.19456741930631" x2="102.32365962044197" y1="184.97166512339345" y2="189.96999836594603" /><path d="M 102.22038585953345 185.97133177190398 a86.0,86.0 0 0,1 -42.740103519485714,-10.115201625700543" fill="none" id="id55" stroke="none" /><text fill="#e1ed5e" style="font-size:6.75px; font-family:Arial;" text-anchor="middle"><textPath startOffset="22.20632615414155" xlink:href="#id55">July</textPath></text><line stroke="#e1ed5e" stroke-width="0.3" x1="58.666819895761336" x2="56.23545636021788" y1="174.27360380694188" y2="178.64263932499728" /><path d="M 58.180547188652646 175.14741091055294 a86.0,86.0 0 0,1 -31.652253787137756,-30.449443065178592" fill="none" id="id56" stroke="none" /><text fill="#e1ed5e" style="font-size:6.75px; font-family:Arial;" text-anchor="middle"><textPath startOffset="22.20632615414155" xlink:href="#id56">August</textPath></text><line stroke="#e1ed5e" stroke-width="0.3" x1="26.63291911575756" x2="22.317208475507996" y1="142.92168965132927" y2="145.44649492493687" /><path d="M 25.769776987707644 143.4266507060508 a86.0,86.0 0 0,1 -11.730757126820373,-40.83630448921669" fill="none" id="id57" stroke="none" /><text fill="#e1ed5e" style="font-size:6.75px; font-family:Arial;" text-anchor="middle"><textPath startOffset="21.46611528233685" xlink:href="#id57">September</textPath></text><line stroke="#e1ed5e" stroke-width="0.3" x1="15.007084014347285" x2="10.007500721073583" y1="101.09737516637583" y2="101.16192664675087" /><path d="M 14.007167355692545 101.11028546245083 a86.0,86.0 0 0,1 10.666146001902534,-42.60595125391555" fill="none" id="id58" stroke="none" /><text fill="#e1ed5e" style="font-size:6.75px; font-family:Arial;" text-anchor="middle"><textPath startOffset="22.20632615414155" xlink:href="#id58">October</textPath></text><line stroke="#e1ed5e" stroke-width="0.3" x1="26.266209847984243" x2="21.928928074336255" y1="57.711370442889674" y2="55.22380399835377" /><path d="M 25.398753493254645 57.213857153982495 a86.0,86.0 0 0,1 29.58750427330803,-30.492523968695096" fill="none" id="id59" stroke="none" /><text fill="#e1ed5e" style="font-size:6.75px; font-family:Arial;" text-anchor="middle"><textPath startOffset="21.46611528233685" xlink:href="#id59">November</textPath></text><line stroke="#e1ed5e" stroke-width="0.3" x1="56.762969772571076" x2="54.21961505331055" y1="26.818313649435495" y2="22.513508569990535" /><path d="M 56.25429882871897 25.957352633546506 a86.0,86.0 0 0,1 42.265352541879196,-11.944610805530505" fill="none" id="id60" stroke="none" /><text fill="#e1ed5e" style="font-size:6.75px; font-family:Arial;" text-anchor="middle"><textPath startOffset="22.20632615414155" xlink:href="#id60">December</textPath></text></svg>