<?xml version="1.0" encoding="utf-8" ?>
<svg baseProfile="full" height="200mm" version="1.1" viewBox="0,0,200,200" width="200mm" xmlns="http://www.w3.org/2000/svg" xmlns:ev="http://www.w3.org/2001/xml-events" xmlns:xlink="http://www.w3.org/1999/xlink"><defs /><rect fill="#1a1a1a" height="200" width="200" x="0" y="0" /><text alignment-baseline="middle" fill="#e1ed5e" style="dominant-baseline: central; font-size:9.0px; font-family:Arial;" text-anchor="middle" x="100.0" y="100.0">2024</text><line stroke="#e1ed5e" stroke-width="0.3" x1="100.0" x2="100.0" y1="15.0" y2="10.0" /><path d="M 100.0 14.0 a86.0,86.0 0 0,1 42.35913384403234,11.155469271406648" fill="none" id="id25" stroke="none" /><text fill="#e1ed5e" style="font-size:6.75px; font-family:Arial;" text-anchor="middle"><textPath startOffset="22.145653131862478" xlink:href="#id25">January</textPath></text><path d="M 100.0 79.0 l 0.0 -62.47756952953395 a83.47756952953395,83.47756952953395 0 0,0 1.433003485665492,0.0123006114489526 l -1.0725105608166372 62.46836331627944" fill="#34ff5c" stroke="none" /><path d="M 100.72087961077811 79.0123766808444 l 2.1263566312845117 -61.9065532612549 a82.94306037977134,82.94306037977134 0 0,0 1.4225692231296694,0.06109124337982321 l -3.188751615015017 61.860929449449245" fill="#e4ff1a" stroke="none" /><path d="M 101.80034050326958 79.07731436759882 l 5.351442599388469 -62.191874805628935 a83.421688776687,83.421688776687 0 0,0 1.425718120243454,0.13501698830059575 l -6.418260283016936 62.09084606182316" fill="#31ff43" stroke="none" /><path d="M 102.51750503828377 79.15144685158666 l 7.528034250043255 -62.34292276614369 a83.79579061286816,83.79579061286816 0 0,0 1.4266120750617035,0.18470349488549628 l -8.597124146995752 62.20450767505779" fill="#43ffe1" stroke="none" /><path d="M 103.23170211078529 79.25015418208739 l 9.545019493176 -61.28587228116913 a83.02471715686323,83.02471715686323 0 0,0 1.4063695093024746,0.23141756756935908 l -10.595666505531545 61.1129887151041" fill="#c0ff1e" stroke="none" /><path d="M 104.29559338865022 79.4440306129975 l 12.616946318016453 -60.376655517689876 a82.68085493808837,82.68085493808837 0 0,0 1.3868240254883895,0.30225184161212204 l -13.651532760123976 60.15117221794404" fill="#ff9c0e" stroke="none" /><path d="M 105.3480935250658 79.69241777938227 l 15.965282816253207 -60.62277930386196 a83.68980480052322,83.68980480052322 0 0,0 1.3861366981793815,0.37779772096489567 l -17.003600915367283 60.33978108875293" fill="#3effb7" stroke="none" /><path d="M 106.04205211174951 79.88797359093562 l 17.856379034519776 -59.43807833337904 a83.06235113327033,83.06235113327033 0 0,0 1.3620618413546381,0.4219702401761774 l -18.874081508746045 59.122791505396215" fill="#afff20" stroke="none" /><path d="M 106.72888874123014 80.10723608172694 l 19.783939960451463 -58.48770311732061 a82.7431429091408,82.7431429091408 0 0,0 1.3415982173055532,0.46667750192189317 l -20.785043949802034 58.13946718283013" fill="#ffbb11" stroke="none" /><path d="M 107.40779381753099 80.34994680014964 l 21.65540118455017 -57.44352445845233 a82.38985993364562,82.38985993364562 0 0,0 1.3191312475697605,0.5102683047267291 l -22.638304694613453 57.06331626558757" fill="#ff0000" stroke="none" /><path d="M 108.4095320186766 80.7573450057729 l 24.648242565224752 -56.400002621225894 a82.5507608176247,82.5507608176247 0 0,0 1.2936356651976557,0.5786267786615364 l -25.61279163327804 55.9685720916545" fill="#ff5808" stroke="none" /><path d="M 110.02825361518725 81.54914285379988 l 29.488545524126163 -54.25560240029002 a82.75147535846263,82.75147535846263 0 0,0 1.2422801688291714,0.6890718685495341 l -30.415569881111434 53.74139761630734" fill="#ffbf11" stroke="none" /><line stroke="#e1ed5e" stroke-width="0.3" x1="143.13028292997686" x2="145.6673583964461" y1="26.7553504044142" y2="22.446841604673864" /><path d="M 143.63769802327073 25.89364864446614 a86.0,86.0 0 0,1 29.32050498858742,28.57503671076993" fill="none" id="id26" stroke="none" /><text fill="#e1ed5e" style="font-size:6.75px; font-family:Arial;" text-anchor="middle"><textPath startOffset="20.669276256404974" xlink:href="#id26">February</textPath></text><path d="M 110.65571695917076 81.90426304109057 l 31.383791199655093 -53.29653860911966 a82.85033045810613,82.85033045810613 0 0,0 1.2193487263329765,0.7321838754284213 l -32.294072682545504 52.74994073315531" fill="#ffef16" stroke="none" /><path d="M 111.8722381534696 82.67804972795209 l 34.940376341855945 -50.97905328856557 a82.80367119442772,82.80367119442772 0 0,0 1.1655796035193666,0.8136650867303742 l -35.81035103654907 50.37174338603007" fill="#ffd814" stroke="none" /><path d="M 115.16444852881244 85.47280134310134 l 44.5941029521697 -42.720141868758944 a82.75471268976645,82.75471268976645 0 0,0 0.9739211653384607,1.0342705273937567 l -45.32087995124442 41.9483298814207" fill="#ffc111" stroke="none" /><path d="M 116.35404254752997 86.82634096563983 l 49.062127642589914 -39.52097710308052 a84.0,84.0 0 0,0 0.8949342774337627,1.130720224341287 l -49.73332835066524 38.672936934824556" fill="#4dd2ff" stroke="none" /><path d="M 117.01052211995028 87.68569379921539 l 50.57133450294312 -36.60974623002138 a83.43182996224866,83.43182996224866 0 0,0 0.8298880752918756,1.167341507629 l -51.19233767676495 35.736227495682876" fill="#32ff47" stroke="none" /><line stroke="#e1ed5e" stroke-width="0.3" x1="172.87174338648825" x2="177.1583165268699" y1="56.24261187166439" y2="53.66864786411523" /><path d="M 173.72905801456457 55.72781907015455 a86.0,86.0 0 0,1 12.242430191666344,42.057860355516425" fill="none" id="id27" stroke="none" /><text fill="#e1ed5e" style="font-size:6.75px; font-family:Arial;" text-anchor="middle"><textPath startOffset="22.145653131862474" xlink:href="#id27">March</textPath></text><line stroke="#e1ed5e" stroke-width="0.3" x1="184.99686870605535" x2="189.99668451229388" y1="99.2704041080226" y2="99.22748670261217" /><path d="M 185.99683186730306 99.26182062694052 a86.0,86.0 0 0,1 -10.086455211305974,41.156179273409016" fill="none" id="id28" stroke="none" /><text fill="#e1ed5e" style="font-size:6.75px; font-family:Arial;" text-anchor="middle"><textPath startOffset="21.40746469413373" xlink:href="#id28">April</textPath></text><line stroke="#e1ed5e" stroke-width="0.3" x1="174.33088141563837" x2="178.70328620479359" y1="141.23008692659167" y2="143.65538615756765" /><path d="M 175.20536237346943 141.71514677278685 a86.0,86.0 0 0,1 -30.301960400862466,31.631185727798858" fill="none" id="id29" stroke="none" /><text fill="#e1ed5e" style="font-size:6.75px; font-family:Arial;" text-anchor="middle"><textPath startOffset="22.145653131862474" xlink:href="#id29">May</textPath></text><line stroke="#e1ed5e" stroke-width="0.3" x1="143.1302829299769" x2="145.66735839644613" y1="173.24464959558577" y2="177.55315839532614" /><path d="M 143.63769802327073 174.10635135553383 a86.0,86.0 0 0,1 -40.68552437913181,11.842963189579606" fill="none" id="id30" stroke="none" /><text fill="#e1ed5e" style="font-size:6.75px; font-family:Arial;" text-anchor="middle"><textPath startOffset="21.407464694133747" xlink:href="#id30">June</textPath></text><line stroke="#e1ed5e" stroke-width="0.3" x1="101.45913802915013" x2="101.54496967792366" y1="184.9874750549273" y2="189.98673829345242" /><path d="M 101.47630435890484 185.9873277026323 a86.0,86.0 0 0,1 -42.54439059252881,-10.42667462771756" fill="none" id="id31" stroke="none" /><text fill="#e1ed5e" style="font-size:6.75px; font-family:Arial;" text-anchor="middle"><textPath startOffset="22.145653131862474" xlink:href="#id31">July</textPath></text><line stroke="#e1ed5e" stroke-width="0.3" x1="58.13341422392154" x2="55.67067388415222" y1="173.97424548756322" y2="178.32567169271397" /><path d="M 57.64086615596768 174.84453072859336 a86.0,86.0 0 0,1 -31.369924170532247,-30.572349798747897" fill="none" id="id32" stroke="none" /><text fill="#e1ed5e" style="font-size:6.75px; font-family:Arial;" text-anchor="middle"><textPath startOffset="22.145653131862474" xlink:href="#id32">August</textPath></text><line stroke="#e1ed5e" stroke-width="0.3" x1="26.387840678322732" x2="22.057713659400548" y1="142.50000000000003" y2="145.00000000000006" /><path d="M 25.521815274538298 143.00000000000003 a86.0,86.0 0 0,1 -11.493303480769221,-40.785679425670985" fill="none" id="id33" stroke="none" /><text fill="#e1ed5e" style="font-size:6.75px; font-family:Arial;" text-anchor="middle"><textPath startOffset="21.40746469413373" xlink:href="#id33">September</textPath></text><line stroke="#e1ed5e" stroke-width="0.3" x1="15.003131293944662" x2="10.003315487706104" y1="100.72959589197737" y2="100.7725132973878" /><path d="M 14.003168132696942 100.73817937305945 a86.0,86.0 0 0,1 10.791469493833604,-42.45332614584628" fill="none" id="id34" stroke="none" /><text fill="#e1ed5e" style="font-size:6.75px; font-family:Arial;" text-anchor="middle"><textPath startOffset="22.145653131862435" xlink:href="#id34">October</textPath></text><line stroke="#e1ed5e" stroke-width="0.3" x1="26.387840678322718" x2="22.05771365940052" y1="57.49999999999999" y2="54.99999999999999" /><path d="M 25.521815274538284 56.99999999999999 a86.0,86.0 0 0,1 29.574782752854787,-30.34633250058573" fill="none" id="id35" stroke="none" /><text fill="#e1ed5e" style="font-size:6.75px; font-family:Arial;" text-anchor="middle"><textPath startOffset="21.40746469413373" xlink:href="#id35">November</textPath></text><line stroke="#e1ed5e" stroke-width="0.3" x1="56.869717070023135" x2="54.33264160355391" y1="26.7553504044142" y2="22.446841604673864" /><path d="M 56.362301976729285 25.89364864446614 a86.0,86.0 0 0,1 42.16139366436587,-11.88097634709845" fill="none" id="id36" stroke="none" /><text fill="#e1ed5e" style="font-size:6.75px; font-family:Arial;" text-anchor="middle"><textPath startOffset="22.145653131862474" xlink:href="#id36">December</textPath></text></svg>