<?xml version="1.0" encoding="utf-8" ?>
<svg baseProfile="full" height="200mm" version="1.1" viewBox="0,0,200,200" width="200mm" xmlns="http://www.w3.org/2000/svg" xmlns:ev="http://www.w3.org/2001/xml-events" xmlns:xlink="http://www.w3.org/1999/xlink"><defs /><rect fill="#1a1a1a" height="200" width="200" x="0" y="0" /><text alignment-baseline="middle" fill="#e1ed5e" style="dominant-baseline: central; font-size:9.0px; font-family:Arial;" text-anchor="middle" x="100.0" y="100.0">2024</text><line stroke="#e1ed5e" stroke-width="0.3" x1="100.0" x2="100.0" y1="15.0" y2="10.0" /><path d="M 100.0 14.0 a86.0,86.0 0 0,1 42.35913384403234,11.155469271406648" fill="none" id="id25" stroke="none" /><text fill="#e1ed5e" style="font-size:6.75px; font-family:Arial;" text-anchor="middle"><textPath startOffset="22.145653131862478" xlink:href="#id25">January</textPath></text><path d="M 100.0 79.0 l 0.0 -23.7557144973348 a44.7557144973348,44.7557144973348 0 0,0 0.7682913534687864,0.006594857244342722 l -0.40779842861993165 23.752214038284894" fill="#ffa90f" stroke="none" /><path d="M 100.72087961077811 79.0123766808444 l 0.8085000974378695 -23.538598185917497 a44.552479210597674,44.552479210597674 0 0,0 0.7641264434773368,0.03281487731664333 l -1.2124523015160424 23.521250740175024" fill="#ffa60f" stroke="none" /><path d="M 101.80034050326958 79.07731436759882 l 2.034767733399952 -23.647085394993134 a44.734467076532034,44.734467076532034 0 0,0 0.76453427454791,0.07240219068297528 l -2.440401571332875 23.608671448804973" fill="#ffa90f" stroke="none" /><path d="M 102.51750503828377 79.15144685158666 l 2.8623685863075776 -23.704518042460265 a44.8767110287243,44.8767110287243 0 0,0 0.7640199749222402,0.09891768196646127 l -3.268866383120609 23.651888764293407" fill="#ffab0f" stroke="none" /><path d="M 103.23170211078529 79.25015418208739 l 3.6292826314922078 -23.302597965872543 a44.58352739473759,44.58352739473759 0 0,0 0.7552077946456137,0.12426915521866574 l -4.0287679291908916 23.23686281215821" fill="#ffa60f" stroke="none" /><path d="M 104.29559338865022 79.4440306129975 l 4.797314889423071 -22.956888393428418 a44.45278138849652,44.45278138849652 0 0,0 0.7456162043258069,0.16250358138549725 l -5.190693510368012 22.8711533539092" fill="#ffa40f" stroke="none" /><path d="M 105.3480935250658 79.69241777938227 l 6.070445814522799 -23.0504715215708 a44.836412266819934,44.836412266819934 0 0,0 0.7426161000838031,0.20240332034495512 l -6.4652433155412945 22.942867707081703" fill="#ffab0f" stroke="none" /><path d="M 106.04205211174951 79.88797359093562 l 6.789493341281885 -22.600015170092465 a44.597836882216995,44.597836882216995 0 0,0 0.7313182325740245,0.22656425785892811 l -7.176452206727539 22.480134324426892" fill="#ffa70f" stroke="none" /><path d="M 106.72888874123014 80.10723608172694 l 7.522405766932593 -22.238656006027128 a44.47646501236477,44.47646501236477 0 0,0 0.7211418865024714,0.2508505823748919 l -7.903053425480082 22.106246991083644" fill="#ffa50f" stroke="none" /><path d="M 107.40779381753099 80.34994680014964 l 8.23398752126933 -21.84163015673317 a44.342136971664246,44.342136971664246 0 0,0 0.7099550661992784,0.2746258711777658 l -8.607714849962136 21.697064397417364" fill="#ffa20f" stroke="none" /><path d="M 108.4095320186766 80.7573450057729 l 9.37194928755581 -21.444854049346866 a44.40331597544046,44.40331597544046 0 0,0 0.6958350550611367,0.31123816946425975 l -9.738697745472578 21.28081212897275" fill="#ffa40f" stroke="none" /><path d="M 110.02825361518725 81.54914285379988 l 11.2123674734443 -20.629493275869702 a44.479633241997306,44.479633241997306 0 0,0 0.6677363280107034,0.3703820851252853 l -11.564847989611103 20.433978275311272" fill="#ffa50f" stroke="none" /><line stroke="#e1ed5e" stroke-width="0.3" x1="143.13028292997686" x2="145.6673583964461" y1="26.7553504044142" y2="22.446841604673864" /><path d="M 143.63769802327073 25.89364864446614 a86.0,86.0 0 0,1 29.32050498858742,28.57503671076993" fill="none" id="id26" stroke="none" /><text fill="#e1ed5e" style="font-size:6.75px; font-family:Arial;" text-anchor="middle"><textPath startOffset="20.669276256404974" xlink:href="#id26">February</textPath></text><path d="M 110.65571695917076 81.90426304109057 l 11.93299273958707 -20.26483047321371 a44.51722070804985,44.51722070804985 0 0,0 0.6551816519029177,0.3934177570698297 l -12.279107148047421 20.056998715607957" fill="#ffa50f" stroke="none" /><path d="M 111.8722381534696 82.67804972795209 l 13.285305607385922 -19.383657917344312 a44.49947955462556,44.49947955462556 0 0,0 0.6263935522171517,0.43727134762241693 l -13.616094250776834 19.152741753916768" fill="#ffa50f" stroke="none" /><path d="M 115.16444852881244 85.47280134310134 l 16.955921716764657 -16.243389446193884 a44.48086416565145,44.48086416565145 0 0,0 0.5234850518528855,0.5559229842535293 l -17.232262602353803 15.949925001995862" fill="#ffa50f" stroke="none" /><path d="M 116.35404254752997 86.82634096563983 l 18.654789321761537 -15.026977774362376 a44.954357133316876,44.954357133316876 0 0,0 0.47894279903100306,0.605128580748838 l -18.9099985514341 14.70452924969886" fill="#ffad10" stroke="none" /><path d="M 117.01052211995028 87.68569379921539 l 19.228631863363955 -13.920046599270366 a44.73832303813043,44.73832303813043 0 0,0 0.445007628559746,0.6259589594014082 l -19.464754590453662 13.587910413159454" fill="#ffa90f" stroke="none" /><path d="M 117.42321728460499 88.27688183743584 l 20.126482076786335 -13.541995357618308 a45.258213434895765,45.258213434895765 0 0,0 0.42817623560112034,0.6483133938877235 l -20.35598275130818 13.194502085391527" fill="#ffb210" stroke="none" /><line stroke="#e1ed5e" stroke-width="0.3" x1="172.87174338648825" x2="177.1583165268699" y1="56.24261187166439" y2="53.66864786411523" /><path d="M 173.72905801456457 55.72781907015455 a86.0,86.0 0 0,1 12.242430191666344,42.057860355516425" fill="none" id="id27" stroke="none" /><text fill="#e1ed5e" style="font-size:6.75px; font-family:Arial;" text-anchor="middle"><textPath startOffset="22.145653131862474" xlink:href="#id27">March</textPath></text><path d="M 118.18653347947321 89.5 l 22.34709467809933 -12.902101128006706 a46.804202256013404,46.804202256013404 0 0,0 0.3957554617837725,0.69926198041599 l -22.565283504904478 12.516582377491597" fill="#ffcb12" stroke="none" /><path d="M 118.53625476483649 90.13048839642627 l 22.83418709737569 -12.15791848864949 a46.86919176113942,46.86919176113942 0 0,0 0.3720340990594261,0.7134244394811389 l -23.03952926541006 11.764147806063852" fill="#ffcc13" stroke="none" /><path d="M 118.8641267826498 90.77261029715802 l 25.18409055696425 -12.318800682282584 a49.035535797112594,49.035535797112594 0 0,0 0.3633784031942839,0.7593211045600045 l -25.391848218118444 11.884667075657475" fill="#ffee16" stroke="none" /><path d="M 119.16976305983485 91.42560881287824 l 25.69520005693454 -11.493136155716687 a49.14845439202179,49.14845439202179 0 0,0 0.3378748364496272,0.773123747503645 l -25.888708775401135 11.050350338437193" fill="#fff016" stroke="none" /><path d="M 119.4528033332814 92.08871423366111 l 25.98929284829757 -10.56961914770289 a49.05637524132543,49.05637524132543 0 0,0 0.3105533107590862,0.7827972115503711 l -26.16690483402278 10.121920918938953" fill="#ffee16" stroke="none" /><path d="M 119.71291397450082 92.76114493625339 l 26.91804486884416 -9.884678929611427 a49.67556480878121,49.67556480878121 0 0,0 0.28707705229356023,0.8030056083150242 l -27.08376209118166 9.421138364915485" fill="#fff817" stroke="none" /><path d="M 120.35273937422433 94.82641323984039 l 13.657279799129979 -3.471627118561627 a35.09161049568346,35.09161049568346 0 0,0 0.1433951378648321,0.5851010961992861 l -13.714862463511102 3.236670197754246" fill="#ff0000" stroke="none" /><path d="M 120.82617615685814 97.30363454192243 l 30.36466851535556 -3.931314261154889 a51.61810454400117,51.61810454400117 0 0,0 0.10622984712487171,0.8797355238822061 l -30.427680448740094 3.4094850603492697" fill="#e8ff1a" stroke="none" /><path d="M 120.9064616781168 98.02013634271609 l 30.312231415137646 -2.8705998305217144 a51.44785241608756,51.44785241608756 0 0,0 0.07571746372202617,0.8799517021705641 l -30.357042501557412 2.349827080975488" fill="#ebff1a" stroke="none" /><path d="M 120.98066250479742 99.09900007780936 l 37.44179117309012 -1.6079116150845392 a58.476300591323216,58.476300591323216 0 0,0 0.034460120146858064,1.0032687987866287 l -37.46387598023382 0.9649365517337906" fill="#86ff25" stroke="none" /><line stroke="#e1ed5e" stroke-width="0.3" x1="184.99686870605535" x2="189.99668451229388" y1="99.2704041080226" y2="99.22748670261217" /><path d="M 185.99683186730306 99.26182062694052 a86.0,86.0 0 0,1 -10.086455211305974,41.156179273409016" fill="none" id="id28" stroke="none" /><text fill="#e1ed5e" style="font-size:6.75px; font-family:Arial;" text-anchor="middle"><textPath startOffset="21.40746469413373" xlink:href="#id28">April</textPath></text><path d="M 120.99303781780057 100.54070618675476 l 35.28920307166968 0.9089246917050425 a56.30090646893833,56.30090646893833 0 0,0 -0.03317815904354385,0.965945900005734 l -35.26840022562929 -1.5145768562748874" fill="#a4ff21" stroke="none" /><path d="M 120.96210409425399 101.26102812881392 l 35.03102829330974 2.1073796724083937 a56.09435841229111,56.09435841229111 0 0,0 -0.06607391562414927,0.9607002319439818 l -34.989690416520524 -2.708423328506719" fill="#a7ff21" stroke="none" /><path d="M 120.9064616781168 101.97986365728391 l 35.114664545032895 3.3253952409936893 a56.271772277828816,56.271772277828816 0 0,0 -0.09932666519788678,0.9608953839025772 l -35.05240548735334 -3.927695147179198" fill="#a4ff21" stroke="none" /><path d="M 120.82617615685814 102.69636545807757 l 35.24229513592714 4.562820680674823 a56.536441845122695,56.536441845122695 0 0,0 -0.13287540092925115,0.9614202093171081 l -35.15877521844268 -5.167129198192016" fill="#a1ff22" stroke="none" /><path d="M 120.65975698304385 103.76489593502545 l 34.8565986175124 6.3520334025028555 a56.43064768712081,56.43064768712081 0 0,0 -0.18185100751936478,0.9515213142627714 l -34.74242131771087 -6.949457281798941" fill="#a2ff22" stroke="none" /><path d="M 120.51834098615036 104.47187691870673 l 35.308206405181835 7.6952592498020245 a57.13705099302636,57.13705099302636 0 0,0 -0.21709124151758988,0.9565440661487459 l -35.17090430210658 -8.300237649889787" fill="#98ff23" stroke="none" /><path d="M 120.35273937422433 105.17358676015961 l 47.9831397522534 12.197126488414407 a70.50910618319281,70.50910618319281 0 0,0 -0.30826084031777784,1.1705166207004352 l -47.76668943113089 -13.019023613487645" fill="#38ff7f" stroke="none" /><path d="M 120.16314734710363 105.8691983318838 l 33.794525563812954 9.8370938649331 a56.19713587482242,56.19713587482242 0 0,0 -0.27757017800917255,0.9239408477847102 l -33.62067906580015 -10.415772316308534" fill="#a5ff21" stroke="none" /><path d="M 119.94978838288452 106.5578916946017 l 33.50092498972463 11.012419457044075 a56.26450563193874,56.26450563193874 0 0,0 -0.30949384040536665,0.9149635457069641 l -33.3069457277469 -11.5858846772252" fill="#a5ff21" stroke="none" /><path d="M 119.71291397450082 107.23885506374661 l 35.16064586452599 12.911476187146006 a58.45633771395499,58.45633771395499 0 0,0 -0.3539929758950372,0.9390084254571184 l -34.93382220481651 -13.513152892797283" fill="#86ff25" stroke="none" /><path d="M 119.4528033332814 107.91128576633889 l 34.67324868587131 14.101308387359826 a58.43101752113748,58.43101752113748 0 0,0 -0.3858510479817884,0.9259020510143641 l -34.42607179335303 -14.694442947815467" fill="#86ff25" stroke="none" /><path d="M 119.16976305983485 108.57439118712176 l 34.55863667045373 15.457638614581514 a58.8581293787666,58.8581293787666 0 0,0 -0.420458751256477,0.9187782522187143 l -34.28819345434219 -16.04860584901492" fill="#81ff25" stroke="none" /><path d="M 118.5362547648365 109.86951160357373 l 33.09926600934716 17.62349482640522 a58.49865304586094,58.49865304586094 0 0,0 -0.4795626268135132,0.8823412190725061 l -32.79185803291831 -18.189090878952328" fill="#86ff25" stroke="none" /><line stroke="#e1ed5e" stroke-width="0.3" x1="174.33088141563837" x2="178.70328620479359" y1="141.23008692659167" y2="143.65538615756765" /><path d="M 175.20536237346943 141.71514677278685 a86.0,86.0 0 0,1 -30.301960400862466,31.631185727798858" fill="none" id="id29" stroke="none" /><text fill="#e1ed5e" style="font-size:6.75px; font-family:Arial;" text-anchor="middle"><textPath startOffset="22.145653131862474" xlink:href="#id29">May</textPath></text><path d="M 118.18653347947321 110.5 l 34.54001316478118 19.941685898499625 a60.88337179699926,60.88337179699926 0 0,0 -0.5303413960769121,0.9006356342422515 l -34.192598058574504 -20.531672701035422" fill="#66ff29" stroke="none" /><path d="M 117.81537515405839 111.11811171558189 l 31.964502383336768 19.94821357157692 a58.67838421842937,58.67838421842937 0 0,0 -0.540629963344984,0.8499600986284305 l -31.617354728365893 -20.493987344884022" fill="#83ff25" stroke="none" /><path d="M 117.423217284605 111.72311816256416 l 31.10478986519527 20.92869078396958 a58.4902394029295,58.4902394029295 0 0,0 -0.5676624326879038,0.8282364540889847 l -30.740937695692043 -21.459561973128608" fill="#86ff25" stroke="none" /><path d="M 116.79662413953412 112.60449989151573 l 29.941893985985914 22.468955449794514 a58.43488980179947,58.43488980179947 0 0,0 -0.608969527935378,0.7971606602518803 l -29.551772480696233 -22.97963702328727" fill="#86ff25" stroke="none" /><path d="M 116.35404254752997 113.17365903436017 l 38.589143019963565 31.084682034775536 a70.5517851970875,70.5517851970875 0 0,0 -0.7678492816755933,0.9366512730974305 l -38.049846919049344 -31.74253558957146" fill="#38ff7f" stroke="none" /><path d="M 115.89218393027572 113.72728997021213 l 28.417765064472185 24.546588628527502 a58.551356627393524,58.551356627393524 0 0,0 -0.6635511936921337,0.7549994520090731 l -27.992202806821467 -25.030800358347868" fill="#85ff25" stroke="none" /><path d="M 115.41159269507618 114.26474011684316 l 27.48570168779124 25.440355144519426 a58.452309236541424,58.452309236541424 0 0,0 -0.6879117729740638,0.730538464052164 l -27.044934081080918 -25.908435068516084" fill="#86ff25" stroke="none" /><path d="M 114.65682725009322 115.03919595460226 l 26.792175841859304 27.491132675615063 a59.38727734718079,59.38727734718079 0 0,0 -0.7361972515723256,0.7052603135507188 l -26.316306104421667 -27.947005119471363" fill="#7aff26" stroke="none" /><path d="M 114.13192950727249 115.5334660781643 l 28.340183858790496 31.150826530299167 a63.11341846336913,63.11341846336913 0 0,0 -0.8076563246589727,0.7222112657660943 l -27.801262507308145 -31.632733325948646" fill="#49ff2c" stroke="none" /><path d="M 113.59037401385872 116.0094264158162 l 24.252166294617336 28.568990913854478 a58.47472230474394,58.47472230474394 0 0,0 -0.7708239969861442,0.6430487935913056 l -23.758167963469297 -28.981101891357653" fill="#86ff25" stroke="none" /><path d="M 112.7482090630111 116.68781488649013 l 30.100260097463636 39.40220669890977 a70.58386381352881,70.58386381352881 0 0,0 -0.9691736267505023,0.7272859576874126 l -29.419433481802365 -39.9131116838612" fill="#38ff80" stroke="none" /><path d="M 112.16784306229584 117.11559508785304 l 20.76212741890292 29.20453232713742 a56.8325361006666,56.8325361006666 0 0,0 -0.7999988882096016,0.5584613550150052 l -20.25773343951956 -29.55663849795755" fill="#9dff22" stroke="none" /><path d="M 111.27062007382361 117.71928675628689 l 19.361450998743038 30.439416821557074 a57.07525303048087,57.07525303048087 0 0,0 -0.8312218921487896,0.5187439376061797 l -18.836064977804533 -30.7672965560048" fill="#99ff23" stroke="none" /><line stroke="#e1ed5e" stroke-width="0.3" x1="143.1302829299769" x2="145.66735839644613" y1="173.24464959558577" y2="177.55315839532614" /><path d="M 143.63769802327073 174.10635135553383 a86.0,86.0 0 0,1 -40.68552437913181,11.842963189579606" fill="none" id="id30" stroke="none" /><text fill="#e1ed5e" style="font-size:6.75px; font-family:Arial;" text-anchor="middle"><textPath startOffset="21.407464694133747" xlink:href="#id30">June</textPath></text><path d="M 109.71004243097381 118.62028667847754 l 17.8550927020997 34.239494538495634 a59.61537675139589,59.61537675139589 0 0,0 -0.9114702210553425,0.4654031893533057 l -17.264695259330775 -34.54095567952178" fill="#76ff27" stroke="none" /><path d="M 109.06512990194946 118.94263497670748 l 16.565381630076384 34.615276434252905 a59.37485154589939,59.37485154589939 0 0,0 -0.9231694829495236,0.43208993158021314 l -15.968723433255352 -34.89454259740365" fill="#7aff26" stroke="none" /><path d="M 108.4095320186766 119.2426549942271 l 20.198839595901152 46.218897884501516 a71.43986164412946,71.43986164412946 0 0,0 -1.1279501121843136,0.48145483083186363 l -19.402454408546404 -46.55882736499278" fill="#39ff8c" stroke="none" /><path d="M 107.74402155503746 119.51999308798841 l 13.914381037528415 35.073329761009106 a58.73259148510764,58.73259148510764 0 0,0 -0.9403583977585497,0.36375082945218407 l -13.310250377276336 -35.307020478599334" fill="#82ff25" stroke="none" /><path d="M 107.06938296918513 119.77432235084164 l 11.934791483683515 33.383735895643674 a56.45296983482614,56.45296983482614 0 0,0 -0.9153290656988,0.31839896349499475 l -11.359956645939693 -33.583693291707256" fill="#a2ff22" stroke="none" /><path d="M 106.0420521117495 120.11202640906438 l 10.093822561015916 33.59905246775179 a56.082496784351186,56.082496784351186 0 0,0 -0.9243997496449474,0.26907929477533926 l -9.515562798989361 -33.76737545682965" fill="#a7ff21" stroke="none" /><path d="M 104.9986988182912 120.39639698878246 l 8.946880156023768 36.506324166916436 a58.58667807490094,58.58667807490094 0 0,0 -0.9788657883655016,0.2310096607409023 l -8.318882213918387 -36.65452997130356" fill="#84ff25" stroke="none" /><path d="M 104.29559338865022 120.5559693870025 l 7.375971260874965 35.29669261494021 a57.059138392297015,57.059138392297015 0 0,0 -0.9605050454405905,0.19212790960079076 l -6.768969729903416 -35.418109921203865" fill="#99ff23" stroke="none" /><path d="M 103.58742460773223 120.69131181640829 l 6.388261072400634 36.845792251289154 a58.395484836465336,58.395484836465336 0 0,0 -0.9891708417359002,0.16276768558398577 l -5.754812727611662 -36.95002593536881" fill="#87ff25" stroke="none" /><path d="M 102.875027216393 120.80226474461374 l 5.8689417455690736 42.464738860877304 a63.86838606403776,63.86838606403776 0 0,0 -1.087350690377887,0.14077931638863161 l -5.139113233300411 -42.559229773466335" fill="#3fff2d" stroke="none" /><path d="M 101.80034050326958 120.92268563240118 l 2.4065092524698097 27.967285338217586 a49.07063120009066,49.07063120009066 0 0,0 -0.839881252345822,0.06501212071184345 l -1.9260590053487519 -28.004475225924484" fill="#ffef16" stroke="none" /><path d="M 101.08105385017728 120.97215588758144 l 2.647771647754117 51.366062608547644 a72.43425981390115,72.43425981390115 0 0,0 -1.242331163567321,0.05335104558557624 l -1.7656147235859663 -51.40394622255905" fill="#3bff9a" stroke="none" /><line stroke="#e1ed5e" stroke-width="0.3" x1="101.45913802915013" x2="101.54496967792366" y1="184.9874750549273" y2="189.98673829345242" /><path d="M 101.47630435890484 185.9873277026323 a86.0,86.0 0 0,1 -42.54439059252881,-10.42667462771756" fill="none" id="id31" stroke="none" /><text fill="#e1ed5e" style="font-size:6.75px; font-family:Arial;" text-anchor="middle"><textPath startOffset="22.145653131862474" xlink:href="#id31">July</textPath></text><path d="M 100.36049292484886 120.99690560180557 l 0.6170393165152517 35.939446764192226 a56.94474330461038,56.94474330461038 0 0,0 -0.9775322413640996,0.008390938612587896 l -4.401961483416435e-15 -35.94474330461038" fill="#9bff22" stroke="none" /><path d="M 100.0 121.0 l 2.463065193260247e-15 20.11245360682875 a41.11245360682875,41.11245360682875 0 0,0 -0.7057499356399256,-0.0060580143909409485 l 0.345257010791071 -20.109489990632245" fill="#ff6c09" stroke="none" /><path d="M 98.91894614982273 120.97215588758144 l -2.105045515583148 40.837320634883184 a61.891539140254096,61.891539140254096 0 0,0 -1.0605723768969615,-0.06380140056057998 l 2.8057622446125556 -40.79516725649791" fill="#58ff2a" stroke="none" /><path d="M 97.48249496171623 120.84855314841334 l -4.196133460313401 34.75000452226246 a56.00243349131633,56.00243349131633 0 0,0 -0.9534339048205409,-0.12344110739078379 l 4.792045187024737 -34.67285181867128" fill="#a8ff21" stroke="none" /><path d="M 96.76829788921471 120.74984581791261 l -5.586469586405598 35.86914220760481 a57.301570284895554,57.301570284895554 0 0,0 -0.9706408409868298,-0.159718581012221 l 6.201387930445492 -35.76795762809692" fill="#96ff23" stroke="none" /><path d="M 95.70440661134978 120.55596938700252 l -10.500874494706729 50.25048581652988 a72.3359492943381,72.3359492943381 0 0,0 -1.213306665285635,-0.26443454056379007 l 11.3619435766115 -50.06281981783238" fill="#3bff98" stroke="none" /><path d="M 94.6519064749342 120.30758222061772 l -9.202974317549367 34.94519247876604 a57.13670175413744,57.13670175413744 0 0,0 -0.9463432171112491,-0.2579300520250299 l 9.801498935595312 -34.78206193259687" fill="#98ff23" stroke="none" /><path d="M 93.61358852112213 120.00534299687104 l -10.647318171744116 33.35257252481086 a56.01084800848332,56.01084800848332 0 0,0 -0.9134496137130335,-0.3002690314422128 l 11.218290523104892 -33.16488257196662" fill="#a8ff21" stroke="none" /><path d="M 92.93061703081489 119.77432235084164 l -12.917624146242817 36.13289377421655 a59.37252957627908,59.37252957627908 0 0,0 -0.9567765763023581,-0.351341611554709 l 13.535989874199295 -35.90582131365312" fill="#7aff26" stroke="none" /><path d="M 92.25597844496254 119.51999308798841 l -14.636498878596234 36.89353844278736 a60.69080848575118,60.69080848575118 0 0,0 -0.9651154638362829,-0.3925040571843188 l 15.267668803622957 -36.63684712902375" fill="#68ff28" stroke="none" /><path d="M 91.59046798132341 119.24265499422711 l -15.918304102324226 36.42419497945133 a60.75065264112226,60.75065264112226 0 0,0 -0.9520107405698213,-0.42582229516911957 l 16.541228245749682 -36.14556893337236" fill="#67ff28" stroke="none" /><path d="M 90.6110303473126 118.78422872680471 l -28.166908958062184 56.35268618041412 a84.0,84.0 0 0,0 -1.2842911131456707,-0.655768193308655 l 29.130127292921436 -55.86086003543262" fill="#4dd2ff" stroke="none" /><path d="M 89.97174638481275 118.45085714620012 l -17.84081941979854 32.82509827905954 a58.360164809590685,58.360164809590685 0 0,0 -0.8761133874471982,-0.48596532738543297 l 18.40167699540184 -32.51400003624096" fill="#87ff25" stroke="none" /><line stroke="#e1ed5e" stroke-width="0.3" x1="58.13341422392154" x2="55.67067388415222" y1="173.97424548756322" y2="178.32567169271397" /><path d="M 57.64086615596768 174.84453072859336 a86.0,86.0 0 0,1 -31.369924170532247,-30.572349798747897" fill="none" id="id32" stroke="none" /><text fill="#e1ed5e" style="font-size:6.75px; font-family:Arial;" text-anchor="middle"><textPath startOffset="22.145653131862474" xlink:href="#id32">August</textPath></text><path d="M 89.34428304082925 118.09573695890944 l -26.066806940422524 44.26713693315568 a72.37176107870954,72.37176107870954 0 0,0 -1.06513050950863,-0.639580267274667 l 26.82287020648858 -43.8131426653451" fill="#3bff99" stroke="none" /><path d="M 88.72937992617639 117.7192867562869 l -18.842039017780166 29.622814915446536 a56.10745786670336,56.10745786670336 0 0,0 -0.8082529591529637,-0.523899803087736 l 19.34777760919014 -29.295001270654907" fill="#a7ff21" stroke="none" /><path d="M 88.1277618465304 117.32195027204791 l -17.173398551158744 25.056501719374257 a51.3768644894424,51.3768644894424 0 0,0 -0.7232025401514014,-0.5048515397654196 l 17.60099618248391 -24.75800536380371" fill="#ecff1a" stroke="none" /><line stroke="#e1ed5e" stroke-width="0.3" x1="26.387840678322732" x2="22.057713659400548" y1="142.50000000000003" y2="145.00000000000006" /><path d="M 25.521815274538298 143.00000000000003 a86.0,86.0 0 0,1 -11.493303480769221,-40.785679425670985" fill="none" id="id33" stroke="none" /><text fill="#e1ed5e" style="font-size:6.75px; font-family:Arial;" text-anchor="middle"><textPath startOffset="21.40746469413373" xlink:href="#id33">September</textPath></text><line stroke="#e1ed5e" stroke-width="0.3" x1="15.003131293944662" x2="10.003315487706104" y1="100.72959589197737" y2="100.7725132973878" /><path d="M 14.003168132696942 100.73817937305945 a86.0,86.0 0 0,1 10.791469493833604,-42.45332614584628" fill="none" id="id34" stroke="none" /><text fill="#e1ed5e" style="font-size:6.75px; font-family:Arial;" text-anchor="middle"><textPath startOffset="22.145653131862435" xlink:href="#id34">October</textPath></text><line stroke="#e1ed5e" stroke-width="0.3" x1="26.387840678322718" x2="22.05771365940052" y1="57.49999999999999" y2="54.99999999999999" /><path d="M 25.521815274538284 56.99999999999999 a86.0,86.0 0 0,1 29.574782752854787,-30.34633250058573" fill="none" id="id35" stroke="none" /><text fill="#e1ed5e" style="font-size:6.75px; font-family:Arial;" text-anchor="middle"><textPath startOffset="21.40746469413373" xlink:href="#id35">November</textPath></text><line stroke="#e1ed5e" stroke-width="0.3" x1="56.869717070023135" x2="54.33264160355391" y1="26.7553504044142" y2="22.446841604673864" /><path d="M 56.362301976729285 25.89364864446614 a86.0,86.0 0 0,1 42.16139366436587,-11.88097634709845" fill="none" id="id36" stroke="none" /><text fill="#e1ed5e" style="font-size:6.75px; font-family:Arial;" text-anchor="middle"><textPath startOffset="22.145653131862474" xlink:href="#id36">December</textPath></text></svg>