<?xml version="1.0" encoding="utf-8" ?>
<svg baseProfile="full" height="200mm" version="1.1" viewBox="0,0,200,200" width="200mm" xmlns="http://www.w3.org/2000/svg" xmlns:ev="http://www.w3.org/2001/xml-events" xmlns:xlink="http://www.w3.org/1999/xlink"><defs /><rect fill="#1a1a1a" height="200" width="200" x="0" y="0" /><text alignment-baseline="middle" fill="#e1ed5e" style="dominant-baseline: central; font-size:9.0px; font-family:Arial;" text-anchor="middle" x="100.0" y="100.0">2024</text><line stroke="#e1ed5e" stroke-width="0.3" x1="100.0" x2="100.0" y1="15.0" y2="10.0" /><path d="M 100.0 14.0 a86.0,86.0 0 0,1 42.35913384403234,11.155469271406648" fill="none" id="id25" stroke="none" /><text fill="#e1ed5e" style="font-size:6.75px; font-family:Arial;" text-anchor="middle"><textPath startOffset="22.145653131862478" xlink:href="#id25">January</textPath></text><path d="M 100.0 79.0 l 0.0 -19.423647577812275 a40.423647577812275,40.423647577812275 0 0,0 0.6939256642088034,0.005956517241774069 l -0.3334327393599486 19.420785458764936" fill="#ff850c" stroke="none" /><path d="M 100.72087961077811 79.0123766808444 l 0.6610628765142773 -19.24612436684603 a40.257474062576584,40.257474062576584 0 0,0 0.6904621476485754,0.02965141549579951 l -0.9913507847636889 19.2319403829244" fill="#ff830c" stroke="none" /><path d="M 101.80034050326958 79.07731436759882 l 1.663709645975863 -19.334827963448944 a40.40627481414917,40.40627481414917 0 0,0 0.6905633177515854,0.06539706416704953 l -1.9953725271124612 19.30341914377671" fill="#ff850c" stroke="none" /><path d="M 102.51750503828377 79.15144685158666 l 2.3403900844353362 -19.381787254190865 a40.52257930996923,40.52257930996923 0 0,0 0.689891467500159,0.08932026257625203 l -2.672759373826287 19.338755395414214" fill="#ff870c" stroke="none" /><path d="M 103.23170211078529 79.25015418208739 l 2.9674504971125426 -19.053160896816387 a40.28286033276149,40.28286033276149 0 0,0 0.6823580791302064,0.11228176225317343 l -3.2940860792958193 18.999413136067545" fill="#ff830c" stroke="none" /><path d="M 104.29559338865022 79.4440306129975 l 3.9224816303630603 -18.77049455562154 a40.17595702965444,40.17595702965444 0 0,0 0.6738800959113805,0.14686903044042585 l -4.244124142893575 18.700394067047394" fill="#ff810b" stroke="none" /><path d="M 105.3480935250658 79.69241777938227 l 4.963445749220675 -18.8470119636949 a40.48962938757727,40.48962938757727 0 0,0 0.6706212462028865,0.18278080277281664 l -5.286248396358254 18.759030666777942" fill="#ff860c" stroke="none" /><path d="M 106.04205211174951 79.88797359093562 l 5.551368531043678 -18.47870035508032 a40.29456035726929,40.29456035726929 0 0,0 0.6607528239688168,0.20470291389259587 l -5.8677619878841245 18.38068085338108" fill="#ff830c" stroke="none" /><path d="M 106.72888874123014 80.10723608172694 l 6.150627823490383 -18.183238265206924 a40.19532173297388,40.19532173297388 0 0,0 0.6517273828986209,0.22670461473634415 l -6.461860978434022 18.07497521790199" fill="#ff820b" stroke="none" /><path d="M 107.40779381753099 80.34994680014964 l 6.732446283237781 -17.85861362902381 a40.08548961141519,40.08548961141519 0 0,0 0.6418025466135906,0.24826301251915076 l -7.038021092344898 17.74041072836662" fill="#ff800b" stroke="none" /><path d="M 108.4095320186766 80.7573450057729 l 7.662890547831599 -17.534193192078742 a40.13551207690004,40.13551207690004 0 0,0 0.6289551949539874,0.2813236587158094 l -7.9627591456412175 17.40006578245308" fill="#ff810b" stroke="none" /><path d="M 110.02825361518725 81.54914285379988 l 9.167692023809312 -16.867520745136773 a40.19791220760831,40.19791220760831 0 0,0 0.6034583546399698,0.3347281768294673 l -9.455894566605382 16.70765965287416" fill="#ff820b" stroke="none" /><line stroke="#e1ed5e" stroke-width="0.3" x1="143.13028292997686" x2="145.6673583964461" y1="26.7553504044142" y2="22.446841604673864" /><path d="M 143.63769802327073 25.89364864446614 a86.0,86.0 0 0,1 29.32050498858742,28.57503671076993" fill="none" id="id26" stroke="none" /><text fill="#e1ed5e" style="font-size:6.75px; font-family:Arial;" text-anchor="middle"><textPath startOffset="20.669276256404974" xlink:href="#id26">February</textPath></text><path d="M 110.65571695917076 81.90426304109057 l 9.75690483013407 -16.569357464704947 a40.228645263186564,40.228645263186564 0 0,0 0.5920645951867572,0.35551777801211254 l -10.039902181878261 16.399425686156913" fill="#ff820c" stroke="none" /><path d="M 111.8722381534696 82.67804972795209 l 10.862611356536906 -15.84887460226073 a40.21413936769872,40.21413936769872 0 0,0 0.5660712857768695,0.39516172078379885 l -11.133077733487536 15.660068065671805" fill="#ff820c" stroke="none" /><path d="M 115.16444852881244 85.47280134310134 l 13.863857802313644 -13.281262161465301 a40.198918661329415,40.198918661329415 0 0,0 0.47309182082181706,0.5024071192220247 l -14.089805456871723 13.04131358229878" fill="#ff820b" stroke="none" /><path d="M 116.35404254752997 86.82634096563983 l 15.252921711316398 -12.286674032960745 a40.58606595321733,40.58606595321733 0 0,0 0.43240311437763795,0.5463272095208591 l -15.461591256335597 12.023026879525208" fill="#ff880c" stroke="none" /><path d="M 117.01052211995028 87.68569379921539 l 15.722118935188236 -11.38160165383727 a40.40942760667701,40.40942760667701 0 0,0 0.40194853828959126,0.5653909564988272 l -15.915182572007788 11.11003347062894" fill="#ff850c" stroke="none" /><path d="M 117.42321728460499 88.27688183743584 l 16.456238135228983 -11.072491435955683 a40.83451134166599,40.83451134166599 0 0,0 0.38632473581921595,0.5849448890364309 l -16.64388730996892 10.788366668580194" fill="#ff8c0c" stroke="none" /><line stroke="#e1ed5e" stroke-width="0.3" x1="172.87174338648825" x2="177.1583165268699" y1="56.24261187166439" y2="53.66864786411523" /><path d="M 173.72905801456457 55.72781907015455 a86.0,86.0 0 0,1 12.242430191666344,42.057860355516425" fill="none" id="id27" stroke="none" /><text fill="#e1ed5e" style="font-size:6.75px; font-family:Arial;" text-anchor="middle"><textPath startOffset="22.145653131862474" xlink:href="#id27">March</textPath></text><path d="M 118.18653347947321 89.5 l 18.271902175962918 -10.549287639898703 a42.0985752797974,42.0985752797974 0 0,0 0.3559667785632338,0.6289591896432887 l -18.45030231954753 10.234071680156296" fill="#ffa00e" stroke="none" /><path d="M 118.53625476483649 90.13048839642627 l 18.670168937878646 -9.940813357972877 a42.151713367644255,42.151713367644255 0 0,0 0.3345881189174887,0.6416168351214205 l -18.83806512577108 9.618850279746958" fill="#ffa10e" stroke="none" /><path d="M 118.8641267826498 90.77261029715802 l 20.59154649299495 -10.072357245277349 a43.92300520110013,43.92300520110013 0 0,0 0.32549193628694517,0.6801529601489141 l -20.761417687241806 9.71739178306333" fill="#ffbc11" stroke="none" /><path d="M 119.16976305983485 91.42560881287824 l 21.009450606222465 -9.397260026740039 a44.01533208071236,44.01533208071236 0 0,0 0.30258679162982627,0.692377795127199 l -21.16767127986926 9.035220161836989" fill="#ffbe11" stroke="none" /><path d="M 119.4528033332814 92.08871423366111 l 21.249912947830897 -8.642154601567993 a43.94004438635187,43.94004438635187 0 0,0 0.27816417727471066,0.7011554370217763 l -21.39513580007173 8.276098147332652" fill="#ffbd11" stroke="none" /><path d="M 119.71291397450082 92.76114493625339 l 22.0092987341983 -8.082119355750782 a44.44631920050105,44.44631920050105 0 0,0 0.25685703525454423,0.7184748421955135 l -22.144795939496788 7.7031095571743515" fill="#ffc512" stroke="none" /><path d="M 120.35273937422433 94.82641323984039 l 11.16675272889128 -2.838544876437299 a32.52187933992321,32.52187933992321 0 0,0 0.13289442421416844,0.5422546011272593 l -11.21383467962174 2.6464344507019444" fill="#ff0000" stroke="none" /><path d="M 120.82617615685814 97.30363454192243 l 24.82739974524987 -3.214403958881853 a46.03461944830216,46.03461944830216 0 0,0 0.09473905773266346,0.7845753038557985 l -24.8789208892422 2.7877349781026415" fill="#ffdd14" stroke="none" /><path d="M 120.9064616781168 98.02013634271609 l 24.784525019055064 -2.347120287678022 a45.895414318002345,45.895414318002345 0 0,0 0.06754576149312808,0.7849841354761966 l -24.821164403245934 1.9213151048261636" fill="#ffdb14" stroke="none" /><path d="M 120.98066250479742 99.09900007780936 l 30.613945815426316 -1.3146945570160375 a51.64216213272337,51.64216213272337 0 0,0 0.030432758121522307,0.8860165476563931 l -30.632003260544685 0.7889717447955245" fill="#d0ff1d" stroke="none" /><line stroke="#e1ed5e" stroke-width="0.3" x1="184.99686870605535" x2="189.99668451229388" y1="99.2704041080226" y2="99.22748670261217" /><path d="M 185.99683186730306 99.26182062694052 a86.0,86.0 0 0,1 -10.086455211305974,41.156179273409016" fill="none" id="id28" stroke="none" /><text fill="#e1ed5e" style="font-size:6.75px; font-family:Arial;" text-anchor="middle"><textPath startOffset="21.40746469413373" xlink:href="#id28">April</textPath></text><path d="M 120.99303781780057 100.54070618675476 l 28.853901398876634 0.7431741482004732 a49.86347057702258,49.86347057702258 0 0,0 -0.029384574086391634,0.855499813142525 l -28.836892137793395 -1.2383802259071088" fill="#e9ff1a" stroke="none" /><path d="M 120.96210409425399 101.26102812881392 l 28.6428070994858 1.7230801487405683 a49.69458840508673,49.69458840508673 0 0,0 -0.05853558422258486,0.85109454780156 l -28.60900755409815 -2.214518120696472" fill="#ebff1a" stroke="none" /><path d="M 120.9064616781168 101.97986365728391 l 28.711191532982085 2.7189796890866895 a49.839649266127495,49.839649266127495 0 0,0 -0.08797316942134446,0.8510606113256255 l -28.660285971079077 -3.211444822695247" fill="#e9ff1a" stroke="none" /><path d="M 120.82617615685814 102.69636545807757 l 28.81554754458325 3.730749537006116 a50.05605397162542,50.05605397162542 0 0,0 -0.11764479729086012,0.8512191485064288 l -28.74725823073718 -4.2248569937126295" fill="#e6ff1a" stroke="none" /><path d="M 120.65975698304385 103.76489593502545 l 28.500186234506987 5.193683323082093 a49.969552324156524,49.969552324156524 0 0,0 -0.16102975613220566,0.842575728781781 l -28.406830186092623 -5.682161616897188" fill="#e8ff1a" stroke="none" /><path d="M 120.51834098615036 104.47187691870673 l 28.869439304629157 6.291959928413179 a50.54713667184054,50.54713667184054 0 0,0 -0.19205297551300762,0.8462208462624363 l -28.757175467558486 -6.786615108614632" fill="#dfff1b" stroke="none" /><path d="M 120.35273937422433 105.17358676015961 l 39.232985239372546 9.972871428453146 a61.480678049178984,61.480678049178984 0 0,0 -0.26878918915106403,1.0206363320153735 l -39.05600656941675 -10.644888264841324" fill="#4fff2b" stroke="none" /><path d="M 120.16314734710363 105.8691983318838 l 27.631791697299388 8.043211853036732 a49.77862347847398,49.77862347847398 0 0,0 -0.24586771487338296,0.8184136586730002 l -27.489647662422374 -8.516363115300456" fill="#eaff1a" stroke="none" /><path d="M 119.94978838288452 106.5578916946017 l 27.391731812745103 9.004206315775725 a49.83370775808078,49.83370775808078 0 0,0 -0.2741199877695555,0.8103870359108869 l -27.233126403403183 -9.473095026160774" fill="#e9ff1a" stroke="none" /><path d="M 119.71291397450082 107.23885506374661 l 28.748787747783233 10.55695307318901 a51.625839664515425,51.625839664515425 0 0,0 -0.3126296536972264,0.8292872990691236 l -28.56332741027157 -11.048908652452292" fill="#d0ff1d" stroke="none" /><path d="M 119.4528033332814 107.91128576633889 l 28.350271802086436 11.529808734351256 a51.60513683522588,51.60513683522588 0 0,0 -0.3407761318192405,0.817738661171314 l -28.148169825730708 -12.014779904963849" fill="#d0ff1d" stroke="none" /><path d="M 119.16976305983485 108.57439118712176 l 28.256560312335058 12.638800018770166 a51.954361027149204,51.954361027149204 0 0,0 -0.37114101298101937,0.8110100936521564 l -28.035434834498982 -13.121999094637012" fill="#ccff1d" stroke="none" /><path d="M 118.5362547648365 109.86951160357373 l 27.06331893835268 14.409692987171471 a51.660438417340636,51.660438417340636 0 0,0 -0.42350403402169473,0.7791997223464553 l -26.81196955471565 -14.872147542992531" fill="#d0ff1d" stroke="none" /><line stroke="#e1ed5e" stroke-width="0.3" x1="174.33088141563837" x2="178.70328620479359" y1="141.23008692659167" y2="143.65538615756765" /><path d="M 175.20536237346943 141.71514677278685 a86.0,86.0 0 0,1 -30.301960400862466,31.631185727798858" fill="none" id="id29" stroke="none" /><text fill="#e1ed5e" style="font-size:6.75px; font-family:Arial;" text-anchor="middle"><textPath startOffset="22.145653131862474" xlink:href="#id29">May</textPath></text><path d="M 118.18653347947321 110.5 l 28.24133296941984 16.30514119216839 a53.61028238433679,53.61028238433679 0 0,0 -0.46698714549820597,0.7930462661974823 l -27.957272113791866 -16.78753862665942" fill="#b5ff20" stroke="none" /><path d="M 117.81537515405839 111.11811171558189 l 26.135489604563574 16.31047848570131 a51.807394003757864,51.807394003757864 0 0,0 -0.47732448489019524,0.7504333717370147 l -25.85164742804749 -16.756725532117" fill="#ceff1d" stroke="none" /><path d="M 117.423217284605 111.72311816256416 l 25.432553350110467 17.112156912747885 a51.65355907741743,51.65355907741743 0 0,0 -0.5013107366663735,0.7314273466491126 l -25.135052876628773 -17.54621899446704" fill="#d0ff1d" stroke="none" /><path d="M 116.79662413953412 112.60449989151573 l 24.481721931001314 18.371540546479327 a51.60830297089018,51.60830297089018 0 0,0 -0.5378273836799663,0.7040333097280351 l -24.16274256996704 -18.78909476944824" fill="#d0ff1d" stroke="none" /><path d="M 116.35404254752997 113.17365903436017 l 31.55206779546283 25.416112362335873 a61.51557416333088,61.51557416333088 0 0,0 -0.6695038162567322,0.8166857960354187 l -31.11111715996747 -25.954000440069787" fill="#4fff2b" stroke="none" /><path d="M 115.89218393027572 113.72728997021213 l 23.235531544349076 20.070298740605924 a51.70353102959998,51.70353102959998 0 0,0 -0.5859461113961313,0.6666991141246906 l -22.88757436899436 -20.46621013254191" fill="#cfff1d" stroke="none" /><path d="M 115.41159269507618 114.26474011684316 l 22.47343825724262 20.801078941951747 a51.62254581597364,51.62254581597364 0 0,0 -0.6075338593381203,0.6451799051813689 l -22.11304856416824 -21.18380030707761" fill="#d0ff1d" stroke="none" /><path d="M 114.65682725009322 115.03919595460226 l 21.906383049578913 22.477878855882636 a52.38701413283229,52.38701413283229 0 0,0 -0.6494181505780473,0.6221278978208814 l -21.517292413135554 -22.850618884009098" fill="#c5ff1e" stroke="none" /><path d="M 114.13192950727249 115.5334660781643 l 23.172097965115253 25.47019481775549 a55.43366010402201,55.43366010402201 0 0,0 -0.7093791981493496,0.6343312532343544 l -22.731453740142523 -25.864221600873233" fill="#9cff22" stroke="none" /><path d="M 113.59037401385872 116.0094264158162 l 19.82956695148 23.359180008106566 a51.640871660812024,51.640871660812024 0 0,0 -0.6807389848554483,0.5678966724873963 l -19.42565363246266 -23.696138864505834" fill="#d0ff1d" stroke="none" /><path d="M 112.7482090630111 116.68781488649013 l 24.611208566225727 32.21686204359804 a61.54180295727474,61.54180295727474 0 0,0 -0.8450188066558444,0.6341178660867349 l -24.054536770659116 -32.63459893694879" fill="#4fff2b" stroke="none" /><path d="M 112.16784306229584 117.11559508785304 l 16.97596786641159 23.87882476280749 a50.298152792527844,50.298152792527844 0 0,0 -0.7080181366839792,0.49425164686496187 l -16.563554638553853 -24.166721225477573" fill="#e3ff1b" stroke="none" /><path d="M 111.27062007382361 117.71928675628689 l 15.830717313800784 24.888517029550435 a50.49660812025162,50.49660812025162 0 0,0 -0.735413054172453,0.4589521367179266 l -15.401140130838616 -25.15660496310991" fill="#e0ff1b" stroke="none" /><line stroke="#e1ed5e" stroke-width="0.3" x1="143.1302829299769" x2="145.66735839644613" y1="173.24464959558577" y2="177.55315839532614" /><path d="M 143.63769802327073 174.10635135553383 a86.0,86.0 0 0,1 -40.68552437913181,11.842963189579606" fill="none" id="id30" stroke="none" /><text fill="#e1ed5e" style="font-size:6.75px; font-family:Arial;" text-anchor="middle"><textPath startOffset="21.407464694133747" xlink:href="#id30">June</textPath></text><path d="M 109.71004243097381 118.62028667847754 l 14.59905691970081 27.995616601335286 a52.57351757143356,52.57351757143356 0 0,0 -0.8038059690928558,0.410429055163093 l -14.116323728894372 -28.242103608171217" fill="#c3ff1e" stroke="none" /><path d="M 109.06512990194946 118.94263497670748 l 13.544536191941017 28.302871308834412 a52.37685428750375,52.37685428750375 0 0,0 -0.8143635265132172,0.3811632500332085 l -13.056683951556293 -28.531210790438156" fill="#c6ff1e" stroke="none" /><path d="M 108.4095320186766 119.2426549942271 l 16.515400613842235 37.790468648887405 a62.24170193067015,62.24170193067015 0 0,0 -0.9827221534241466,0.41946565102538336 l -15.864243385247658 -38.06840894957219" fill="#46ff2c" stroke="none" /><path d="M 107.74402155503746 119.51999308798841 l 11.376969257930245 28.677394516366444 a51.85171609073333,51.85171609073333 0 0,0 -0.8301897708102441,0.3211352378569209 l -10.883007224626471 -28.868469642361404" fill="#cdff1d" stroke="none" /><path d="M 107.06938296918513 119.77432235084164 l 9.75837555716339 27.29591319766421 a49.98780382866324,49.98780382866324 0 0,0 -0.8105027938955044,0.28193494466289 l -9.288366991222864 -27.45940657489569" fill="#e7ff1a" stroke="none" /><path d="M 106.0420521117495 120.11202640906438 l 8.253123776181933 27.47196486787433 a49.68488985104703,49.68488985104703 0 0,0 -0.8189489122791738,0.23838409287513343 l -7.780314851521153 -27.609592655051983" fill="#ecff1a" stroke="none" /><path d="M 104.9986988182912 120.39639698878246 l 7.31533657263917 29.849069581094263 a51.732411295373474,51.732411295373474 0 0,0 -0.8643447491928781,0.20398300732078595 l -6.801859669706412 -29.970248732061275" fill="#cfff1d" stroke="none" /><path d="M 104.29559338865022 120.5559693870025 l 6.030896958766721 28.86002515697373 a50.48343213040874,50.48343213040874 0 0,0 -0.8498128895504196,0.1699863783081279 l -5.534587583685343 -28.959300931944718" fill="#e0ff1b" stroke="none" /><path d="M 103.58742460773223 120.69131181640829 l 5.2233045534912526 30.12663262536769 a51.576083853273154,51.576083853273154 0 0,0 -0.8736558729062118,0.14375974142166215 l -4.705371177531968 -30.211858365285025" fill="#d1ff1d" stroke="none" /><path d="M 102.875027216393 120.80226474461374 l 4.7986877487281445 34.72091408616855 a56.050952613144354,56.050952613144354 0 0,0 -0.9542599363499192,0.12354805370998895 l -4.201949990487449 -34.79817373607893" fill="#94ff23" stroke="none" /><path d="M 101.80034050326958 120.92268563240118 l 1.9676607755983202 22.867200823557653 a43.951700643585085,43.951700643585085 0 0,0 -0.752266854460081,0.05823021220330832 l -1.5748249263630034 -22.897608802756015" fill="#ffbd11" stroke="none" /><path d="M 101.08105385017728 120.97215588758144 l 2.164926816167505 41.99900186880112 a63.05476270406149,63.05476270406149 0 0,0 -1.081461961782406,0.04644262988335902 l -1.4436390937842696 -42.02997706711031" fill="#3cff2e" stroke="none" /><line stroke="#e1ed5e" stroke-width="0.3" x1="101.45913802915013" x2="101.54496967792366" y1="184.9874750549273" y2="189.98673829345242" /><path d="M 101.47630435890484 185.9873277026323 a86.0,86.0 0 0,1 -42.54439059252881,-10.42667462771756" fill="none" id="id31" stroke="none" /><text fill="#e1ed5e" style="font-size:6.75px; font-family:Arial;" text-anchor="middle"><textPath startOffset="22.145653131862474" xlink:href="#id31">July</textPath></text><path d="M 100.36049292484886 120.99690560180557 l 0.5045166806913364 29.38556734075643 a50.38989800967718,50.38989800967718 0 0,0 -0.865009605540185,0.007425067115185923 l -3.599224452481833e-15 -29.389898009677182" fill="#e2ff1b" stroke="none" /><path d="M 100.0 121.0 l 2.0139032349639736e-15 16.444767882185552 a37.44476788218555,37.44476788218555 0 0,0 -0.6427892330540681,-0.005517572482174729 l 0.2822963082052139 -16.442344707897814" fill="#ff5407" stroke="none" /><path d="M 98.91894614982273 120.97215588758144 l -1.7211716462802438 33.39027012313537 a54.4346013993274,54.4346013993274 0 0,0 -0.9327904168079526,-0.056114355152224064 l 2.294106415220643 -33.355803790158454" fill="#aaff21" stroke="none" /><path d="M 97.48249496171623 120.84855314841334 l -3.4309310095361503 28.413030525498833 a49.619426815279255,49.619426815279255 0 0,0 -0.8447640738823324,-0.10937162213002352 l 3.9181729053092766 -28.349947307168414" fill="#edff1a" stroke="none" /><path d="M 96.76829788921471 120.74984581791261 l -4.567726913146854 29.32808344859981 a50.681654400001364,50.681654400001364 0 0,0 -0.8585049834557226,-0.141266668328176 l 5.07050939965564 -29.245350781775965" fill="#ddff1b" stroke="none" /><path d="M 95.70440661134978 120.55596938700252 l -8.585946150636907 41.08686047829189 a62.97437998665687,62.97437998665687 0 0,0 -1.0562830200670588,-0.2302119679289891 l 9.289991587323101 -40.93341705222918" fill="#3dff2e" stroke="none" /><path d="M 94.6519064749342 120.30758222061772 l -7.524729674276531 28.57262421311384 a50.54685111978529,50.54685111978529 0 0,0 -0.8371969020783931,-0.2281817385107213 l 8.014107977289619 -28.439241980458974" fill="#dfff1b" stroke="none" /><path d="M 93.61358852112213 120.00534299687104 l -8.705684513930178 27.270432746109652 a49.626306870013345,49.626306870013345 0 0,0 -0.8093277008331022,-0.26604209055460143 l 9.172534952411025 -27.116969734153027" fill="#ecff1a" stroke="none" /><path d="M 92.93061703081489 119.77432235084164 l -10.561979896980512 29.543737559047088 a52.37495574980258,52.37495574980258 0 0,0 -0.8440120574937465,-0.30993291829684994 l 11.067581106128378 -29.358073791741518" fill="#c6ff1e" stroke="none" /><path d="M 92.25597844496254 119.51999308798841 l -11.967402454798542 30.165671871985513 a53.45283471445008,53.45283471445008 0 0,0 -0.850015985219778,-0.3456941012468171 l 12.483472901208762 -29.955790514159403" fill="#b7ff1f" stroke="none" /><path d="M 91.59046798132341 119.24265499422711 l -13.015459036379562 29.781917385215113 a53.50176575307029,53.50176575307029 0 0,0 -0.8384149539472772,-0.3750123446929298 l 13.524787393182475 -29.554101289612326" fill="#b6ff1f" stroke="none" /><path d="M 90.6110303473126 118.78422872680471 l -23.030421291647702 46.076270050905784 a72.51138676714865,72.51138676714865 0 0,0 -1.1086396384156856,-0.5660792987452165 l 23.81798815177697 -45.674132800487726" fill="#3cffa3" stroke="none" /><path d="M 89.97174638481275 118.45085714620012 l -14.587386498033323 26.839148144798443 a51.54720474906735,51.54720474906735 0 0,0 -0.7738359943548014,-0.4292337815257131 l 15.045966680544227 -26.584781447839582" fill="#d1ff1c" stroke="none" /><line stroke="#e1ed5e" stroke-width="0.3" x1="58.13341422392154" x2="55.67067388415222" y1="173.97424548756322" y2="178.32567169271397" /><path d="M 57.64086615596768 174.84453072859336 a86.0,86.0 0 0,1 -31.369924170532247,-30.572349798747897" fill="none" id="id32" stroke="none" /><text fill="#e1ed5e" style="font-size:6.75px; font-family:Arial;" text-anchor="middle"><textPath startOffset="22.145653131862474" xlink:href="#id32">August</textPath></text><path d="M 89.34428304082925 118.09573695890944 l -21.31329165226507 36.194628756160526 a63.0036611719835,63.0036611719835 0 0,0 -0.9272556135816569,-0.5567903537380423 l 21.931480022404156 -35.82342440188656" fill="#3dff2e" stroke="none" /><path d="M 88.72937992617639 117.7192867562869 l -15.406024751215554 24.22082978160677 a49.70529905687512,49.70529905687512 0 0,0 -0.7160270056031824,-0.4641200542391271 l 15.819537389075746 -23.952795885663747" fill="#ebff1a" stroke="none" /><path d="M 88.1277618465304 117.32195027204791 l -14.041675791668705 20.487224620609723 a45.83737167442747,45.83737167442747 0 0,0 -0.6452262892692077,-0.45041806070882107 l 14.391297172111678 -20.243161744095772" fill="#ffda14" stroke="none" /><path d="M 87.54013794807813 116.9041958592261 l -18.136315485187087 24.60539513589795 a51.567162268877816,51.567162268877816 0 0,0 -0.7080589100278297,-0.5313406063321033 l 18.556027384125684 -24.290435502301833" fill="#d1ff1c" stroke="none" /><path d="M 86.96720088162412 116.46651593811092 l -26.569158367162228 33.569263650983864 a63.811396127767345,63.811396127767345 0 0,0 -0.853095252639329,-0.6871931480818637 l 27.14150439015682 -33.10822220910859" fill="#34ff2f" stroke="none" /><path d="M 86.40962598614128 116.0094264158162 l -13.593791067296475 16.013451696173814 a42.00528006971108,42.00528006971108 0 0,0 -0.5457096362535827,-0.4713709864709559 l 13.866680183312921 -15.777736577238134" fill="#ff9e0e" stroke="none" /><path d="M 85.86807049272751 115.53346607816431 l -20.55971326179255 22.59872640636159 a51.55166516896768,51.55166516896768 0 0,0 -0.6494778972809319,-0.6011470455812299 l 20.94462093038745 -22.242461614647983" fill="#d1ff1c" stroke="none" /><path d="M 85.34317274990678 115.03919595460226 l -22.657728874338968 23.24882586204095 a53.463526944966375,53.463526944966375 0 0,0 -0.6517664226790882,-0.6461958029671979 l 23.053487217148017 -22.85645004884509" fill="#b7ff1f" stroke="none" /><path d="M 84.83555147118756 114.52719865689866 l -45.493345586437314 43.581595970695986 a84.0,84.0 0 0,0 -0.9885766650549881,-1.0498341602220393 l 46.234778085228555 -42.79422035052945" fill="#4dd2ff" stroke="none" /><path d="M 84.3458050057657 113.99807769240083 l -18.860286211663038 16.86498422876511 a46.30095035808621,46.30095035808621 0 0,0 -0.5247197101631886,-0.5970347086970587 l 19.14701698578482 -16.53873724225675" fill="#ffe115" stroke="none" /><path d="M 83.64595745247003 113.17365903436017 l -19.320835597720357 15.563497507332752 a45.80961795060317,45.80961795060317 0 0,0 -0.48805473023975415,-0.6166412081677886 l 19.585156758601673 -15.229536355250284" fill="#ffd914" stroke="none" /><path d="M 83.20337586046588 112.60449989151573 l -22.126570521514406 16.60419102202873 a48.66377202298287,48.66377202298287 0 0,0 -0.4956705978642348,-0.6724723622974874 l 22.40834313896247 -16.221912350462365" fill="#faff18" stroke="none" /><path d="M 82.78059297857968 112.02048342749411 l -22.33974584812859 15.594877594089782 a48.2445306755984,48.2445306755984 0 0,0 -0.46822526162927786,-0.683154649798589 l 22.604160846573194 -15.209088209221143" fill="#fffd18" stroke="none" /><path d="M 82.37810715431573 111.42229804090323 l -24.11497229108696 15.631033690252938 a49.73779919941181,49.73779919941181 0 0,0 -0.4582563905976267,-0.7204551603828176 l 24.379746373310475 -15.214764855191449" fill="#ebff1a" stroke="none" /><path d="M 81.99639281039703 110.81064883170644 l -27.899748947286398 16.752997617947713 a53.54318546959671,53.54318546959671 0 0,0 -0.46640267932318724,-0.7920537148557865 l 28.183225336739355 -16.271592734798368" fill="#b6ff1f" stroke="none" /><line stroke="#e1ed5e" stroke-width="0.3" x1="26.387840678322732" x2="22.057713659400548" y1="142.50000000000003" y2="145.00000000000006" /><path d="M 25.521815274538298 143.00000000000003 a86.0,86.0 0 0,1 -11.493303480769221,-40.785679425670985" fill="none" id="id33" stroke="none" /><text fill="#e1ed5e" style="font-size:6.75px; font-family:Arial;" text-anchor="middle"><textPath startOffset="21.40746469413373" xlink:href="#id33">September</textPath></text><path d="M 81.63589988554817 110.18625677009913 l -23.582939033234126 13.08105874445059 a47.96792745690712,47.96792745690712 0 0,0 -0.39323341814386076,-0.7235051985817608 l 23.804017800993314 -12.674298712394242" fill="#fff917" stroke="none" /><path d="M 81.29705330413844 109.54985784667822 l -29.46072735201131 15.042857301930239 a54.07902676796558,54.07902676796558 0 0,0 -0.41506962989930907,-0.8304173039207899 l 29.714616895122358 -14.534908141845696" fill="#aeff20" stroke="none" /><path d="M 80.9802524753101 108.90220220490708 l -25.9366141804819 12.139645052889557 a49.63702039593716,49.63702039593716 0 0,0 -0.3545868656046195,-0.7748362940867812 l 26.141185510941575 -11.692619776588089" fill="#ecff1a" stroke="none" /><path d="M 80.83023694016515 108.57439118712176 l -21.315292622896944 9.534059270645141 a44.35037442474744,44.35037442474744 0 0,0 -0.3048900660378445,-0.6976481377208179 l 21.475816570951757 -9.166749063148474" fill="#ffc312" stroke="none" /><path d="M 80.5471966667186 107.91128576633889 l -24.028111717775406 9.772023855276988 a46.93920975955124,46.93920975955124 0 0,0 -0.2971505114989412,-0.7490134020583195 l 24.19232090424047 -9.358109436005103" fill="#ffea16" stroke="none" /><path d="M 80.05021161711548 106.5578916946017 l -39.982494901547 13.143040227397048 a63.08728317403262,63.08728317403262 0 0,0 -0.32936153436313687,-1.0317203153448966 l 40.2022211516874 -12.45475087836076" fill="#3cff2e" stroke="none" /><path d="M 79.83685265289637 105.86919833188381 l -31.150524366880664 9.067463650592453 a53.443397870544345,53.443397870544345 0 0,0 -0.24884647773525098,-0.8830683609894477 l 31.30158933669049 -8.53138736570001" fill="#b7ff1f" stroke="none" /><path d="M 79.64726062577567 105.17358676015961 l -40.92530215232261 10.403051769971235 a63.226814258094386,63.226814258094386 0 0,0 -0.2583642534277123,-1.054214321002729 l 41.09785393226662 -9.698981624360407" fill="#3aff2e" stroke="none" /><path d="M 79.48165901384964 104.47187691870673 l -31.747061711193727 6.919124338506352 a53.49230999645999,53.49230999645999 0 0,0 -0.18784025678245556,-0.898883627642466 l 31.861159678800547 -6.373124259578477" fill="#b6ff1f" stroke="none" /><path d="M 79.34024301695615 103.76489593502545 l -41.518574791161 7.566067383444237 a63.202339133513064,63.202339133513064 0 0,0 -0.18534893287881443,-1.0690433902828245 l 41.64233854153205 -6.85223096024082" fill="#3bff2e" stroke="none" /><path d="M 79.22317932658666 103.0534771498775 l -32.148220983670036 4.72468139980927 a53.49354900198786,53.49354900198786 0 0,0 -0.12572380819859708,-0.9096748468800716 l 32.224589308423845 -4.172118244729113" fill="#b6ff1f" stroke="none" /><path d="M 79.0935383218832 101.97986365728391 l -32.729432102654314 3.0995112487836187 a53.875867984641786,53.875867984641786 0 0,0 -0.07929085254381173,-0.9214798968786067 l 32.77781657789586 -2.53721030452935" fill="#b1ff20" stroke="none" /><path d="M 79.03789590574601 101.26102812881392 l -34.32385905941235 2.0648381273532546 a55.385910737140215,55.385910737140215 0 0,0 -0.04894640332292704,-0.9495471483280505 l 34.354247052191845 -1.4753191856484733" fill="#9dff22" stroke="none" /><line stroke="#e1ed5e" stroke-width="0.3" x1="15.003131293944662" x2="10.003315487706104" y1="100.72959589197737" y2="100.7725132973878" /><path d="M 14.003168132696942 100.73817937305945 a86.0,86.0 0 0,1 10.791469493833604,-42.45332614584628" fill="none" id="id34" stroke="none" /><text fill="#e1ed5e" style="font-size:6.75px; font-family:Arial;" text-anchor="middle"><textPath startOffset="22.145653131862435" xlink:href="#id34">October</textPath></text><path d="M 79.00077361379809 100.18025310272382 l -40.49000958262153 0.3475580348702955 a61.49150123900553,61.49150123900553 0 0,0 0.0,-1.0556222751882112 l 40.49000958262153 0.3475580348702806" fill="#4fff2b" stroke="none" /><path d="M 79.06263194458094 98.37931529534042 l -30.508171596078444 -2.3615254286986236 a51.599433597472974,51.599433597472974 0 0,0 0.07594055063553568,-0.8825443102642122 l 30.463137422745167 2.8848907863385165" fill="#d0ff1d" stroke="none" /><path d="M 79.13060592940154 97.66154086499901 l -29.511545996009634 -3.3068302840472295 a50.69623669090217,50.69623669090217 0 0,0 0.1043326468698499,-0.8640239841838083 l 29.450431262880116 3.812947945154474" fill="#ddff1b" stroke="none" /><path d="M 79.22317932658666 96.9465228501225 l -29.342504364615927 -4.312337676966422 a50.65769408817363,50.65769408817363 0 0,0 0.13382920379657043,-0.8592794909670841 l 29.26415366868109 4.815405349864957" fill="#deff1b" stroke="none" /><path d="M 79.407916724674 95.88100663000787 l -31.870916568188424 -6.3750759107136625 a53.50226016392997,53.50226016392997 0 0,0 0.1878751971694516,-0.8990508300428046 l 31.756783660194603 6.921243192041877" fill="#b6ff1f" stroke="none" /><path d="M 79.56144815229197 95.17655741523228 l -31.777106979030503 -7.499310722474854 a53.65002586934619,53.65002586934619 0 0,0 0.2192305439196755,-0.8945354317988274 l 31.643688908594527 8.0437019788818" fill="#b4ff20" stroke="none" /><path d="M 79.83685265289637 94.1308016681162 l -40.474980267324824 -11.781676867135356 a63.15485662936035,63.15485662936035 0 0,0 0.311935911392401,-1.03833319736844 l 40.2667680359288 12.47474766809452" fill="#3bff2e" stroke="none" /><path d="M 80.16572619554312 93.10060997987247 l -28.04575929818181 -9.755770930483669 a50.69410178906952,50.69410178906952 0 0,0 0.29296321775697665,-0.8194702607169758 l 27.874155910380892 10.235776147581566" fill="#ddff1b" stroke="none" /><path d="M 80.41425534168474 92.42381321644754 l -30.291548174734114 -11.717421570556912 a53.478852490264956,53.478852490264956 0 0,0 0.3385499767307917,-0.8533670985748877 l 30.08593952303719 12.235689686345381" fill="#b6ff1f" stroke="none" /><line stroke="#e1ed5e" stroke-width="0.3" x1="26.387840678322718" x2="22.05771365940052" y1="57.49999999999999" y2="54.99999999999999" /><path d="M 25.521815274538284 56.99999999999999 a86.0,86.0 0 0,1 29.574782752854787,-30.34633250058573" fill="none" id="id35" stroke="none" /><text fill="#e1ed5e" style="font-size:6.75px; font-family:Arial;" text-anchor="middle"><textPath startOffset="21.40746469413373" xlink:href="#id35">November</textPath></text><line stroke="#e1ed5e" stroke-width="0.3" x1="56.869717070023135" x2="54.33264160355391" y1="26.7553504044142" y2="22.446841604673864" /><path d="M 56.362301976729285 25.89364864446614 a86.0,86.0 0 0,1 42.16139366436587,-11.88097634709845" fill="none" id="id36" stroke="none" /><text fill="#e1ed5e" style="font-size:6.75px; font-family:Arial;" text-anchor="middle"><textPath startOffset="22.145653131862474" xlink:href="#id36">December</textPath></text></svg>