<?xml version="1.0" encoding="utf-8" ?>
<svg baseProfile="full" height="200mm" version="1.1" viewBox="0,0,200,200" width="200mm" xmlns="http://www.w3.org/2000/svg" xmlns:ev="http://www.w3.org/2001/xml-events" xmlns:xlink="http://www.w3.org/1999/xlink"><defs /><rect fill="#1a1a1a" height="200" width="200" x="0" y="0" /><text alignment-baseline="middle" fill="#e1ed5e" style="dominant-baseline: central; font-size:9.0px; font-family:Arial;" text-anchor="middle" x="100.0" y="100.0">2024</text><line stroke="#e1ed5e" stroke-width="0.3" x1="100.0" x2="100.0" y1="15.0" y2="10.0" /><path d="M 100.0 14.0 a86.0,86.0 0 0,1 42.35913384403234,11.155469271406648" fill="none" id="id25" stroke="none" /><text fill="#e1ed5e" style="font-size:6.75px; font-family:Arial;" text-anchor="middle"><textPath startOffset="22.145653131862478" xlink:href="#id25">January</textPath></text><path d="M 100.0 79.0 l 0.0 -52.19112590500018 a73.19112590500018,73.19112590500018 0 0,0 1.2564230024035379,0.010784880373766228 l -0.8959300775546832 52.18343542282085" fill="#33ff53" stroke="none" /><path d="M 100.72087961077811 79.0123766808444 l 1.7762686272525654 -51.71412300338334 a72.74461951010196,72.74461951010196 0 0,0 1.2476541905920258,0.05357963926959366 l -2.663748578445427 51.676010795687915" fill="#32ff49" stroke="none" /><path d="M 101.80034050326958 79.07731436759882 l 4.470369391466763 -51.95246858497315 a73.14444548145838,73.14444548145838 0 0,0 1.2500749247265013,0.11838339506959851 l -5.361543879578277 51.86807343439837" fill="#33ff52" stroke="none" /><path d="M 102.51750503828377 79.15144685158666 l 6.288602234685744 -52.07864767907495 a73.45695437353672,73.45695437353672 0 0,0 1.25059477737598,0.1619145317110133 l -7.181674833952516 51.963021551163536" fill="#34ff59" stroke="none" /><path d="M 103.23170211078529 79.25015418208739 l 7.9735066182198455 -51.19563229667967 a72.81283213691012,72.81283213691012 0 0,0 1.2333886884532999,0.2029536393255497 l -8.851172809726215 51.05121265885845" fill="#32ff4a" stroke="none" /><path d="M 104.29559338865022 79.4440306129975 l 10.53966469532633 -50.436110968705314 a72.52558414552391,72.52558414552391 0 0,0 1.2164874520335707,0.265127778231055 l -11.403914563979034 50.24775173234054" fill="#31ff43" stroke="none" /><path d="M 105.3480935250658 79.69241777938227 l 13.336723752964186 -50.64171239669061 a73.36841829702331,73.36841829702331 0 0,0 1.2151857365575287,0.33120427618969983 l -14.204090890456408 50.405307626356766" fill="#33ff57" stroke="none" /><path d="M 106.04205211174951 79.88797359093562 l 14.916465755881957 -49.652063183767524 a72.84426997317294,72.84426997317294 0 0,0 1.1945050812804738,0.3700607275939009 l -15.76661147003406 49.38868586836698" fill="#32ff4b" stroke="none" /><path d="M 106.72888874123014 80.10723608172694 l 16.526668837282298 -48.85815982081982 a72.57761688885955,72.57761688885955 0 0,0 1.1767742680659368,0.4093431764168032 l -17.36294887739325 48.56725821183443" fill="#32ff45" stroke="none" /><path d="M 107.40779381753099 80.34994680014964 l 18.090008594394476 -47.9858970189426 a72.28249919473339,72.28249919473339 0 0,0 1.157303865026607,0.44766999671091356 l -18.91108472191461 47.66828713409365" fill="#31ff3e" stroke="none" /><path d="M 108.4095320186766 80.7573450057729 l 20.590102027744894 -47.11418289815632 a72.41690900544168,72.41690900544168 0 0,0 1.1348301981101985,0.507595113157311 l -21.395845628710724 46.75378403408916" fill="#31ff41" stroke="none" /><path d="M 110.02825361518725 81.54914285379988 l 24.633486926495657 -45.32284141729623 a72.58457746551012,72.58457746551012 0 0,0 1.089652852201706,0.6044120688528914 l -25.40788396685346 44.89329643301019" fill="#32ff45" stroke="none" /><line stroke="#e1ed5e" stroke-width="0.3" x1="143.13028292997686" x2="145.6673583964461" y1="26.7553504044142" y2="22.446841604673864" /><path d="M 143.63769802327073 25.89364864446614 a86.0,86.0 0 0,1 29.32050498858742,28.57503671076993" fill="none" id="id26" stroke="none" /><text fill="#e1ed5e" style="font-size:6.75px; font-family:Arial;" text-anchor="middle"><textPath startOffset="20.669276256404974" xlink:href="#id26">February</textPath></text><path d="M 110.65571695917076 81.90426304109057 l 26.216695210961323 -44.5216799852364 a72.66715684544914,72.66715684544914 0 0,0 1.06947799309674,0.642190806255984 l -26.977105960615496 44.0650751784445" fill="#32ff47" stroke="none" /><path d="M 111.8722381534696 82.67804972795209 l 29.18771640058541 -42.585750513926655 a72.6281796649408,72.6281796649408 0 0,0 1.0223450680033594,0.7136762567855814 l -29.914456559762527 42.07842944133595" fill="#32ff46" stroke="none" /><path d="M 115.16444852881244 85.47280134310134 l 37.25203235854156 -35.68660432441921 a72.58728179551122,72.58728179551122 0 0,0 0.8542630114620369,0.9071977146022582 l -37.85915120373986 35.04186514987245" fill="#32ff45" stroke="none" /><path d="M 116.35404254752997 86.82634096563983 l 40.98443169674147 -33.01415703919894 a73.62754228076545,73.62754228076545 0 0,0 0.784426325598341,0.991097037207199 l -41.54512445298137 32.30574005807706" fill="#34ff5d" stroke="none" /><path d="M 117.01052211995028 87.68569379921539 l 42.245159440450344 -30.582237581087995 a73.15291700006033,73.15291700006033 0 0,0 0.7276447552287414,1.023523473678438 l -42.763919294209046 29.85253688070005" fill="#33ff52" stroke="none" /><path d="M 117.42321728460499 88.27688183743584 l 44.21772959984571 -29.75166184934909 a74.29511228774254,74.29511228774254 0 0,0 0.7028868152007159,1.064260224629143 l -44.72194085396715 28.98822174638089" fill="#36ff6c" stroke="none" /><line stroke="#e1ed5e" stroke-width="0.3" x1="172.87174338648825" x2="177.1583165268699" y1="56.24261187166439" y2="53.66864786411523" /><path d="M 173.72905801456457 55.72781907015455 a86.0,86.0 0 0,1 12.242430191666344,42.057860355516425" fill="none" id="id27" stroke="none" /><text fill="#e1ed5e" style="font-size:6.75px; font-family:Arial;" text-anchor="middle"><textPath startOffset="22.145653131862474" xlink:href="#id27">March</textPath></text><path d="M 118.18653347947321 89.5 l 49.096398766978496 -28.345819044356254 a77.6916380887125,77.6916380887125 0 0,0 0.6569258448280845,1.1607250223925256 l -49.57575797682796 27.49883725186461" fill="#3effb4" stroke="none" /><path d="M 118.53625476483649 90.13048839642627 l 50.166537145038056 -26.710855388290877 a77.83441954219882,77.83441954219882 0 0,0 0.6178271282715919,1.1847649820211674 l -50.61767234228459 25.84574416316521" fill="#3effb7" stroke="none" /><path d="M 118.8641267826498 90.77261029715802 l 55.329257354431945 -27.064312356496124 a82.59386107984261,82.59386107984261 0 0,0 0.6120627594857644,1.2789757633017356 l -55.78569937187762 26.110524091129285" fill="#4aebff" stroke="none" /><path d="M 119.16976305983485 91.42560881287824 l 56.452161077962714 -25.250333607672232 a82.84194238274692,82.84194238274692 0 0,0 0.5695033156176661,1.3031350372602362 l -56.877298275597354 24.277536500636145" fill="#4ae7ff" stroke="none" /><path d="M 119.4528033332814 92.08871423366111 l 57.09828072650046 -23.22137369379278 a82.63964518188781,82.63964518188781 0 0,0 0.523153520514738,1.318688620870595 l -57.488492921981326 22.237784055708623" fill="#4aeaff" stroke="none" /><path d="M 119.71291397450082 92.76114493625339 l 59.13874192350249 -21.71656519123983 a84.0,84.0 0 0,0 0.48543931982422706,1.3578601744763328 l -59.50282141337066 20.69817006038258" fill="#4dd2ff" stroke="none" /><path d="M 120.35273937422433 94.82641323984039 l 30.004940899427687 -7.6271386432258526 a51.95916216988337,51.95916216988337 0 0,0 0.21232115361613532,0.8663427615251468 l -30.131449579560115 7.110940057092611" fill="#ff0000" stroke="none" /><line stroke="#e1ed5e" stroke-width="0.3" x1="184.99686870605535" x2="189.99668451229388" y1="99.2704041080226" y2="99.22748670261217" /><path d="M 185.99683186730306 99.26182062694052 a86.0,86.0 0 0,1 -10.086455211305974,41.156179273409016" fill="none" id="id28" stroke="none" /><text fill="#e1ed5e" style="font-size:6.75px; font-family:Arial;" text-anchor="middle"><textPath startOffset="21.40746469413373" xlink:href="#id28">April</textPath></text><line stroke="#e1ed5e" stroke-width="0.3" x1="174.33088141563837" x2="178.70328620479359" y1="141.23008692659167" y2="143.65538615756765" /><path d="M 175.20536237346943 141.71514677278685 a86.0,86.0 0 0,1 -30.301960400862466,31.631185727798858" fill="none" id="id29" stroke="none" /><text fill="#e1ed5e" style="font-size:6.75px; font-family:Arial;" text-anchor="middle"><textPath startOffset="22.145653131862474" xlink:href="#id29">May</textPath></text><line stroke="#e1ed5e" stroke-width="0.3" x1="143.1302829299769" x2="145.66735839644613" y1="173.24464959558577" y2="177.55315839532614" /><path d="M 143.63769802327073 174.10635135553383 a86.0,86.0 0 0,1 -40.68552437913181,11.842963189579606" fill="none" id="id30" stroke="none" /><text fill="#e1ed5e" style="font-size:6.75px; font-family:Arial;" text-anchor="middle"><textPath startOffset="21.407464694133747" xlink:href="#id30">June</textPath></text><line stroke="#e1ed5e" stroke-width="0.3" x1="101.45913802915013" x2="101.54496967792366" y1="184.9874750549273" y2="189.98673829345242" /><path d="M 101.47630435890484 185.9873277026323 a86.0,86.0 0 0,1 -42.54439059252881,-10.42667462771756" fill="none" id="id31" stroke="none" /><text fill="#e1ed5e" style="font-size:6.75px; font-family:Arial;" text-anchor="middle"><textPath startOffset="22.145653131862474" xlink:href="#id31">July</textPath></text><line stroke="#e1ed5e" stroke-width="0.3" x1="58.13341422392154" x2="55.67067388415222" y1="173.97424548756322" y2="178.32567169271397" /><path d="M 57.64086615596768 174.84453072859336 a86.0,86.0 0 0,1 -31.369924170532247,-30.572349798747897" fill="none" id="id32" stroke="none" /><text fill="#e1ed5e" style="font-size:6.75px; font-family:Arial;" text-anchor="middle"><textPath startOffset="22.145653131862474" xlink:href="#id32">August</textPath></text><line stroke="#e1ed5e" stroke-width="0.3" x1="26.387840678322732" x2="22.057713659400548" y1="142.50000000000003" y2="145.00000000000006" /><path d="M 25.521815274538298 143.00000000000003 a86.0,86.0 0 0,1 -11.493303480769221,-40.785679425670985" fill="none" id="id33" stroke="none" /><text fill="#e1ed5e" style="font-size:6.75px; font-family:Arial;" text-anchor="middle"><textPath startOffset="21.40746469413373" xlink:href="#id33">September</textPath></text><line stroke="#e1ed5e" stroke-width="0.3" x1="15.003131293944662" x2="10.003315487706104" y1="100.72959589197737" y2="100.7725132973878" /><path d="M 14.003168132696942 100.73817937305945 a86.0,86.0 0 0,1 10.791469493833604,-42.45332614584628" fill="none" id="id34" stroke="none" /><text fill="#e1ed5e" style="font-size:6.75px; font-family:Arial;" text-anchor="middle"><textPath startOffset="22.145653131862435" xlink:href="#id34">October</textPath></text><line stroke="#e1ed5e" stroke-width="0.3" x1="26.387840678322718" x2="22.05771365940052" y1="57.49999999999999" y2="54.99999999999999" /><path d="M 25.521815274538284 56.99999999999999 a86.0,86.0 0 0,1 29.574782752854787,-30.34633250058573" fill="none" id="id35" stroke="none" /><text fill="#e1ed5e" style="font-size:6.75px; font-family:Arial;" text-anchor="middle"><textPath startOffset="21.40746469413373" xlink:href="#id35">November</textPath></text><line stroke="#e1ed5e" stroke-width="0.3" x1="56.869717070023135" x2="54.33264160355391" y1="26.7553504044142" y2="22.446841604673864" /><path d="M 56.362301976729285 25.89364864446614 a86.0,86.0 0 0,1 42.16139366436587,-11.88097634709845" fill="none" id="id36" stroke="none" /><text fill="#e1ed5e" style="font-size:6.75px; font-family:Arial;" text-anchor="middle"><textPath startOffset="22.145653131862474" xlink:href="#id36">December</textPath></text></svg>