<?xml version="1.0" encoding="utf-8" ?>
<svg baseProfile="full" height="200mm" version="1.1" viewBox="0,0,200,200" width="200mm" xmlns="http://www.w3.org/2000/svg" xmlns:ev="http://www.w3.org/2001/xml-events" xmlns:xlink="http://www.w3.org/1999/xlink"><defs /><rect fill="#1a1a1a" height="200" width="200" x="0" y="0" /><text alignment-baseline="middle" fill="#e1ed5e" style="dominant-baseline: central; font-size:9.0px; font-family:Arial;" text-anchor="middle" x="100.0" y="100.0">2024</text><line stroke="#e1ed5e" stroke-width="0.3" x1="100.0" x2="100.0" y1="15.0" y2="10.0" /><path d="M 100.0 14.0 a86.0,86.0 0 0,1 42.35913384403234,11.155469271406648" fill="none" id="id25" stroke="none" /><text fill="#e1ed5e" style="font-size:6.75px; font-family:Arial;" text-anchor="middle"><textPath startOffset="22.145653131862478" xlink:href="#id25">January</textPath></text><path d="M 100.0 79.0 l 0.0 -39.93483854376487 a60.93483854376487,60.93483854376487 0 0,0 1.0460275319921204,0.008978888303238515 l -0.6855346071432656 39.928954053656064" fill="#b2ff20" stroke="none" /><path d="M 100.72087961077811 79.0123766808444 l 1.3591391181865677 -39.56985247514376 a60.593187343875535,60.593187343875535 0 0,0 1.0392431030643525,0.044629570433438216 l -2.0382079818517567 39.54069033628449" fill="#b8ff1f" stroke="none" /><path d="M 101.80034050326958 79.07731436759882 l 3.4205715393871228 -39.7522262437368 a60.899120303451575,60.899120303451575 0 0,0 1.0407962317322568,0.09856448525680683 l -4.102467334504393 39.687650002974806" fill="#b3ff20" stroke="none" /><path d="M 102.51750503828377 79.15144685158666 l 4.811820219499695 -39.848774108209504 a61.138241263810926,61.138241263810926 0 0,0 1.0408703420192362,0.1347615047246109 l -5.495168383409722 39.7603010072845" fill="#afff20" stroke="none" /><path d="M 103.23170211078529 79.25015418208739 l 6.101050588673808 -39.17312137767054 a60.64538127897455,60.64538127897455 0 0,0 1.0272822122312093,0.1690388970959172 l -6.772610303958088 39.06261648207895" fill="#b7ff1f" stroke="none" /><path d="M 104.29559338865022 79.4440306129975 l 8.064585705229085 -38.59196201240963 a60.42558908328769,60.42558908328769 0 0,0 1.0135315939553566,0.22089449358738464 l -8.725879715803575 38.44783606068853" fill="#bbff1f" stroke="none" /><path d="M 105.3480935250658 79.69241777938227 l 10.204798239970387 -38.749281090865715 a61.07049653020818,61.07049653020818 0 0,0 1.0114978355885578,0.27568823302074397 l -10.868477476493638 38.56839236370083" fill="#b0ff20" stroke="none" /><path d="M 106.04205211174951 79.88797359093562 l 11.413562004564339 -37.9920358533327 a60.669436420410015,60.669436420410015 0 0,0 0.9948613680841555,0.3082105949131925 l -12.064064005520123 37.790508670612866" fill="#b7ff1f" stroke="none" /><path d="M 106.72888874123014 80.10723608172694 l 12.645633529433177 -37.384568547944845 a60.46540273298515,60.46540273298515 0 0,0 0.9803866962645151,0.3410293845269617 l -13.28552599774271 37.161980730849294" fill="#bbff1f" stroke="none" /><path d="M 107.40779381753099 80.34994680014964 l 13.841846864684147 -36.71714331891063 a60.23958891383535,60.23958891383535 0 0,0 0.9644866994675685,0.3730841748881913 l -14.470105826645241 36.4741192558844" fill="#bfff1e" stroke="none" /><path d="M 108.4095320186766 80.7573450057729 l 15.754831608238229 -36.0501379216083 a60.34243463705472,60.34243463705472 0 0,0 0.9456136418149909,0.42296095426389735 l -16.37135865290885 35.77437321643455" fill="#bdff1f" stroke="none" /><path d="M 110.02825361518725 81.54914285379988 l 18.848689429888307 -34.679465578859656 a60.470728724710604,60.470728724710604 0 0,0 0.9077975560428985,0.5035400016058692 l -19.441231174087306 34.35079266182064" fill="#baff1f" stroke="none" /><line stroke="#e1ed5e" stroke-width="0.3" x1="143.13028292997686" x2="145.6673583964461" y1="26.7553504044142" y2="22.446841604673864" /><path d="M 143.63769802327073 25.89364864446614 a86.0,86.0 0 0,1 29.32050498858742,28.57503671076993" fill="none" id="id26" stroke="none" /><text fill="#e1ed5e" style="font-size:6.75px; font-family:Arial;" text-anchor="middle"><textPath startOffset="20.669276256404974" xlink:href="#id26">February</textPath></text><path d="M 110.65571695917076 81.90426304109057 l 20.06010547284495 -34.06644465083757 a60.533915600788184,60.533915600788184 0 0,0 0.8909071633105015,0.5349641537260227 l -20.641945392712884 33.717066496575626" fill="#b9ff1f" stroke="none" /><path d="M 111.8722381534696 82.67804972795209 l 22.333427794607225 -32.58513859490779 a60.504091614746486,60.504091614746486 0 0,0 0.8516812612091219,0.5945396652240238 l -22.88950414699011 32.19695411387864" fill="#baff1f" stroke="none" /><path d="M 115.16444852881244 85.47280134310134 l 28.50396253902116 -27.30615132666388 a60.47279798418892,60.47279798418892 0 0,0 0.7116904399732357,0.7557905843810343 l -28.968508812730654 26.81281928233835" fill="#baff1f" stroke="none" /><path d="M 116.35404254752997 86.82634096563983 l 31.359865000738083 -25.26128739622759 a61.2687692111309,61.2687692111309 0 0,0 0.6527562107526119,0.8247361484229104 l -31.788887642132252 24.719231303890002" fill="#acff20" stroke="none" /><path d="M 117.01052211995028 87.68569379921539 l 32.32453012377647 -23.400467012933337 a60.90560241552949,60.90560241552949 0 0,0 0.6058219409305367,0.8521644290790099 l -32.721467163236966 22.842125357144823" fill="#b3ff20" stroke="none" /><path d="M 117.42321728460499 88.27688183743584 l 33.8338723628209 -22.764939283454243 a61.779570616216816,61.779570616216816 0 0,0 0.5844805169244575,0.8849779975681455 l -34.21967731866608 22.180781407547038" fill="#a3ff21" stroke="none" /><line stroke="#e1ed5e" stroke-width="0.3" x1="172.87174338648825" x2="177.1583165268699" y1="56.24261187166439" y2="53.66864786411523" /><path d="M 173.72905801456457 55.72781907015455 a86.0,86.0 0 0,1 12.242430191666344,42.057860355516425" fill="none" id="id27" stroke="none" /><text fill="#e1ed5e" style="font-size:6.75px; font-family:Arial;" text-anchor="middle"><textPath startOffset="22.145653131862474" xlink:href="#id27">March</textPath></text><path d="M 118.18653347947321 89.5 l 37.56686072280618 -21.689237150921333 a64.37847430184266,64.37847430184266 0 0,0 0.5443556688969534,0.9618243077881448 l -37.93364975672451 21.04115607303407" fill="#77ff27" stroke="none" /><path d="M 118.53625476483649 90.13048839642627 l 38.38569347657898 -20.43821969349493 a64.48772571562512,64.48772571562512 0 0,0 0.5118849298548417,0.9816068475545824 l -38.73088647540877 19.77626660283585" fill="#75ff27" stroke="none" /><path d="M 118.8641267826498 90.77261029715802 l 42.33602783771268 -20.708672700834498 a68.12948523064803,68.12948523064803 0 0,0 0.504874335542984,1.054993182749853 l -42.68528143121557 19.978867016019542" fill="#3bff2e" stroke="none" /><path d="M 119.16976305983485 91.42560881287824 l 43.19523480291627 -19.320679106138687 a68.31930843536762,68.31930843536762 0 0,0 0.469666349623775,1.0746885210897474 l -43.520535034557014 18.57632851527309" fill="#38ff2e" stroke="none" /><path d="M 119.4528033332814 92.08871423366111 l 43.68962313803813 -17.76818938365151 a68.1645176368539,68.1645176368539 0 0,0 0.43151815690182566,1.0877076439160824 l -43.98819996990608 17.01558072252186" fill="#3aff2e" stroke="none" /><path d="M 119.71291397450082 92.76114493625339 l 45.25091324328353 -16.616762133392108 a69.20541394022985,69.20541394022985 0 0,0 0.3999408222773721,1.1187056600903253 l -45.529494235604844 15.837521516920866" fill="#30ff36" stroke="none" /><path d="M 120.35273937422433 94.82641323984039 l 22.958739623953083 -5.836021832955956 a44.68887662923702,44.68887662923702 0 0,0 0.1826125257506255,0.7451214217397512 l -23.05553967622 5.44104458660811" fill="#ff0000" stroke="none" /><path d="M 120.82617615685814 97.30363454192243 l 51.044902679383085 -6.60878460640005 a72.47094445919446,72.47094445919446 0 0,0 0.14914490601515107,1.235133774346564 l -51.150829671657895 5.731557155130074" fill="#36ff72" stroke="none" /><path d="M 120.9064616781168 98.02013634271609 l 50.95675264158311 -4.825657454693892 a72.18474000759923,72.18474000759923 0 0,0 0.10623661000668318,1.2346304433995066 l -51.03208287428753 3.950205963918724" fill="#36ff6d" stroke="none" /><path d="M 120.98066250479742 99.09900007780936 l 62.94198751439227 -2.7029997665719256 a84.0,84.0 0 0,0 0.049501252012607466,1.4411749417435202 l -62.97911345340172 1.6221185602642854" fill="#4dd2ff" stroke="none" /><line stroke="#e1ed5e" stroke-width="0.3" x1="184.99686870605535" x2="189.99668451229388" y1="99.2704041080226" y2="99.22748670261217" /><path d="M 185.99683186730306 99.26182062694052 a86.0,86.0 0 0,1 -10.086455211305974,41.156179273409016" fill="none" id="id28" stroke="none" /><text fill="#e1ed5e" style="font-size:6.75px; font-family:Arial;" text-anchor="middle"><textPath startOffset="21.40746469413373" xlink:href="#id28">April</textPath></text><path d="M 120.99303781780057 100.54070618675476 l 59.32335258379068 1.5279591281396505 a80.34302672494898,80.34302672494898 0 0,0 -0.04734619539723935,1.3784328197598739 l -59.288381701396595 -2.546098212463635" fill="#46fff6" stroke="none" /><path d="M 120.96210409425399 101.26102812881392 l 58.88934466998814 3.5426367402034202 a79.99580655210758,79.99580655210758 0 0,0 -0.0942275894049902,1.3700484698353594 l -58.819853119418084 -4.553028634193123" fill="#45fff0" stroke="none" /><path d="M 120.9064616781168 101.97986365728391 l 59.02994242844936 5.590196921173893 a80.29405033157667,80.29405033157667 0 0,0 -0.14172896874991595,1.371099206499528 l -58.925281067217774 -6.602700649956353" fill="#46fff5" stroke="none" /><path d="M 120.82617615685814 102.69636545807757 l 59.24449741652092 7.670386306728154 a80.738976390884,80.738976390884 0 0,0 -0.18975767679093092,1.3729920215781894 l -59.10409522317478 -8.686266636506428" fill="#47fffc" stroke="none" /><line stroke="#e1ed5e" stroke-width="0.3" x1="174.33088141563837" x2="178.70328620479359" y1="141.23008692659167" y2="143.65538615756765" /><path d="M 175.20536237346943 141.71514677278685 a86.0,86.0 0 0,1 -30.301960400862466,31.631185727798858" fill="none" id="id29" stroke="none" /><text fill="#e1ed5e" style="font-size:6.75px; font-family:Arial;" text-anchor="middle"><textPath startOffset="22.145653131862474" xlink:href="#id29">May</textPath></text><line stroke="#e1ed5e" stroke-width="0.3" x1="143.1302829299769" x2="145.66735839644613" y1="173.24464959558577" y2="177.55315839532614" /><path d="M 143.63769802327073 174.10635135553383 a86.0,86.0 0 0,1 -40.68552437913181,11.842963189579606" fill="none" id="id30" stroke="none" /><text fill="#e1ed5e" style="font-size:6.75px; font-family:Arial;" text-anchor="middle"><textPath startOffset="21.407464694133747" xlink:href="#id30">June</textPath></text><line stroke="#e1ed5e" stroke-width="0.3" x1="101.45913802915013" x2="101.54496967792366" y1="184.9874750549273" y2="189.98673829345242" /><path d="M 101.47630435890484 185.9873277026323 a86.0,86.0 0 0,1 -42.54439059252881,-10.42667462771756" fill="none" id="id31" stroke="none" /><text fill="#e1ed5e" style="font-size:6.75px; font-family:Arial;" text-anchor="middle"><textPath startOffset="22.145653131862474" xlink:href="#id31">July</textPath></text><line stroke="#e1ed5e" stroke-width="0.3" x1="58.13341422392154" x2="55.67067388415222" y1="173.97424548756322" y2="178.32567169271397" /><path d="M 57.64086615596768 174.84453072859336 a86.0,86.0 0 0,1 -31.369924170532247,-30.572349798747897" fill="none" id="id32" stroke="none" /><text fill="#e1ed5e" style="font-size:6.75px; font-family:Arial;" text-anchor="middle"><textPath startOffset="22.145653131862474" xlink:href="#id32">August</textPath></text><line stroke="#e1ed5e" stroke-width="0.3" x1="26.387840678322732" x2="22.057713659400548" y1="142.50000000000003" y2="145.00000000000006" /><path d="M 25.521815274538298 143.00000000000003 a86.0,86.0 0 0,1 -11.493303480769221,-40.785679425670985" fill="none" id="id33" stroke="none" /><text fill="#e1ed5e" style="font-size:6.75px; font-family:Arial;" text-anchor="middle"><textPath startOffset="21.40746469413373" xlink:href="#id33">September</textPath></text><line stroke="#e1ed5e" stroke-width="0.3" x1="15.003131293944662" x2="10.003315487706104" y1="100.72959589197737" y2="100.7725132973878" /><path d="M 14.003168132696942 100.73817937305945 a86.0,86.0 0 0,1 10.791469493833604,-42.45332614584628" fill="none" id="id34" stroke="none" /><text fill="#e1ed5e" style="font-size:6.75px; font-family:Arial;" text-anchor="middle"><textPath startOffset="22.145653131862435" xlink:href="#id34">October</textPath></text><line stroke="#e1ed5e" stroke-width="0.3" x1="26.387840678322718" x2="22.05771365940052" y1="57.49999999999999" y2="54.99999999999999" /><path d="M 25.521815274538284 56.99999999999999 a86.0,86.0 0 0,1 29.574782752854787,-30.34633250058573" fill="none" id="id35" stroke="none" /><text fill="#e1ed5e" style="font-size:6.75px; font-family:Arial;" text-anchor="middle"><textPath startOffset="21.40746469413373" xlink:href="#id35">November</textPath></text><line stroke="#e1ed5e" stroke-width="0.3" x1="56.869717070023135" x2="54.33264160355391" y1="26.7553504044142" y2="22.446841604673864" /><path d="M 56.362301976729285 25.89364864446614 a86.0,86.0 0 0,1 42.16139366436587,-11.88097634709845" fill="none" id="id36" stroke="none" /><text fill="#e1ed5e" style="font-size:6.75px; font-family:Arial;" text-anchor="middle"><textPath startOffset="22.145653131862474" xlink:href="#id36">December</textPath></text></svg>