<?xml version="1.0" encoding="utf-8" ?>
<svg baseProfile="full" height="200mm" version="1.1" viewBox="0,0,200,200" width="200mm" xmlns="http://www.w3.org/2000/svg" xmlns:ev="http://www.w3.org/2001/xml-events" xmlns:xlink="http://www.w3.org/1999/xlink"><defs /><rect fill="#1a1a1a" height="200" width="200" x="0" y="0" /><text alignment-baseline="middle" fill="#e1ed5e" style="dominant-baseline: central; font-size:9.0px; font-family:Arial;" text-anchor="middle" x="100.0" y="100.0">2023</text><line stroke="#e1ed5e" stroke-width="0.3" x1="100.0" x2="100.0" y1="15.0" y2="10.0" /><path d="M 100.0 14.0 a86.0,86.0 0 0,1 42.46469731375804,11.215312516191453" fill="none" id="id13" stroke="none" /><text fill="#e1ed5e" style="font-size:6.75px; font-family:Arial;" text-anchor="middle"><textPath startOffset="22.20632615414155" xlink:href="#id13">January</textPath></text><path d="M 100.72285384407766 79.0124445844662 l 0.7066269176483838 -20.51641796437618 a41.528583187588055,41.528583187588055 0 0,0 0.7142108826704621,0.030755422990290326 l -1.0596786327081773 20.501214814861697" fill="#ff3404" stroke="none" /><path d="M 101.44485096284872 79.0497635885617 l 1.827220305323686 -26.49456473824551 a47.557497900089714,47.557497900089714 0 0,0 0.8161994672653424,0.06335278736798375 l -2.2830099619513695 26.459186688689062" fill="#ffa50f" stroke="none" /><path d="M 103.2404852339499 79.25152402106235 l 3.068557433477276 -19.647640893856973 a40.88582000865213,40.88582000865213 0 0,0 0.6944179942928104,0.11458491906128787 l -3.4063046339089618 19.59190971185606" fill="#ff2703" stroke="none" /><path d="M 104.66035177308747 79.52364482259891 l 4.2833433491567305 -18.819879707489555 a40.301163240881166,40.301163240881166 0 0,0 0.6750949817142216,0.1597731707276912 l -4.606662017833476 18.743360624620998" fill="#ff1c02" stroke="none" /><path d="M 105.36241919743992 79.69619591428918 l 5.423753733058172 -20.536035910383436 a42.24019480770882,42.24019480770882 0 0,0 0.7013926232880816,0.19171709920447422 l -5.776444245569965 20.43963227035267" fill="#ff4206" stroke="none" /><path d="M 109.08828744355905 81.06846463323043 l 10.759315631393228 -22.412403399753224 a45.861188608134015,45.861188608134015 0 0,0 0.7087273063044452,0.34776941123469374 l -11.143514204708104 22.223878828383697" fill="#ff860c" stroke="none" /><path d="M 109.73455568895987 81.39251694778311 l 11.824828233506443 -22.603013222255974 a46.50926830541028,46.50926830541028 0 0,0 0.7061766943582803,0.37721513367852777 l -12.212149974393034 22.39611936207569" fill="#ff920d" stroke="none" /><path d="M 110.05341064243156 81.56283822128135 l 11.893661016030856 -21.812035745190943 a45.84399476158654,45.84399476158654 0 0,0 0.6895720764710953,0.38374611397231834 l -12.267357181573987 21.604074233658444" fill="#ff860c" stroke="none" /><line stroke="#e1ed5e" stroke-width="0.3" x1="143.23703022742887" x2="145.7803849466894" y1="26.81831364943548" y2="22.513508569990506" /><path d="M 143.74570117128098 25.957352633546492 a86.0,86.0 0 0,1 28.547481713284135,27.462654790039103" fill="none" id="id14" stroke="none" /><text fill="#e1ed5e" style="font-size:6.75px; font-family:Arial;" text-anchor="middle"><textPath startOffset="19.985693538727396" xlink:href="#id14">February</textPath></text><path d="M 110.68208982089419 81.91981866633111 l 12.051947146742457 -20.398760307246363 a44.69301272739209,44.69301272739209 0 0,0 0.6589834340675483,0.3970301456097279 l -12.401292647027642 20.18828355217802" fill="#ff700a" stroke="none" /><path d="M 111.2981086023043 82.29822771554956 l 13.090985277558111 -20.51083491224044 a45.33245249321212,45.33245249321212 0 0,0 0.654153709881471,0.4254797693761521 l -13.442106013223862 20.28245621870476" fill="#ff7c0b" stroke="none" /><path d="M 111.60114157652 82.49532879139004 l 9.886723727519232 -14.917829166989684 a38.89661792405984,38.89661792405984 0 0,0 0.5549163873100328,0.3746820218051113 l -10.142044809235806 14.745435232885901" fill="#ff0000" stroke="none" /><path d="M 112.19680574252982 82.90503203632743 l 13.974657373945915 -19.586793883080656 a45.06103786908343,45.06103786908343 0 0,0 0.6275386464177496,0.45593351458941134 l -14.309741336717453 19.34334113367457" fill="#ff770b" stroke="none" /><path d="M 112.77801427241765 83.33499621200491 l 11.608908694325486 -15.140263834501068 a40.07863595888047,40.07863595888047 0 0,0 0.5438622134236925,0.4244930841766765 l -11.867803462908608 14.938192361101168" fill="#ff1802" stroke="none" /><path d="M 114.42810811169701 84.74124197986012 l 21.213359188559025 -22.434647158633 a51.87588057359954,51.87588057359954 0 0,0 0.6435493400849388,0.6190939552782373 l -21.596391772256382 22.06617011659246" fill="#fff016" stroke="none" /><path d="M 114.68862486808459 84.99185889309783 l 17.29884694425564 -17.675142381108913 a45.7317763978501,45.7317763978501 0 0,0 0.5578497098991522,0.5554541259607911 l -17.600532454322117 17.374752404498004" fill="#ff840c" stroke="none" /><path d="M 115.19652480421416 85.50635884689758 l 22.211705443233125 -21.184349200901398 a51.69424229008893,51.69424229008893 0 0,0 0.6085955219088779,0.6492072696767749 l -22.573068287112466 20.798872514346566" fill="#ffed16" stroke="none" /><path d="M 115.9244219780498 86.31012108654704 l 15.755577726950248 -13.544727186377925 a41.77734015853271,41.77734015853271 0 0,0 0.46410524074876747,0.5493542187180633 l -15.986393581186134 13.271514018030754" fill="#ff3905" stroke="none" /><path d="M 116.38621287248628 86.86637796730983 l 14.527861267608676 -11.644145008789991 a39.61840127391751,39.61840127391751 0 0,0 0.4219282751572642,0.5358060619625337 l -14.726143623359905 11.392346552874418" fill="#ff0e01" stroke="none" /><path d="M 116.82858285166822 87.43820079747576 l 14.598138119724513 -10.896870010210986 a39.21667951581708,39.21667951581708 0 0,0 0.39914622026672025,0.5444349958742619 l -14.78354695250486 10.643972570665229" fill="#ff0601" stroke="none" /><path d="M 117.45458315368197 88.32363383020206 l 20.252990067724667 -13.548380157915673 a45.366826046630635,45.366826046630635 0 0,0 0.4286157586087261,0.6528112059980444 l -20.483202461691317 13.197750887939955" fill="#ff7d0b" stroke="none" /><line stroke="#e1ed5e" stroke-width="0.3" x1="172.23445277983987" x2="176.4835382374775" y1="55.19839476539836" y2="52.563006222186495" /><path d="M 173.08426987136738 54.67131705675599 a86.0,86.0 0 0,1 12.851231095245387,41.99856678651699" fill="none" id="id15" stroke="none" /><text fill="#e1ed5e" style="font-size:6.75px; font-family:Arial;" text-anchor="middle"><textPath startOffset="22.20632615414155" xlink:href="#id15">March</textPath></text><path d="M 117.84615892207809 88.93136811851018 l 35.65642213313754 -22.11500034970822 a62.95776066241018,62.95776066241018 0 0,0 0.5632746954163766,0.925875496155607 l -36.03181262684014 21.497957080345532" fill="#62ff29" stroke="none" /><path d="M 118.21658344932153 89.55222093294921 l 41.75490737041469 -23.94774236260594 a69.1348798043338,69.1348798043338 0 0,0 0.5831769370239919,1.0374066983343606 l -42.160941948731114 23.225452154336786" fill="#34ff58" stroke="none" /><path d="M 118.73160827565052 90.50648371742162 l 43.194702283972696 -21.891852713313256 a69.42556680744622,69.42556680744622 0 0,0 0.5310724834595457,1.0706097201722395 l -43.56513478038565 21.145083404642065" fill="#34ff5d" stroke="none" /><path d="M 119.04729006885535 91.15688171328212 l 43.73071279002712 -20.302933622931697 a69.21394357259123,69.21394357259123 0 0,0 0.4924001335035606,1.0849384240640192 l -44.073715240494025 19.547173190025614" fill="#34ff5a" stroke="none" /><path d="M 119.34039704204932 91.81776055985345 l 44.184191783993754 -18.692772224891467 a68.97564524898456,68.97564524898456 0 0,0 0.4531972941614744,1.097453195098931 l -44.499410765041425 17.929444459339233" fill="#33ff56" stroke="none" /><path d="M 119.7369772167798 92.82701384747503 l 33.87298183632296 -12.310417496459788 a57.04060595246712,57.04060595246712 0 0,0 0.3274318722053119,0.9256939951745224 l -34.07986678933808 11.725525874858652" fill="#baff1f" stroke="none" /><path d="M 119.85752413597 93.16781622104841 l 45.48017971965506 -15.647919852282817 a69.0968205085907,69.0968205085907 0 0,0 0.37727754434672706,1.1280118368044745 l -45.742794557773564 14.862734912556029" fill="#34ff58" stroke="none" /><path d="M 120.08093135843002 93.85539295169968 l 46.1735485783774 -14.128742685066209 a69.28683006970523,69.28683006970523 0 0,0 0.33915607328520375,1.1434656756022246 l -46.4099105487743 13.331847622717454" fill="#34ff5b" stroke="none" /><path d="M 120.53481517161879 95.60439243477599 l 47.30205083225619 -10.125304306427102 a69.37360644230591,69.37360644230591 0 0,0 0.23990286403600772,1.1698515648075851 l -47.4693329922072 9.309577085456105" fill="#34ff5c" stroke="none" /><path d="M 120.73433829027371 96.67025291283417 l 47.75474856758291 -7.668980447562028 a69.3666131940014,69.3666131940014 0 0,0 0.17917761704048946,1.1805566250424384 l -47.8796820780627 6.845824710127507" fill="#34ff5c" stroke="none" /><path d="M 120.78858239683441 97.02765380044208 l 17.981613629081327 -2.571006522333018 a39.16448466770919,39.16448466770919 0 0,0 0.08967548179340422,0.668186499949042 l -18.023205109932565 2.2611016803193116" fill="#ff0500" stroke="none" /><path d="M 120.87857604477298 97.74499172005257 l 48.20116181438685 -5.206007285240129 a69.48148628198891,69.48148628198891 0 0,0 0.11819420961254487,1.190199560888359 l -48.28363314968163 4.375532193647334" fill="#34ff5e" stroke="none" /><line stroke="#e1ed5e" stroke-width="0.3" x1="184.98032266829074" x2="189.97916517819016" y1="98.17113171792111" y2="98.06355123074" /><path d="M 185.9800911702706 98.14961562048488 a86.0,86.0 0 0,1 -9.607161424134198,41.387399972396054" fill="none" id="id16" stroke="none" /><text fill="#e1ed5e" style="font-size:6.75px; font-family:Arial;" text-anchor="middle"><textPath startOffset="21.466115282336823" xlink:href="#id16">April</textPath></text><path d="M 120.99513854157772 99.54816195383933 l 48.65440723517446 -1.047095367278041 a69.6656732421773,69.6656732421773 0 0,0 0.015482342912418842,1.1991245207073573 l -48.665222585204596 0.20943458851022098" fill="#35ff61" stroke="none" /><path d="M 120.9904718944345 100.63252640178507 l 48.04848699905612 1.4478920124129242 a69.07029742136066,69.07029742136066 0 0,0 -0.04603984986819472,1.1880839516240613 l -48.01644501633672 -2.274753211050992" fill="#34ff57" stroke="none" /><path d="M 120.95626037817324 101.35467743843564 l 47.93957258462392 3.098962134307041 a69.03963140893458,69.03963140893458 0 0,0 -0.08686974525570157,1.185268655680107 l -47.87912628070388 -3.923703926483918" fill="#33ff57" stroke="none" /><path d="M 120.89721153311464 102.0752229133903 l 48.52072779511267 4.818409668449376 a69.75938983929584,69.75938983929584 0 0,0 -0.12894756963106527,1.1938943472055064 l -48.43059792398056 -5.652900337539674" fill="#35ff62" stroke="none" /><path d="M 120.81339534386255 102.79330883721812 l 47.2754815256406 6.344713015229105 a68.69933476188953,68.69933476188953 0 0,0 -0.16738412655334597,1.1706841912607542 l -47.15926334807065 -7.157542678470268" fill="#33ff51" stroke="none" /><path d="M 120.64145759157962 103.86396538481128 l 46.96159910015531 8.790948630120376 a68.77732273643139,68.77732273643139 0 0,0 -0.22784966440609103,1.1618005299888934 l -46.803319502773554 -9.598012887177214" fill="#33ff53" stroke="none" /><path d="M 120.49622156327973 104.57218783832717 l 58.59909282147885 13.0719732272692 a81.03940508994685,81.03940508994685 0 0,0 -0.31543405282747294,1.3588816439045965 l -58.36539820272082 -14.078723528522362" fill="#48f8ff" stroke="none" /><path d="M 120.32669344350535 105.2749913415812 l 50.10376150831606 13.002454573912186 a72.76341123060635,72.76341123060635 0 0,0 -0.32505121807035775,1.2096365044609911 l -49.87252221390392 -13.862982011548723" fill="#3aff91" stroke="none" /><path d="M 120.13307415673323 105.97154293290107 l 48.97392636189798 14.525844467969826 a72.0827330984576,72.0827330984576 0 0,0 -0.36306777744775587,1.1865265036602797 l -48.71663181194409 -15.366697944182162" fill="#39ff87" stroke="none" /><path d="M 119.41010516605496 108.01547362559984 l 48.283047598785664 19.938660366893146 a73.23794466336628,73.23794466336628 0 0,0 -0.4912139354917674,1.1610846412517375 l -47.93268268210159 -20.766819533811045" fill="#3bff98" stroke="none" /><line stroke="#e1ed5e" stroke-width="0.3" x1="174.80103733775053" x2="179.2010983576182" y1="140.37084112569926" y2="142.7455964860345" /><path d="M 175.68104954172406 140.8457921977663 a86.0,86.0 0 0,1 -30.038265399797805,32.042727171017184" fill="none" id="id17" stroke="none" /><text fill="#e1ed5e" style="font-size:6.75px; font-family:Arial;" text-anchor="middle"><textPath startOffset="22.206326154141568" xlink:href="#id17">May</textPath></text><path d="M 117.35343817320211 111.8261652097733 l 22.983963186615572 15.66330217143982 a48.813694444958784,48.813694444958784 0 0,0 -0.47916241385468933,0.6902691947792121 l -22.710939865598746 -16.056612628406054" fill="#ffbb11" stroke="none" /><path d="M 117.14729908036423 112.12312394758627 l 41.63095077607404 29.433042133857025 a71.98470390002576,71.98470390002576 0 0,0 -0.7240297192163903,1.0056139545627836 l -41.11814126448204 -30.14528969387094" fill="#38ff85" stroke="none" /><path d="M 116.71984013943494 112.70617746262583 l 25.62274394097338 19.471904568366963 a53.181983695606434,53.181983695606434 0 0,0 -0.5601662971565704,0.724090450251623 l -25.28377082659874 -19.91007301273184" fill="#f8ff18" stroke="none" /><path d="M 116.498646956653 112.99209946851258 l 27.039808210326424 21.292890186755724 a55.41712365315374,55.41712365315374 0 0,0 -0.5966104296866351,0.7443632440812887 l -26.669279868584937 -21.755181264415263" fill="#d4ff1c" stroke="none" /><path d="M 116.0416608686014 113.55231037782055 l 37.5199439445578 31.697586045490837 a70.11703528017601,70.11703528017601 0 0,0 -0.7868383128792117,0.915270719485492 l -36.96876312210781 -32.33873386413786" fill="#35ff68" stroke="none" /><path d="M 115.56566222782051 114.09645910891815 l 35.67792452067088 32.31037631009455 a69.13392478702113,69.13392478702113 0 0,0 -0.8064096764730675,0.8751984359661173 l -35.11646843620209 -32.919726000862" fill="#34ff58" stroke="none" /><path d="M 115.07121518719521 114.62390073753431 l 23.64042465425546 22.93877562246721 a53.94020499164244,53.94020499164244 0 0,0 -0.6523152735263711,0.6607919281300771 l -23.242068755673557 -23.34230804457795" fill="#ecff1a" stroke="none" /><path d="M 114.55890576462653 115.13401014063108 l 23.097775935674683 24.01018186997601 a54.316603767550454,54.316603767550454 0 0,0 -0.6793821622537503,0.6423982393074057 l -22.681057939030126 -24.404214746029336" fill="#e5ff1a" stroke="none" /><path d="M 113.75828350139079 115.86535959552629 l 19.55169889690702 22.546034443288487 a50.84279810730331,50.84279810730331 0 0,0 -0.6661242393686809,0.5676855280467404 l -19.16070918096129 -22.879244361558175" fill="#ffdf14" stroke="none" /><path d="M 113.20401910651253 116.32954008644616 l 11.269940241447578 13.937645762251407 a38.923992926795194,38.923992926795194 0 0,0 -0.5246259310215334,0.41679456860669506 l -11.028356817708694 -14.129574244863228" fill="#ff0100" stroke="none" /><path d="M 111.45004920935366 117.60387380957326 l 17.960610964254496 27.613534507719514 a53.940716965760096,53.940716965760096 0 0,0 -0.7827008604810943,0.49955672136852936 l -17.48262830172647 -27.91860565791185" fill="#ecff1a" stroke="none" /><line stroke="#e1ed5e" stroke-width="0.3" x1="143.8653032363475" x2="146.44561519142675" y1="172.8068346515853" y2="177.08958963109032" /><path d="M 144.38136562736335 173.6633856474863 a86.0,86.0 0 0,1 -40.68145358897372,12.25698825130547" fill="none" id="id18" stroke="none" /><text fill="#e1ed5e" style="font-size:6.75px; font-family:Arial;" text-anchor="middle"><textPath startOffset="21.466115282336833" xlink:href="#id18">June</textPath></text><path d="M 110.8373102113329 117.98757091392108 l 15.34718822274648 25.472984633886703 a50.7390170063275,50.7390170063275 0 0,0 -0.751981537371735,0.4442839470254869 l -14.906438814346362 -25.73338715320594" fill="#ffdd14" stroke="none" /><path d="M 109.57404056367764 118.69057910512821 l 13.738941519491691 26.821358399608727 a51.13542401354715,51.13542401354715 0 0,0 -0.7868672594744235,0.39455157899682697 l -13.275220352334507 -27.053877819514856" fill="#ffe415" stroke="none" /><path d="M 108.59647513512805 119.15986991738527 l 12.413457037233874 27.667179666065437 a51.32435895925248,51.32435895925248 0 0,0 -0.8091635303739324,0.3547135125917558 l -11.935372832202189 -27.876757731951646" fill="#ffe715" stroke="none" /><path d="M 107.93186726928326 119.44442032107085 l 11.279404908072324 27.65067575619253 a50.86276686535157,50.86276686535157 0 0,0 -0.813511019250843,0.32371282351393693 l -10.801772812779616 -27.840735424112538" fill="#ffdf14" stroke="none" /><path d="M 107.2578585660854 119.70592522655815 l 10.306240692726607 27.982635182063362 a50.82023589693522,50.82023589693522 0 0,0 -0.823482485709983,0.2952715212721121 l -9.82303864638689 -28.155894244375435" fill="#ffde14" stroke="none" /><path d="M 106.57524785965236 119.94407469862006 l 6.461065112718374 19.597735019454635 a41.63532360501151,41.63532360501151 0 0,0 -0.6825787241636563,0.2185401523515401 l -6.122765043463777 -19.706048018465882" fill="#ff3605" stroke="none" /><path d="M 104.48393922423573 120.51570834832081 l 6.369301721142474 29.141950851416627 a50.829872675580276,50.829872675580276 0 0,0 -0.8563829984322785,0.17946338377741342 l -5.8667272612808175 -29.247270215920583" fill="#ffde14" stroke="none" /><path d="M 103.06178313531738 120.77559828337769 l 4.358138636626459 29.571962995489294 a50.891376144009236,50.891376144009236 0 0,0 -0.8677498453488721,0.12026222161075514 l -3.848460200090757 -29.64259978259265" fill="#ffdf14" stroke="none" /><path d="M 101.62511606390274 120.93702456842531 l 2.401381105476696 30.937959645033196 a52.031016390241604,52.031016390241604 0 0,0 -0.8935391478496646,0.06162369114883853 l -1.868479196848101 -30.97471168069832" fill="#fff316" stroke="none" /><path d="M 100.90346689309514 120.98055641714683 l 1.2864053794676984 29.87325915926065 a50.90094399173166,50.90094399173166 0 0,0 -0.8756892926076683,0.03016050982815369 l -0.7719957351853779 -29.890976467514893" fill="#ffe014" stroke="none" /><line stroke="#e1ed5e" stroke-width="0.3" x1="102.19456741930631" x2="102.32365962044197" y1="184.97166512339345" y2="189.96999836594603" /><path d="M 102.22038585953345 185.97133177190398 a86.0,86.0 0 0,1 -42.740103519485714,-10.115201625700543" fill="none" id="id19" stroke="none" /><text fill="#e1ed5e" style="font-size:6.75px; font-family:Arial;" text-anchor="middle"><textPath startOffset="22.20632615414155" xlink:href="#id19">July</textPath></text><path d="M 99.09653310690486 120.98055641714683 l -1.320535097168571 30.66582884078101 a51.69424818162078,51.69424818162078 0 0,0 -0.8886781137123526,-0.045934507635797005 l 1.8482012792944125 -30.63855452638301" fill="#ffed16" stroke="none" /><path d="M 98.73552117531835 120.96189622390904 l -1.840807754179798 30.515988372520823 a51.57145923144125,51.57145923144125 0 0,0 -0.8856470799918541,-0.06107940794270724 l 2.3658175949505824 -30.47978062006183" fill="#ffeb16" stroke="none" /><path d="M 97.65516085044442 120.86867818915974 l -3.3687952282967863 29.9817168771798 a51.170384952690995,51.170384952690995 0 0,0 -0.8744594243535537,-0.10588485823997931 l 3.8843820757017293 -29.91928649021447" fill="#ffe415" stroke="none" /><path d="M 97.2962882734958 120.8252237178851 l -3.825168203993242 29.463194180726358 a50.710464875528764,50.710464875528764 0 0,0 -0.8646651237881574,-0.11983470731048153 l 4.331761918968231 -29.39298490792327" fill="#ffdc14" stroke="none" /><path d="M 96.58105272829116 120.7198165907248 l -4.979214283181545 30.175489270378133 a51.58353687173125,51.58353687173125 0 0,0 -0.874834748189358,-0.15210123466722328 l 5.497898002842953 -30.0853094571899" fill="#ffeb16" stroke="none" /><path d="M 94.81253420990036 120.34920634021253 l -7.462724950284939 29.27451206780558 a51.21074842654018,51.21074842654018 0 0,0 -0.8523164764691562,-0.22510452801941205 l 7.965531869565584 -29.141716190482587" fill="#ffe515" stroke="none" /><path d="M 94.11515582081647 120.15858648285463 l -8.344290547053259 28.58344206051295 a50.77650659094084,50.77650659094084 0 0,0 -0.8369056972202107,-0.25215282133033134 l 8.835071218713717 -28.435573870076894" fill="#ffdd14" stroke="none" /><path d="M 92.06813273071674 119.44442032107085 l -11.347191341938444 27.81684947890014 a51.04223470852909,51.04223470852909 0 0,0 -0.8106686688725562,-0.33885956933590544 l 11.824331470308461 -27.61740486654426" fill="#ffe215" stroke="none" /><path d="M 91.40352486487194 119.15986991738527 l -8.896148960924867 19.827784548633332 a42.732061716321056,42.732061716321056 0 0,0 -0.6685166609834896,-0.30688321038588195 l 9.236133617675776 -19.671714267913377" fill="#ff4b07" stroke="none" /><path d="M 90.42595943632237 118.69057910512821 l -13.548582538302375 26.449736870263163 a50.71788467073911,50.71788467073911 0 0,0 -0.7735904697452252,-0.40470597162717115 l 14.001863910574096 -26.212601479691276" fill="#ffdc14" stroke="none" /><line stroke="#e1ed5e" stroke-width="0.3" x1="58.666819895761336" x2="56.23545636021788" y1="174.27360380694188" y2="178.64263932499728" /><path d="M 58.180547188652646 175.14741091055294 a86.0,86.0 0 0,1 -31.652253787137756,-30.449443065178592" fill="none" id="id20" stroke="none" /><text fill="#e1ed5e" style="font-size:6.75px; font-family:Arial;" text-anchor="middle"><textPath startOffset="22.20632615414155" xlink:href="#id20">August</textPath></text><path d="M 89.7882731507175 118.34994917583269 l -14.555523500602716 26.155528874380828 a50.932840745160945,50.932840745160945 0 0,0 -0.7624191091641486,-0.43292146809987375 l 15.003591376688073 -25.901104240486323" fill="#ffe015" stroke="none" /><path d="M 88.8546689885994 117.79835938074946 l -15.928795174107835 25.437236518244205 a51.01298914443174,51.01298914443174 0 0,0 -0.7402183868710046,-0.4724423967218992 l 16.364295363025764 -25.1592796926985" fill="#ffe115" stroke="none" /><path d="M 87.95078237400918 117.19931262002967 l -17.219799411374037 24.579912366390747 a51.01155750219249,51.01155750219249 0 0,0 -0.7148241588933497,-0.5100080576118513 l 17.640350898116274 -24.279860046934676" fill="#ffe115" stroke="none" /><path d="M 87.36589467227662 116.77436683061367 l -17.877667470003544 23.736271341629465 a50.715678881214934,50.715678881214934 0 0,0 -0.6928033945700072,-0.5312121003039977 l 18.283599593067038 -23.425019899498103" fill="#ffdc14" stroke="none" /><path d="M 86.51685102203217 116.09983520530335 l -13.0352313183905 15.564989783323353 a41.30236839580321,41.30236839580321 0 0,0 -0.5411289259437216,-0.4611618102305835 l 13.301225720911278 -15.33830358286982" fill="#ff3004" stroke="none" /><path d="M 85.97065885151581 115.62618273729859 l -20.130311618649934 22.421575224562524 a51.132316230496926,51.132316230496926 0 0,0 -0.6498684875582329,-0.5936394551513225 l 20.51327965567502 -22.071743002824626" fill="#ffe315" stroke="none" /><path d="M 85.44109423537348 115.13401014063109 l -21.03652047010205 21.867502906135133 a51.34341570817055,51.34341570817055 0 0,0 -0.6316463758759645,-0.6181989227340305 l 21.40981679835381 -21.50215388047853" fill="#ffe715" stroke="none" /><path d="M 84.9287848128048 114.62390073753433 l -21.442071782505863 20.805669978149076 a50.877053830084854,50.877053830084854 0 0,0 -0.6044519817022043,-0.6337654862475834 l 21.797030315587026 -20.433497375318993" fill="#ffdf14" stroke="none" /><path d="M 84.19399662182784 113.82643327865904 l -22.75257113556192 19.903001359485327 a51.229273170132295,51.229273170132295 0 0,0 -0.5748839024660196,-0.6687198556782405 l 23.09179754759872 -19.508404404645553" fill="#ffe515" stroke="none" /><path d="M 83.72743513129214 113.27417163493432 l -23.517210738275992 19.18391441260142 a51.349329038687166,51.349329038687166 0 0,0 -0.5528173106499217,-0.6897245945831082 l 23.843945960980776 -18.77626198444005" fill="#ffe715" stroke="none" /><path d="M 82.6465618267979 111.8261652097733 l -24.55257965046038 16.732295950485064 a50.711931866959105,50.711931866959105 0 0,0 -0.48537813447054295,-0.7255744540633666 l 24.836960890341654 -16.307184582215875" fill="#ffdc14" stroke="none" /><path d="M 82.05923443525364 110.91462005526583 l -25.345941454614604 15.41970547030227 a50.667896201308594,50.667896201308594 0 0,0 -0.44688873164853626,-0.7490112192347669 l 25.60761106196137 -14.981132157181394" fill="#ffdc14" stroke="none" /><line stroke="#e1ed5e" stroke-width="0.3" x1="26.63291911575756" x2="22.317208475507996" y1="142.92168965132927" y2="145.44649492493687" /><path d="M 25.769776987707644 143.4266507060508 a86.0,86.0 0 0,1 -11.730757126820373,-40.83630448921669" fill="none" id="id21" stroke="none" /><text fill="#e1ed5e" style="font-size:6.75px; font-family:Arial;" text-anchor="middle"><textPath startOffset="21.46611528233685" xlink:href="#id21">September</textPath></text><path d="M 81.69416730710424 110.29060199501025 l -26.9083987055642 15.126524209383419 a51.86865166402109,51.86865166402109 0 0,0 -0.43081506953081566,-0.7820544898944246 l 27.164790184546533 -14.661099201091172" fill="#fff016" stroke="none" /><path d="M 81.35079622478065 109.6543875284942 l -26.612741175532335 13.776980486722218 a50.9673686567139,50.9673686567139 0 0,0 -0.3966264373035201,-0.7825815887597133 l 26.84594628262212 -13.316844686259818" fill="#ffe115" stroke="none" /><path d="M 81.02952815118164 109.00673069616217 l -27.451545897905923 13.033343770580725 a51.38840933689967,51.38840933689967 0 0,0 -0.37250572863339904,-0.8023441998109884 l 27.67182624337915 -12.55887950349091" fill="#ffe815" stroke="none" /><path d="M 80.20201598880116 107.00284435728193 l -28.032014082774158 9.915344488194469 a50.73395146724393,50.73395146724393 0 0,0 -0.2841322797632921,-0.825821404364133 l 28.19853719348068 -9.431350380741039" fill="#ffdd14" stroke="none" /><path d="M 79.97269907076064 106.31721596034903 l -28.551882044309448 9.006126466346803 a50.9386085548409,50.9386085548409 0 0,0 -0.25656862051868384,-0.8384810968160957 l 28.702677437334263 -8.51331839697866" fill="#ffe015" stroke="none" /><path d="M 79.76711848015287 105.62410040840567 l -34.85071011140557 9.687393897825027 a57.17205545446435,57.17205545446435 0 0,0 -0.255400976270382,-0.9504420441973519 l 35.012299164017726 -9.086060920452136" fill="#b8ff1f" stroke="none" /><path d="M 79.58551787078972 104.9243191809786 l -34.829312494669125 8.401420643063435 a56.828269253105255,56.828269253105255 0 0,0 -0.22119574132832648,-0.9529054644120328 l 34.96876880192801 -7.800646521302827" fill="#bdff1f" stroke="none" /><path d="M 79.35854240842038 103.8639653848113 l -46.53827479053123 8.71170468759942 a68.34664527760057,68.34664527760057 0 0,0 -0.20651608557358303,-1.1582518811707807 l 46.68133731844401 -7.9093340556954255" fill="#32ff4c" stroke="none" /><path d="M 79.23777060512086 103.15116336523772 l -30.756202889553723 4.667987139342771 a52.108425227202716,52.108425227202716 0 0,0 -0.12696081079906757,-0.8879636150250102 l 30.83199775136939 -4.13787805233736" fill="#fff417" stroke="none" /><path d="M 79.10278846688536 102.07522291339032 l -29.74711499624767 2.9540733006241866 a50.89343405608402,50.89343405608402 0 0,0 -0.0790675634726564,-0.8725039743269754 l 29.7935571559974 -2.441587937748645" fill="#ffdf14" stroke="none" /><path d="M 79.0235259727143 100.99374915477108 l -35.428268419084716 1.678395127354204 a56.46800266970558,56.46800266970558 0 0,0 -0.037639599977551126,-0.9713108276177156 l 35.45191015191347 -1.0683070527224916" fill="#c3ff1e" stroke="none" /><line stroke="#e1ed5e" stroke-width="0.3" x1="15.007084014347285" x2="10.007500721073583" y1="101.09737516637583" y2="101.16192664675087" /><path d="M 14.007167355692545 101.11028546245083 a86.0,86.0 0 0,1 10.666146001902534,-42.60595125391555" fill="none" id="id22" stroke="none" /><text fill="#e1ed5e" style="font-size:6.75px; font-family:Arial;" text-anchor="middle"><textPath startOffset="22.20632615414155" xlink:href="#id22">October</textPath></text><path d="M 79.00175016825051 100.2711162175752 l -32.02455515588734 0.41348094879149755 a53.027224347849504,53.027224347849504 0 0,0 -0.003928314126099109,-0.9128018570911851 l 32.02692776730294 0.13783038650336288" fill="#fbff18" stroke="none" /><path d="M 79.00019446554 99.90962569577889 l -30.74387300551357 -0.1323086600671808 a51.744157704524525,51.744157704524525 0 0,0 0.01149950550984857,-0.8906493746374521 l 30.737040492886006 0.6614942927651049" fill="#ffee16" stroke="none" /><path d="M 79.05617556472873 98.46500227214037 l -29.882749541891094 -2.190142148620776 a50.96290110811297,50.96290110811297 0 0,0 0.07165266482252189,-0.8743440003794949 l 29.840622393249074 2.704200066208049" fill="#ffe115" stroke="none" /><path d="M 79.21141760316559 97.0276538004421 l -35.58894811453119 -5.088498708338972 a56.950883813942056,56.950883813942056 0 0,0 0.1471071338252091,-0.9692522107217966 l 35.496085087266685 5.70035003145286" fill="#bbff1f" stroke="none" /><path d="M 79.26566170972629 96.67025291283419 l -29.360217365138073 -4.7149852038433675 a50.736399398727094,50.736399398727094 0 0,0 0.14589889108836215,-0.8611035140662199 l 29.274706612529485 5.219674506225416" fill="#ffdd14" stroke="none" /><path d="M 79.46518482838121 95.60439243477599 l -29.27143209328235 -6.265735887021854 a50.93453161480155,50.93453161480155 0 0,0 0.19089683492890727,-0.8557530798785598 l 29.159240871351404 6.7686671364503725" fill="#ffe015" stroke="none" /><path d="M 79.62865764111835 94.90015583598534 l -34.67542592517882 -8.680786244905745 a56.74550619199997,56.74550619199997 0 0,0 0.24536667200522785,-0.9454978786009463 l 34.520862921303284 9.276380549055556" fill="#bfff1e" stroke="none" /><path d="M 79.91906864156998 93.8553929516997 l -28.890882975130758 -8.840382947979311 a51.213167489517275,51.213167489517275 0 0,0 0.2651976725402622,-0.8407490937517734 l 28.734429818822292 9.336382208157499" fill="#ffe515" stroke="none" /><path d="M 80.02781315780177 93.51064311812611 l -28.389303642721284 -9.224243915856734 a50.85028035275126,50.85028035275126 0 0,0 0.2776490837005015,-0.8301354204220819 l 28.226317265249012 9.711552439201139" fill="#ffdf14" stroke="none" /><path d="M 80.52162464483688 92.15188598940014 l -33.99966523088305 -13.698947894207645 a57.65567362933512,57.65567362933512 0 0,0 0.3788205994674037,-0.9173441293907281 l 33.75882294452945 14.282166594051684" fill="#b0ff20" stroke="none" /><path d="M 80.803312248108 91.48605970444005 l -33.317170266420355 -14.776528228800855 a57.44694254746471,57.44694254746471 0 0,0 0.40868762448241336,-0.9004890069494951 l 33.05788032497459 15.347839244592421" fill="#b4ff20" stroke="none" /><path d="M 81.10775173730289 90.83032412892265 l -32.058378818033084 -15.560082560105402 a56.63503643491625,56.63503643491625 0 0,0 0.43323102472799724,-0.8733673097361708 l 31.785787780351676 16.109609458340532" fill="#c0ff1e" stroke="none" /><path d="M 81.6062741919709 89.86733742301443 l -32.29673253782868 -17.79149567414553 a57.87297453343276,57.87297453343276 0 0,0 0.4881788197273986,-0.8684156478385204 l 31.98569607680885 18.344794831918833" fill="#adff20" stroke="none" /><line stroke="#e1ed5e" stroke-width="0.3" x1="26.266209847984243" x2="21.928928074336255" y1="57.711370442889674" y2="55.22380399835377" /><path d="M 25.398753493254645 57.213857153982495 a86.0,86.0 0 0,1 29.58750427330803,-30.492523968695096" fill="none" id="id23" stroke="none" /><text fill="#e1ed5e" style="font-size:6.75px; font-family:Arial;" text-anchor="middle"><textPath startOffset="21.46611528233685" xlink:href="#id23">November</textPath></text><path d="M 81.96595687620814 89.24020034530311 l -36.29681572430964 -21.656068060621713 a63.26634731758555,63.26634731758555 0 0,0 0.5660355791005477,-0.9304136630068847 l 35.918664346922874 22.27764949683567" fill="#5dff2a" stroke="none" /><path d="M 82.34701348167596 88.62581576622439 l -27.587950114056586 -17.77548670893571 a53.81863676686198,53.81863676686198 0 0,0 0.5084666007140646,-0.7744295167758602 l 27.277886877984603 18.247734289689234" fill="#eeff19" stroke="none" /><path d="M 82.7489923806493 88.02491185347247 l -34.984408166406574 -24.285037766540857 a63.5872266539634,63.5872266539634 0 0,0 0.6318977021120299,-0.8937744869355382 l 34.561197844490664 24.88363875380818" fill="#59ff2a" stroke="none" /><path d="M 83.17141714833178 87.43820079747576 l -33.60819223545163 -25.08704185865103 a62.93888714013261,62.93888714013261 0 0,0 0.6555356625269729,-0.862608090858859 l 33.171380632700554 25.661834725390918" fill="#62ff29" stroke="none" /><path d="M 83.84228863543731 86.58626213691792 l -33.02551311920539 -27.416975447796595 a63.92289668104762,63.92289668104762 0 0,0 0.7101206357546449,-0.8405588491549519 l 32.54868186996362 27.981393246580662" fill="#54ff2b" stroke="none" /><path d="M 84.31358615837235 86.03803664274999 l -13.905913510806707 -12.37719830977157 a39.61637635442109,39.61637635442109 0 0,0 0.457769793245163,-0.5054808391736857 l 13.690800076945498 12.614731936214811" fill="#ff0e01" stroke="none" /><path d="M 85.05521093208273 85.24692304244772 l -31.456286345038272 -31.05276435405891 a65.20149459746528,65.20149459746528 0 0,0 0.7953470805454735,-0.7919316074211415 l 30.917103464325486 31.58963181213016" fill="#43ff2d" stroke="none" /><path d="M 85.83668400450813 84.49514656593479 l -29.25502777476247 -32.026039523624036 a64.37653579610586,64.37653579610586 0 0,0 0.8245990850374815,-0.7403332003218843 l 28.69941770212902 32.5248717327152" fill="#4eff2b" stroke="none" /><path d="M 86.37877921826538 84.01681056812374 l -27.394363330251007 -32.144644411034044 a63.23421961610778,63.23421961610778 0 0,0 0.8345184463274594,-0.6988851993335287 l 26.836987346964438 32.611430767761384" fill="#5eff2a" stroke="none" /><path d="M 87.51073957382395 83.11751280151077 l -24.69981751880585 -33.388234277851076 a62.53137577368438,62.53137577368438 0 0,0 0.870837796183603,-0.632700693921854 l 24.121434406268467 33.808454206589595" fill="#68ff28" stroke="none" /><path d="M 88.09926311788651 82.69761687909137 l -23.50543590706834 -34.17435924487322 a62.477612599798334,62.477612599798334 0 0,0 0.8913333066469723,-0.601832227474191 l 22.913697906014825 34.57390338464608" fill="#69ff28" stroke="none" /><path d="M 88.70189139769569 82.29822771554957 l -22.39388261116815 -35.08652859530508 a62.62391701019909,62.62391701019909 0 0,0 0.913655655969293,-0.5721310879490429 l 21.786607802826612 35.46680402457706" fill="#66ff29" stroke="none" /><line stroke="#e1ed5e" stroke-width="0.3" x1="56.762969772571076" x2="54.21961505331055" y1="26.818313649435495" y2="22.513508569990535" /><path d="M 56.25429882871897 25.957352633546506 a86.0,86.0 0 0,1 42.265352541879196,-11.944610805530505" fill="none" id="id24" stroke="none" /><text fill="#e1ed5e" style="font-size:6.75px; font-family:Arial;" text-anchor="middle"><textPath startOffset="22.20632615414155" xlink:href="#id24">December</textPath></text><path d="M 89.3179101791058 81.91981866633112 l -25.088048795608508 -42.463270683728815 a70.32078212610234,70.32078212610234 0 0,0 1.0474557345066249,-0.6067539700157154 l 24.353396328636563 42.88882881113458" fill="#36ff6b" stroke="none" /><path d="M 89.94658935756843 81.56283822128135 l -22.800663234535904 -41.81461711540568 a68.62701385183303,68.62701385183303 0 0,0 1.0420030146965509,-0.5566019236012515 l 22.07751517331105 42.200897765508685" fill="#33ff50" stroke="none" /><path d="M 90.58718382345135 81.22770947309562 l -23.846602186397913 -47.558067206058524 a74.20178749076291,74.20178749076291 0 0,0 1.1466958133304244,-0.5626786555559972 l 23.024435106057062 47.961501021749356" fill="#3cffa7" stroke="none" /><path d="M 91.23893434514133 80.91482961587045 l -19.960305414694382 -43.481677317124394 a68.84422697210613,68.84422697210613 0 0,0 1.0812408140825045,-0.48512123586558714 l 19.208882482145103 43.81881888350651" fill="#33ff54" stroke="none" /><path d="M 91.90106846888425 80.62456947434976 l -20.627182026388677 -49.347315847375185 a74.48493451141525,74.48493451141525 0 0,0 1.187205193029705,-0.4842908071839496 l 19.774692963770594 49.69506754074271" fill="#3dffab" stroke="none" /><path d="M 92.57280143429618 80.3572730644239 l -17.84765501599196 -47.201728998916856 a71.46327387374953,71.46327387374953 0 0,0 1.1543621693395818,-0.4251613290308611 l 17.03251052087981 47.50195359575404" fill="#38ff7d" stroke="none" /><path d="M 93.59665428221793 80.00007090966166 l -16.20383276405978 -50.61034036830773 a74.141045797402,74.141045797402 0 0,0 1.2187892138946155,-0.3786837415189456 l 15.330258177454436 50.8817642447092" fill="#3cffa6" stroke="none" /><path d="M 94.28887869178378 79.79150937346287 l -14.54098086837817 -51.45246611318353 a74.46771356382129,74.46771356382129 0 0,0 1.2365261383041768,-0.33798930364401747 l 13.653156840850272 51.695141957653846" fill="#3dffab" stroke="none" /><path d="M 94.98787191387505 79.60689891045804 l -12.660788270120179 -51.5135947504218 a74.04663989105717,74.04663989105717 0 0,0 1.2403739987470972,-0.2935564506268267 l 11.772190584410549 51.7238971131895" fill="#3cffa4" stroke="none" /><path d="M 95.692805502759 79.44645832069477 l -10.559920177231273 -50.39098179380746 a72.48556069708604,72.48556069708604 0 0,0 1.2233960733169535,-0.24540174319466868 l 9.690957694447183 50.565287493079346" fill="#39ff8d" stroke="none" /><path d="M 96.75951476605007 79.25152402106235 l -8.21680800838924 -52.61133172262479 a74.24911416610416,74.24911416610416 0 0,0 1.2644660191187376,-0.1863494220340775 l 7.309973008841854 52.74497562881984" fill="#3cffa7" stroke="none" /><path d="M 97.47563105711357 79.15227682838746 l -6.4187798350360845 -53.01005840586498 a74.39725673444173,74.39725673444173 0 0,0 1.2726653231689207,-0.1429987777375636 l 5.505347808357445 53.112693137073144" fill="#3dffaa" stroke="none" /><path d="M 98.19473922651362 79.07773832637324 l -5.415782320459142 -62.766785020880285 a84.0,84.0 0 0,0 1.4416392425506632,-0.11189895124615123 l 4.334552888546145 62.8507092343149" fill="#4dd2ff" stroke="none" /><path d="M 99.27714615592234 79.0124445844662 l -1.7407345285573188 -50.541008643933736 a71.57097696747707,71.57097696747707 0 0,0 1.2316116556727144,-0.031808895457707334 l 0.8704962376897256 50.5634843315338" fill="#38ff7f" stroke="none" /></svg>