<?xml version="1.0" encoding="utf-8" ?>
<svg baseProfile="full" height="200mm" version="1.1" viewBox="0,0,200,200" width="200mm" xmlns="http://www.w3.org/2000/svg" xmlns:ev="http://www.w3.org/2001/xml-events" xmlns:xlink="http://www.w3.org/1999/xlink"><defs /><rect fill="#1a1a1a" height="200" width="200" x="0" y="0" /><text alignment-baseline="middle" fill="#e1ed5e" style="dominant-baseline: central; font-size:9.0px; font-family:Arial;" text-anchor="middle" x="100.0" y="100.0">2024</text><line stroke="#e1ed5e" stroke-width="0.3" x1="100.0" x2="100.0" y1="15.0" y2="10.0" /><path d="M 100.0 14.0 a86.0,86.0 0 0,1 42.35913384403234,11.155469271406648" fill="none" id="id25" stroke="none" /><text fill="#e1ed5e" style="font-size:6.75px; font-family:Arial;" text-anchor="middle"><textPath startOffset="22.145653131862478" xlink:href="#id25">January</textPath></text><path d="M 100.0 79.0 l 0.0 -53.1684614895332 a74.1684614895332,74.1684614895332 0 0,0 1.2732002673286416,0.010928893015106037 l -0.9127073424797867 53.16062699471253" fill="#ff4c07" stroke="none" /><path d="M 100.72087961077811 79.0123766808444 l 1.8095311887896268 -52.68252618989676 a73.7135937768652,73.7135937768652 0 0,0 1.2642732177124454,0.054293331801417044 l -2.7136301671029086 52.64370028966952" fill="#ff2703" stroke="none" /><path d="M 101.80034050326958 79.07731436759882 l 4.554081919344403 -52.925335051675766 a74.1209069243009,74.1209069243009 0 0,0 1.2667631360681149,0.1199637860343172 l -5.4619446187975305 52.83935951013626" fill="#ff4806" stroke="none" /><path d="M 102.51750503828377 79.15144685158666 l 6.406363149675766 -53.05387698652014 a74.43926788520156,74.43926788520156 0 0,0 1.2673185329129573,0.1640797566865251 l -7.316159504479515 52.93608563363322" fill="#ff6209" stroke="none" /><path d="M 103.23170211078529 79.25015418208739 l 8.122819199934993 -52.154326180909905 a73.78308375928387,73.78308375928387 0 0,0 1.2498239422522333,0.20565805408381663 l -9.016920645240297 52.00720212833042" fill="#ff2d04" stroke="none" /><path d="M 104.29559338865022 79.4440306129975 l 10.737031377442724 -51.38058199017545 a73.49045673690915,73.49045673690915 0 0,0 1.2326714705983313,0.26865500975140666 l -11.617465264660188 51.188695522290324" fill="#ff1502" stroke="none" /><path d="M 105.3480935250658 79.69241777938227 l 13.586468407421044 -51.590033528468126 a74.34907387438244,74.34907387438244 0 0,0 1.2314281293709872,0.3356312125777206 l -14.470077937726725 51.34920182174626" fill="#ff5b08" stroke="none" /><path d="M 106.04205211174951 79.88797359093562 l 15.195792797134677 -50.581852057901195 a73.81511030321582,73.81511030321582 0 0,0 1.210424984215534,0.3749927542178959 l -16.06185841422184 50.31354271587665" fill="#ff3004" stroke="none" /><path d="M 106.72888874123014 80.10723608172694 l 16.836148682148444 -49.77308199120193 a73.54346384994349,73.54346384994349 0 0,0 1.1924345211772198,0.4147906253677387 l -17.688088975370682 49.4767329332656" fill="#ff1902" stroke="none" /><path d="M 107.40779381753099 80.34994680014964 l 18.42876367616818 -48.884485119872174 a73.24281975608763,73.24281975608763 0 0,0 1.172679408342087,0.4536175871696314 l -19.265215347003796 48.5609276445645" fill="#ff0000" stroke="none" /><path d="M 108.4095320186766 80.7573450057729 l 20.975674077627662 -47.99644720428338 a73.37974653665692,73.37974653665692 0 0,0 1.149918623193556,0.5143439737800778 l -21.796506103676847 47.62929947959345" fill="#ff0b01" stroke="none" /><path d="M 110.02825361518725 81.54914285379988 l 25.094775755332495 -46.171560906312415 a73.5505547709607,73.5505547709607 0 0,0 1.10415427885183,0.6124557657653623 l -25.883674222340424 45.73397222511391" fill="#ff1a02" stroke="none" /><line stroke="#e1ed5e" stroke-width="0.3" x1="143.13028292997686" x2="145.6673583964461" y1="26.7553504044142" y2="22.446841604673864" /><path d="M 143.63769802327073 25.89364864446614 a86.0,86.0 0 0,1 29.32050498858742,28.57503671076993" fill="none" id="id26" stroke="none" /><text fill="#e1ed5e" style="font-size:6.75px; font-family:Arial;" text-anchor="middle"><textPath startOffset="20.669276256404974" xlink:href="#id26">February</textPath></text><path d="M 110.65571695917076 81.90426304109057 l 26.707631336485186 -45.35539685526457 a73.63468053958482,73.63468053958482 0 0,0 1.0837175112449249,0.6507412277693816 l -27.482281604287543 44.89024162695927" fill="#ff2103" stroke="none" /><path d="M 111.8722381534696 82.67804972795209 l 29.734288128535376 -43.38321499949965 a73.59497346898819,73.59497346898819 0 0,0 1.0359540677318928,0.7231763955242796 l -30.47463728744103 42.86639378817024" fill="#ff1d03" stroke="none" /><path d="M 115.16444852881244 85.47280134310134 l 37.949617171838156 -36.354874795550465 a73.55330974248172,73.55330974248172 0 0,0 0.8656319720116319,0.9192711567267674 l -38.56810497758605 35.6980621788792" fill="#ff1a02" stroke="none" /><path d="M 116.35404254752997 86.82634096563983 l 41.75190974620908 -33.63238302892949 a74.61305023648825,74.61305023648825 0 0,0 0.7949259071490554,1.0043629155022584 l -42.32310208399969 32.91070016951255" fill="#ff6f0a" stroke="none" /><path d="M 117.01052211995028 87.68569379921539 l 43.03624598781811 -31.154923234527338 a74.12953708130047,74.12953708130047 0 0,0 0.7373590975831942,1.0371879127603982 l -43.564720183931264 30.411558095057437" fill="#ff4906" stroke="none" /><path d="M 117.42321728460499 88.27688183743584 l 45.04575466839569 -30.30879406905422 a75.29312121775307,75.29312121775307 0 0,0 0.7123287192070002,1.0785564707122133 l -45.55940782652341 29.531057720002945" fill="#ffa40f" stroke="none" /><line stroke="#e1ed5e" stroke-width="0.3" x1="172.87174338648825" x2="177.1583165268699" y1="56.24261187166439" y2="53.66864786411523" /><path d="M 173.72905801456457 55.72781907015455 a86.0,86.0 0 0,1 12.242430191666344,42.057860355516425" fill="none" id="id27" stroke="none" /><text fill="#e1ed5e" style="font-size:6.75px; font-family:Arial;" text-anchor="middle"><textPath startOffset="22.145653131862474" xlink:href="#id27">March</textPath></text><path d="M 118.18653347947321 89.5 l 50.01578222068541 -28.87662532884243 a78.75325065768484,78.75325065768484 0 0,0 0.6659023672815813,1.1765856774540857 l -50.504117952988366 28.013782881289224" fill="#6fff27" stroke="none" /><path d="M 118.53625476483649 90.13048839642627 l 51.1059601035289 -27.21104520047869 a78.89870584914642,78.89870584914642 0 0,0 0.6262751253986691,1.2009651304225122 l -51.565543297902515 26.329733826951678" fill="#67ff28" stroke="none" /><path d="M 118.8641267826498 90.77261029715802 l 56.365357862719534 -27.57112103475816 a83.74727310493837,83.74727310493837 0 0,0 0.6206101325916389,1.2968364857078742 l -56.830347253271086 26.599472046985184" fill="#4bdfff" stroke="none" /><path d="M 119.16976305983485 91.42560881287824 l 57.50928917950454 -25.72317356136528 a84.0,84.0 0 0,0 0.5774644719321187,1.3213517208966026 l -57.94238753345363 24.732159770692828" fill="#4dd2ff" stroke="none" /><path d="M 119.4528033332814 92.08871423366111 l 58.16750812104339 -23.65621916683341 a83.79391456407942,83.79391456407942 0 0,0 0.530460668186861,1.3371074063864965 l -58.565027464196376 22.65421074323335" fill="#4cddff" stroke="none" /><line stroke="#e1ed5e" stroke-width="0.3" x1="184.99686870605535" x2="189.99668451229388" y1="99.2704041080226" y2="99.22748670261217" /><path d="M 185.99683186730306 99.26182062694052 a86.0,86.0 0 0,1 -10.086455211305974,41.156179273409016" fill="none" id="id28" stroke="none" /><text fill="#e1ed5e" style="font-size:6.75px; font-family:Arial;" text-anchor="middle"><textPath startOffset="21.40746469413373" xlink:href="#id28">April</textPath></text><line stroke="#e1ed5e" stroke-width="0.3" x1="174.33088141563837" x2="178.70328620479359" y1="141.23008692659167" y2="143.65538615756765" /><path d="M 175.20536237346943 141.71514677278685 a86.0,86.0 0 0,1 -30.301960400862466,31.631185727798858" fill="none" id="id29" stroke="none" /><text fill="#e1ed5e" style="font-size:6.75px; font-family:Arial;" text-anchor="middle"><textPath startOffset="22.145653131862474" xlink:href="#id29">May</textPath></text><line stroke="#e1ed5e" stroke-width="0.3" x1="143.1302829299769" x2="145.66735839644613" y1="173.24464959558577" y2="177.55315839532614" /><path d="M 143.63769802327073 174.10635135553383 a86.0,86.0 0 0,1 -40.68552437913181,11.842963189579606" fill="none" id="id30" stroke="none" /><text fill="#e1ed5e" style="font-size:6.75px; font-family:Arial;" text-anchor="middle"><textPath startOffset="21.407464694133747" xlink:href="#id30">June</textPath></text><line stroke="#e1ed5e" stroke-width="0.3" x1="101.45913802915013" x2="101.54496967792366" y1="184.9874750549273" y2="189.98673829345242" /><path d="M 101.47630435890484 185.9873277026323 a86.0,86.0 0 0,1 -42.54439059252881,-10.42667462771756" fill="none" id="id31" stroke="none" /><text fill="#e1ed5e" style="font-size:6.75px; font-family:Arial;" text-anchor="middle"><textPath startOffset="22.145653131862474" xlink:href="#id31">July</textPath></text><line stroke="#e1ed5e" stroke-width="0.3" x1="58.13341422392154" x2="55.67067388415222" y1="173.97424548756322" y2="178.32567169271397" /><path d="M 57.64086615596768 174.84453072859336 a86.0,86.0 0 0,1 -31.369924170532247,-30.572349798747897" fill="none" id="id32" stroke="none" /><text fill="#e1ed5e" style="font-size:6.75px; font-family:Arial;" text-anchor="middle"><textPath startOffset="22.145653131862474" xlink:href="#id32">August</textPath></text><line stroke="#e1ed5e" stroke-width="0.3" x1="26.387840678322732" x2="22.057713659400548" y1="142.50000000000003" y2="145.00000000000006" /><path d="M 25.521815274538298 143.00000000000003 a86.0,86.0 0 0,1 -11.493303480769221,-40.785679425670985" fill="none" id="id33" stroke="none" /><text fill="#e1ed5e" style="font-size:6.75px; font-family:Arial;" text-anchor="middle"><textPath startOffset="21.40746469413373" xlink:href="#id33">September</textPath></text><line stroke="#e1ed5e" stroke-width="0.3" x1="15.003131293944662" x2="10.003315487706104" y1="100.72959589197737" y2="100.7725132973878" /><path d="M 14.003168132696942 100.73817937305945 a86.0,86.0 0 0,1 10.791469493833604,-42.45332614584628" fill="none" id="id34" stroke="none" /><text fill="#e1ed5e" style="font-size:6.75px; font-family:Arial;" text-anchor="middle"><textPath startOffset="22.145653131862435" xlink:href="#id34">October</textPath></text><line stroke="#e1ed5e" stroke-width="0.3" x1="26.387840678322718" x2="22.05771365940052" y1="57.49999999999999" y2="54.99999999999999" /><path d="M 25.521815274538284 56.99999999999999 a86.0,86.0 0 0,1 29.574782752854787,-30.34633250058573" fill="none" id="id35" stroke="none" /><text fill="#e1ed5e" style="font-size:6.75px; font-family:Arial;" text-anchor="middle"><textPath startOffset="21.40746469413373" xlink:href="#id35">November</textPath></text><line stroke="#e1ed5e" stroke-width="0.3" x1="56.869717070023135" x2="54.33264160355391" y1="26.7553504044142" y2="22.446841604673864" /><path d="M 56.362301976729285 25.89364864446614 a86.0,86.0 0 0,1 42.16139366436587,-11.88097634709845" fill="none" id="id36" stroke="none" /><text fill="#e1ed5e" style="font-size:6.75px; font-family:Arial;" text-anchor="middle"><textPath startOffset="22.145653131862474" xlink:href="#id36">December</textPath></text></svg>