<?xml version="1.0" encoding="utf-8" ?>
<svg baseProfile="full" height="200mm" version="1.1" viewBox="0,0,200,200" width="200mm" xmlns="http://www.w3.org/2000/svg" xmlns:ev="http://www.w3.org/2001/xml-events" xmlns:xlink="http://www.w3.org/1999/xlink"><defs /><rect fill="#1a1a1a" height="200" width="200" x="0" y="0" /><text alignment-baseline="middle" fill="#e1ed5e" style="dominant-baseline: central; font-size:9.0px; font-family:Arial;" text-anchor="middle" x="100.0" y="100.0">2022</text><line stroke="#e1ed5e" stroke-width="0.3" x1="100.0" x2="100.0" y1="15.0" y2="10.0" /><path d="M 100.0 14.0 a86.0,86.0 0 0,1 42.46469731375804,11.215312516191453" fill="none" id="id1" stroke="none" /><text fill="#e1ed5e" style="font-size:6.75px; font-family:Arial;" text-anchor="middle"><textPath startOffset="22.20632615414155" xlink:href="#id1">January</textPath></text><line stroke="#e1ed5e" stroke-width="0.3" x1="143.23703022742887" x2="145.7803849466894" y1="26.81831364943548" y2="22.513508569990506" /><path d="M 143.74570117128098 25.957352633546492 a86.0,86.0 0 0,1 28.547481713284135,27.462654790039103" fill="none" id="id2" stroke="none" /><text fill="#e1ed5e" style="font-size:6.75px; font-family:Arial;" text-anchor="middle"><textPath startOffset="19.985693538727396" xlink:href="#id2">February</textPath></text><path d="M 117.65298651832404 88.62581576622439 l 22.726826435430937 -14.643364206804765 a48.035842045686934,48.035842045686934 0 0,0 0.44186662258642545,0.6989268824327848 l -22.975520654263317 14.249989676657774" fill="#ff0000" stroke="none" /><line stroke="#e1ed5e" stroke-width="0.3" x1="172.23445277983987" x2="176.4835382374775" y1="55.19839476539836" y2="52.563006222186495" /><path d="M 173.08426987136738 54.67131705675599 a86.0,86.0 0 0,1 12.851231095245387,41.99856678651699" fill="none" id="id3" stroke="none" /><text fill="#e1ed5e" style="font-size:6.75px; font-family:Arial;" text-anchor="middle"><textPath startOffset="22.20632615414155" xlink:href="#id3">March</textPath></text><path d="M 118.3937258080291 89.86733742301442 l 34.27550357267602 -18.881553198242646 a60.13212486357716,60.13212486357716 0 0,0 0.49162851504096067,0.9109129729395703 l -34.59544018693545 18.288759241970617" fill="#e9ff1a" stroke="none" /><path d="M 118.73160827565052 90.50648371742162 l 26.417787642406893 -13.389010353099446 a50.616973210554626,50.616973210554626 0 0,0 0.3871957105181516,0.7805629254020782 l -26.644343365878452 12.932287839198418" fill="#ff4006" stroke="none" /><path d="M 118.89224826269711 90.83032412892265 l 27.937650726809505 -13.560016690551292 a52.05457101267427,52.05457101267427 0 0,0 0.38431593850464674,0.8094673792746124 l -28.16692485915591 13.077106895636138" fill="#ff6209" stroke="none" /><path d="M 119.04729006885535 91.15688171328212 l 34.31942927656315 -15.933540757146398 a58.83782428904528,58.83782428904528 0 0,0 0.41858260112862244,0.9222912763605529 l -34.588614194655115 15.340427471943782" fill="#fffa17" stroke="none" /><path d="M 119.47837535516314 92.15188598940014 l 26.378307225970115 -10.628194535801908 a49.43894532500312,49.43894532500312 0 0,0 0.31124511709577923,0.7920848738809623 l -26.557345892947595 10.172560657025162" fill="#ff2303" stroke="none" /><path d="M 119.7369772167798 92.82701384747503 l 33.04764955836138 -12.010467968422782 a56.16245842020681,56.16245842020681 0 0,0 0.322391016033481,0.9114428159677642 l -33.249493655204674 11.439827526028402" fill="#ffc011" stroke="none" /><path d="M 119.85752413597 93.16781622104841 l 32.19036067009578 -11.075422016506405 a55.0423896475345,55.0423896475345 0 0,0 0.30053854067881014,0.8985719833621523 l -32.37623650454636 10.519676930221937" fill="#ffa70f" stroke="none" /><path d="M 120.18372546131832 94.20196356495316 l 33.10013735097306 -9.508442964793558 a55.43878017973363,55.43878017973363 0 0,0 0.2555813021457864,0.919461928040127 l -33.258905423685206 8.937269733334478" fill="#ffb010" stroke="none" /><path d="M 120.28053869075195 94.5502522615342 l 32.983680714626395 -8.863311873603312 a55.153791749279826,55.153791749279826 0 0,0 0.23848412390933538,0.9189766132193968 l -33.13136117040603 8.294238834835065" fill="#ffaa0f" stroke="none" /><path d="M 120.37134235888165 94.90015583598534 l 34.759161765441746 -8.70174901352258 a56.83182611213791,56.83182611213791 0 0,0 0.22940355978999866,0.9510258575033266 l -34.903798125492564 8.102137924359848" fill="#ffcf13" stroke="none" /><path d="M 120.6074358757038 95.95851677861258 l 33.51184557449177 -6.572266555817175 a55.15023398879277,55.15023398879277 0 0,0 0.1746798995222107,0.9331470080613015 l -33.620011197923844 5.99444147029331" fill="#ffaa0f" stroke="none" /><path d="M 120.73433829027371 96.67025291283417 l 35.72340873496852 -5.736856152033273 a57.181120078775166,57.181120078775166 0 0,0 0.14770184622920327,0.9731706224080545 l -35.816866474637024 5.121086417233135" fill="#ffd614" stroke="none" /><path d="M 120.78858239683441 97.02765380044208 l 32.397053599474944 -4.632122446114301 a53.72652808171145,53.72652808171145 0 0,0 0.12301840128096207,0.9166299788678554 l -32.47198799981374 4.073774125181782" fill="#ff890c" stroke="none" /><path d="M 120.87857604477298 97.74499172005257 l 38.705075929300214 -4.180374490549454 a59.93017381895606,59.93017381895606 0 0,0 0.1019465746274646,1.0265880938959493 l -38.771299629609906 3.51351086594907" fill="#eeff19" stroke="none" /><path d="M 120.91429891909075 98.10471618934814 l 36.69020542618675 -3.3249191198213053 a57.840551860268555,57.840551860268555 0 0,0 0.08132248332570059,0.9923402788703354 l -36.742002393331944 2.6928649237432007" fill="#ffe515" stroke="none" /><path d="M 120.94382443527127 98.46500227214037 l 34.732931780954985 -2.5456177562242353 a55.8260925149704,55.8260925149704 0 0,0 0.06199197542771108,0.958988421568907 l -34.77160434738711 1.947370270402293" fill="#ffb911" stroke="none" /><line stroke="#e1ed5e" stroke-width="0.3" x1="184.98032266829074" x2="189.97916517819016" y1="98.17113171792111" y2="98.06355123074" /><path d="M 185.9800911702706 98.14961562048488 a86.0,86.0 0 0,1 -9.607161424134198,41.387399972396054" fill="none" id="id4" stroke="none" /><text fill="#e1ed5e" style="font-size:6.75px; font-family:Arial;" text-anchor="middle"><textPath startOffset="21.466115282336823" xlink:href="#id4">April</textPath></text><path d="M 120.99513854157772 99.54816195383933 l 35.93573322333002 -0.7733757724353773 a56.94405420071218,56.94405420071218 0 0,0 0.012655118840149696,0.9801529005998693 l -35.943721349287884 0.15468661377504525" fill="#ffd113" stroke="none" /><path d="M 120.99980553446 99.90962569577887 l 39.85820406758598 -0.17153289606424577 a60.858573168488604,60.858573168488604 0 0,0 -0.004508468915961758,1.0476093985931514 l -39.85525130138051 -0.5145859807325903" fill="#dbff1b" stroke="none" /><path d="M 120.99824983174949 100.27111621757518 l 32.43018293459926 0.41871815998711387 a53.43288593494381,53.43288593494381 0 0,0 -0.019790363683863797,0.9195804356482774 l -32.41817050823039 -0.9768884114255061" fill="#ff820c" stroke="none" /><path d="M 120.9764740272857 100.99374915477107 l 39.93535288936238 1.8919158256848019 a60.980142019374824,60.980142019374824 0 0,0 -0.05869672350515586,1.0480694284130994 l -39.89686981496969 -2.579056970433325" fill="#d8ff1c" stroke="none" /><path d="M 120.95626037817324 101.35467743843564 l 35.677432485492325 2.306299500828226 a56.751897937653375,56.751897937653375 0 0,0 -0.07140859265919426,0.9743135124436952 l -35.632447334168795 -2.920086149768691" fill="#ffcd13" stroke="none" /><path d="M 120.89721153311464 102.0752229133903 l 35.19506758488979 3.495088833969301 a56.36818384172839,56.36818384172839 0 0,0 -0.10419443644292817,0.9647110762567366 l -35.12969084694581 -4.100396232110829" fill="#ffc512" stroke="none" /><path d="M 120.8583938346157 102.4346265915055 l 34.209012285225654 3.9929330915466195 a55.441254858153584,55.441254858153584 0 0,0 -0.11879870447989337,0.9469425617927327 l -34.13521207149891 -4.581193407626747" fill="#ffb010" stroke="none" /><path d="M 120.81339534386255 102.79330883721812 l 34.3188666169998 4.6058411816428295 a55.626555977543305,55.626555977543305 0 0,0 -0.13553264406043572,0.9479149968904333 l -34.23449992192276 -5.1959016505136715" fill="#ffb410" stroke="none" /><path d="M 120.70491114924044 103.5080841355445 l 40.310898035188075 6.829974824208942 a61.88541373769694,61.88541373769694 0 0,0 -0.1869928413794341,1.0487551596363447 l -40.18735875146945 -7.522848734578505" fill="#c6ff1e" stroke="none" /><path d="M 120.5718875245553 104.21870165774334 l 39.28135354475247 8.055474302970246 a61.098820463370885,61.098820463370885 0 0,0 -0.22014766586493456,1.028456603989247 l -39.136871840163096 -8.730444726375662" fill="#d6ff1c" stroke="none" /><path d="M 120.41448212921028 104.9243191809786 l 34.21678105489796 8.25366767540418 a56.19816949579673,56.19816949579673 0 0,0 -0.2349315923361618,0.938434929476303 l -34.06963814826673 -8.841430444277881" fill="#ffc111" stroke="none" /><path d="M 120.32669344350535 105.2749913415812 l 34.22162436152838 8.88087246967287 a56.355190138990146,56.355190138990146 0 0,0 -0.25175184738397965,0.9368622781017807 l -34.06368443780262 -9.468625680950199" fill="#ffc412" stroke="none" /><path d="M 120.23288151984713 105.62410040840565 l 38.50700377197012 10.703727762552116 a60.966975461114764,60.966975461114764 0 0,0 -0.2897596694192261,1.0086914221457102 l -38.31705146566479 -11.364976660202409" fill="#d8ff1c" stroke="none" /><path d="M 120.13307415673323 105.97154293290107 l 37.64852993193627 11.16669074474058 a60.26966753391956,60.26966753391956 0 0,0 -0.30356748833547725,0.9920761161776651 l -37.450735671094655 -11.813093833470301" fill="#e7ff1a" stroke="none" /><path d="M 119.9155931802556 106.66101706037122 l 39.60361827223598 13.245921152141532 a62.760040797654085,62.760040797654085 0 0,0 -0.35148363086576345,1.0215759571365393 l -39.36974381042698 -13.925669812367373" fill="#b5ff20" stroke="none" /><path d="M 119.67450827220406 107.3425965602758 l 45.42096136600971 16.951264553923256 a69.48101794918958,69.48101794918958 0 0,0 -0.4278234800236403,1.1169121053376023 l -45.122443606392565 -17.730600226094005" fill="#3bff2e" stroke="none" /><path d="M 119.41010516605496 108.01547362559984 l 33.096659842555674 13.667386229694118 a56.807629621150156,56.807629621150156 0 0,0 -0.38101423299664733,0.9006050970191579 l -32.85649462836672 -14.235065852379439" fill="#ffce13" stroke="none" /><path d="M 119.26925614724726 108.34839909993367 l 32.67616578312147 14.156938437505016 a56.611103833065116,56.611103833065116 0 0,0 -0.39508866523520486,0.8908206397438834 l -32.42763603315499 -14.717307413741587" fill="#ffca12" stroke="none" /><path d="M 118.81262510543309 109.33194174019688 l 32.867232332856396 16.30368412556904 a57.68875954959901,57.68875954959901 0 0,0 -0.44893208685597835,0.8857855975649608 l -32.58172157621415 -16.867023934836695" fill="#ffe115" stroke="none" /><path d="M 118.64920377521936 109.65438752849418 l 33.025063271385825 17.096534673435322 a58.187985989012816,58.187985989012816 0 0,0 -0.46812925163279906,0.8855241249746137 l -32.72588151152814 -17.66247381349607" fill="#ffec16" stroke="none" /><line stroke="#e1ed5e" stroke-width="0.3" x1="174.80103733775053" x2="179.2010983576182" y1="140.37084112569926" y2="142.7455964860345" /><path d="M 175.68104954172406 140.8457921977663 a86.0,86.0 0 0,1 -30.038265399797805,32.042727171017184" fill="none" id="id5" stroke="none" /><text fill="#e1ed5e" style="font-size:6.75px; font-family:Arial;" text-anchor="middle"><textPath startOffset="22.206326154141568" xlink:href="#id5">May</textPath></text><path d="M 118.30583269289576 110.29060199501023 l 30.46941201814577 17.12834359195273 a55.95375835207874,55.95375835207874 0 0,0 -0.4791986546377848,0.8355232461357797 l -30.170061367355604 -17.650286683946828" fill="#ffbb11" stroke="none" /><path d="M 117.94076556474637 110.91462005526583 l 28.772291344736306 17.504193286171493 a54.67850251757104,54.67850251757104 0 0,0 -0.4961041990286535,0.7998779318500514 l -28.46672250603969 -17.996867549386817" fill="#ff9f0e" stroke="none" /><path d="M 117.75023020441432 111.22182372390056 l 29.761624551048214 18.815513973768976 a56.21047943460372,56.21047943460372 0 0,0 -0.5240827857399876,0.8133881218207295 l -29.433336901931177 -19.32502369551116" fill="#ffc112" stroke="none" /><path d="M 117.35343817320211 111.8261652097733 l 29.111243439378487 19.83897202040697 a56.22852970836631,56.22852970836631 0 0,0 -0.5519475288423512,0.7951215814893459 l -28.765435003373995 -20.337134864083335" fill="#ffc112" stroke="none" /><path d="M 116.71984013943494 112.70617746262582 l 28.043591426621653 21.31161819637286 a56.222550876551495,56.222550876551495 0 0,0 -0.5921926177382619,0.7654887867949256 l -27.672591991665325 -21.791184977281034" fill="#ffc112" stroke="none" /><path d="M 116.0416608686014 113.55231037782055 l 33.5094714835753 28.309460090321245 a64.86696034276865,64.86696034276865 0 0,0 -0.727923099340406,0.8467390160825579 l -33.01720587466411 -28.882076205565333" fill="#8dff24" stroke="none" /><path d="M 115.80600337817218 113.82643327865902 l 25.778454351441155 22.549917938735483 a55.24948916105231,55.24948916105231 0 0,0 -0.6323202753004336,0.7104185324812513 l -25.386475226492387 -22.9903106409576" fill="#ffac0f" stroke="none" /><path d="M 115.32070863581623 114.36230785411682 l 26.0014393870386 24.374895835678903 a56.64001118403358,56.64001118403358 0 0,0 -0.672919605725652,0.705553516306209 l -25.57801322993399 -24.818856468567617" fill="#ffcb12" stroke="none" /><path d="M 114.81725581225074 114.88116024355365 l 25.432019151322265 25.541703342601892 a57.043948281989074,57.043948281989074 0 0,0 -0.7017765121583147,0.686836021523384 l -24.988592686788156 -25.975689467047847" fill="#ffd313" stroke="none" /><path d="M 114.29624159901734 115.38237550388516 l 24.47225134594824 26.3314911839983 a56.947719175383654,56.947719175383654 0 0,0 -0.7237796145116385,0.6611555172073565 l -24.015372181969738 -26.748839467792237" fill="#ffd113" stroke="none" /><path d="M 114.0293411484842 115.62618273729858 l 24.205826971229612 26.960972119544746 a57.23280387979898,57.23280387979898 0 0,0 -0.7387328169627156,0.6518458199777657 l -23.73815180136031 -27.3736410812948" fill="#ffd714" stroke="none" /><path d="M 113.48314897796784 116.09983520530334 l 21.845441802249756 26.085005333544476 a55.02426826232307,55.02426826232307 0 0,0 -0.7313769965230795,0.6018734762460787 l -21.393194677181985 -26.457173928647734" fill="#ffa70f" stroke="none" /><path d="M 113.20401910651253 116.32954008644616 l 23.143060262206113 28.621249880525937 a57.807297958741955,57.807297958741955 0 0,0 -0.7791391692132131,0.6189952778057988 l -22.646963600275548 -29.015379072336863" fill="#ffe415" stroke="none" /><path d="M 112.63410532772338 116.77436683061366 l 21.046947274906184 27.944140490831202 a55.983552955124395,55.983552955124395 0 0,0 -0.7747458046727309,0.5731384247405737 l -20.56281649981489 -28.302288864311546" fill="#ffbc11" stroke="none" /><path d="M 112.34349029814194 116.9893568818739 l 20.64966106801789 28.421820157877274 a56.13130175941012,56.13130175941012 0 0,0 -0.7865670552410582,0.5611947092638965 l -20.157366684927943 -28.77305912898539" fill="#ffbf11" stroke="none" /><path d="M 111.7513745106137 117.40417183066458 l 19.302846607994375 28.588150167716027 a55.49466940244017,55.49466940244017 0 0,0 -0.7962832369531608,0.5277331094547791 l -18.80788867230125 -28.916181298262124" fill="#ffb110" stroke="none" /><path d="M 111.1453310114006 117.79835938074945 l 17.8031107351454 28.430394990985267 a54.54456902676333,54.54456902676333 0 0,0 -0.8000410376652882,0.4914505491304404 l -17.311090497547802 -28.732634006944085" fill="#ff9c0e" stroke="none" /><line stroke="#e1ed5e" stroke-width="0.3" x1="143.8653032363475" x2="146.44561519142675" y1="172.8068346515853" y2="177.08958963109032" /><path d="M 144.38136562736335 173.6633856474863 a86.0,86.0 0 0,1 -40.68145358897372,12.25698825130547" fill="none" id="id6" stroke="none" /><text fill="#e1ed5e" style="font-size:6.75px; font-family:Arial;" text-anchor="middle"><textPath startOffset="21.466115282336833" xlink:href="#id6">June</textPath></text><path d="M 110.8373102113329 117.98757091392108 l 17.461469075454925 28.982229642880608 a54.83596514576961,54.83596514576961 0 0,0 -0.8127006750729197,0.48015788384068125 l -16.960000529353625 -29.27850609901504" fill="#ffa20f" stroke="none" /><path d="M 109.2508944713604 118.85261126421891 l 15.173815902194555 30.923069491768775 a55.44533227922839,55.44533227922839 0 0,0 -0.860425305158015,0.41305643443553247 l -14.639277929036307 -31.179680202703867" fill="#ffb010" stroke="none" /><path d="M 108.92500713936063 119.00905698771935 l 14.11597771224113 30.065121582478714 a54.21403863642173,54.21403863642173 0 0,0 -0.8481450843221996,0.38934180932288437 l -13.596364632151511 -30.303650462135668" fill="#ff940d" stroke="none" /><path d="M 108.59647513512805 119.15986991738528 l 13.952662137591261 31.097768254464143 a55.08442417196058,55.08442417196058 0 0,0 -0.8684435234151853,0.38070011946262455 l -13.415297939518323 -31.333332927221225" fill="#ffa80f" stroke="none" /><path d="M 107.59598834532513 119.57807347666477 l 9.934087590124314 25.604343756369047 a48.463949378095215,48.463949378095215 0 0,0 -0.7803383097285977,0.2950571778444348 l -9.49187905963544 -25.771549184320115" fill="#ff0b01" stroke="none" /><path d="M 107.2578585660854 119.70592522655815 l 11.846684631227882 32.165118595236784 a55.27738016531337,55.27738016531337 0 0,0 -0.8957052957090483,0.3211680513732771 l -11.291259774889099 -32.364274187650025" fill="#ffac10" stroke="none" /><path d="M 106.2309692047433 120.05430185196036 l 10.088249684733855 32.468914174954776 a55.00004660882264,55.00004660882264 0 0,0 -0.9065186922984003,0.27312664570328377 l -9.527856017995209 -32.63775618976379" fill="#ffa60f" stroke="none" /><path d="M 105.53697534728816 120.25689768951611 l 8.911923432931292 32.604068083147155 a54.80011294130428,54.80011294130428 0 0,0 -0.9120553908569107,0.2408821182677621 l -8.349377599262883 -32.7526415507185" fill="#ffa20e" stroke="none" /><path d="M 104.48393922423573 120.51570834832081 l 7.502096279546153 34.324911997090034 a56.135182256472724,56.135182256472724 0 0,0 -0.9457669903122916,0.19819466834014463 l -6.910137827804483 -34.44896264615672" fill="#ffbf11" stroke="none" /><path d="M 104.13013068566511 120.58985236759428 l 6.682945605570468 33.316346109082005 a54.980004120469985,54.980004120469985 0 0,0 -0.929508667321334,0.17814254834140686 l -6.10846932367743 -33.426445855771874" fill="#ffa60f" stroke="none" /><path d="M 103.7750983002368 120.6578951692458 l 6.547833581818463 35.830711934147 a57.424086019048076,57.424086019048076 0 0,0 -0.9738879665695929,0.16932290635387964 l -5.930096643776821 -35.93811341902188" fill="#ffdc14" stroke="none" /><path d="M 103.41894727170886 120.7198165907248 l 4.72496092682826 28.634639853129414 a50.02185134133384,50.02185134133384 0 0,0 -0.8507624445252686,0.13287159702147855 l -4.231362618694474 -28.711729757498" fill="#ff3104" stroke="none" /><path d="M 101.62511606390274 120.93702456842531 l 2.6201360782604737 33.756268036275145 a54.857801830677865,54.857801830677865 0 0,0 -0.9420841048548677,0.06497163560602481 l -2.038689212626676 -33.79636801639746" fill="#ffa30f" stroke="none" /><path d="M 101.26447882468166 120.96189622390904 l 2.0457159316693434 33.91285344303482 a54.97449900030675,54.97449900030675 0 0,0 -0.945069051052475,0.048849274976041086 l -1.4616588122033887 -33.94304252477306" fill="#ffa60f" stroke="none" /><line stroke="#e1ed5e" stroke-width="0.3" x1="102.19456741930631" x2="102.32365962044197" y1="184.97166512339345" y2="189.96999836594603" /><path d="M 102.22038585953345 185.97133177190398 a86.0,86.0 0 0,1 -42.740103519485714,-10.115201625700543" fill="none" id="id7" stroke="none" /><text fill="#e1ed5e" style="font-size:6.75px; font-family:Arial;" text-anchor="middle"><textPath startOffset="22.20632615414155" xlink:href="#id7">July</textPath></text><path d="M 100.54218724476979 120.99299961872073 l 0.8561342935715984 33.148745330874256 a54.1597991993285,54.1597991993285 0 0,0 -0.932168315140768,0.016048122908284383 l -0.28540628853816247 -33.1585709310617" fill="#ff930d" stroke="none" /><path d="M 99.45781275523022 120.99299961872073 l -0.8705895817134094 33.70844101050772 a54.719681516566354,54.719681516566354 0 0,0 -0.9413860616562202,-0.03242323938907549 l 1.4506959950442726 -33.68846097269255" fill="#ffa00e" stroke="none" /><path d="M 98.37488393609728 120.93702456842531 l -2.5837839337317163 33.28792872192165 a54.388053821867885,54.388053821867885 0 0,0 -0.9327698395678371,-0.08048330664870679 l 3.1563980910410954 -33.23852116299428" fill="#ff980e" stroke="none" /><path d="M 98.01472825383883 120.90594882070398 l -3.186181891701744 33.552160146423915 a54.7031037968061,54.7031037968061 0 0,0 -0.936640618563441,-0.09708662980652552 l 3.7632551068707785 -33.49234414816163" fill="#ff9f0e" stroke="none" /><path d="M 96.22490169976321 120.6578951692458 l -6.829689063447656 37.373066736406955 a58.991982969928074,58.991982969928074 0 0,0 -0.9973364016647384,-0.1911418950596839 l 7.47199307968409 -37.249967642998804" fill="#fffd17" stroke="none" /><path d="M 95.51606077576429 120.51570834832081 l -7.182270241857741 32.86158758895593 a54.63731476639742,54.63731476639742 0 0,0 -0.9170739307826159,-0.20872304090973762 l 7.746864322033218 -32.733087814468504" fill="#ff9e0e" stroke="none" /><path d="M 93.08242187328487 119.8279376855182 l -10.989427284080037 31.49912807587517 a54.36109383057561,54.36109383057561 0 0,0 -0.880857947300806,-0.3158443204774338 l 11.530004792010569 -31.305296214357778" fill="#ff980e" stroke="none" /><path d="M 92.7421414339146 119.70592522655815 l -11.585969250217568 31.457246189509576 a54.52302225776193,54.52302225776193 0 0,0 -0.8778979752142486,-0.33194589548237374 l 12.1257374461921 -31.25315204392057" fill="#ff9b0e" stroke="none" /><path d="M 91.7346041902142 119.30500536409082 l -13.20606247084901 30.844633784678443 a54.55281686080758,54.55281686080758 0 0,0 -0.8600623715140856,-0.3770260687685356 l 13.73504551702084 -30.612743162615455" fill="#ff9c0e" stroke="none" /><path d="M 91.40352486487194 119.15986991738527 l -13.669976839764217 30.467717745530404 a54.39386308022775,54.39386308022775 0 0,0 -0.8509583264618948,-0.3906332308083989 l 14.19240316199353 -30.227897444387928" fill="#ff980e" stroke="none" /><path d="M 91.07499286063937 119.00905698771935 l -14.845237936937203 31.618347137782596 a55.929943674870195,55.929943674870195 0 0,0 -0.8679457201476278,-0.41666669064541867 l 15.387296325085073 -31.358126170637615" fill="#ffbb11" stroke="none" /><path d="M 90.42595943632237 118.69057910512821 l -15.658607446368903 30.56895771497403 a55.346079295013425,55.346079295013425 0 0,0 -0.8441834622706076,-0.44163688888557995 l 16.182481811166006 -30.294891407143734" fill="#ffae10" stroke="none" /><line stroke="#e1ed5e" stroke-width="0.3" x1="58.666819895761336" x2="56.23545636021788" y1="174.27360380694188" y2="178.64263932499728" /><path d="M 58.180547188652646 175.14741091055294 a86.0,86.0 0 0,1 -31.652253787137756,-30.449443065178592" fill="none" id="id8" stroke="none" /><text fill="#e1ed5e" style="font-size:6.75px; font-family:Arial;" text-anchor="middle"><textPath startOffset="22.20632615414155" xlink:href="#id8">August</textPath></text><path d="M 89.4739219176387 118.17145234162733 l -16.7291763612906 28.880028115436193 a54.37546053128779,54.37546053128779 0 0,0 -0.8058757307126134,-0.4761255864132416 l 17.2238199630316 -28.5877839567292" fill="#ff980e" stroke="none" /><path d="M 89.1626897886671 117.98757091392108 l -17.255681118291843 28.640666524309836 a54.437199491178916,54.437199491178916 0 0,0 -0.7984661781294022,-0.49048314177597124 l 17.746126496353554 -28.339394915705483" fill="#ff990e" stroke="none" /><path d="M 88.8546689885994 117.79835938074946 l -17.95380235013067 28.67103957268769 a54.82850172570729,54.82850172570729 0 0,0 -0.7955829639202225,-0.5077786892790105 l 18.444667116097815 -28.357746454584877" fill="#ffa20f" stroke="none" /><path d="M 87.07902340077011 116.55440617244103 l -20.7491811161786 26.58393266986001 a54.72290013014351,54.72290013014351 0 0,0 -0.7375669932673061,-0.585967826978738 l 21.203705602163264 -26.22283092887614" fill="#ffa00e" stroke="none" /><path d="M 86.24171649860922 115.8653595955263 l -22.21017208917368 25.611651834158074 a54.90056716199365,54.90056716199365 0 0,0 -0.7086294551916121,-0.6252831032726234 l 22.64774389727188 -25.225545589113164" fill="#ffa40f" stroke="none" /><path d="M 85.70375840098266 115.38237550388516 l -23.34310035716718 25.116554769436924 a55.28908948588316,55.28908948588316 0 0,0 -0.6915458360524265,-0.6538997521022971 l 23.771982027610424 -24.7110203805887" fill="#ffad10" stroke="none" /><path d="M 85.44109423537348 115.13401014063109 l -23.038535642461095 23.948601472882835 a54.23115461514866,54.23115461514866 0 0,0 -0.6671724465494916,-0.652968660134788 l 23.447358041386384 -23.548482709825475" fill="#ff950d" stroke="none" /><path d="M 84.67929136418377 114.36230785411684 l -24.247369771584626 22.73055363104955 a54.23571887614251,54.23571887614251 0 0,0 -0.6326301977926169,-0.6865951337223651 l 24.635046377372973 -22.309807242525842" fill="#ff950d" stroke="none" /><path d="M 83.50135304334701 112.99209946851258 l -26.25532599691944 20.67513825990744 a54.41860986442737,54.41860986442737 0 0,0 -0.5731916913562336,-0.7409275280954956 l 26.60732450549374 -20.22013273769869" fill="#ff990e" stroke="none" /><path d="M 82.24976979558568 111.22182372390057 l -28.441730063212166 17.98106714654078 a54.64893437713942,54.64893437713942 0 0,0 -0.49583592396716625,-0.7994453870302933 l 28.747030626847287 -17.488825428145223" fill="#ff9e0e" stroke="none" /><line stroke="#e1ed5e" stroke-width="0.3" x1="26.63291911575756" x2="22.317208475507996" y1="142.92168965132927" y2="145.44649492493687" /><path d="M 25.769776987707644 143.4266507060508 a86.0,86.0 0 0,1 -11.730757126820373,-40.83630448921669" fill="none" id="id9" stroke="none" /><text fill="#e1ed5e" style="font-size:6.75px; font-family:Arial;" text-anchor="middle"><textPath startOffset="21.46611528233685" xlink:href="#id9">September</textPath></text><path d="M 81.87401531095188 110.60418214915194 l -29.60086196312928 17.317289924590018 a55.29430797220642,55.29430797220642 0 0,0 -0.4735509958541438,-0.8256760770039367 l 29.8945649551358 -16.805194001727774" fill="#ffad10" stroke="none" /><path d="M 81.69416730710424 110.29060199501025 l -29.42722181542723 16.542477613649684 a54.75818344301804,54.75818344301804 0 0,0 -0.45481518895446305,-0.8256216779542763 l 29.70761341383321 -16.033485417297587" fill="#ffa10e" stroke="none" /><path d="M 81.18737489456691 109.33194174019688 l -30.22739916323351 14.994203433496704 a54.741988631059286,54.741988631059286 0 0,0 -0.41146879199270414,-0.8477475845353953 l 30.481021211840932 -14.471666892996023" fill="#ffa00e" stroke="none" /><path d="M 80.20201598880116 107.00284435728193 l -32.68927451775956 11.562687467109978 a55.673973091636135,55.673973091636135 0 0,0 -0.3117985577807802,-0.9062325585806318 l 32.88346390648357 -10.99828220544005" fill="#ffb510" stroke="none" /><path d="M 79.97269907076064 106.31721596034903 l -34.013748240607214 10.728964128318937 a56.66575024645023,56.66575024645023 0 0,0 -0.2854152043775514,-0.9327534019190473 l 34.193390217490894 -10.141883753847843" fill="#ffcb12" stroke="none" /><path d="M 79.35854240842038 103.8639653848113 l -43.8439225726888 8.207337025672304 a65.60549212387306,65.60549212387306 0 0,0 -0.19823342273086098,-1.1117983093241075 l 43.97870243775885 -7.451419965614984" fill="#7fff26" stroke="none" /><path d="M 79.23777060512086 103.15116336523772 l -45.51453289131105 6.907915614706638 a67.03576872882806,67.03576872882806 0 0,0 -0.16333089156391828,-1.1423358751850394 l 45.62669783389157 -6.123434267541199" fill="#65ff29" stroke="none" /><path d="M 79.10278846688536 102.07522291339032 l -45.41844149509868 4.5103333682461955 a66.6418441228706,66.6418441228706 0 0,0 -0.10353414615946988,-1.1424906755085136 l 45.48935023753523 -3.7278613041891164" fill="#6cff28" stroke="none" /><path d="M 79.04373962182676 101.35467743843564 l -45.03773220719962 2.9113782038586193 a66.13173434971593,66.13173434971593 0 0,0 -0.06365541301638711,-1.1366101606954173 l 45.08117397110353 -2.1356963268277647" fill="#75ff27" stroke="none" /><line stroke="#e1ed5e" stroke-width="0.3" x1="15.007084014347285" x2="10.007500721073583" y1="101.09737516637583" y2="101.16192664675087" /><path d="M 14.007167355692545 101.11028546245083 a86.0,86.0 0 0,1 10.666146001902534,-42.60595125391555" fill="none" id="id10" stroke="none" /><text fill="#e1ed5e" style="font-size:6.75px; font-family:Arial;" text-anchor="middle"><textPath startOffset="22.20632615414155" xlink:href="#id10">October</textPath></text><path d="M 79.00175016825051 100.2711162175752 l -62.994749495248485 0.8133486527256131 a84.0,84.0 0 0,0 -0.006222810841987947,-1.4459620871852985 l 62.99941660337998 0.27112291266336075" fill="#4dd2ff" stroke="none" /><path d="M 79.08570108090925 98.10471618934814 l -56.268211728874896 -5.09910617404065 a77.4987834819444,77.4987834819444 0 0,0 0.13183234771931773,-1.3275337504330804 l 56.17210225547335 6.066915455178162" fill="#3fffbf" stroke="none" /><path d="M 79.16333360222342 97.38593545837743 l -55.520889801342356 -6.965374718698274 a76.95610466521667,76.95610466521667 0 0,0 0.1762074956775102,-1.3129505127475898 l 55.392766306607015 7.920043573510523" fill="#3effb5" stroke="none" /><path d="M 79.26566170972629 96.67025291283419 l -55.31741009519833 -8.88347544809021 a77.02617241680153,77.02617241680153 0 0,0 0.22149843649871373,-1.3072963105230184 l 55.1562997971794 9.834357546929057" fill="#3effb6" stroke="none" /><path d="M 79.54389044137918 95.25157060432595 l -53.715717592918274 -12.468905277271867 a76.14392002148313,76.14392002148313 0 0,0 0.30735747035169547,-1.2741951435664243 l 53.49312732230576 13.391685652497687" fill="#3cffa6" stroke="none" /><path d="M 79.71946130924805 94.55025226153421 l -53.77932506117715 -14.45147782302324 a76.68717101186851,76.68717101186851 0 0,0 0.3535396515137502,-1.2718702302958256 l 53.52259863909703 15.375059356738008" fill="#3dffb0" stroke="none" /><path d="M 79.91906864156998 93.8553929516997 l -53.73644438451958 -16.44292931548228 a77.1958662142022,77.1958662142022 0 0,0 0.39974414888370835,-1.2672981919007134 l 53.44544475186767 17.36547767380941" fill="#3effb9" stroke="none" /><path d="M 80.2630227832202 92.82701384747504 l -51.572810569179246 -18.743045198684772 a75.87309480359556,75.87309480359556 0 0,0 0.4566671923502611,-1.223641034855101 l 51.24253878832736 19.628009370569217" fill="#3cffa1" stroke="none" /><path d="M 80.52162464483688 92.15188598940014 l -51.22232066903343 -20.638200320517083 a76.22373988776096,76.22373988776096 0 0,0 0.5008201451875404,-1.2127757062692 l 50.85947883695969 21.516850597239596" fill="#3cffa7" stroke="none" /><path d="M 80.803312248108 91.48605970444005 l -50.55674198627976 -22.422466228153922 a76.30597754329966,76.30597754329966 0 0,0 0.5428541069912138,-1.1961070667164448 l 50.1632855623252 23.28939530371244" fill="#3dffa9" stroke="none" /><line stroke="#e1ed5e" stroke-width="0.3" x1="26.266209847984243" x2="21.928928074336255" y1="57.71137044288968" y2="55.22380399835378" /><path d="M 25.398753493254645 57.2138571539825 a86.0,86.0 0 0,1 29.58750427330803,-30.4925239686951" fill="none" id="id11" stroke="none" /><text fill="#e1ed5e" style="font-size:6.75px; font-family:Arial;" text-anchor="middle"><textPath startOffset="21.46611528233685" xlink:href="#id11">November</textPath></text><path d="M 81.78341655067845 89.55222093294921 l -52.99928333378455 -30.3967428647566 a82.09734863871675,82.09734863871675 0 0,0 0.7136227021730752,-1.2198125222114247 l 52.46820095714115 31.304534799321917" fill="#49f0ff" stroke="none" /><path d="M 82.15384107792192 88.93136811851018 l -46.8244405708702 -29.041683311161968 a76.09943379310516,76.09943379310516 0 0,0 0.7000147881016829,-1.1072552858618858 l 46.31759818652256 29.84338624473807" fill="#3cffa5" stroke="none" /><path d="M 82.54541684631803 88.32363383020207 l -48.56784377851067 -32.48980070405215 a79.43306083958674,79.43306083958674 0 0,0 0.7700298954279203,-1.1299238548420412 l 48.00138941741401 33.3210025821646" fill="#43ffe1" stroke="none" /><path d="M 82.95767976084542 87.72973835380427 l -39.41665206502337 -28.379506268384187 a69.57024640716133,69.57024640716133 0 0,0 0.7080839387547355,-0.9658256967007244 l 38.922305513755006 29.053794408756414" fill="#39ff2e" stroke="none" /><path d="M 83.39014120810768 87.1503855733568 l -43.466058499408376 -33.62593862844539 a75.9545447630855,75.9545447630855 0 0,0 0.8089011426955541,-1.0272223060261985 l 42.880803276118854 34.36915332842463" fill="#3cffa2" stroke="none" /><path d="M 84.07557802195018 86.31012108654704 l -42.38603678060138 -36.4383531124348 a76.89570369458622,76.89570369458622 0 0,0 0.8715144350104189,-0.9962916557202277 l 41.752530482013114 37.16256032435796" fill="#3effb4" stroke="none" /><path d="M 84.5562425177563 85.77008943001954 l -40.51740804828938 -37.332824846379346 a76.09446583788633,76.09446583788633 0 0,0 0.8958589796346721,-0.9556398975132799 l 39.868781746684256 38.02473416077068" fill="#3cffa5" stroke="none" /><path d="M 85.05521093208273 85.24692304244772 l -39.15929478180305 -38.65695841499942 a76.02554680970596,76.02554680970596 0 0,0 0.9273820650167048,-0.923399591708465 l 38.48807691661903 39.325293857358" fill="#3cffa4" stroke="none" /><path d="M 85.83668400450813 84.49514656593479 l -22.979956138730394 -25.15659835349795 a55.072464320286386,55.072464320286386 0 0,0 0.7054232280080923,-0.6333359391841819 l 22.54352192312633 25.54843330145141" fill="#ffa80f" stroke="none" /><path d="M 86.65592168130627 83.78471172551755 l -35.5674363891771 -43.22038738538229 a76.97360464576738,76.97360464576738 0 0,0 1.0303342221983327,-0.83312528607543 l 34.81819876841426 43.82621876872185" fill="#3effb5" stroke="none" /><path d="M 87.22198572758235 83.33499621200491 l -24.072542713320676 -31.395254923929567 a60.561968409359665,60.561968409359665 0 0,0 0.8327381578174041,-0.6272011159955357 l 23.52855840174488 31.804972629430956" fill="#e1ff1b" stroke="none" /><path d="M 88.09926311788651 82.69761687909137 l -19.85417433076562 -28.8658201776165 a56.03460878735375,56.03460878735375 0 0,0 0.7994145592122563,-0.5397682788898184 l 19.354355077146824 29.203300368804985" fill="#ffbd11" stroke="none" /><path d="M 89.00827224532344 82.1063720568725 l -19.669915231186188 -32.02100276455212 a58.57991728635795,58.57991728635795 0 0,0 0.8637411690328108,-0.5203943898763674 l 19.11581199593573 32.35484376388711" fill="#fff417" stroke="none" /><line stroke="#e1ed5e" stroke-width="0.3" x1="56.76296977257108" x2="54.21961505331056" y1="26.818313649435495" y2="22.513508569990535" /><path d="M 56.25429882871898 25.957352633546506 a86.0,86.0 0 0,1 42.26535254187918,-11.944610805530505" fill="none" id="id12" stroke="none" /><text fill="#e1ed5e" style="font-size:6.75px; font-family:Arial;" text-anchor="middle"><textPath startOffset="22.20632615414155" xlink:href="#id12">December</textPath></text><path d="M 89.94658935756843 81.56283822128135 l -27.432599971847544 -50.309223574050215 a78.30240411919189,78.30240411919189 0 0,0 1.1889099724831835,-0.6350745327407344 l 26.562544952836056 50.7739768332927" fill="#41ffcd" stroke="none" /><path d="M 91.23893434514133 80.91482961587045 l -14.817812234285524 -32.279232042342294 a56.51783186870954,56.51783186870954 0 0,0 0.8876472178947051,-0.39826143237400125 l 14.259982897924045 32.529513805232824" fill="#ffc812" stroke="none" /><path d="M 92.91201910852362 80.23233633223022 l -19.49855026935412 -54.37948967909948 a78.76956257724146,78.76956257724146 0 0,0 1.2802604399845525,-0.4466577289379116 l 18.55960782530628 54.7070682612096" fill="#42ffd5" stroke="none" /><path d="M 93.59665428221793 80.00007090966166 l -17.273900233131894 -53.95254215570909 a77.65037011642343,77.65037011642343 0 0,0 1.2764782656483373,-0.39660801071474144 l 16.342636594772827 54.241890301306356" fill="#3fffc1" stroke="none" /><path d="M 95.692805502759 79.44645832069477 l -11.622449430349887 -55.4612750678733 a77.66598947265763,77.66598947265763 0 0,0 1.3108302624324584,-0.2629402189930934 l 10.666052758450292 55.65311924294361" fill="#3fffc2" stroke="none" /><path d="M 98.91598698831166 79.02799685794201 l -2.0504952561513345 -39.67018153020519 a60.72313977312131,60.72313977312131 0 0,0 1.0443199340555815,-0.04497061314577476 l 1.3673344897064286 39.69959986987516" fill="#ddff1b" stroke="none" /><path d="M 99.63851952072746 79.00311137660856 l -0.6446499609008339 -37.44501904320857 a58.450567748945296,58.450567748945296 0 0,0 1.0061304401733604,-0.008660082345288277 l 9.172743583999391e-15 37.450567748945296" fill="#fff116" stroke="none" /></svg>