<?xml version="1.0" encoding="utf-8" ?>
<svg baseProfile="full" height="200mm" version="1.1" viewBox="0,0,200,200" width="200mm" xmlns="http://www.w3.org/2000/svg" xmlns:ev="http://www.w3.org/2001/xml-events" xmlns:xlink="http://www.w3.org/1999/xlink"><defs /><rect fill="#1a1a1a" height="200" width="200" x="0" y="0" /><text alignment-baseline="middle" fill="#e1ed5e" style="dominant-baseline: central; font-size:9.0px; font-family:Arial;" text-anchor="middle" x="100.0" y="100.0">2024</text><line stroke="#e1ed5e" stroke-width="0.3" x1="100.0" x2="100.0" y1="15.0" y2="10.0" /><path d="M 100.0 14.0 a86.0,86.0 0 0,1 42.35913384403234,11.155469271406648" fill="none" id="id25" stroke="none" /><text fill="#e1ed5e" style="font-size:6.75px; font-family:Arial;" text-anchor="middle"><textPath startOffset="22.145653131862478" xlink:href="#id25">January</textPath></text><path d="M 100.0 79.0 l 0.0 -57.85298694875705 a78.85298694875705,78.85298694875705 0 0,0 1.353616376106,0.011619168592382543 l -0.9931234512571453 57.8444621783591" fill="#ff8e0d" stroke="none" /><path d="M 100.72087961077811 79.0123766808444 l 1.9689639556153766 -57.3242372396209 a78.35804210538268,78.35804210538268 0 0,0 1.343930867433993,0.05771417402623172 l -2.9527205836502057 57.281990497168835" fill="#ff4a06" stroke="none" /><path d="M 101.80034050326958 79.07731436759882 l 4.955329427677131 -57.58843931577667 a78.80124248287137,78.80124248287137 0 0,0 1.3467523968050479,0.12753885219062558 l -5.943181387867192 57.49488870808086" fill="#ff870c" stroke="none" /><path d="M 102.51750503828377 79.15144685158666 l 6.970810012250446 -57.728306723457536 a79.14765334374624,79.14765334374624 0 0,0 1.3474781626518437,0.17445802560792012 l -7.960765996793081 57.60013710164922" fill="#ffb510" stroke="none" /><path d="M 103.23170211078529 79.25015418208739 l 8.83849823740834 -56.74949899498944 a78.43365465713441,78.43365465713441 0 0,0 1.328600737109953,0.21862074569956827 l -9.811376477571363 56.5894122507942" fill="#ff5407" stroke="none" /><path d="M 104.29559338865022 79.4440306129975 l 11.683041388547098 -55.907582352788886 a78.11524508062953,78.11524508062953 0 0,0 1.3102440548764296,0.2855615934460537 l -12.641047860042661 55.69878930120912" fill="#ff2703" stroke="none" /><path d="M 105.3480935250658 79.69241777938227 l 14.783534400538674 -56.13548808434045 a79.04951258915995,79.04951258915995 0 0,0 1.3092805107408085,0.35685022531422783 l -15.744996312214175 55.87343736488208" fill="#ffa80f" stroke="none" /><path d="M 106.04205211174951 79.88797359093562 l 16.53465189211303 -55.03847854476275 a78.46850297089412,78.46850297089412 0 0,0 1.2867316201222718,0.3986327450780603 l -17.47702414510693 54.74652921187804" fill="#ff5908" stroke="none" /><path d="M 106.72888874123014 80.10723608172694 l 18.319534977844224 -54.15844999395526 a78.17292250315887,78.17292250315887 0 0,0 1.2674966140332236,0.4409011177127735 l -19.246537363922464 53.83599044367389" fill="#ff2f04" stroke="none" /><path d="M 107.40779381753099 80.34994680014964 l 20.05247085528271 -53.19156132049106 a77.84578949327314,77.84578949327314 0 0,0 1.2463768417013563,0.4821253375941825 l -20.962619959477593 52.83949609475884" fill="#ff0000" stroke="none" /><path d="M 108.4095320186766 80.7573450057729 l 22.82378245782543 -52.22528085080561 a77.9947805121457,77.9947805121457 0 0,0 1.2222398530363774,0.5466923399998653 l -23.71693571371744 51.82578475989589" fill="#ff1602" stroke="none" /><path d="M 110.02825361518725 81.54914285379988 l 27.305806742988793 -50.23960888998982 a78.18063818553091,78.18063818553091 0 0,0 1.1736619315073207,0.6510104890038022 l -28.164212862652214 49.763465485552864" fill="#ff3104" stroke="none" /><line stroke="#e1ed5e" stroke-width="0.3" x1="143.13028292997686" x2="145.6673583964461" y1="26.7553504044142" y2="22.446841604673864" /><path d="M 143.63769802327073 25.89364864446614 a86.0,86.0 0 0,1 29.32050498858742,28.57503671076993" fill="none" id="id26" stroke="none" /><text fill="#e1ed5e" style="font-size:6.75px; font-family:Arial;" text-anchor="middle"><textPath startOffset="20.669276256404974" xlink:href="#id26">February</textPath></text><path d="M 110.65571695917076 81.90426304109057 l 29.06076654947155 -49.3515348914106 a78.27217604195778,78.27217604195778 0 0,0 1.1519697946447203,0.6917247629035747 l -29.903669100673703 48.84539612797111" fill="#ff3e05" stroke="none" /><path d="M 111.8722381534696 82.67804972795209 l 32.35409366451919 -47.205589570337025 a78.22897049166264,78.22897049166264 0 0,0 1.1011841757027854,0.7687120769134453 l -33.15967293139574 46.64323267761845" fill="#ff3705" stroke="none" /><path d="M 115.16444852881244 85.47280134310134 l 41.29325253063582 -39.558001833186836 a78.18363588994035,78.18363588994035 0 0,0 0.9201252146422443,0.9771410919954734 l -41.96623357901432 38.84331928124686" fill="#ff3104" stroke="none" /><path d="M 116.35404254752997 86.82634096563983 l 45.43055454235081 -36.59563887909932 a79.33674717530073,79.33674717530073 0 0,0 0.8452520774675343,1.067948387673381 l -46.0520730504599 35.81037054751126" fill="#ffcd13" stroke="none" /><path d="M 117.01052211995028 87.68569379921539 l 46.82805008278976 -33.89989698369327 a78.81063301903276,78.81063301903276 0 0,0 0.783921491093909,1.1026837504015115 l -47.40308667241363 33.09103600658225" fill="#ff880c" stroke="none" /><path d="M 117.42321728460499 88.27688183743584 l 49.0146109915299 -32.97921772768892 a80.07673732173532,80.07673732173532 0 0,0 0.7575852722282637,1.1470806601588408 l -49.573520702678884 32.132957189191025" fill="#d6ff1c" stroke="none" /><line stroke="#e1ed5e" stroke-width="0.3" x1="172.87174338648825" x2="177.1583165268699" y1="56.24261187166439" y2="53.66864786411523" /><path d="M 173.72905801456457 55.72781907015455 a86.0,86.0 0 0,1 12.242430191666344,42.057860355516425" fill="none" id="id27" stroke="none" /><text fill="#e1ed5e" style="font-size:6.75px; font-family:Arial;" text-anchor="middle"><textPath startOffset="22.145653131862474" xlink:href="#id27">March</textPath></text><path d="M 118.18653347947321 89.5 l 54.422533866525704 -31.420864577820147 a83.84172915564028,83.84172915564028 0 0,0 0.7089282722360113,1.2526083288459773 l -54.95389550378309 30.48199947887505" fill="#4be1ff" stroke="none" /><path d="M 118.53625476483649 90.13048839642627 l 55.60876429450948 -29.60853481072117 a84.0,84.0 0 0,0 0.6667677241002217,1.2786150275820072 l -56.108840087584646 28.649573540034666" fill="#4dd2ff" stroke="none" /><line stroke="#e1ed5e" stroke-width="0.3" x1="184.99686870605535" x2="189.99668451229388" y1="99.2704041080226" y2="99.22748670261217" /><path d="M 185.99683186730306 99.26182062694052 a86.0,86.0 0 0,1 -10.086455211305974,41.156179273409016" fill="none" id="id28" stroke="none" /><text fill="#e1ed5e" style="font-size:6.75px; font-family:Arial;" text-anchor="middle"><textPath startOffset="21.40746469413373" xlink:href="#id28">April</textPath></text><line stroke="#e1ed5e" stroke-width="0.3" x1="174.33088141563837" x2="178.70328620479359" y1="141.23008692659167" y2="143.65538615756765" /><path d="M 175.20536237346943 141.71514677278685 a86.0,86.0 0 0,1 -30.301960400862466,31.631185727798858" fill="none" id="id29" stroke="none" /><text fill="#e1ed5e" style="font-size:6.75px; font-family:Arial;" text-anchor="middle"><textPath startOffset="22.145653131862474" xlink:href="#id29">May</textPath></text><line stroke="#e1ed5e" stroke-width="0.3" x1="143.1302829299769" x2="145.66735839644613" y1="173.24464959558577" y2="177.55315839532614" /><path d="M 143.63769802327073 174.10635135553383 a86.0,86.0 0 0,1 -40.68552437913181,11.842963189579606" fill="none" id="id30" stroke="none" /><text fill="#e1ed5e" style="font-size:6.75px; font-family:Arial;" text-anchor="middle"><textPath startOffset="21.407464694133747" xlink:href="#id30">June</textPath></text><line stroke="#e1ed5e" stroke-width="0.3" x1="101.45913802915013" x2="101.54496967792366" y1="184.9874750549273" y2="189.98673829345242" /><path d="M 101.47630435890484 185.9873277026323 a86.0,86.0 0 0,1 -42.54439059252881,-10.42667462771756" fill="none" id="id31" stroke="none" /><text fill="#e1ed5e" style="font-size:6.75px; font-family:Arial;" text-anchor="middle"><textPath startOffset="22.145653131862474" xlink:href="#id31">July</textPath></text><line stroke="#e1ed5e" stroke-width="0.3" x1="58.13341422392154" x2="55.67067388415222" y1="173.97424548756322" y2="178.32567169271397" /><path d="M 57.64086615596768 174.84453072859336 a86.0,86.0 0 0,1 -31.369924170532247,-30.572349798747897" fill="none" id="id32" stroke="none" /><text fill="#e1ed5e" style="font-size:6.75px; font-family:Arial;" text-anchor="middle"><textPath startOffset="22.145653131862474" xlink:href="#id32">August</textPath></text><line stroke="#e1ed5e" stroke-width="0.3" x1="26.387840678322732" x2="22.057713659400548" y1="142.50000000000003" y2="145.00000000000006" /><path d="M 25.521815274538298 143.00000000000003 a86.0,86.0 0 0,1 -11.493303480769221,-40.785679425670985" fill="none" id="id33" stroke="none" /><text fill="#e1ed5e" style="font-size:6.75px; font-family:Arial;" text-anchor="middle"><textPath startOffset="21.40746469413373" xlink:href="#id33">September</textPath></text><line stroke="#e1ed5e" stroke-width="0.3" x1="15.003131293944662" x2="10.003315487706104" y1="100.72959589197737" y2="100.7725132973878" /><path d="M 14.003168132696942 100.73817937305945 a86.0,86.0 0 0,1 10.791469493833604,-42.45332614584628" fill="none" id="id34" stroke="none" /><text fill="#e1ed5e" style="font-size:6.75px; font-family:Arial;" text-anchor="middle"><textPath startOffset="22.145653131862435" xlink:href="#id34">October</textPath></text><line stroke="#e1ed5e" stroke-width="0.3" x1="26.387840678322718" x2="22.05771365940052" y1="57.49999999999999" y2="54.99999999999999" /><path d="M 25.521815274538284 56.99999999999999 a86.0,86.0 0 0,1 29.574782752854787,-30.34633250058573" fill="none" id="id35" stroke="none" /><text fill="#e1ed5e" style="font-size:6.75px; font-family:Arial;" text-anchor="middle"><textPath startOffset="21.40746469413373" xlink:href="#id35">November</textPath></text><line stroke="#e1ed5e" stroke-width="0.3" x1="56.869717070023135" x2="54.33264160355391" y1="26.7553504044142" y2="22.446841604673864" /><path d="M 56.362301976729285 25.89364864446614 a86.0,86.0 0 0,1 42.16139366436587,-11.88097634709845" fill="none" id="id36" stroke="none" /><text fill="#e1ed5e" style="font-size:6.75px; font-family:Arial;" text-anchor="middle"><textPath startOffset="22.145653131862474" xlink:href="#id36">December</textPath></text></svg>