<?xml version="1.0" encoding="utf-8" ?>
<svg baseProfile="full" height="200mm" version="1.1" viewBox="0,0,200,200" width="200mm" xmlns="http://www.w3.org/2000/svg" xmlns:ev="http://www.w3.org/2001/xml-events" xmlns:xlink="http://www.w3.org/1999/xlink"><defs /><rect fill="#1a1a1a" height="200" width="200" x="0" y="0" /><rect fill="#1a1a1a" height="200" width="180" x="10" y="0" /><text alignment-baseline="middle" fill="#e1ed5e" style="dominant-baseline: central; font-size:9.0px; font-family:Arial;" text-anchor="middle" x="100.0" y="100.0">2025</text><line stroke="#e1ed5e" stroke-width="0.3" x1="100.0" x2="100.0" y1="15.0" y2="10.0" /><path d="M 100.0 14.0 a86.0,86.0 0 0,1 42.46469731375804,11.215312516191453" fill="none" id="id37" stroke="none" /><text fill="#e1ed5e" style="font-size:6.75px; font-family:Arial;" text-anchor="middle"><textPath startOffset="22.20632615414155" xlink:href="#id37">January</textPath></text><path d="M 100.0 79.0 l 0.0 -62.48093704813829 a83.48093704813829,83.48093704813829 0 0,0 1.436987101632419,0.012368601656769188 l -1.0755066223598906 62.47167982309008" fill="red" stroke="none" /><path d="M 102.16513564639614 79.11191278185805 l 6.4954069391883955 -62.66426165442583 a84.0,84.0 0 0,0 1.436933185961099,0.1614561861175967 l -7.57310682865922 62.54316951483763" fill="red" stroke="none" /><path d="M 103.59715602781102 79.31037775812273 l 7.221451693329949 -41.53534248106587 a63.1584397194504,63.1584397194504 0 0,0 1.0694975860840426,0.19544384780032767 l -7.935344400516892 41.4048831519148" fill="red" stroke="none" /><path d="M 104.66035177308747 79.52364482259891 l 9.329880511632942 -40.99303151794993 a63.04135230214395,63.04135230214395 0 0,0 1.056021641987849,0.24992620396767357 l -10.034125840583313 40.82635940184139" fill="red" stroke="none" /><path d="M 106.74666289553966 80.11325718540242 l 15.492534910959481 -45.66643718394672 a69.22283818941654,69.22283818941654 0 0,0 1.1250952573268542,0.39252364345685975 l -16.27631217234961 45.39299268731765" fill="red" stroke="none" /><line stroke="#e1ed5e" stroke-width="0.3" x1="143.23703022742887" x2="145.7803849466894" y1="26.81831364943548" y2="22.513508569990506" /><path d="M 143.74570117128098 25.957352633546492 a86.0,86.0 0 0,1 28.547481713284135,27.462654790039103" fill="none" id="id38" stroke="none" /><text fill="#e1ed5e" style="font-size:6.75px; font-family:Arial;" text-anchor="middle"><textPath startOffset="19.985693538727396" xlink:href="#id38">February</textPath></text><path d="M 110.68208982089419 81.91981866633111 l 2.662239949473169 -4.506026615322274 a26.233717360210008,26.233717360210008 0 0,0 0.38680733518313903,0.23304709143102764 l -2.7394093508739457 4.459532914432632" fill="red" stroke="none" /><path d="M 112.19680574252982 82.90503203632743 l 28.185658646695334 -39.50484592208709 a69.52900374699519,69.52900374699519 0 0,0 0.9682896569077961,0.7035036151712295 l -28.861493619956917 39.01382307209919" fill="red" stroke="none" /><path d="M 112.77801427241765 83.33499621200491 l 30.03672112381638 -39.17369793426002 a70.36378455623682,70.36378455623682 0 0,0 0.9548279949668165,0.7452583953022963 l -30.706581673942626 38.6508611497345" fill="red" stroke="none" /><path d="M 113.34407831869373 83.78471172551755 l 31.015422744482905 -37.68892903245205 a69.80995615273788,69.80995615273788 0 0,0 0.9213001520450379,0.7715623821637467 l -31.65958043348706 37.149465492894485" fill="red" stroke="none" /><path d="M 115.4437574822437 85.77008943001954 l 35.11765478741204 -32.357480854440325 a68.75202870049938,68.75202870049938 0 0,0 0.7944341421297624,0.8772340218982275 l -35.669432570157845 31.748194045272545" fill="red" stroke="none" /><line stroke="#e1ed5e" stroke-width="0.3" x1="172.23445277983987" x2="176.4835382374775" y1="55.19839476539836" y2="52.563006222186495" /><path d="M 173.08426987136738 54.67131705675599 a86.0,86.0 0 0,1 12.851231095245387,41.99856678651699" fill="none" id="id39" stroke="none" /><text fill="#e1ed5e" style="font-size:6.75px; font-family:Arial;" text-anchor="middle"><textPath startOffset="22.20632615414155" xlink:href="#id39">March</textPath></text><path d="M 117.84615892207809 88.93136811851018 l 40.40973956489732 -25.063126111545333 a68.55110242871403,68.55110242871403 0 0,0 0.6133175788770586,1.008132838674724 l -40.8351729420606 24.363825499663527" fill="red" stroke="none" /><path d="M 118.3937258080291 89.86733742301442 l 43.141452590297504 -23.765591960041565 a70.25432257997342,70.25432257997342 0 0,0 0.574385627708322,1.0642493340850183 l -43.54414631722429 23.01946164262409" fill="red" stroke="none" /><path d="M 119.196687751892 91.48605970444005 l 45.0916878392281 -19.998655135252527 a70.32754321278482,70.32754321278482 0 0,0 0.48127244350559534,1.1108431544192086 l -45.42925099257637 19.219512836246718" fill="red" stroke="none" /><path d="M 119.61058180528143 92.48833698450437 l 46.06045065166417 -17.64305552342088 a70.32385348324786,70.32385348324786 0 0,0 0.423267257103168,1.134145813795961 l -46.35732249726896 16.847586572595585" fill="red" stroke="none" /><path d="M 120.28053869075195 94.5502522615342 l 46.66546544415369 -12.539855013057398 a69.32094399810504,69.32094399810504 0 0,0 0.29974266634482205,1.1550307661554722 l -46.874404442368814 11.734727821353076" fill="red" stroke="none" /><path d="M 120.53481517161879 95.60439243477599 l 42.17418488320292 -9.027652042662591 a64.12957653358043,64.12957653358043 0 0,0 0.22176833335912874,1.0814211528796398 l -42.323332512477045 8.30035523361954" fill="red" stroke="none" /><path d="M 120.78858239683441 97.02765380044208 l 48.07002368701694 -6.8730397047429665 a69.55889055624462,69.55889055624462 0 0,0 0.1592699885258255,1.186746411077804 l -48.1812096746006 6.044574951600499" fill="red" stroke="none" /><path d="M 120.91429891909075 98.10471618934814 l 49.109456317953175 -4.450369475420026 a70.31069344789933,70.31069344789933 0 0,0 0.09885521509802363,1.2062840152737642 l -49.178786016870696 3.6043715429384937" fill="red" stroke="none" /><line stroke="#e1ed5e" stroke-width="0.3" x1="184.98032266829074" x2="189.97916517819016" y1="98.17113171792111" y2="98.06355123074" /><path d="M 185.9800911702706 98.14961562048488 a86.0,86.0 0 0,1 -9.607161424134198,41.387399972396054" fill="none" id="id40" stroke="none" /><text fill="#e1ed5e" style="font-size:6.75px; font-family:Arial;" text-anchor="middle"><textPath startOffset="21.466115282336823" xlink:href="#id40">April</textPath></text><path d="M 120.99513854157772 99.54816195383933 l 49.37891684052453 -1.062687596110336 a70.39035060890299,70.39035060890299 0 0,0 0.015643393584440814,1.2115980727395268 l -49.389893241226694 0.21255326531034643" fill="red" stroke="none" /><path d="M 120.8583938346157 102.4346265915055 l 48.17338313930728 5.6228777979587665 a69.50042884158111,69.50042884158111 0 0,0 -0.14892449545561798,1.1870747568994011 l -48.06945713460482 -6.451270309145562" fill="red" stroke="none" /><path d="M 120.49622156327973 104.57218783832717 l 46.43622638531712 10.358745824505036 a68.57758648739049,68.57758648739049 0 0,0 -0.266928243301327,1.1499198859809394 l -46.25103757608524 -11.15653436783454" fill="red" stroke="none" /><path d="M 119.54520255179757 107.68017299344265 l 45.45591459336367 17.86163569945095 a69.8393100010542,69.8393100010542 0 0,0 -0.4492908668195223,1.115103085370247 l -45.14172111228675 -18.64143815266401" fill="red" stroke="none" /><path d="M 119.26925614724726 108.34839909993367 l 44.394106665422946 19.23373259952858 a69.38153755650102,69.38153755650102 0 0,0 -0.4842134706646305,1.0917735477257535 l -44.056452110027045 -19.995054483747023" fill="red" stroke="none" /><path d="M 118.97047184881838 109.00673069616215 l 43.084149365596296 20.45533362067227 a68.6934439948513,68.6934439948513 0 0,0 -0.5163350679288946,1.0638031733288795 l -42.72566104105269 -21.193925749966425" fill="red" stroke="none" /><line stroke="#e1ed5e" stroke-width="0.3" x1="174.80103733775053" x2="179.2010983576182" y1="140.37084112569926" y2="142.7455964860345" /><path d="M 175.68104954172406 140.8457921977663 a86.0,86.0 0 0,1 -30.038265399797805,32.042727171017184" fill="none" id="id41" stroke="none" /><text fill="#e1ed5e" style="font-size:6.75px; font-family:Arial;" text-anchor="middle"><textPath startOffset="22.206326154141568" xlink:href="#id41">May</textPath></text><path d="M 117.55443506779139 111.5257021239791 l 6.915533401425968 4.540526522525796 a29.272906582815885,29.272906582815885 0 0,0 -0.28017920565466925,0.4188298972399052 l -6.836351090360577 -4.658893333971508" fill="red" stroke="none" /><path d="M 116.0416608686014 113.55231037782055 l 32.96241466572008 27.84729573897356 a64.15081297691543,64.15081297691543 0 0,0 -0.7198866473873433,0.8373908068751597 l -32.47818550876196 -28.41056364501025" fill="red" stroke="none" /><path d="M 115.32070863581623 114.36230785411682 l 31.980851932056737 29.980260822358144 a64.83595475493559,64.83595475493559 0 0,0 -0.7702926641164907,0.8076487787366528 l -31.460052716561282 -30.526316717677304" fill="red" stroke="none" /><path d="M 114.55890576462653 115.13401014063108 l 29.96015811363916 31.14364115250915 a64.21501427085869,64.21501427085869 0 0,0 -0.8031896734779751,0.7594659688451264 l -29.419632605770378 -31.6547417581002" fill="red" stroke="none" /><path d="M 112.63410532772338 116.77436683061366 l 26.18985121672671 34.77240058974015 a64.5319210410894,64.5319210410894 0 0,0 -0.8930450543953843,0.6606533815497614 l -25.58742119191276 -35.21806392002968" fill="red" stroke="none" /><line stroke="#e1ed5e" stroke-width="0.3" x1="143.8653032363475" x2="146.44561519142675" y1="172.8068346515853" y2="177.08958963109032" /><path d="M 144.38136562736335 173.6633856474863 a86.0,86.0 0 0,1 -40.68145358897372,12.25698825130547" fill="none" id="id42" stroke="none" /><text fill="#e1ed5e" style="font-size:6.75px; font-family:Arial;" text-anchor="middle"><textPath startOffset="21.466115282336833" xlink:href="#id42">June</textPath></text><path d="M 109.57404056367764 118.69057910512821 l 20.474785572752044 39.971169629248 a65.91003502314703,65.91003502314703 0 0,0 -1.014217631534398,0.5085497752640015 l -19.783714033534885 -40.317687245421304" fill="red" stroke="none" /><path d="M 107.93186726928326 119.44442032107085 l 17.294734655701806 42.396837789904644 a66.78864161988888,66.78864161988888 0 0,0 -1.0682331942816048,0.4250720338252529 l -16.562380385378336 -42.68825666813597" fill="red" stroke="none" /><path d="M 105.18746579009965 120.34920634021253 l 11.370043894352467 44.60200388116818 a67.02843304279696,67.02843304279696 0 0,0 -1.120481488023023,0.27538708857689614 l -10.600609121586233 -44.791112228059106" fill="red" stroke="none" /><path d="M 104.48393922423573 120.51570834832081 l 9.877859310299467 45.19492138085133 a67.26178793751278,67.26178793751278 0 0,0 -1.1332283281818327,0.23747901434315463 l -9.098439520688256 -45.35825637592103" fill="red" stroke="none" /><path d="M 103.41894727170886 120.7198165907248 l 7.697500480784236 46.64909561157067 a68.27990730774687,68.27990730774687 0 0,0 -1.161292101260091,0.1813699430385163 l -6.893372515915628 -46.7746838619563" fill="red" stroke="none" /><path d="M 102.70371172650421 120.8252237178851 l 6.375137804797081 49.10422576333765 a70.51633437409302,70.51633437409302 0 0,0 -1.2050656492286331,0.14591666792631305 l -5.5289447325170675 -49.20668795998932" fill="red" stroke="none" /><path d="M 101.26447882468166 120.96189622390904 l 3.013730842832476 49.96011949045681 a71.05093518700487,71.05093518700487 0 0,0 -1.221439778709014,0.06313448477694189 l -2.1533029957099825 -50.00459378199595" fill="red" stroke="none" /><line stroke="#e1ed5e" stroke-width="0.3" x1="102.19456741930631" x2="102.32365962044197" y1="184.97166512339345" y2="189.96999836594603" /><path d="M 102.22038585953345 185.97133177190398 a86.0,86.0 0 0,1 -42.740103519485714,-10.115201625700543" fill="none" id="id43" stroke="none" /><text fill="#e1ed5e" style="font-size:6.75px; font-family:Arial;" text-anchor="middle"><textPath startOffset="22.20632615414155" xlink:href="#id43">July</textPath></text><path d="M 99.81925306533755 120.99922214144158 l -0.4245817711754634 49.32801182366402 a70.32983904449671,70.32983904449671 0 0,0 -1.2104780397162687,-0.020839477209877375 l 1.2736195007843998 -49.313394869174985" fill="red" stroke="none" /><path d="M 99.09653310690486 120.98055641714683 l -2.123371610670441 49.30951893502084 a70.35521618431207,70.35521618431207 0 0,0 -1.2094796424707175,-0.06251628234696781 l 2.971839321554647 -49.26566284591167" fill="red" stroke="none" /><path d="M 98.37488393609728 120.93702456842531 l -3.8385572692490415 49.45367881022049 a70.60242806328895,70.60242806328895 0 0,0 -1.2108507451541695,-0.10447729728612296 l 4.689252332144752 -49.3802772606557" fill="red" stroke="none" /><path d="M 97.2962882734958 120.8252237178851 l -6.4078262446640375 49.35600707069577 a70.7702287632313,70.7702287632313 0 0,0 -1.2067045483466896,-0.1672382548839573 l 7.256459384197559 -49.23839425031921" fill="red" stroke="none" /><path d="M 95.86986931433489 120.58985236759428 l -10.162013388458055 50.66046848156174 a72.66961953487282,72.66961953487282 0 0,0 -1.224339613624564,-0.2565722700661205 l 11.032544463512007 -50.47804023076908" fill="red" stroke="none" /><path d="M 94.81253420990036 120.34920634021253 l -12.216026922068544 47.92059601996707 a70.45315800502115,70.45315800502115 0 0,0 -1.172573907469863,-0.3096874263211937 l 13.039091272349896 -47.7032172443423" fill="red" stroke="none" /><path d="M 92.06813273071674 119.44442032107085 l -16.1351021005828 39.554079325318206 a63.71845866917247,63.71845866917247 0 0,0 -1.0119964058571602,-0.42301457972363316 l 16.813569965937422 -39.2704797025746" fill="red" stroke="none" /><path d="M 91.07499286063937 119.00905698771935 l -18.08927122387637 38.527698879309916 a63.56295706768669,63.56295706768669 0 0,0 -0.9863982139430273,-0.4735310860134047 l 18.74978210581964 -38.21061351679695" fill="red" stroke="none" /><line stroke="#e1ed5e" stroke-width="0.3" x1="58.666819895761336" x2="56.23545636021788" y1="174.27360380694188" y2="178.64263932499728" /><path d="M 58.180547188652646 175.14741091055294 a86.0,86.0 0 0,1 -31.652253787137756,-30.449443065178592" fill="none" id="id44" stroke="none" /><text fill="#e1ed5e" style="font-size:6.75px; font-family:Arial;" text-anchor="middle"><textPath startOffset="22.20632615414155" xlink:href="#id44">August</textPath></text><path d="M 89.4739219176387 118.17145234162733 l -21.99049693457228 37.962787648791696 a64.87203211040816,64.87203211040816 0 0,0 -0.9614409840208328,-0.5680362801270276 l 22.640705789621496 -37.57863279637092" fill="red" stroke="none" /><path d="M 88.8546689885994 117.79835938074946 l -22.924627436764457 36.60911976252273 a64.19451577343108,64.19451577343108 0 0,0 -0.9314874840452507,-0.5945193841226216 l 23.55139672285663 -36.209085949576306" fill="red" stroke="none" /><path d="M 87.65650970185807 116.9893568818739 l -25.591879216271124 35.22419986415757 a64.53950548513761,64.53950548513761 0 0,0 -0.8931500140825952,-0.6607310282171354 l 26.194414200772282 -34.77845888720067" fill="red" stroke="none" /><path d="M 86.51685102203217 116.09983520530335 l -30.36565807203074 36.2587472451089 a68.29450223791532,68.29450223791532 0 0,0 -0.8947702536017131,-0.7625426217454857 l 30.985293802209508 -35.73068023314046" fill="red" stroke="none" /><path d="M 85.97065885151581 115.62618273729859 l -31.316137593418137 34.88058943623379 a67.87596391743855,67.87596391743855 0 0,0 -0.8626726357112319,-0.7880309989514328 l 31.911909778596225 -34.336365670695784" fill="red" stroke="none" /><path d="M 84.9287848128048 114.62390073753433 l -31.590836159060206 30.65321850080909 a65.01818639706696,65.01818639706696 0 0,0 -0.7724576927280947,-0.8099188025802482 l 32.11380040316726 -30.10489258164634" fill="red" stroke="none" /><path d="M 83.95833913139862 113.55231037782056 l -36.330823344012806 30.69299359167651 a68.56036774955132,68.56036774955132 0 0,0 -0.7538506267686468,-0.9080616427465922 l 36.85376997067499 -30.06307069181616" fill="red" stroke="none" /><path d="M 83.28015986056508 112.70617746262583 l -38.261054343017285 29.076339386937402 a69.05561144740216,69.05561144740216 0 0,0 -0.7110713308086964,-0.9525962492343809 l 38.755886940521066 -28.413430258193713" fill="red" stroke="none" /><path d="M 82.6465618267979 111.8261652097733 l -37.409892138145736 25.494404076577013 a66.27101356284709,66.27101356284709 0 0,0 -0.6342984727340778,-0.9481901539905206 l 37.84319371629055 -24.84667700838067" fill="red" stroke="none" /><line stroke="#e1ed5e" stroke-width="0.3" x1="26.63291911575756" x2="22.317208475507996" y1="142.92168965132927" y2="145.44649492493687" /><path d="M 25.769776987707644 143.4266507060508 a86.0,86.0 0 0,1 -11.730757126820373,-40.83630448921669" fill="none" id="id45" stroke="none" /><text fill="#e1ed5e" style="font-size:6.75px; font-family:Arial;" text-anchor="middle"><textPath startOffset="21.46611528233685" xlink:href="#id45">September</textPath></text><path d="M 81.87401531095188 110.60418214915194 l -40.20293669859397 23.519785048715242 a67.57742380090298,67.57742380090298 0 0,0 -0.5787459417027254,-1.0090923319993177 l 40.60183463644908 -22.824272870857616" fill="red" stroke="none" /><path d="M 80.73074385275274 108.34839909993369 l -40.86507078911107 17.70477892802717 a65.53552747514476,65.53552747514476 0 0,0 -0.439553082948513,-1.0389736462086214 l 41.16377485325189 -16.99873075615239" fill="red" stroke="none" /><path d="M 80.20201598880116 107.00284435728193 l -43.22414302315499 15.289028716096984 a66.84845623538263,66.84845623538263 0 0,0 -0.3743805424081576,-1.088125099885442 l 43.48091439650637 -14.542730913122245" fill="red" stroke="none" /><path d="M 79.86692584326677 105.97154293290107 l -44.45250207422445 13.184773599134108 a67.36661725335753,67.36661725335753 0 0,0 -0.3201754490457477,-1.1145727412010562 l 44.6728701601563 -12.417643382428455" fill="red" stroke="none" /><path d="M 79.50377843672027 104.57218783832718 l -46.59772086939154 10.39477115306439 a68.74305035862609,68.74305035862609 0 0,0 -0.24769090411426767,-1.1571294434739547 l 46.76974581223025 -9.591127890174272" fill="red" stroke="none" /><path d="M 79.23777060512086 103.15116336523772 l -45.410568978071744 6.892136611957189 a66.93061421307245,66.93061421307245 0 0,0 -0.16307468534541705,-1.1405439694895683 l 45.522477714433755 -6.10944717048722" fill="red" stroke="none" /><path d="M 79.0235259727143 100.99374915477108 l -47.803531381625085 2.2646665423259242 a68.85714499530812,68.85714499530812 0 0,0 -0.045897769899520116,-1.184417498950552 l 47.83543128437581 -1.4414717963613752" fill="red" stroke="none" /><line stroke="#e1ed5e" stroke-width="0.3" x1="15.007084014347285" x2="10.007500721073583" y1="101.09737516637583" y2="101.16192664675087" /><path d="M 14.007167355692545 101.11028546245083 a86.0,86.0 0 0,1 10.666146001902534,-42.60595125391555" fill="none" id="id46" stroke="none" /><text fill="#e1ed5e" style="font-size:6.75px; font-family:Arial;" text-anchor="middle"><textPath startOffset="22.20632615414155" xlink:href="#id46">October</textPath></text><path d="M 79.12142395522702 97.74499172005258 l -42.85215446330611 -4.62828321821944 a64.10137060112007,64.10137060112007 0 0,0 0.12792694351805073,-1.095999928394799 l 42.76613716678447 5.3652268849391005" fill="red" stroke="none" /><path d="M 79.3925641242962 95.95851677861259 l -44.684507614509336 -8.763423497676165 a66.53573115862713,66.53573115862713 0 0,0 0.23008912588333982,-1.1219962922970041 l 44.527039192711 9.531295446136571" fill="red" stroke="none" /><path d="M 79.54389044137918 95.25157060432595 l -42.37774745764247 -9.837048495153232 a64.50449405153127,64.50449405153127 0 0,0 0.2603745395876779,-1.0794205635260323 l 42.20214011779398 10.565054290338662" fill="red" stroke="none" /><path d="M 80.38941819471856 92.48833698450439 l -13.94881174783934 -5.3429711752935845 a35.93709108751362,35.93709108751362 0 0,0 0.22624358286945204,-0.5757652408355024 l 13.854774615088196 5.58228542102485" fill="red" stroke="none" /><path d="M 81.6062741919709 89.86733742301443 l -37.361802945449206 -20.581721531850253 a63.65573326704401,63.65573326704401 0 0,0 0.536958416008765,-0.9551891066494513 l 37.00198688814801 21.22179414843449" fill="red" stroke="none" /><line stroke="#e1ed5e" stroke-width="0.3" x1="26.266209847984243" x2="21.928928074336255" y1="57.711370442889674" y2="55.22380399835377" /><path d="M 25.398753493254645 57.213857153982495 a86.0,86.0 0 0,1 29.58750427330803,-30.492523968695096" fill="none" id="id47" stroke="none" /><text fill="#e1ed5e" style="font-size:6.75px; font-family:Arial;" text-anchor="middle"><textPath startOffset="21.46611528233685" xlink:href="#id47">November</textPath></text><path d="M 82.15384107792192 88.93136811851018 l -37.26052192201845 -23.10990295826523 a64.84534306675742,64.84534306675742 0 0,0 0.59649194249813,-0.9435070051822103 l 36.857202383274355 23.747857611161656" fill="red" stroke="none" /><path d="M 83.6137871275137 86.86637796730984 l -33.87692638812573 -27.152506211973897 a64.41548957570063,64.41548957570063 0 0,0 0.7009065000802387,-0.8592284929809194 l 33.4045213959691 27.731618874562898" fill="red" stroke="none" /><path d="M 84.31358615837235 86.03803664274999 l -31.370857564291516 -27.922173176115823 a62.99736252666432,62.99736252666432 0 0,0 0.7279386019767409,-0.8038079856375725 l 30.88557532169873 28.45803394902295" fill="red" stroke="none" /><path d="M 86.10567301691215 84.25364557470407 l -27.84267798633056 -31.55393393690757 a63.081652348086614,63.081652348086614 0 0,0 0.820380497517656,-0.7114258832836435 l 27.295403690166133 32.02852481361089" fill="red" stroke="none" /><path d="M 88.09926311788651 82.69761687909137 l -24.373138915367253 -35.43590548637676 a64.00875838974216,64.00875838974216 0 0,0 0.9131773109729895,-0.6165813967046522 l 23.759556909987722 35.850198795380074" fill="red" stroke="none" /><line stroke="#e1ed5e" stroke-width="0.3" x1="56.762969772571076" x2="54.21961505331055" y1="26.818313649435495" y2="22.513508569990535" /><path d="M 56.25429882871897 25.957352633546506 a86.0,86.0 0 0,1 42.265352541879196,-11.944610805530505" fill="none" id="id48" stroke="none" /><text fill="#e1ed5e" style="font-size:6.75px; font-family:Arial;" text-anchor="middle"><textPath startOffset="22.20632615414155" xlink:href="#id48">December</textPath></text><path d="M 89.63071344664047 81.73862282372117 l -21.08393753380495 -37.1309765319555 a63.69943606355966,63.69943606355966 0 0,0 0.9581484472463762,-0.5332085735272988 l 20.441664997486527 37.48840050304298" fill="red" stroke="none" /></svg>