<?xml version="1.0" encoding="utf-8" ?>
<svg baseProfile="full" height="200mm" version="1.1" viewBox="0,0,200,200" width="200mm" xmlns="http://www.w3.org/2000/svg" xmlns:ev="http://www.w3.org/2001/xml-events" xmlns:xlink="http://www.w3.org/1999/xlink"><defs /><rect fill="#1a1a1a" height="200" width="200" x="0" y="0" /><text alignment-baseline="middle" fill="#e1ed5e" style="dominant-baseline: central; font-size:9.0px; font-family:Arial;" text-anchor="middle" x="100.0" y="100.0">2024</text><line stroke="#e1ed5e" stroke-width="0.3" x1="100.0" x2="100.0" y1="15.0" y2="10.0" /><path d="M 100.0 14.0 a86.0,86.0 0 0,1 42.35913384403234,11.155469271406648" fill="none" id="id25" stroke="none" /><text fill="#e1ed5e" style="font-size:6.75px; font-family:Arial;" text-anchor="middle"><textPath startOffset="22.145653131862478" xlink:href="#id25">January</textPath></text><path d="M 100.0 79.0 l 0.0 -30.183408436269282 a51.18340843626928,51.18340843626928 0 0,0 0.8786312671868696,0.007541992697629345 l -0.5181383423380148 30.178960841766088" fill="#ffe415" stroke="none" /><path d="M 100.72087961077811 79.0123766808444 l 1.027259721633234 -29.907545956678533 a50.925182834638264,50.925182834638264 0 0,0 0.8734256663680565,0.03750865623318176 l -1.5405111486021266 29.88550473201952" fill="#ffe015" stroke="none" /><path d="M 101.80034050326958 79.07731436759882 l 2.5853242838493893 -30.045387053481086 a51.156412002195324,51.156412002195324 0 0,0 0.8742885049163841,0.08279603040991285 l -3.100712352150786 29.99657926756599" fill="#ffe415" stroke="none" /><path d="M 102.51750503828377 79.15144685158666 l 3.6368529410202024 -30.118359518959707 a51.337143560788945,51.337143560788945 0 0,0 0.874007970655161,0.11315783005047554 l -4.153338733566155 30.051490092708836" fill="#ffe715" stroke="none" /><path d="M 103.23170211078529 79.25015418208739 l 4.6112744792111995 -29.60769006164892 a50.96463187007791,50.96463187007791 0 0,0 0.8632983859431035,0.14205542088337372 l -5.118850368207373 29.524168642269878" fill="#ffe115" stroke="none" /><path d="M 104.29559338865022 79.4440306129975 l 6.0953466468498725 -29.168440245501323 a50.79850931004176,50.79850931004176 0 0,0 0.8520544837485489,0.18570130898631515 l -6.595163547217555 29.05950747838129" fill="#ffde14" stroke="none" /><path d="M 105.3480935250658 79.69241777938227 l 7.7129545158719415 -29.287344595011927 a51.28594097582051,51.28594097582051 0 0,0 0.8494382924740916,0.23151818389811815 l -8.214574209280725 29.150625916969666" fill="#ffe615" stroke="none" /><path d="M 106.04205211174951 79.88797359093562 l 8.62655806956399 -28.715006177621557 a50.98281314200527,50.98281314200527 0 0,0 0.8360194889526129,0.2590009747240599 l -9.118218191388232 28.562688615090853" fill="#ffe115" stroke="none" /><path d="M 106.72888874123014 80.10723608172694 l 9.55777801219775 -28.255872387206754 a50.8286011219528,50.8286011219528 0 0,0 0.8241354903357636,0.2866771041538091 l -10.041419274578532 28.087636850484355" fill="#ffde14" stroke="none" /><path d="M 107.40779381753099 80.34994680014964 l 10.461895744769109 -27.751421410986257 a50.657927319766706,50.657927319766706 0 0,0 0.8110762042615507,0.31374169970971366 l -10.936744211524184 27.567739823138503" fill="#ffdb14" stroke="none" /><path d="M 108.4095320186766 80.7573450057729 l 11.907761108260353 -27.24728775050059 a50.735659810570496,50.735659810570496 0 0,0 0.7950678876635683,0.3556237532966531 l -12.373742398779552 27.038860246294085" fill="#ffdd14" stroke="none" /><path d="M 110.02825361518725 81.54914285379988 l 14.24614978541179 -26.21131102786676 a50.832626594183054,50.832626594183054 0 0,0 0.763108617386047,0.4232834863523961 l -14.694002590953938 25.96289462608122" fill="#ffde14" stroke="none" /><line stroke="#e1ed5e" stroke-width="0.3" x1="143.13028292997686" x2="145.6673583964461" y1="26.7553504044142" y2="22.446841604673864" /><path d="M 143.63769802327073 25.89364864446614 a86.0,86.0 0 0,1 29.32050498858742,28.57503671076993" fill="none" id="id26" stroke="none" /><text fill="#e1ed5e" style="font-size:6.75px; font-family:Arial;" text-anchor="middle"><textPath startOffset="20.669276256404974" xlink:href="#id26">February</textPath></text><path d="M 110.65571695917076 81.90426304109057 l 15.161757974755991 -25.747979718033275 a50.880384275395954,50.880384275395954 0 0,0 0.7488314339664331,0.44965176042217925 l -15.601522165279858 25.483913957075178" fill="#ffdf14" stroke="none" /><path d="M 111.8722381534696 82.67804972795209 l 16.87997241225375 -24.628384213565447 a50.85784281574018,50.85784281574018 0 0,0 0.7158965708879087,0.4997514058093323 l -17.300264074315418 24.334987991950985" fill="#ffdf14" stroke="none" /><path d="M 115.16444852881244 85.47280134310134 l 21.543764160321693 -20.638438725926832 a50.834190574563905,50.834190574563905 0 0,0 0.5982558879639366,0.6353270211001603 l -21.89487588202189 20.265570244882177" fill="#ffde14" stroke="none" /><path d="M 116.35404254752997 86.82634096563983 l 23.70230225887142 -19.092896901804686 a51.43579873231265,51.43579873231265 0 0,0 0.5479959449134604,0.692374974783022 l -24.02656463442644 18.683201983106986" fill="#ffe915" stroke="none" /><path d="M 117.01052211995028 87.68569379921539 l 24.43141204057199 -17.686458220602738 a51.16131128922169,51.16131128922169 0 0,0 0.5088964508441469,0.7158265889608323 l -24.731423589946093 17.2644544049324" fill="#ffe415" stroke="none" /><path d="M 117.42321728460499 88.27688183743584 l 25.572197753809935 -17.206115899688626 a51.82187084382581,51.82187084382581 0 0,0 0.4902732983845166,0.7423362615208223 l -25.863795491115177 16.764599759828744" fill="#ffef16" stroke="none" /><line stroke="#e1ed5e" stroke-width="0.3" x1="172.87174338648825" x2="177.1583165268699" y1="56.24261187166439" y2="53.66864786411523" /><path d="M 173.72905801456457 55.72781907015455 a86.0,86.0 0 0,1 12.242430191666344,42.057860355516425" fill="none" id="id27" stroke="none" /><text fill="#e1ed5e" style="font-size:6.75px; font-family:Arial;" text-anchor="middle"><textPath startOffset="22.145653131862474" xlink:href="#id27">March</textPath></text><path d="M 118.18653347947321 89.5 l 28.39365181412357 -16.393082518160753 a53.7861650363215,53.7861650363215 0 0,0 0.4547918254240252,0.8035735782132092 l -28.670877004568972 15.903252169848425" fill="#eeff19" stroke="none" /><path d="M 118.53625476483649 90.13048839642627 l 29.012539090230476 -15.447542927784728 a53.868739053512584,53.868739053512584 0 0,0 0.42759448260546806,0.8199688008418445 l -29.273441641810887 14.947227883838384" fill="#edff1a" stroke="none" /><path d="M 118.8641267826498 90.77261029715802 l 31.99826683647533 -15.651955763319329 a56.621240850862876,56.621240850862876 0 0,0 0.41959235792580124,0.876786649631488 l -32.262238452361046 15.100356611622738" fill="#c1ff1e" stroke="none" /><path d="M 119.16976305983485 91.42560881287824 l 32.647669606280104 -14.602887353296415 a56.76471235413323,56.76471235413323 0 0,0 0.3902333886185495,0.8929303613730307 l -32.893536876915626 14.040294922147535" fill="#beff1e" stroke="none" /><path d="M 119.4528033332814 92.08871423366111 l 33.021336449298815 -13.429490061716352 a56.64771892022726,56.64771892022726 0 0,0 0.3586106101619788,0.9039329993971441 l -33.24700573442692 12.860656045105642" fill="#c0ff1e" stroke="none" /><path d="M 119.71291397450082 92.76114493625339 l 34.20138521505212 -12.559222389514725 a57.434445483054546,57.434445483054546 0 0,0 0.33191593035447203,0.9284279305306175 l -34.41194131545054 11.97025950260319" fill="#b4ff20" stroke="none" /><path d="M 120.35273937422433 94.82641323984039 l 17.35259338765828 -4.410961382354142 a38.904442956820006,38.904442956820006 0 0,0 0.15897554664907515,0.6486744808665309 l -17.42575646082365 4.112431076879516" fill="#ff0000" stroke="none" /><path d="M 120.82617615685814 97.30363454192243 l 38.580577819864274 -4.995028208858165 a59.902587211159776,59.902587211159776 0 0,0 0.12327927842451801,1.0209292729295611 l -38.66063918454846 4.332005259005191" fill="#8eff24" stroke="none" /><path d="M 120.9064616781168 98.02013634271609 l 38.51395257004203 -3.6473113511884936 a59.68626917473376,59.68626917473376 0 0,0 0.08784220737516783,1.0208596022969134 l -38.57088840011494 2.9856307015159183" fill="#91ff23" stroke="none" /><path d="M 120.98066250479742 99.09900007780936 l 47.57259040512848 -2.0429717242545147 a68.61643719683599,68.61643719683599 0 0,0 0.04043570892723609,1.1772415461880716 l -47.600650801052566 1.2260239135023232" fill="#33ff50" stroke="none" /><line stroke="#e1ed5e" stroke-width="0.3" x1="184.99686870605535" x2="189.99668451229388" y1="99.2704041080226" y2="99.22748670261217" /><path d="M 185.99683186730306 99.26182062694052 a86.0,86.0 0 0,1 -10.086455211305974,41.156179273409016" fill="none" id="id28" stroke="none" /><text fill="#e1ed5e" style="font-size:6.75px; font-family:Arial;" text-anchor="middle"><textPath startOffset="21.40746469413373" xlink:href="#id28">April</textPath></text><path d="M 120.99303781780057 100.54070618675476 l 44.837566549394076 1.1548566645141893 a65.8524365891856,65.8524365891856 0 0,0 -0.03880688165769218,1.1298200174415578 l -44.81113498073954 -1.9243829465198579" fill="#3aff2e" stroke="none" /><path d="M 120.96210409425399 101.26102812881392 l 44.50953622287807 2.677583172239681 a65.59000186611294,65.59000186611294 0 0,0 -0.0772588968258837,1.1233274038512573 l -44.45701336488712 -3.441254000245282" fill="#3dff2e" stroke="none" /><path d="M 120.9064616781168 101.97986365728391 l 44.61580232344608 4.225162866905121 a65.81541942475481,65.81541942475481 0 0,0 -0.11617238742339726,1.123862465227104 l -44.53669754354102 -4.990429854415157" fill="#3aff2e" stroke="none" /><path d="M 120.82617615685814 102.69636545807757 l 44.77796651574413 5.797404251583998 a66.15170186539359,66.15170186539359 0 0,0 -0.15547377267914778,1.1249307699330617 l -44.67184822650977 -6.565223329717146" fill="#36ff2f" stroke="none" /><path d="M 120.65975698304385 103.76489593502545 l 44.28791030004642 8.070732564582686 a66.0172824909942,66.0172824909942 0 0,0 -0.21274448950579372,1.1131690663586726 l -44.14283951825847 -8.829804195974672" fill="#38ff2e" stroke="none" /><path d="M 120.51834098615036 104.47187691870673 l 44.861711703062774 9.777401264264746 a66.91482061830543,66.91482061830543 0 0,0 -0.25424170886466885,1.1202358800012262 l -44.687259132640435 -10.54607147820499" fill="#30ff34" stroke="none" /><path d="M 120.35273937422433 105.17358676015961 l 60.96616059935139 15.497359618038622 a83.90501485061998,83.90501485061998 0 0,0 -0.36682680840582077,1.3929011408483616 l -60.69114431014084 -16.541641263259788" fill="#4dd3ff" stroke="none" /><path d="M 120.16314734710363 105.8691983318838 l 42.93846721036109 12.498762013009808 a65.72058830374564,65.72058830374564 0 0,0 -0.32460863192337674,1.0805165624370805 l -42.717582258434085 -13.234016179037612" fill="#3cff2e" stroke="none" /><path d="M 119.94978838288452 106.5578916946017 l 42.56542576612985 13.992100906111325 a65.80618660875652,65.80618660875652 0 0,0 -0.3619797097162281,1.0701286921967275 l -42.318960634841254 -14.720731272782213" fill="#3aff2e" stroke="none" /><path d="M 119.71291397450082 107.23885506374661 l 44.674225021986864 16.404994230567777 a68.59107287107614,68.59107287107614 0 0,0 -0.41536570635469644,1.1018068845203755 l -44.38602863181772 -17.16946939528231" fill="#33ff50" stroke="none" /><path d="M 119.4528033332814 107.91128576633889 l 44.05495052634204 17.91676485206215 a68.55890167615874,68.55890167615874 0 0,0 -0.45273084711654477,1.0863892222017864 l -43.74089383468901 -18.670386583705216" fill="#33ff4f" stroke="none" /><path d="M 119.16976305983485 108.57439118712176 l 43.909327405915974 19.640083644569245 a69.10157917164051,69.10157917164051 0 0,0 -0.49363382756163626,1.0786789999441777 l -43.56570911349928 -20.39095162672811" fill="#34ff58" stroke="none" /><path d="M 118.5362547648365 109.86951160357373 l 42.05508805104286 22.391965624925597 a68.64483765875184,68.64483765875184 0 0,0 -0.5627394298978208,1.0353771683490558 l -41.6645032715297 -23.110597626749254" fill="#33ff50" stroke="none" /><line stroke="#e1ed5e" stroke-width="0.3" x1="174.33088141563837" x2="178.70328620479359" y1="141.23008692659167" y2="143.65538615756765" /><path d="M 175.20536237346943 141.71514677278685 a86.0,86.0 0 0,1 -30.301960400862466,31.631185727798858" fill="none" id="id29" stroke="none" /><text fill="#e1ed5e" style="font-size:6.75px; font-family:Arial;" text-anchor="middle"><textPath startOffset="22.145653131862474" xlink:href="#id29">May</textPath></text><path d="M 118.18653347947321 110.5 l 43.88566485186849 25.337400415791958 a71.67480083158394,71.67480083158394 0 0,0 -0.6243431139671265,1.0602711019582896 l -43.4442480277716 -26.087022686043795" fill="#38ff80" stroke="none" /><path d="M 117.81537515405839 111.11811171558189 l 40.61328616348708 25.34569431167342 a68.87319952894401,68.87319952894401 0 0,0 -0.6345593157128933,0.9976326418015287 l -40.1722091561483 -26.03914062815362" fill="#33ff54" stroke="none" /><path d="M 117.423217284605 111.72311816256416 l 39.52095723876668 26.591463794524483 a68.63414749739866,68.63414749739866 0 0,0 -0.6661116030905211,0.971876735895506 l -39.05865589886084 -27.265975265490034" fill="#33ff50" stroke="none" /><path d="M 116.79662413953412 112.60449989151573 l 38.04341122368182 28.548485020459967 a68.56382169777348,68.56382169777348 0 0,0 -0.7145265144566554,0.9353381440330223 l -37.54773273187086 -29.197344077733867" fill="#33ff4f" stroke="none" /><path d="M 116.35404254752997 113.17365903436017 l 49.03038656689724 39.49540873933534 a83.9592417234082,83.9592417234082 0 0,0 -0.9137691309618037,1.1146497629909953 l -48.34517061669681 -40.33126078402483" fill="#4dd3ff" stroke="none" /><path d="M 115.89218393027572 113.72728997021213 l 36.10689166529343 31.18827305215558 a68.71180149297498,68.71180149297498 0 0,0 -0.7786975490858091,0.8860148673221563 l -35.56618305224903 -31.80350019728903" fill="#33ff52" stroke="none" /><path d="M 115.41159269507618 114.26474011684316 l 34.9226355744061 32.32387012299394 a68.58595438982972,68.58595438982972 0 0,0 -0.8071723102417794,0.8571890217841912 l -34.36260743042806 -32.91860060472263" fill="#33ff4f" stroke="none" /><path d="M 114.65682725009322 115.03919595460226 l 34.04145922118711 34.92953604981454 a69.77390116202557,69.77390116202557 0 0,0 -0.8649555352852156,0.8286078367174553 l -33.436831200036586 -35.50875601683757" fill="#35ff63" stroke="none" /><path d="M 114.13192950727249 115.5334660781643 l 36.00831895268017 39.57945025803708 a74.50824157572717,74.50824157572717 0 0,0 -0.95347477625192,0.8526030243417008 l -35.323579149604875 -40.19174881226217" fill="#3dffab" stroke="none" /><path d="M 113.59037401385872 116.0094264158162 l 30.81418750073312 36.299035394691245 a68.614431865931,68.614431865931 0 0,0 -0.9044874184471255,0.7545555736783754 l -30.186525748124097 -36.82265315228149" fill="#33ff50" stroke="none" /><path d="M 112.7482090630111 116.68781488649013 l 38.24462718903332 50.063444659470385 a84.0,84.0 0 0,0 -1.1533880443569346,0.8655238909439404 l -37.379586155765615 -50.71258757767834" fill="#4dd2ff" stroke="none" /><path d="M 112.16784306229584 117.11559508785304 l 26.37983260663112 37.106538198171855 a66.52791171804682,66.52791171804682 0 0,0 -0.9364751084673085,0.6537323560322921 l -25.73896240699005 -37.553915370009264" fill="#31ff2f" stroke="none" /><path d="M 111.27062007382361 117.71928675628689 l 24.600168665919906 38.67555112223548 a66.83630169418512,66.83630169418512 0 0,0 -0.9733780265292649,0.6074598792818362 l -23.932626510600926 -39.09214679835887" fill="#30ff33" stroke="none" /><line stroke="#e1ed5e" stroke-width="0.3" x1="143.1302829299769" x2="145.66735839644613" y1="173.24464959558577" y2="177.55315839532614" /><path d="M 143.63769802327073 174.10635135553383 a86.0,86.0 0 0,1 -40.68552437913181,11.842963189579606" fill="none" id="id30" stroke="none" /><text fill="#e1ed5e" style="font-size:6.75px; font-family:Arial;" text-anchor="middle"><textPath startOffset="21.407464694133747" xlink:href="#id30">June</textPath></text><line stroke="#e1ed5e" stroke-width="0.3" x1="101.45913802915013" x2="101.54496967792366" y1="184.9874750549273" y2="189.98673829345242" /><path d="M 101.47630435890484 185.9873277026323 a86.0,86.0 0 0,1 -42.54439059252881,-10.42667462771756" fill="none" id="id31" stroke="none" /><text fill="#e1ed5e" style="font-size:6.75px; font-family:Arial;" text-anchor="middle"><textPath startOffset="22.145653131862474" xlink:href="#id31">July</textPath></text><line stroke="#e1ed5e" stroke-width="0.3" x1="58.13341422392154" x2="55.67067388415222" y1="173.97424548756322" y2="178.32567169271397" /><path d="M 57.64086615596768 174.84453072859336 a86.0,86.0 0 0,1 -31.369924170532247,-30.572349798747897" fill="none" id="id32" stroke="none" /><text fill="#e1ed5e" style="font-size:6.75px; font-family:Arial;" text-anchor="middle"><textPath startOffset="22.145653131862474" xlink:href="#id32">August</textPath></text><line stroke="#e1ed5e" stroke-width="0.3" x1="26.387840678322732" x2="22.057713659400548" y1="142.50000000000003" y2="145.00000000000006" /><path d="M 25.521815274538298 143.00000000000003 a86.0,86.0 0 0,1 -11.493303480769221,-40.785679425670985" fill="none" id="id33" stroke="none" /><text fill="#e1ed5e" style="font-size:6.75px; font-family:Arial;" text-anchor="middle"><textPath startOffset="21.40746469413373" xlink:href="#id33">September</textPath></text><line stroke="#e1ed5e" stroke-width="0.3" x1="15.003131293944662" x2="10.003315487706104" y1="100.72959589197737" y2="100.7725132973878" /><path d="M 14.003168132696942 100.73817937305945 a86.0,86.0 0 0,1 10.791469493833604,-42.45332614584628" fill="none" id="id34" stroke="none" /><text fill="#e1ed5e" style="font-size:6.75px; font-family:Arial;" text-anchor="middle"><textPath startOffset="22.145653131862435" xlink:href="#id34">October</textPath></text><line stroke="#e1ed5e" stroke-width="0.3" x1="26.387840678322718" x2="22.05771365940052" y1="57.49999999999999" y2="54.99999999999999" /><path d="M 25.521815274538284 56.99999999999999 a86.0,86.0 0 0,1 29.574782752854787,-30.34633250058573" fill="none" id="id35" stroke="none" /><text fill="#e1ed5e" style="font-size:6.75px; font-family:Arial;" text-anchor="middle"><textPath startOffset="21.40746469413373" xlink:href="#id35">November</textPath></text><line stroke="#e1ed5e" stroke-width="0.3" x1="56.869717070023135" x2="54.33264160355391" y1="26.7553504044142" y2="22.446841604673864" /><path d="M 56.362301976729285 25.89364864446614 a86.0,86.0 0 0,1 42.16139366436587,-11.88097634709845" fill="none" id="id36" stroke="none" /><text fill="#e1ed5e" style="font-size:6.75px; font-family:Arial;" text-anchor="middle"><textPath startOffset="22.145653131862474" xlink:href="#id36">December</textPath></text></svg>