<?xml version="1.0" encoding="utf-8" ?>
<svg baseProfile="full" height="200mm" version="1.1" viewBox="0,0,200,200" width="200mm" xmlns="http://www.w3.org/2000/svg" xmlns:ev="http://www.w3.org/2001/xml-events" xmlns:xlink="http://www.w3.org/1999/xlink"><defs /><rect fill="#1a1a1a" height="200" width="200" x="0" y="0" /><text alignment-baseline="middle" fill="#e1ed5e" style="dominant-baseline: central; font-size:9.0px; font-family:Arial;" text-anchor="middle" x="100.0" y="100.0">2024</text><line stroke="#e1ed5e" stroke-width="0.3" x1="100.0" x2="100.0" y1="15.0" y2="10.0" /><path d="M 100.0 14.0 a86.0,86.0 0 0,1 42.35913384403234,11.155469271406648" fill="none" id="id25" stroke="none" /><text fill="#e1ed5e" style="font-size:6.75px; font-family:Arial;" text-anchor="middle"><textPath startOffset="22.145653131862478" xlink:href="#id25">January</textPath></text><path d="M 100.0 79.0 l 0.0 -61.694980850452865 a82.69498085045286,82.69498085045286 0 0,0 1.4195693103380853,0.012185295211070042 l -1.0590763854892304 61.68588995343623" fill="#98ff23" stroke="none" /><path d="M 100.72087961077811 79.0123766808444 l 2.099722070435508 -61.13111708299118 a82.16716691647122,82.16716691647122 0 0,0 1.4092617546535309,0.06051976342494513 l -3.1488095856898752 61.086064751140405" fill="#ffc312" stroke="none" /><path d="M 101.80034050326958 79.07731436759882 l 5.284410888222849 -61.41286471416393 a82.63980005512485,82.63980005512485 0 0,0 1.4123552534075972,0.13375151091791987 l -6.33786570501546 61.31310144774083" fill="#a8ff21" stroke="none" /><path d="M 102.51750503828377 79.15144685158666 l 7.433738738483166 -61.56202066087618 a83.00921592378161,83.00921592378161 0 0,0 1.4132207466765705,0.1829697193223065 l -8.489437307050528 61.42533934535348" fill="#42ff2d" stroke="none" /><path d="M 103.23170211078529 79.25015418208739 l 9.425459397397358 -60.51821069964457 a82.24780086777452,82.24780086777452 0 0,0 1.393209194908504,0.2292520428439182 l -10.462946095358932 60.347492658304986" fill="#ffdd14" stroke="none" /><path d="M 104.29559338865022 79.4440306129975 l 12.458907530217802 -59.620382707388146 a81.90824583766918,81.90824583766918 0 0,0 1.3738648844203076,0.2994274571325125 l -13.480534831257243 59.397723792121916" fill="#ff6a09" stroke="none" /><path d="M 105.3480935250658 79.69241777938227 l 15.765303052565034 -59.86342356811736 a82.90455768063484,82.90455768063484 0 0,0 1.3731308146955887,0.3742529095867931 l -16.790615268195317 59.58397016438643" fill="#5eff2a" stroke="none" /><path d="M 106.04205211174951 79.88797359093562 l 17.632711561744767 -58.693562060414095 a82.2849634442199,82.2849634442199 0 0,0 1.3493141874206005,0.41802098440165336 l -18.637666382036997 58.3822244882058" fill="#ffea15" stroke="none" /><path d="M 106.72888874123014 80.10723608172694 l 19.536128024787892 -57.75509116282656 a81.9697535949368,81.9697535949368 0 0,0 1.3290584745699092,0.4623155284643206 l -20.52469227140282 57.41121720179365" fill="#ff800b" stroke="none" /><path d="M 107.40779381753099 80.34994680014964 l 21.384147486053187 -56.72399179631105 a81.62089581170207,81.62089581170207 0 0,0 1.3068194824771542,0.5055058495020713 l -22.354739231023867 56.348546058670934" fill="#ff0000" stroke="none" /><path d="M 108.4095320186766 80.7573450057729 l 24.33950079220057 -55.69354102414582 a81.77978126500412,81.77978126500412 0 0,0 1.2815538062719511,0.5732227168391102 l -25.291968001328154 55.267514556396854" fill="#ff3b05" stroke="none" /><path d="M 110.02825361518725 81.54914285379988 l 29.11917453124784 -53.576001376515876 a81.97798167271284,81.97798167271284 0 0,0 1.2306683412169248,0.682630983513442 l -30.034587060620865 53.068237477569284" fill="#ff820c" stroke="none" /><line stroke="#e1ed5e" stroke-width="0.3" x1="143.13028292997686" x2="145.6673583964461" y1="26.7553504044142" y2="22.446841604673864" /><path d="M 143.63769802327073 25.89364864446614 a86.0,86.0 0 0,1 29.32050498858742,28.57503671076993" fill="none" id="id26" stroke="none" /><text fill="#e1ed5e" style="font-size:6.75px; font-family:Arial;" text-anchor="middle"><textPath startOffset="20.669276256404974" xlink:href="#id26">February</textPath></text><path d="M 110.65571695917076 81.90426304109057 l 30.990680521944043 -52.628950736163304 a82.07559852185409,82.07559852185409 0 0,0 1.2079466185261032,0.7253372372995606 l -31.88955989702758 52.08919949832782" fill="#ffa40f" stroke="none" /><path d="M 111.8722381534696 82.67804972795209 l 34.50271618359638 -50.34049403803257 a82.02952370811192,82.02952370811192 0 0,0 1.154682375085536,0.8060579749621506 l -35.36179364985567 49.740791247265285" fill="#ff940d" stroke="none" /><path d="M 115.16444852881244 85.47280134310134 l 44.03552104210281 -42.18503303454886 a81.98117845348233,81.98117845348233 0 0,0 0.9648176189621323,1.0246028766157529 l -44.7531944948012 41.42288869798861" fill="#ff840c" stroke="none" /><path d="M 116.35404254752997 86.82634096563983 l 48.44757963834061 -39.025940732427955 a83.2108674016392,83.2108674016392 0 0,0 0.8865268749133646,1.1200977459049355 l -49.11037294389554 38.188523042608345" fill="#33ff57" stroke="none" /><path d="M 117.01052211995028 87.68569379921539 l 49.937882302960894 -36.151175687674936 a82.64981421306567,82.64981421306567 0 0,0 0.8221094427815847,1.1563998868584384 l -50.55110684427244 35.28859857410699" fill="#a5ff21" stroke="none" /><path d="M 117.42321728460499 88.27688183743584 l 52.269651853814985 -35.16935448769248 a84.0,84.0 0 0,0 0.7947022443171026,1.2032804866437652 l -52.86567853705281 34.26689412270966" fill="#4dd2ff" stroke="none" /><line stroke="#e1ed5e" stroke-width="0.3" x1="172.87174338648825" x2="177.1583165268699" y1="56.24261187166439" y2="53.66864786411523" /><path d="M 173.72905801456457 55.72781907015455 a86.0,86.0 0 0,1 12.242430191666344,42.057860355516425" fill="none" id="id27" stroke="none" /><text fill="#e1ed5e" style="font-size:6.75px; font-family:Arial;" text-anchor="middle"><textPath startOffset="22.145653131862474" xlink:href="#id27">March</textPath></text><line stroke="#e1ed5e" stroke-width="0.3" x1="184.99686870605535" x2="189.99668451229388" y1="99.2704041080226" y2="99.22748670261217" /><path d="M 185.99683186730306 99.26182062694052 a86.0,86.0 0 0,1 -10.086455211305974,41.156179273409016" fill="none" id="id28" stroke="none" /><text fill="#e1ed5e" style="font-size:6.75px; font-family:Arial;" text-anchor="middle"><textPath startOffset="21.40746469413373" xlink:href="#id28">April</textPath></text><line stroke="#e1ed5e" stroke-width="0.3" x1="174.33088141563837" x2="178.70328620479359" y1="141.23008692659167" y2="143.65538615756765" /><path d="M 175.20536237346943 141.71514677278685 a86.0,86.0 0 0,1 -30.301960400862466,31.631185727798858" fill="none" id="id29" stroke="none" /><text fill="#e1ed5e" style="font-size:6.75px; font-family:Arial;" text-anchor="middle"><textPath startOffset="22.145653131862474" xlink:href="#id29">May</textPath></text><line stroke="#e1ed5e" stroke-width="0.3" x1="143.1302829299769" x2="145.66735839644613" y1="173.24464959558577" y2="177.55315839532614" /><path d="M 143.63769802327073 174.10635135553383 a86.0,86.0 0 0,1 -40.68552437913181,11.842963189579606" fill="none" id="id30" stroke="none" /><text fill="#e1ed5e" style="font-size:6.75px; font-family:Arial;" text-anchor="middle"><textPath startOffset="21.407464694133747" xlink:href="#id30">June</textPath></text><line stroke="#e1ed5e" stroke-width="0.3" x1="101.45913802915013" x2="101.54496967792366" y1="184.9874750549273" y2="189.98673829345242" /><path d="M 101.47630435890484 185.9873277026323 a86.0,86.0 0 0,1 -42.54439059252881,-10.42667462771756" fill="none" id="id31" stroke="none" /><text fill="#e1ed5e" style="font-size:6.75px; font-family:Arial;" text-anchor="middle"><textPath startOffset="22.145653131862474" xlink:href="#id31">July</textPath></text><line stroke="#e1ed5e" stroke-width="0.3" x1="58.13341422392154" x2="55.67067388415222" y1="173.97424548756322" y2="178.32567169271397" /><path d="M 57.64086615596768 174.84453072859336 a86.0,86.0 0 0,1 -31.369924170532247,-30.572349798747897" fill="none" id="id32" stroke="none" /><text fill="#e1ed5e" style="font-size:6.75px; font-family:Arial;" text-anchor="middle"><textPath startOffset="22.145653131862474" xlink:href="#id32">August</textPath></text><line stroke="#e1ed5e" stroke-width="0.3" x1="26.387840678322732" x2="22.057713659400548" y1="142.50000000000003" y2="145.00000000000006" /><path d="M 25.521815274538298 143.00000000000003 a86.0,86.0 0 0,1 -11.493303480769221,-40.785679425670985" fill="none" id="id33" stroke="none" /><text fill="#e1ed5e" style="font-size:6.75px; font-family:Arial;" text-anchor="middle"><textPath startOffset="21.40746469413373" xlink:href="#id33">September</textPath></text><line stroke="#e1ed5e" stroke-width="0.3" x1="15.003131293944662" x2="10.003315487706104" y1="100.72959589197737" y2="100.7725132973878" /><path d="M 14.003168132696942 100.73817937305945 a86.0,86.0 0 0,1 10.791469493833604,-42.45332614584628" fill="none" id="id34" stroke="none" /><text fill="#e1ed5e" style="font-size:6.75px; font-family:Arial;" text-anchor="middle"><textPath startOffset="22.145653131862435" xlink:href="#id34">October</textPath></text><line stroke="#e1ed5e" stroke-width="0.3" x1="26.387840678322718" x2="22.05771365940052" y1="57.49999999999999" y2="54.99999999999999" /><path d="M 25.521815274538284 56.99999999999999 a86.0,86.0 0 0,1 29.574782752854787,-30.34633250058573" fill="none" id="id35" stroke="none" /><text fill="#e1ed5e" style="font-size:6.75px; font-family:Arial;" text-anchor="middle"><textPath startOffset="21.40746469413373" xlink:href="#id35">November</textPath></text><line stroke="#e1ed5e" stroke-width="0.3" x1="56.869717070023135" x2="54.33264160355391" y1="26.7553504044142" y2="22.446841604673864" /><path d="M 56.362301976729285 25.89364864446614 a86.0,86.0 0 0,1 42.16139366436587,-11.88097634709845" fill="none" id="id36" stroke="none" /><text fill="#e1ed5e" style="font-size:6.75px; font-family:Arial;" text-anchor="middle"><textPath startOffset="22.145653131862474" xlink:href="#id36">December</textPath></text></svg>