<?xml version="1.0" encoding="utf-8" ?>
<svg baseProfile="full" height="200mm" version="1.1" viewBox="0,0,200,200" width="200mm" xmlns="http://www.w3.org/2000/svg" xmlns:ev="http://www.w3.org/2001/xml-events" xmlns:xlink="http://www.w3.org/1999/xlink"><defs /><rect fill="#1a1a1a" height="200" width="200" x="0" y="0" /><text alignment-baseline="middle" fill="#e1ed5e" style="dominant-baseline: central; font-size:9.0px; font-family:Arial;" text-anchor="middle" x="100.0" y="100.0">2024</text><line stroke="#e1ed5e" stroke-width="0.3" x1="100.0" x2="100.0" y1="15.0" y2="10.0" /><path d="M 100.0 14.0 a86.0,86.0 0 0,1 42.35913384403234,11.155469271406648" fill="none" id="id25" stroke="none" /><text fill="#e1ed5e" style="font-size:6.75px; font-family:Arial;" text-anchor="middle"><textPath startOffset="22.145653131862478" xlink:href="#id25">January</textPath></text><path d="M 100.0 79.0 l 0.0 -53.3826078503636 a74.3826078503636,74.3826078503636 0 0,0 1.2768763743744267,0.01096044797283453 l -0.9163834495255719 53.3747418005852" fill="#ff4e07" stroke="none" /><path d="M 100.72087961077811 79.0123766808444 l 1.816819428998809 -52.89471535141949 a73.925908069161,73.925908069161 0 0,0 1.2679146528905982,0.05444971069609816 l -2.7245598424902435 52.85573307229757" fill="#ff2803" stroke="none" /><path d="M 101.80034050326958 79.07731436759882 l 4.572424373548067 -53.13850217330249 a74.33486174983385,74.33486174983385 0 0,0 1.2704197303680986,0.12031006931627243 l -5.483943667301179 53.05218034848103" fill="#ff4a06" stroke="none" /><path d="M 102.51750503828377 79.15144685158666 l 6.432166028228704 -53.26756183588978 a74.65450497167075,74.65450497167075 0 0,0 1.27098291538745,0.16455418436134112 l -7.345626765506945 53.149296055328044" fill="#ff6409" stroke="none" /><path d="M 103.23170211078529 79.25015418208739 l 8.155535440401943 -52.36438791375507 a73.99567793605314,73.99567793605314 0 0,0 1.2534251104139829,0.2062506249344273 l -9.053238053868995 52.216671290324975" fill="#ff2e04" stroke="none" /><path d="M 104.29559338865022 79.4440306129975 l 10.78027686793061 -51.587527317203765 a73.70187230120467,73.70187230120467 0 0,0 1.2362175900010244,0.26942786997039736 l -11.664256874550768 51.394867989099644" fill="#ff1502" stroke="none" /><path d="M 105.3480935250658 79.69241777938227 l 13.641190561955442 -51.79782246246642 a74.56394768686091,74.56394768686091 0 0,0 1.2349870392963247,0.3366012093036408 l -14.528359002186459 51.55602075901864" fill="#ff5d08" stroke="none" /><path d="M 106.04205211174951 79.88797359093562 l 15.256996819900685 -50.785580344159634 a74.02783347314458,74.02783347314458 0 0,0 1.2139132326045914,0.37607342248554293 l -16.126550685376905 50.51619033386744" fill="#ff3104" stroke="none" /><path d="M 106.72888874123014 80.10723608172694 l 16.90395955855289 -49.973552798088576 a73.75509291073743,73.75509291073743 0 0,0 1.1958658770661659,0.41598422906652305 l -17.759331207664076 49.67601013645346" fill="#ff1a02" stroke="none" /><path d="M 107.40779381753099 80.34994680014964 l 18.50298912045025 -49.08137692934363 a73.45323791408691,73.45323791408691 0 0,0 1.1760483807799147,0.45492077808235404 l -19.342809763723686 48.75651626312323" fill="#ff0000" stroke="none" /><path d="M 108.4095320186766 80.7573450057729 l 21.060157700885647 -48.189762267643054 a73.5907161940026,73.5907161940026 0 0,0 1.1532246844619656,0.5158227329340357 l -21.884295788203243 47.821135783799164" fill="#ff0c01" stroke="none" /><path d="M 110.02825361518725 81.54914285379988 l 25.19584986493254 -46.357525883762285 a73.76221239182367,73.76221239182367 0 0,0 1.1073317214755491,0.614218239626632 l -25.98792577456419 45.9181747287025" fill="#ff1a02" stroke="none" /><line stroke="#e1ed5e" stroke-width="0.3" x1="143.13028292997686" x2="145.6673583964461" y1="26.7553504044142" y2="22.446841604673864" /><path d="M 143.63769802327073 25.89364864446614 a86.0,86.0 0 0,1 29.32050498858742,28.57503671076993" fill="none" id="id26" stroke="none" /><text fill="#e1ed5e" style="font-size:6.75px; font-family:Arial;" text-anchor="middle"><textPath startOffset="20.669276256404974" xlink:href="#id26">February</textPath></text><path d="M 110.65571695917076 81.90426304109057 l 26.8152015368799 -45.53807457262687 a73.84667699340812,73.84667699340812 0 0,0 1.0868375664641041,0.652614731282031 l -27.59297185990144 45.071045840808914" fill="#ff2103" stroke="none" /><path d="M 111.8722381534696 82.67804972795209 l 29.854048780173972 -43.55794936933079 a73.80680999483108,73.80680999483108 0 0,0 1.038935968537029,0.7252579938723517 l -30.597379839884763 43.039046559653315" fill="#ff1e03" stroke="none" /><path d="M 115.16444852881244 85.47280134310134 l 38.102466665402225 -36.50130115278941 a73.76497845953045,73.76497845953045 0 0,0 0.8681230524211141,0.921916597795912 l -38.7234455515596 35.841843095049" fill="#ff1b02" stroke="none" /><path d="M 116.35404254752997 86.82634096563983 l 41.92007371558837 -33.76784401895865 a74.82898726531165,74.82898726531165 0 0,0 0.7972264958259753,1.0072696341412442 l -42.49356664205591 33.04325444090272" fill="#ff720a" stroke="none" /><path d="M 117.01052211995028 87.68569379921539 l 43.20958287220223 -31.28040577146209 a74.34352666647595,74.34352666647595 0 0,0 0.7394876306029559,1.040181961016186 l -43.74018560133515 30.5340465837364" fill="#ff4b06" stroke="none" /><path d="M 117.42321728460499 88.27688183743584 l 45.22718524138668 -30.43086865555177 a75.51179736525066,75.51179736525066 0 0,0 0.7143975576021783,1.0816889557262404 l -45.742907237909584 29.649999821486468" fill="#ffa70f" stroke="none" /><line stroke="#e1ed5e" stroke-width="0.3" x1="172.87174338648825" x2="177.1583165268699" y1="56.24261187166439" y2="53.66864786411523" /><path d="M 173.72905801456457 55.72781907015455 a86.0,86.0 0 0,1 12.242430191666344,42.057860355516425" fill="none" id="id27" stroke="none" /><text fill="#e1ed5e" style="font-size:6.75px; font-family:Arial;" text-anchor="middle"><textPath startOffset="22.145653131862474" xlink:href="#id27">March</textPath></text><path d="M 118.18653347947321 89.5 l 50.217230550138275 -28.99293157607984 a78.98586315215967,78.98586315215967 0 0,0 0.6678692348005278,1.1800609438984586 l -50.70753314996018 28.126613862082262" fill="#67ff28" stroke="none" /><path d="M 118.53625476483649 90.13048839642627 l 51.31179933728344 -27.32064299851203 a79.13190419280781,79.13190419280781 0 0,0 0.6281261864566101,1.204514784072663 l -51.773233592714995 26.43578197133487" fill="#5fff29" stroke="none" /><path d="M 118.8641267826498 90.77261029715802 l 56.59238034794944 -27.682169108525915 a84.0,84.0 0 0,0 0.6224829681603521,1.300749991739586 l -57.0592425740697 26.706606614721228" fill="#4dd2ff" stroke="none" /><line stroke="#e1ed5e" stroke-width="0.3" x1="184.99686870605535" x2="189.99668451229388" y1="99.2704041080226" y2="99.22748670261217" /><path d="M 185.99683186730306 99.26182062694052 a86.0,86.0 0 0,1 -10.086455211305974,41.156179273409016" fill="none" id="id28" stroke="none" /><text fill="#e1ed5e" style="font-size:6.75px; font-family:Arial;" text-anchor="middle"><textPath startOffset="21.40746469413373" xlink:href="#id28">April</textPath></text><line stroke="#e1ed5e" stroke-width="0.3" x1="174.33088141563837" x2="178.70328620479359" y1="141.23008692659167" y2="143.65538615756765" /><path d="M 175.20536237346943 141.71514677278685 a86.0,86.0 0 0,1 -30.301960400862466,31.631185727798858" fill="none" id="id29" stroke="none" /><text fill="#e1ed5e" style="font-size:6.75px; font-family:Arial;" text-anchor="middle"><textPath startOffset="22.145653131862474" xlink:href="#id29">May</textPath></text><line stroke="#e1ed5e" stroke-width="0.3" x1="143.1302829299769" x2="145.66735839644613" y1="173.24464959558577" y2="177.55315839532614" /><path d="M 143.63769802327073 174.10635135553383 a86.0,86.0 0 0,1 -40.68552437913181,11.842963189579606" fill="none" id="id30" stroke="none" /><text fill="#e1ed5e" style="font-size:6.75px; font-family:Arial;" text-anchor="middle"><textPath startOffset="21.407464694133747" xlink:href="#id30">June</textPath></text><line stroke="#e1ed5e" stroke-width="0.3" x1="101.45913802915013" x2="101.54496967792366" y1="184.9874750549273" y2="189.98673829345242" /><path d="M 101.47630435890484 185.9873277026323 a86.0,86.0 0 0,1 -42.54439059252881,-10.42667462771756" fill="none" id="id31" stroke="none" /><text fill="#e1ed5e" style="font-size:6.75px; font-family:Arial;" text-anchor="middle"><textPath startOffset="22.145653131862474" xlink:href="#id31">July</textPath></text><line stroke="#e1ed5e" stroke-width="0.3" x1="58.13341422392154" x2="55.67067388415222" y1="173.97424548756322" y2="178.32567169271397" /><path d="M 57.64086615596768 174.84453072859336 a86.0,86.0 0 0,1 -31.369924170532247,-30.572349798747897" fill="none" id="id32" stroke="none" /><text fill="#e1ed5e" style="font-size:6.75px; font-family:Arial;" text-anchor="middle"><textPath startOffset="22.145653131862474" xlink:href="#id32">August</textPath></text><line stroke="#e1ed5e" stroke-width="0.3" x1="26.387840678322732" x2="22.057713659400548" y1="142.50000000000003" y2="145.00000000000006" /><path d="M 25.521815274538298 143.00000000000003 a86.0,86.0 0 0,1 -11.493303480769221,-40.785679425670985" fill="none" id="id33" stroke="none" /><text fill="#e1ed5e" style="font-size:6.75px; font-family:Arial;" text-anchor="middle"><textPath startOffset="21.40746469413373" xlink:href="#id33">September</textPath></text><line stroke="#e1ed5e" stroke-width="0.3" x1="15.003131293944662" x2="10.003315487706104" y1="100.72959589197737" y2="100.7725132973878" /><path d="M 14.003168132696942 100.73817937305945 a86.0,86.0 0 0,1 10.791469493833604,-42.45332614584628" fill="none" id="id34" stroke="none" /><text fill="#e1ed5e" style="font-size:6.75px; font-family:Arial;" text-anchor="middle"><textPath startOffset="22.145653131862435" xlink:href="#id34">October</textPath></text><line stroke="#e1ed5e" stroke-width="0.3" x1="26.387840678322718" x2="22.05771365940052" y1="57.49999999999999" y2="54.99999999999999" /><path d="M 25.521815274538284 56.99999999999999 a86.0,86.0 0 0,1 29.574782752854787,-30.34633250058573" fill="none" id="id35" stroke="none" /><text fill="#e1ed5e" style="font-size:6.75px; font-family:Arial;" text-anchor="middle"><textPath startOffset="21.40746469413373" xlink:href="#id35">November</textPath></text><line stroke="#e1ed5e" stroke-width="0.3" x1="56.869717070023135" x2="54.33264160355391" y1="26.7553504044142" y2="22.446841604673864" /><path d="M 56.362301976729285 25.89364864446614 a86.0,86.0 0 0,1 42.16139366436587,-11.88097634709845" fill="none" id="id36" stroke="none" /><text fill="#e1ed5e" style="font-size:6.75px; font-family:Arial;" text-anchor="middle"><textPath startOffset="22.145653131862474" xlink:href="#id36">December</textPath></text></svg>