<?xml version="1.0" encoding="utf-8" ?>
<svg baseProfile="full" height="200mm" version="1.1" viewBox="0,0,200,200" width="200mm" xmlns="http://www.w3.org/2000/svg" xmlns:ev="http://www.w3.org/2001/xml-events" xmlns:xlink="http://www.w3.org/1999/xlink"><defs /><rect fill="#1a1a1a" height="200" width="200" x="0" y="0" /><text alignment-baseline="middle" fill="#e1ed5e" style="dominant-baseline: central; font-size:9.0px; font-family:Arial;" text-anchor="middle" x="100.0" y="100.0">2024</text><line stroke="#e1ed5e" stroke-width="0.3" x1="100.0" x2="100.0" y1="15.0" y2="10.0" /><path d="M 100.0 14.0 a86.0,86.0 0 0,1 42.35913384403234,11.155469271406648" fill="none" id="id25" stroke="none" /><text fill="#e1ed5e" style="font-size:6.75px; font-family:Arial;" text-anchor="middle"><textPath startOffset="22.145653131862478" xlink:href="#id25">January</textPath></text><path d="M 100.0 79.0 l 0.0 -62.68074407449299 a83.68074407449299,83.68074407449299 0 0,0 1.4364912469020215,0.012330549684432427 l -1.0759983220531668 62.67150792300299" fill="#3cffa1" stroke="none" /><path d="M 100.72087961077811 79.0123766808444 l 2.1332714575851353 -62.107870884260265 a83.1444967224588,83.1444967224588 0 0,0 1.4260240889160885,0.0612396101820646 l -3.19912130710206 62.062098705652375" fill="#c0ff1e" stroke="none" /><path d="M 101.80034050326958 79.07731436759882 l 5.368845275632001 -62.39412028282872 a83.6246815996838,83.6246815996838 0 0,0 1.4291873684721805,0.13534552971481995 l -6.439132207489194 62.29276299760872" fill="#39ff85" stroke="none" /><path d="M 102.51750503828377 79.15144685158666 l 7.552515114851315 -62.54565944524002 a84.0,84.0 0 0,0 1.430088712436833,0.1851536151984119 l -8.62508164917894 62.40679423384121" fill="#4dd2ff" stroke="none" /><path d="M 103.23170211078529 79.25015418208739 l 9.576059512926358 -61.48517147457417 a83.22641904410776,83.22641904410776 0 0,0 1.4097861711581665,0.23197977797752087 l -10.630123187137594 61.31172569810098" fill="#98ff23" stroke="none" /><path d="M 104.29559338865022 79.4440306129975 l 12.657976120331728 -60.5729979747241 a82.88143859921826,82.88143859921826 0 0,0 1.3901884590151552,0.3029851042400812 l -13.695926995966017 60.3467814123503" fill="#ffb110" stroke="none" /><path d="M 105.3480935250658 79.69241777938227 l 16.01720127428159 -60.819922145556404 a83.89366952605317,83.89366952605317 0 0,0 1.3895132669047463,0.37871801978592806 l -17.05889594212103 60.53600363162633" fill="#47feff" stroke="none" /><path d="M 106.04205211174951 79.88797359093562 l 17.91444726144144 -59.631368575133976 a83.26417540469353,83.26417540469353 0 0,0 1.3653713688964686,0.42299554026850433 l -18.935459263209538 59.31505644705882" fill="#86ff25" stroke="none" /><path d="M 106.72888874123014 80.10723608172694 l 19.848276538030103 -58.67790277707121 a82.94392912824902,82.94392912824902 0 0,0 1.344853767241708,0.4678099511842648 l -20.85263607731683 58.32853439331836" fill="#ffd413" stroke="none" /><path d="M 107.40779381753099 80.34994680014964 l 21.72582367881023 -57.630328491172776 a82.58949729071696,82.58949729071696 0 0,0 1.3223276102788017,0.5115047264882779 l -22.711923551582558 57.248883876546465" fill="#ff0000" stroke="none" /><path d="M 108.4095320186766 80.7573450057729 l 24.728397659363967 -56.58341316287378 a82.75092141790368,82.75092141790368 0 0,0 1.2967723399989979,0.580029773403284 l -25.696083402218598 56.15057963856065" fill="#ff6409" stroke="none" /><path d="M 110.02825361518725 81.54914285379988 l 29.584441088942203 -54.432039438608975 a82.95228867436113,82.95228867436113 0 0,0 1.2452948147783451,0.6907440418396947 l -30.51448009187665 53.91616248133613" fill="#ffd914" stroke="none" /><line stroke="#e1ed5e" stroke-width="0.3" x1="143.13028292997686" x2="145.6673583964461" y1="26.7553504044142" y2="22.446841604673864" /><path d="M 143.63769802327073 25.89364864446614 a86.0,86.0 0 0,1 29.32050498858742,28.57503671076993" fill="none" id="id26" stroke="none" /><text fill="#e1ed5e" style="font-size:6.75px; font-family:Arial;" text-anchor="middle"><textPath startOffset="20.669276256404974" xlink:href="#id26">February</textPath></text><path d="M 110.65571695917076 81.90426304109057 l 31.485850027232654 -53.46985681053723 a83.05146524681541,83.05146524681541 0 0,0 1.2223089251285375,0.733961389751736 l -32.399091708918625 52.92148142024957" fill="#f0ff19" stroke="none" /><path d="M 111.8722381534696 82.67804972795209 l 35.05400104136668 -51.144835120867015 a83.00465424908688,83.00465424908688 0 0,0 1.1684087262597542,0.8156400341239094 l -35.926804858800196 50.535550270937975" fill="#fff517" stroke="none" /><path d="M 115.16444852881244 85.47280134310134 l 44.73912118260648 -42.8590660530723 a82.95553653333624,82.95553653333624 0 0,0 0.9762846149282196,1.0367804289552645 l -45.46826163127096 42.084744164172534" fill="#ffda14" stroke="none" /><line stroke="#e1ed5e" stroke-width="0.3" x1="172.87174338648825" x2="177.1583165268699" y1="56.24261187166439" y2="53.66864786411523" /><path d="M 173.72905801456457 55.72781907015455 a86.0,86.0 0 0,1 12.242430191666344,42.057860355516425" fill="none" id="id27" stroke="none" /><text fill="#e1ed5e" style="font-size:6.75px; font-family:Arial;" text-anchor="middle"><textPath startOffset="22.145653131862474" xlink:href="#id27">March</textPath></text><line stroke="#e1ed5e" stroke-width="0.3" x1="184.99686870605535" x2="189.99668451229388" y1="99.2704041080226" y2="99.22748670261217" /><path d="M 185.99683186730306 99.26182062694052 a86.0,86.0 0 0,1 -10.086455211305974,41.156179273409016" fill="none" id="id28" stroke="none" /><text fill="#e1ed5e" style="font-size:6.75px; font-family:Arial;" text-anchor="middle"><textPath startOffset="21.40746469413373" xlink:href="#id28">April</textPath></text><line stroke="#e1ed5e" stroke-width="0.3" x1="174.33088141563837" x2="178.70328620479359" y1="141.23008692659167" y2="143.65538615756765" /><path d="M 175.20536237346943 141.71514677278685 a86.0,86.0 0 0,1 -30.301960400862466,31.631185727798858" fill="none" id="id29" stroke="none" /><text fill="#e1ed5e" style="font-size:6.75px; font-family:Arial;" text-anchor="middle"><textPath startOffset="22.145653131862474" xlink:href="#id29">May</textPath></text><line stroke="#e1ed5e" stroke-width="0.3" x1="143.1302829299769" x2="145.66735839644613" y1="173.24464959558577" y2="177.55315839532614" /><path d="M 143.63769802327073 174.10635135553383 a86.0,86.0 0 0,1 -40.68552437913181,11.842963189579606" fill="none" id="id30" stroke="none" /><text fill="#e1ed5e" style="font-size:6.75px; font-family:Arial;" text-anchor="middle"><textPath startOffset="21.407464694133747" xlink:href="#id30">June</textPath></text><line stroke="#e1ed5e" stroke-width="0.3" x1="101.45913802915013" x2="101.54496967792366" y1="184.9874750549273" y2="189.98673829345242" /><path d="M 101.47630435890484 185.9873277026323 a86.0,86.0 0 0,1 -42.54439059252881,-10.42667462771756" fill="none" id="id31" stroke="none" /><text fill="#e1ed5e" style="font-size:6.75px; font-family:Arial;" text-anchor="middle"><textPath startOffset="22.145653131862474" xlink:href="#id31">July</textPath></text><line stroke="#e1ed5e" stroke-width="0.3" x1="58.13341422392154" x2="55.67067388415222" y1="173.97424548756322" y2="178.32567169271397" /><path d="M 57.64086615596768 174.84453072859336 a86.0,86.0 0 0,1 -31.369924170532247,-30.572349798747897" fill="none" id="id32" stroke="none" /><text fill="#e1ed5e" style="font-size:6.75px; font-family:Arial;" text-anchor="middle"><textPath startOffset="22.145653131862474" xlink:href="#id32">August</textPath></text><line stroke="#e1ed5e" stroke-width="0.3" x1="26.387840678322732" x2="22.057713659400548" y1="142.50000000000003" y2="145.00000000000006" /><path d="M 25.521815274538298 143.00000000000003 a86.0,86.0 0 0,1 -11.493303480769221,-40.785679425670985" fill="none" id="id33" stroke="none" /><text fill="#e1ed5e" style="font-size:6.75px; font-family:Arial;" text-anchor="middle"><textPath startOffset="21.40746469413373" xlink:href="#id33">September</textPath></text><line stroke="#e1ed5e" stroke-width="0.3" x1="15.003131293944662" x2="10.003315487706104" y1="100.72959589197737" y2="100.7725132973878" /><path d="M 14.003168132696942 100.73817937305945 a86.0,86.0 0 0,1 10.791469493833604,-42.45332614584628" fill="none" id="id34" stroke="none" /><text fill="#e1ed5e" style="font-size:6.75px; font-family:Arial;" text-anchor="middle"><textPath startOffset="22.145653131862435" xlink:href="#id34">October</textPath></text><line stroke="#e1ed5e" stroke-width="0.3" x1="26.387840678322718" x2="22.05771365940052" y1="57.49999999999999" y2="54.99999999999999" /><path d="M 25.521815274538284 56.99999999999999 a86.0,86.0 0 0,1 29.574782752854787,-30.34633250058573" fill="none" id="id35" stroke="none" /><text fill="#e1ed5e" style="font-size:6.75px; font-family:Arial;" text-anchor="middle"><textPath startOffset="21.40746469413373" xlink:href="#id35">November</textPath></text><line stroke="#e1ed5e" stroke-width="0.3" x1="56.869717070023135" x2="54.33264160355391" y1="26.7553504044142" y2="22.446841604673864" /><path d="M 56.362301976729285 25.89364864446614 a86.0,86.0 0 0,1 42.16139366436587,-11.88097634709845" fill="none" id="id36" stroke="none" /><text fill="#e1ed5e" style="font-size:6.75px; font-family:Arial;" text-anchor="middle"><textPath startOffset="22.145653131862474" xlink:href="#id36">December</textPath></text></svg>